<?xml version="1.0" encoding="UTF-8"?><svg id="Object" xmlns="http://www.w3.org/2000/svg" xmlns:xlink="http://www.w3.org/1999/xlink" viewBox="0 0 4500 3000"><defs><linearGradient id="linear-gradient" x1="710.2141" y1="1281.1382" x2="1321.6104" y2="1892.5346" gradientUnits="userSpaceOnUse"><stop offset="0" stop-color="#ffc65b"/><stop offset="1" stop-color="#feaf38"/></linearGradient><linearGradient id="linear-gradient-2" x1="2617.0278" y1="1068.1266" x2="2617.0278" y2="393.9642" gradientUnits="userSpaceOnUse"><stop offset="0" stop-color="#17a4fe"/><stop offset="1" stop-color="#31bfff"/></linearGradient><linearGradient id="linear-gradient-3" x1="1504.5011" y1="193.9891" x2="1735.4947" y2="1077.9856" gradientUnits="userSpaceOnUse"><stop offset="0" stop-color="#fff"/><stop offset="1" stop-color="#c5ddff"/></linearGradient><linearGradient id="linear-gradient-4" x1="3866.1008" y1="76.8278" x2="3666.1571" y2="961.1758" xlink:href="#linear-gradient-3"/><linearGradient id="linear-gradient-5" x1="411.451" y1="1333.342" x2="2455.9359" y2="1720.5455" xlink:href="#linear-gradient-3"/><linearGradient id="linear-gradient-6" x1="1830.8887" y1="1827.287" x2="2283.747" y2="2393.0677" gradientUnits="userSpaceOnUse"><stop offset="0" stop-color="#9469d2"/><stop offset=".1377" stop-color="#8e64cd"/><stop offset=".575" stop-color="#825ac5"/><stop offset="1" stop-color="#7e57c2"/></linearGradient><linearGradient id="linear-gradient-7" x1="2415.917" y1="1421.332" x2="2415.917" y2="1034.4194" gradientUnits="userSpaceOnUse"><stop offset="0" stop-color="#e6f1ff"/><stop offset="1" stop-color="#c5ddff"/></linearGradient><linearGradient id="linear-gradient-8" x1="2783.7726" y1="1421.332" x2="2783.7726" y2="1034.4194" gradientUnits="userSpaceOnUse"><stop offset="0" stop-color="#c5ddff"/><stop offset="1" stop-color="#e6f1ff"/></linearGradient><linearGradient id="linear-gradient-9" x1="2174.1528" y1="1478.3308" x2="1930.3984" y2="2197.4357" gradientTransform="translate(5430.9965) rotate(-180) scale(1 -1)" gradientUnits="userSpaceOnUse"><stop offset="0" stop-color="#acdd68"/><stop offset="1" stop-color="#55af55"/></linearGradient><linearGradient id="linear-gradient-10" x1="2137.5387" y1="1606.0464" x2="1927.8618" y2="2224.6187" gradientTransform="translate(5430.9965) rotate(-180) scale(1 -1)" gradientUnits="userSpaceOnUse"><stop offset="0" stop-color="#fff"/><stop offset=".3444" stop-color="#eef5ff"/><stop offset="1" stop-color="#c5ddff"/></linearGradient><linearGradient id="linear-gradient-11" x1="2911.8873" y1="1429.0472" x2="3199.2452" y2="1615.3653" gradientTransform="translate(2242.7237 -1275.7185) rotate(43.6993)" xlink:href="#linear-gradient-9"/></defs><path d="m2992.0658,806.3867c-6.3721,0-12.0693-4.4878-13.3633-10.9746-1.4736-7.3867,3.3184-14.5688,10.7051-16.0435.4746-.0947,11.8584-2.3555,32.0703-5.3364,7.457-1.0928,14.3848,4.0518,15.4844,11.5039,1.0986,7.4526-4.0518,14.3853-11.5039,15.4844-19.4492,2.8682-30.6025,5.0786-30.7129,5.1006-.8994.1792-1.7969.2656-2.6797.2656Z" style="fill:#9ec0e8; stroke-width:0px;"/><path d="m1742.1517,2470.125c-20.0708,0-40.5283-.3555-60.8154-1.0557-7.5283-.2598-13.4204-6.5742-13.1606-14.1025.2598-7.5293,6.5806-13.4678,14.1025-13.1611,19.9746.6904,40.1152,1.04,59.8628,1.04l3.8057-.0049h.0317c7.5186,0,13.6221,6.0859,13.6392,13.6084.0176,7.5332-6.0752,13.6533-13.6084,13.6709l-3.8574.0049Zm67.9766-1.3643c-7.2793,0-13.3223-5.749-13.6191-13.0889-.3042-7.5273,5.5513-13.875,13.0781-14.1797,21.1782-.8555,42.5503-2.1377,63.5215-3.8105,7.5093-.5996,14.082,5.0029,14.6812,12.5117.5991,7.5098-5.0029,14.083-12.5122,14.6816-21.3252,1.7012-43.0557,3.0049-64.5889,3.875-.1875.0078-.3745.0107-.5605.0107Zm-192.3994-3.0381c-.3198,0-.6416-.0117-.9653-.0342-21.23-1.4844-42.8945-3.3682-64.3906-5.5986-7.4932-.7783-12.9365-7.4824-12.1587-14.9756.7778-7.4922,7.4858-12.9414,14.9751-12.1592,21.1934,2.2002,42.5503,4.0576,63.4766,5.5205,7.5146.5254,13.1812,7.043,12.6558,14.5576-.5029,7.1914-6.4932,12.6895-13.5928,12.6895Zm320.3013-7.1797c-6.8062,0-12.6929-5.0869-13.5254-12.0137-.8989-7.4795,4.4355-14.2715,11.915-15.1699,20.98-2.5225,42.1777-5.5039,63.0034-8.8623,7.4385-1.1895,14.439,3.8574,15.6377,11.2939,1.1992,7.4375-3.8569,14.4385-11.2939,15.6377-21.186,3.417-42.7495,6.4502-64.0918,9.0146-.5527.0664-1.1021.0996-1.645.0996Zm-447.9453-6.0293c-.6133,0-1.2329-.041-1.8574-.127-6.9785-.9492-14.0322-1.9463-20.9644-2.9619-14.6372-2.1445-29.2183-4.7939-43.3359-7.875-7.3604-1.6064-12.0244-8.875-10.418-16.2344,1.606-7.3604,8.8765-12.0205,16.2349-10.418,13.5034,2.9473,27.457,5.4824,41.4731,7.5352,6.8423,1.0029,13.8032,1.9863,20.6899,2.9238,7.4644,1.0166,12.6919,7.8916,11.6758,15.3555-.9316,6.8398-6.7827,11.8018-13.498,11.8018Zm574.6348-14.3955c-6.355,0-12.0425-4.4648-13.3535-10.9336-1.4961-7.3828,3.2764-14.5811,10.6592-16.0771,20.5991-4.1738,41.4976-8.8389,62.1152-13.8643,7.3169-1.7881,14.6978,2.7031,16.4819,10.0215,1.7842,7.3193-2.7026,14.6982-10.0215,16.4824-20.9619,5.1094-42.2119,9.8525-63.1577,14.0967-.9141.1855-1.8257.2744-2.7236.2744Zm-699.6445-13.3457c-1.4517,0-2.9277-.2334-4.3789-.7256-20.8652-7.0703-41.3472-15.3975-60.877-24.75-6.7944-3.2539-9.6646-11.3994-6.4106-18.1934,3.2529-6.7939,11.3979-9.666,18.1929-6.4102,18.5503,8.8828,38.0137,16.7949,57.8496,23.5176,7.1348,2.417,10.9585,10.1611,8.541,17.2959-1.9263,5.6826-7.2319,9.2656-12.917,9.2656Zm824.3442-17.0088c-5.9448,0-11.4106-3.917-13.1147-9.9189-2.0571-7.2471,2.1499-14.7891,9.397-16.8457,20.0566-5.6934,40.5679-11.9121,60.9648-18.4834,7.1699-2.3115,14.8555,1.6299,17.165,8.7998,2.3105,7.1699-1.6299,14.8555-8.7998,17.165-20.6987,6.6689-41.5186,12.9814-61.8809,18.7617-1.2446.3525-2.4985.5215-3.7314.5215Zm-939.6992-38.3271c-2.5234,0-5.0747-.6992-7.3555-2.1631-18.3335-11.7686-36.1826-24.8555-53.0522-38.8994-5.7896-4.8184-6.5757-13.4199-1.7568-19.209,4.8203-5.79,13.4204-6.5781,19.21-1.7559,16.0093,13.3262,32.9443,25.7441,50.3354,36.9072,6.3394,4.0693,8.1797,12.5068,4.1104,18.8467-2.605,4.0586-7.002,6.2734-11.4912,6.2734Zm1061.8965-.9619c-5.6016,0-10.8516-3.4756-12.8447-9.0518-2.5361-7.0938,1.1582-14.8994,8.252-17.4355,19.3301-6.9102,39.4434-14.4229,59.7812-22.3281,7.0195-2.7344,14.9258.751,17.6543,7.7715,2.7295,7.0215-.75,14.9258-7.7705,17.6543-20.5693,7.9961-40.918,15.5957-60.4814,22.5898-1.5176.542-3.0674.7998-4.5908.7998Zm119.6934-46.4004c-5.3525,0-10.4307-3.1709-12.6064-8.4238-2.8828-6.96.4219-14.9385,7.3818-17.8213,18.2998-7.5801,37.5693-15.749,58.9092-24.9736,6.918-2.9863,14.9424.1943,17.9326,7.1084,2.9883,6.915-.1934,14.9434-7.1084,17.9326-21.4688,9.2803-40.8643,17.502-59.2939,25.1357-1.707.707-3.4756,1.042-5.2148,1.042Zm-1279.9956-34.4336c-3.6167,0-7.2261-1.4287-9.9087-4.2627-14.7847-15.6201-29.0415-32.4785-42.3745-50.1064-4.5444-6.0088-3.3574-14.5635,2.6514-19.1074,6.0078-4.5449,14.5615-3.3574,19.1064,2.6514,12.7295,16.8301,26.332,32.916,40.4292,47.8086,5.1782,5.4717,4.9409,14.1045-.5298,19.2832-2.6367,2.4951-6.0088,3.7334-9.374,3.7334Zm1397.9136-16.3496c-5.2412,0-10.2393-3.0381-12.4893-8.1416-3.0381-6.8936.0869-14.9443,6.9795-17.9834l16.2021-7.1465c14.3535-6.334,28.5391-12.5938,42.5781-18.7412,6.8975-3.0205,14.9443.123,17.9658,7.0244,3.0215,6.9004-.123,14.9434-7.0234,17.9648-14.0156,6.1377-28.1777,12.3867-42.5078,18.71l-16.2109,7.1514c-1.7891.7881-3.6572,1.1621-5.4941,1.1621Zm117.7207-51.2266c-5.3701,0-10.4619-3.1924-12.625-8.4688-2.8574-6.9697.4756-14.9365,7.4453-17.7949,19.666-8.0645,40.3066-15.541,61.3496-22.2227,7.1787-2.2832,14.8486,1.6934,17.1279,8.8721,2.2803,7.1797-1.6914,14.8477-8.8721,17.1279-20.3369,6.458-40.2744,13.6797-59.2559,21.4629-1.6934.6943-3.4463,1.0234-5.1699,1.0234Zm-1593.0513-34.4561c-4.603,0-9.0952-2.3301-11.6636-6.5488-11.0923-18.2217-21.6548-37.5234-31.3955-57.3701-3.3188-6.7627-.5269-14.9355,6.2358-18.2549s14.9351-.5273,18.2539,6.2354c9.3789,19.1113,19.542,37.6846,30.2075,55.2041,3.917,6.4346,1.8765,14.8262-4.5581,18.7432-2.2158,1.3486-4.6631,1.9912-7.0801,1.9912Zm1715.1538-4.5713c-6.1562,0-11.7412-4.1953-13.249-10.4443-1.7666-7.3232,2.7383-14.6914,10.0615-16.458,20.167-4.8652,41.5537-9.3496,63.5645-13.3291,7.418-1.3398,14.5088,3.583,15.8496,10.9951,1.3398,7.4121-3.583,14.5088-10.9961,15.8486-21.4951,3.8867-42.3623,8.2627-62.0215,13.0049-1.0742.2588-2.1504.3828-3.209.3828Zm126.1934-23.1162c-6.7197,0-12.5713-4.9658-13.499-11.8105-1.0117-7.4648,4.2207-14.3359,11.6855-15.3477,19.9199-2.6982,40.9072-5.1934,64.1611-7.626,7.4902-.7969,14.2012,4.6543,14.9844,12.1455.7842,7.4922-4.6543,14.2021-12.1465,14.9854-22.9746,2.4043-43.6924,4.8662-63.3369,7.5283-.6211.084-1.2383.125-1.8486.125Zm127.667-13.6533c-6.9951,0-12.9492-5.3496-13.5723-12.4482-.6582-7.5039,4.8916-14.1211,12.3955-14.7803,15.5898-1.3682,31.4326-2.7002,46.7529-3.9893l17.2627-1.4541c7.5117-.6465,14.1064,4.9336,14.7422,12.4404.6348,7.5068-4.9355,14.1064-12.4414,14.7422l-17.2764,1.4551c-15.2969,1.2871-31.1152,2.6172-46.6553,3.9814-.4053.0352-.8086.0527-1.208.0527Zm127.9209-11.1133c-6.9512,0-12.8906-5.2881-13.5625-12.3486-.7129-7.499,4.7881-14.1572,12.2871-14.8701,23.4648-2.2334,44.2373-4.4385,63.5039-6.7432,7.4707-.9014,14.2676,4.4434,15.1631,11.9229s-4.4434,14.2686-11.9229,15.1631c-19.4873,2.332-40.4736,4.5605-64.1602,6.8135-.4395.042-.876.0625-1.3086.0625Zm127.4131-15.543c-6.5918,0-12.3896-4.7881-13.4551-11.5049-1.1797-7.4404,3.8945-14.4277,11.335-15.6084,22.0488-3.4971,42.4609-7.2607,62.4043-11.5059,7.3711-1.5713,14.6133,3.1328,16.1807,10.501,1.5684,7.3682-3.1328,14.6123-10.501,16.1807-20.4141,4.3457-41.2871,8.1953-63.8105,11.7676-.7236.1143-1.4434.1699-2.1533.1699Zm125.415-26.9961c-5.9482,0-11.416-3.9209-13.1172-9.9277-2.0518-7.248,2.1602-14.7871,9.4082-16.8398,20.6436-5.8457,40.8291-12.4082,59.9961-19.5059,7.0654-2.6143,14.9111.9902,17.5273,8.0547,2.6162,7.0635-.9902,14.9111-8.0547,17.5273-19.835,7.3457-40.707,14.1318-62.0371,20.1719-1.2412.3516-2.4932.5195-3.7227.5195Zm-2406.4385-20.0264c-5.4414,0-10.5825-3.2783-12.6958-8.6484-7.7876-19.7881-15.0562-40.4795-21.603-61.498-2.2407-7.1924,1.7734-14.8389,8.9658-17.0791,7.1938-2.2422,14.8394,1.7744,17.0796,8.9658,6.3506,20.3877,13.3965,40.4473,20.9424,59.6211,2.7588,7.0098-.6875,14.9287-7.6973,17.6875-1.6401.6455-3.3296.9512-4.9917.9512Zm2526.6035-24.6934c-5.0957,0-9.9834-2.8672-12.3213-7.7734-3.2432-6.7998-.3584-14.9395,6.4414-18.1826,18.0801-8.6201,36.3643-18.9141,54.3428-30.5947,6.3164-4.1055,14.7666-2.3105,18.8691,4.0059,4.1045,6.3174,2.3105,14.7656-4.0068,18.8701-18.9766,12.3291-38.3105,23.2109-57.4648,32.3438-1.8936.9023-3.8936,1.3311-5.8604,1.3311Zm107.665-69.4092c-3.9492,0-7.8672-1.707-10.5635-5.0029-4.7715-5.8291-3.9121-14.4229,1.917-19.1934,15.835-12.957,31.5381-27.1367,46.6748-42.1455,5.3496-5.3027,13.9863-5.2656,19.2891.083,5.3047,5.3496,5.2676,13.9854-.082,19.29-15.75,15.6152-32.1025,30.3799-48.6045,43.8838-2.5352,2.0742-5.5928,3.085-8.6309,3.085Zm-2672.584-28.3574c-6.1602,0-11.7471-4.2002-13.2505-10.4531-4.9741-20.6836-9.4375-42.0986-13.2671-63.6504-1.3174-7.417,3.6265-14.4971,11.0435-15.8154,7.4209-1.3174,14.4976,3.627,15.8159,11.0439,3.7339,21.0156,8.0845,41.8896,12.9312,62.043,1.7617,7.3242-2.748,14.6895-10.0723,16.4512-1.0718.2578-2.145.3809-3.2007.3809Zm2763.7773-61.7988c-3.1191,0-6.2539-1.0645-8.8184-3.2402-5.7441-4.874-6.4492-13.4814-1.5752-19.2256,13.4346-15.832,26.5029-32.5625,38.8418-49.7275,4.3965-6.1152,12.9199-7.5117,19.0361-3.1133,6.1172,4.3965,7.5117,12.9199,3.1143,19.0371-12.7637,17.7549-26.2861,35.0664-40.1914,51.4541-2.6982,3.1797-6.54,4.8154-10.4072,4.8154Zm-2786.3296-64.5547c-6.8027,0-12.688-5.082-13.5244-12.0059-2.5596-21.1885-4.6084-42.9346-6.0894-64.6348-.5127-7.5156,5.1641-14.0244,12.6797-14.5371,7.5078-.5107,14.0244,5.1641,14.5371,12.6797,1.4487,21.2295,3.4521,42.5,5.9556,63.2207.9033,7.4785-4.4268,14.2734-11.9058,15.1768-.5552.0674-1.1074.1006-1.6528.1006Zm2861.2612-39.5752c-2.4141,0-4.8564-.6396-7.0703-1.9844-6.4375-3.9121-8.4854-12.3018-4.5742-18.7402,10.8838-17.9121,21.2148-36.4785,30.707-55.1846,3.4072-6.7188,11.6162-9.4014,18.335-5.9912,6.7178,3.4082,9.4004,11.6172,5.9912,18.335-9.8047,19.3232-20.4766,38.5029-31.7188,57.0068-2.5674,4.2246-7.0635,6.5586-11.6699,6.5586Zm-2870.0449-88.5127c-7.4155,0-13.4937-5.9404-13.6323-13.3867-.1528-8.2471-.2305-16.6289-.2305-24.9131,0-13.2256.1978-26.666.5884-39.9463.2217-7.5293,6.4956-13.4316,14.0356-13.2324,7.5298.2217,13.4541,6.5049,13.2329,14.0352-.3833,13.0137-.5776,26.1836-.5776,39.1436,0,8.1162.0762,16.3281.2261,24.4072.1401,7.5312-5.8521,13.751-13.3843,13.8906-.0859.001-.1729.002-.2583.002Zm2928.0918-25.8975c-1.7383,0-3.5049-.334-5.2109-1.041-6.96-2.8809-10.2676-10.8584-7.3857-17.8193,8.0664-19.4893,15.4111-39.4209,21.8301-59.2441,2.3203-7.167,10.0117-11.0957,17.1787-8.7744,7.167,2.3203,11.0947,10.0117,8.7744,17.1787-6.6396,20.5059-14.2363,41.1211-22.5781,61.2734-2.1748,5.2539-7.2549,8.4268-12.6084,8.4268Zm-2924.3057-102.4277c-.3521,0-.7056-.0137-1.062-.041-7.5112-.5791-13.1309-7.1367-12.5523-14.6475,1.6597-21.5479,3.8545-43.2637,6.5239-64.5415.9375-7.4741,7.7661-12.769,15.231-11.8359,7.4746.9375,12.7739,7.7568,11.8369,15.231-2.6157,20.8486-4.7661,42.126-6.3926,63.2422-.5513,7.1543-6.5278,12.5928-13.585,12.5928Zm2963.7871-19.6729c-1.0322,0-2.0801-.1172-3.1289-.3633-7.334-1.7217-11.8828-9.0625-10.1621-16.3955,4.8252-20.5557,8.7754-41.3823,11.7412-61.9014,1.0781-7.4556,8.0029-12.6245,15.4512-11.5479,7.4561,1.0776,12.626,7.9956,11.5488,15.4512-3.0791,21.2983-7.1787,42.9092-12.1826,64.2314-1.4756,6.2852-7.0791,10.5254-13.2676,10.5254Zm-2947.7744-107.6978c-.7856,0-1.5815-.0679-2.3823-.209-7.4189-1.3066-12.3735-8.3804-11.0669-15.7993,3.7861-21.4941,8.1353-42.897,12.9263-63.6152,1.6968-7.3398,9.0239-11.9126,16.3623-10.2163,7.3394,1.6973,11.9131,9.0225,10.2163,16.3623-4.6836,20.252-8.9355,41.1797-12.6387,62.2017-1.166,6.6187-6.9214,11.2759-13.417,11.2759Zm2966.0205-19.2432c-.2383,0-.4756-.0059-.7158-.0181-7.5234-.3896-13.3066-6.8032-12.918-14.3262.584-11.2861.8799-22.686.8799-33.8833-.001-9.6641-.2217-19.4155-.6562-28.9834-.3418-7.5254,5.4824-13.9033,13.0078-14.2446,7.4941-.3467,13.9023,5.4819,14.2441,13.0078.4531,9.9766.6826,20.144.6836,30.2188,0,11.666-.3076,23.54-.915,35.293-.377,7.2832-6.4014,12.936-13.6104,12.936Zm-2937.002-105.7656c-1.2725,0-2.5659-.1792-3.8486-.5562-7.2285-2.1226-11.3672-9.7021-9.2446-16.9302,1.9951-6.7944,4.0742-13.6157,6.1807-20.2739,4.4258-13.9922,9.2661-28.001,14.3862-41.6377,2.6484-7.0527,10.5142-10.624,17.564-7.9751,7.0527,2.6479,10.623,10.5117,7.9751,17.5645-4.9521,13.189-9.6343,26.7393-13.9155,40.2754-2.0493,6.4795-4.0732,13.1187-6.0156,19.7324-1.7456,5.9453-7.1841,9.8008-13.0815,9.8008Zm2931.0537-22.2964c-6.6484,0-12.4697-4.8672-13.4746-11.6406-3.0723-20.7139-7.2588-41.3994-12.4434-61.4814-1.8828-7.2944,2.5039-14.7334,9.7979-16.6167,7.2939-1.8818,14.7324,2.5034,16.6162,9.7974,5.4229,21.0068,9.8018,42.6396,13.0137,64.2988,1.1055,7.4512-4.04,14.3882-11.4912,15.4932-.6777.1006-1.3525.1494-2.0186.1494Zm-2885.8818-97.7886c-1.9438,0-3.9185-.4175-5.7944-1.2993-6.8169-3.2051-9.7451-11.3301-6.5396-18.1475,9.2598-19.6953,19.4146-39.1738,30.1826-57.8936,3.7563-6.5298,12.0947-8.7783,18.624-5.0229,6.5303,3.7563,8.7788,12.0942,5.0229,18.6245-10.3955,18.0728-20.2002,36.8799-29.1426,55.8989-2.3232,4.9419-7.2314,7.8398-12.353,7.8398Zm2853.8291-26.2759c-5.5166,0-10.71-3.3711-12.7676-8.8394-7.3193-19.4492-15.7969-38.7695-25.1982-57.4238-3.3906-6.7275-.6846-14.9292,6.043-18.3193,6.7246-3.3906,14.9277-.6846,18.3184,6.0425,9.8369,19.5195,18.708,39.7373,26.3682,60.0923,2.6533,7.0508-.9111,14.9165-7.9619,17.5703-1.5811.5952-3.2051.8774-4.8018.8774Zm-2789.8735-84.8452c-2.6812,0-5.3892-.7886-7.7593-2.4316-6.1909-4.292-7.73-12.79-3.438-18.981,12.3784-17.8545,25.6572-35.3643,39.4678-52.0435,4.8052-5.8037,13.4028-6.6118,19.2046-1.8071,5.8022,4.8042,6.6118,13.4028,1.8071,19.2046-13.3174,16.084-26.1226,32.9697-38.0605,50.189-2.6489,3.8203-6.8999,5.8696-11.2217,5.8696Zm2732.2554-29.6167c-4.4717,0-8.8525-2.1968-11.4629-6.2305-11.2979-17.4536-23.8135-34.2803-37.2002-50.0127-4.8818-5.7373-4.1895-14.3457,1.5479-19.2275,5.7373-4.8813,14.3447-4.189,19.2275,1.5488,14.1543,16.6333,27.3857,34.4214,39.3252,52.8687,4.0938,6.3242,2.2852,14.769-4.0391,18.8623-2.29,1.4824-4.8594,2.1909-7.3984,2.1909Zm-2650.4863-69.1104c-3.4546,0-6.9106-1.3037-9.5674-3.9185-5.3687-5.2837-5.4375-13.9199-.1533-19.2886,15.1938-15.4385,31.2671-30.4277,47.772-44.5518,5.7231-4.8979,14.334-4.229,19.2314,1.4951,4.8979,5.7231,4.2285,14.3335-1.4951,19.2314-15.916,13.6206-31.415,28.0742-46.0654,42.9604-2.6699,2.7124-6.1953,4.0718-9.7222,4.0718Zm2567.5596-28.3438c-3.2646,0-6.5391-1.1646-9.1504-3.5283-15.2021-13.7632-31.6279-26.8613-48.8203-38.9312-6.166-4.3281-7.6553-12.835-3.3262-19.0005,4.3271-6.165,12.8359-7.6553,19-3.3267,18.1104,12.7134,35.4219,26.5195,51.4551,41.0347,5.585,5.0562,6.0127,13.6816.957,19.2661-2.6914,2.9736-6.3975,4.4858-10.1152,4.4858Zm-2470.1611-55.02c-4.2412,0-8.4209-1.9722-11.0859-5.6787-4.3975-6.1162-3.0039-14.6392,3.1123-19.0371,17.52-12.5967,35.8696-24.6675,54.5381-35.8774,6.4585-3.8774,14.8374-1.7876,18.7158,4.6719,3.8779,6.458,1.7861,14.8369-4.6724,18.7153-18.0269,10.8247-35.7437,22.4795-52.6567,34.6396-2.4097,1.7324-5.1938,2.5664-7.9512,2.5664Zm2365.5215-18.7061c-2.2051,0-4.4404-.5356-6.5137-1.6646-17.9248-9.7646-36.9639-18.8945-56.5869-27.1357-6.9453-2.9165-10.2119-10.9111-7.2949-17.8569,2.916-6.9458,10.9102-10.2134,17.8574-7.2949,20.4688,8.5962,40.3447,18.1284,59.0752,28.3315,6.6152,3.6035,9.0557,11.8877,5.4521,18.5034-2.4746,4.5425-7.1572,7.1172-11.9893,7.1172Zm-2255.6401-47.3389c-5.0176,0-9.8452-2.7788-12.2275-7.5776-3.3496-6.7476-.5952-14.9326,6.1519-18.2822,19.25-9.5566,39.2617-18.5449,59.48-26.7139,6.9834-2.8252,14.9341.5518,17.7563,7.5366,2.8223,6.9844-.5518,14.9341-7.5366,17.7563-19.5732,7.9087-38.9424,16.6074-57.5693,25.855-1.9482.9673-4.0176,1.4258-6.0547,1.4258Zm2137.603-2.5171c-1.3721,0-2.7676-.2085-4.1455-.6475-19.5127-6.2178-39.9805-11.8506-60.835-16.7422-7.333-1.7197-11.8848-9.0601-10.1641-16.394,1.7207-7.3335,9.0488-11.8872,16.3945-10.1646,21.541,5.0527,42.7002,10.876,62.8877,17.3086,7.1768,2.2871,11.1416,9.96,8.8545,17.1372-1.8477,5.8003-7.2139,9.5024-12.9922,9.5024Zm-124.834-29.4922c-.7305,0-1.4697-.0591-2.2139-.1807-20.3545-3.3228-41.499-6.1055-62.8447-8.271-7.4941-.7603-12.9541-7.4521-12.1934-14.9468s7.4512-12.9521,14.9473-12.1938c21.8926,2.2212,43.5889,5.0767,64.4863,8.4883,7.4346,1.2139,12.4775,8.2251,11.2637,15.6597-1.0928,6.6904-6.8799,11.4443-13.4453,11.4443Zm-320.1523-8.1382c-6.9482,0-12.8877-5.2852-13.5625-12.3428-.7168-7.499,4.7812-14.1592,12.2803-14.8765,21.3379-2.0405,43.0889-3.6167,64.6504-4.6855,7.5068-.3613,13.9258,5.4248,14.2979,12.9482.373,7.5239-5.4238,13.9253-12.9482,14.2983-21.1465,1.0483-42.4785,2.5942-63.4043,4.5952-.4404.042-.8799.063-1.3135.063Zm192.4316-4.9556c-.2148,0-.4307-.0049-.6475-.0151-19.5088-.9111-39.5537-1.3735-59.5801-1.3735-1.3223,0-2.6416.0024-3.9561.0063h-.04c-7.5156,0-13.6172-6.0806-13.6396-13.6001-.0225-7.5332,6.0664-13.6577,13.5996-13.6802,1.3418-.0039,2.6865-.0059,4.0361-.0059,20.4482,0,40.9229.4722,60.8535,1.4033,7.5244.3516,13.3398,6.7363,12.9883,14.2617-.3418,7.3081-6.374,13.0034-13.6143,13.0034Zm-1766.2065-3.0034c-5.7671,0-11.1245-3.6865-12.9829-9.4722-2.3042-7.1724,1.6431-14.854,8.8154-17.1577,20.3838-6.5479,41.46-12.5127,62.6426-17.7295,7.3135-1.7988,14.7041,2.6675,16.5059,9.9824,1.8013,7.3145-2.668,14.7046-9.9824,16.5059-20.5728,5.0669-41.0371,10.8584-60.8237,17.2139-1.3867.4453-2.7925.6572-4.1748.6572Zm571.3911-24.3208c-.7959,0-1.6025-.0698-2.4131-.2144-21.0181-3.7524-42.1602-7.0903-62.8384-9.9224-7.4634-1.022-12.6855-7.9009-11.6631-15.3643s7.9004-12.6826,15.3643-11.6631c21.0425,2.8818,42.5518,6.2778,63.9312,10.0942,7.416,1.3237,12.3545,8.4087,11.0308,15.8247-1.1792,6.6055-6.9287,11.2451-13.4116,11.2451Zm-446.8994-6.4326c-6.4858,0-12.2363-4.6436-13.4126-11.252-1.3203-7.4165,3.6216-14.499,11.0381-15.8193,21.0142-3.7412,42.6528-6.9053,64.3149-9.4043,7.4907-.8608,14.2495,4.5034,15.1128,11.9863.8638,7.4839-4.5029,14.25-11.9863,15.1138-21.1104,2.4351-42.1924,5.5181-62.6602,9.1616-.8086.144-1.6133.2139-2.4067.2139Zm319.7646-10.9155c-.4229,0-.8481-.0195-1.2773-.0591-21.2437-1.9731-42.5688-3.459-63.3838-4.4175-7.5249-.3467-13.3442-6.7275-12.998-14.2529.3462-7.5244,6.7192-13.3403,14.2529-12.998,21.2358.978,42.9878,2.4937,64.6514,4.5054,7.501.6968,13.0171,7.3423,12.3198,14.8428-.6562,7.0713-6.6016,12.3794-13.5649,12.3794Zm-192.3457-3.8745c-7.1748,0-13.187-5.6021-13.6055-12.856-.4331-7.5205,5.313-13.9683,12.8335-14.4014,21.2642-1.2246,43.0908-1.8896,64.8735-1.9766h.0557c7.5078,0,13.6084,6.0713,13.6382,13.5859.0303,7.5332-6.0522,13.6641-13.5854,13.6938-21.2979.0845-42.6333.7349-63.4131,1.9312-.2671.0156-.5332.0229-.7969.0229Z" style="fill:#9ec0e8; stroke-width:0px;"/><path d="m2180.0116,781.0518c-1.0435,0-2.103-.1206-3.1626-.3721-10.2661-2.438-20.626-4.8013-30.7925-7.0244-7.3589-1.6094-12.02-8.8799-10.4111-16.2393,1.6089-7.3589,8.8779-12.0195,16.2393-10.4111,10.3242,2.2578,20.8438,4.6577,31.2671,7.1328,7.3296,1.7407,11.8599,9.0933,10.1196,16.4224-1.4893,6.2695-7.085,10.4917-13.2598,10.4917Z" style="fill:#9ec0e8; stroke-width:0px;"/><path d="m1243.3949,1439.4791c-32.5466-32.5466-41.7254-79.6193-27.5221-120.3481-40.1675-24.5608-83.3806-42.1464-127.9409-52.7707-18.7785,38.7359-58.4969,65.4581-104.4467,65.4581-45.7954.014-85.4016-26.5397-104.2503-65.0932-11.3696,2.7627-22.6496,5.9835-33.8148,9.6512l-22.3451-27.9878-71.6688,71.6688c13.7681,40.5183,4.4911,87.1278-27.8028,119.4218-3.8514,3.8514-7.9111,7.3661-12.1348,10.5627l-35.0569-54.2322-71.6688,71.6688c-24.5468,40.2658-42.1043,83.5911-52.6584,128.2498,37.8798,19.0732,63.8581,58.3285,63.8582,103.6326,0,18.915-4.5388,36.763-12.5662,52.5372l-50.9131,50.9131c10.7365,44.6446,28.4766,87.9278,53.2057,128.1233,40.1676-13.0242,86.0192-3.5788,117.9342,28.3362,31.901,31.901,41.3464,77.7526,28.3221,117.9201,40.1956,24.7292,83.4787,42.4692,128.0953,53.2058l50.8815-50.8815c15.7912-8.0463,33.6606-12.5978,52.5969-12.5978,45.3041,0,84.5454,25.9643,103.6467,63.8441,44.6446-10.5681,87.9558-28.1116,128.2356-52.6444l71.6688-71.6688-61.984-23.3683c4.9432-8.5072,11.0447-16.5253,18.3286-23.8092,32.2939-32.2939,78.9034-41.571,119.4077-27.8168l71.6688-71.6688-26.6326-26.6326c3.0952-9.765,5.8646-19.6106,8.268-29.5272-38.5395-18.8627-65.0651-58.4689-65.0651-104.2503,0-45.9498,26.7222-85.6682,65.4721-104.4607-10.6384-44.5464-28.2239-87.7594-52.7847-127.9269-40.7289,14.2032-87.7874,5.0385-120.334-27.5081Zm-105.9204,412.0747c-84.5454,84.5454-221.6229,84.5313-306.1543,0-84.5454-84.5454-84.5455-221.6089,0-306.1543,84.5455-84.5455,221.6089-84.5454,306.1543,0,84.5314,84.5314,84.5455,221.6089,0,306.1543Z" style="fill:#ff9034; stroke-width:0px;"/><path d="m1315.0637,1367.8104c-32.5466-32.5466-41.7254-79.6193-27.5221-120.3481-40.1675-24.5608-83.3806-42.1464-127.9409-52.7707-18.7785,38.7359-58.4969,65.4581-104.4467,65.4581-45.7954.014-85.4016-26.5397-104.2503-65.0932-44.5324,10.8208-87.7173,28.5748-127.8286,53.3322,13.7681,40.5183,4.4911,87.1278-27.8028,119.4218-32.1537,32.1537-78.4825,41.4868-118.8605,27.9993-24.5468,40.2658-42.1043,83.5911-52.6584,128.2498,37.8798,19.0732,63.8581,58.3285,63.8582,103.6326,0,45.1639-25.796,84.2928-63.4793,103.4503,10.7365,44.6446,28.4766,87.9278,53.2057,128.1233,40.1676-13.0242,86.0192-3.5788,117.9342,28.3362,31.901,31.901,41.3464,77.7526,28.3221,117.9201,40.1956,24.7292,83.4787,42.4692,128.0953,53.2058,19.1714-37.6693,58.3144-63.4793,103.4784-63.4793,45.3041,0,84.5454,25.9643,103.6467,63.8441,44.6446-10.5681,87.9558-28.1116,128.2356-52.6444-13.4875-40.378-4.1262-86.7067,28.0134-118.8464,32.2939-32.2939,78.9034-41.571,119.4077-27.8168,24.7433-40.0974,42.5113-83.2964,53.3041-127.8286-38.5395-18.8627-65.0651-58.4689-65.0651-104.2503,0-45.9498,26.7222-85.6682,65.4721-104.4607-10.6384-44.5464-28.2239-87.7594-52.7847-127.9269-40.7289,14.2032-87.7874,5.0385-120.334-27.5081Zm-105.9204,412.0747c-84.5454,84.5454-221.6229,84.5313-306.1543,0-84.5454-84.5454-84.5455-221.6089,0-306.1543,84.5455-84.5455,221.6089-84.5454,306.1543,0,84.5314,84.5314,84.5455,221.6089,0,306.1543Z" style="fill:url(#linear-gradient); stroke-width:0px;"/><path d="m686.4366,1644.2746c.782-5.4196,1.1822-10.9481,1.1822-16.5861,0-31.1535-12.2759-59.4335-32.2629-80.2753l319.5374-319.5375c20.8418,20.0052,49.1219,32.2811,80.2572,32.2811,5.6379,0,11.1666-.4002,16.5861-1.1822l-385.3,385.3Z" style="fill:#ffdc82; stroke-width:0px;"/><path d="m883.9242,1758.0859l-111.6472,111.6474c-28.8984-17.1136-63.6529-20.6237-94.9337-10.4755-12.0577-19.6051-22.4785-39.9558-31.19-60.8341l194.6688-194.6685c-5.747,53.7593,8.6204,109.2646,43.1021,154.3307Z" style="fill:#ffdc82; stroke-width:0px;"/><path d="m1297.1951,1344.8151l-109.8467,109.8467c-45.0662-34.4635-100.5533-48.8309-154.3309-43.1021l194.6687-194.6688c20.5327,8.5659,40.5561,18.7685,59.852,30.5717-11.1302,31.8991-7.893,67.7084,9.657,97.3525Z" style="fill:#ffdc82; stroke-width:0px;"/><path d="m3145.2177,770.2241c0,56.2931-22.8609,107.2553-59.7267,144.2127-36.9568,36.8647-87.919,59.7256-144.3026,59.7256h-648.4115c-112.6766,0-203.9388-91.351-203.9388-203.9383,0-56.3835,22.8609-107.3458,59.7273-144.302,36.8658-36.8658,87.828-59.7267,144.2116-59.7267h32.8001c26.3845-151.2598,158.3984-266.1953,317.1581-266.1953,159.2114,0,291.4057,115.3867,317.4289,267.0987,103.8216,9.5774,185.0537,96.8639,185.0537,203.1254Z" style="fill:url(#linear-gradient-2); stroke-width:0px;"/><path d="m1855.0448,1437.4394l-75.3747,16.0784-169.5106-867.7391-1.5366-7.8291-6.7903-34.7807-1.5184-7.8328-7.1414-36.5163c12.3347-11.6837,26.5165-14.7088,42.5635-9.0793l8.381,36.2519,1.81,7.7706,7.9934,34.524,1.7918,7.7746,199.3324,861.3778Z" style="fill:url(#linear-gradient-3); stroke-width:0px;"/><polygon points="1645.9272 533.763 1601.8325 543.1689 1600.3142 535.3361 1644.1172 525.9923 1645.9272 533.763" style="fill:#9ec0e8; stroke-width:0px;"/><polygon points="1655.7124 576.0616 1610.1595 585.7787 1608.6228 577.9496 1653.9206 568.287 1655.7124 576.0616" style="fill:#9ec0e8; stroke-width:0px;"/><rect x="1813.3366" y="1444.2217" width="31.8765" height="114.2504" transform="translate(-272.9603 414.6564) rotate(-12.0415)" style="fill:#9ec0e8; stroke-width:0px;"/><path d="m3518.9729,1437.4394l75.3747,16.0784,169.5106-867.7391,1.5366-7.8291,6.7903-34.7807,1.5184-7.8328,7.1414-36.5163c-12.3347-11.6837-26.5165-14.7088-42.5635-9.0793l-8.381,36.2519-1.81,7.7706-7.9934,34.524-1.7918,7.7746-199.3324,861.3778Z" style="fill:url(#linear-gradient-4); stroke-width:0px;"/><polygon points="3728.0905 533.763 3772.1852 543.1689 3773.7036 535.3361 3729.9005 525.9923 3728.0905 533.763" style="fill:#9ec0e8; stroke-width:0px;"/><polygon points="3718.3053 576.0616 3763.8582 585.7787 3765.3949 577.9496 3720.0971 568.287 3718.3053 576.0616" style="fill:#9ec0e8; stroke-width:0px;"/><rect x="3528.8046" y="1444.2217" width="31.8765" height="114.2504" transform="translate(6698.2804 3709.1615) rotate(-167.9585)" style="fill:#9ec0e8; stroke-width:0px;"/><rect x="2827.0935" y="1490.1558" width="853.0747" height="287.8155" rx="32.4117" ry="32.4117" style="fill:#9ec0e8; stroke-width:0px;"/><rect x="958.8859" y="1490.1558" width="2080.828" height="287.8155" rx="32.4117" ry="32.4117" style="fill:url(#linear-gradient-5); stroke-width:0px;"/><rect x="1001.6692" y="1531.6428" width="1995.2613" height="204.8416" rx="8.427" ry="8.427" style="fill:none; stroke:#9ec0e8; stroke-linecap:round; stroke-linejoin:round; stroke-width:9.0933px;"/><rect x="2001.2446" y="1619.8024" width="899.7474" height="28.5223" rx="14.2611" ry="14.2611" style="fill:#9ec0e8; stroke-width:0px;"/><circle cx="1319.3034" cy="1634.0636" r="14.2611" style="fill:#feaf38; stroke-width:0px;"/><circle cx="1405.5184" cy="1634.0636" r="14.2611" style="fill:#5bc177; stroke-width:0px;"/><circle cx="1491.7334" cy="1634.0636" r="14.2611" style="fill:#17a4fe; stroke-width:0px;"/><path d="m1177.8738,1602.54c-3.434-2.0957-7.9078-1.0035-9.9973,2.4296-2.0895,3.4313-1.0017,7.9069,2.4296,9.9955,9.658,5.8822,15.4239,16.1423,15.4239,27.4503,0,17.7301-14.424,32.155-32.1541,32.155s-32.1541-14.4249-32.1541-32.155c0-11.308,5.7659-21.5681,15.4239-27.4503,3.4313-2.0886,4.5191-6.5642,2.4296-9.9955-2.0904-3.4331-6.5669-4.5253-9.9973-2.4296-14.0297,8.5427-22.4055,23.4489-22.4055,39.8754,0,25.7524,20.9509,46.7042,46.7033,46.7042s46.7033-20.9518,46.7033-46.7042c0-16.4265-8.3758-31.3327-22.4055-39.8754Z" style="fill:#9ec0e8; stroke-width:0px;"/><path d="m1153.5831,1639.5258c4.0174,0,7.2746-3.2572,7.2746-7.2746v-40.1898c0-4.0174-3.2572-7.2746-7.2746-7.2746s-7.2746,3.2572-7.2746,7.2746v40.1898c0,4.0174,3.2572,7.2746,7.2746,7.2746Z" style="fill:#9ec0e8; stroke-width:0px;"/><path d="m2421.6606,2164.83c-117.7379-67.1805-254.5995-84.4881-385.3748-48.7338-130.7755,35.7541-239.7941,120.286-306.9746,238.0239-18.7316,32.8295-7.3039,74.627,25.5246,93.3599,30.2285,17.2499,68.0457,8.9126,88.4742-18.1428l.0249.044,23.623-29.4161-2.7189-3.6446c49.5159-72.6063,122.4215-124.7547,208.1446-148.1916,95.5077-26.1121,195.4591-13.4736,281.44,35.5865,16.4152,9.3672,35.0724,11.193,51.9675,6.5737,14.7715-4.0385,28.1951-13.0039,37.5961-26.1647l.0004.0002,21.6482-27.0043-9.2254-5.7357c2.7187-26.1609-9.8388-52.6819-34.1499-66.5545Z" style="fill:#6645ad; stroke-width:0px;"/><path d="m2322.6865,2338.3578c-71.3866-40.7818-154.3924-51.2953-233.7279-29.6046-79.2742,21.6738-145.3855,72.9331-186.154,144.339-18.7424,32.8232-7.3261,74.6259,25.4978,93.367,30.2349,17.2643,68.0721,8.9214,88.5022-18.1506l.008.0049,21.8705-27.611-1.9263-1.9385c22.4188-28.0859,53.0005-48.3275,88.2999-57.9782,44.0429-12.0415,90.1157-6.2097,129.7327,16.4227,16.4214,9.3819,35.0906,11.2134,51.9977,6.5908,15.1442-4.1404,28.86-13.4743,38.2885-27.1852l.0044.004,21.9291-26.9916-10.1886-4.8823c2.6534-26.0996-9.8869-52.5349-34.1339-66.3862Z" style="fill:#6645ad; stroke-width:0px;"/><path d="m2267.5436,2634.9235l-6.0916-5.7308c3.9819-15.388,4.1495-31.9845-.3428-48.4159-13.7385-50.2494-65.611-79.8476-115.8601-66.1091-1.4164.3872-2.8106.8143-4.1936,1.2612l-10.9275-10.2799-29.4927,36.2097.0144.0129c-21.1629,23.0966-30.3819,56.2069-21.5102,88.6563,13.7385,50.2496,65.611,79.8476,115.8604,66.1091,18.8887-5.1642,34.8575-15.7187,46.7051-29.5482l.0013.0013.1257-.1563c1.1231-1.3167,2.1998-2.6691,3.2472-4.0431l22.4643-27.9671Z" style="fill:#6645ad; stroke-width:0px;"/><path d="m2535.8466,2100.8896c.2724-.3341.5475-.6649.8141-1.0052l26.1281-32.2556-11.7191-4.5704c2.0318-25.619-10.5068-51.3204-34.3058-64.9003-162.2633-92.5871-350.8741-116.4425-531.0878-67.1716-180.2121,49.2704-330.4502,165.7681-423.0368,328.0315-18.7316,32.8295-7.3039,74.6267,25.5246,93.3599,29.982,17.1094,67.4343,9.0511,87.9763-17.4808l.0113.0044,25.9802-32.0562-5.6544-.7166c75.1727-117.6104,189.6775-202.0311,325.297-239.1099,144.9466-39.6285,296.6461-20.4421,427.1528,54.0241,16.4149,9.3674,35.0721,11.193,51.9675,6.574,13.3395-3.6471,25.5677-11.3273,34.7391-22.4719l.0044.002.2085-.2573Z" style="fill:#6645ad; stroke-width:0px;"/><path d="m2289.7849,2545.4484c13.7383,50.2495-15.8598,102.1219-66.1093,115.8602-50.2495,13.7383-102.1219-15.8598-115.8602-66.1093-13.7383-50.2495,15.8598-102.1219,66.1093-115.8602,50.2495-13.7383,102.1219,15.8598,115.8602,66.1093Zm281.1795-489.2594c18.7314-32.8295,7.3039-74.6269-25.5248-93.3597-162.2634-92.5868-350.8744-116.4423-531.0878-67.1716-180.2123,49.2705-330.4503,165.7682-423.0371,328.0316-18.7314,32.8295-7.3039,74.6269,25.5248,93.3597,32.8304,18.7347,74.6299,7.3066,93.3618-25.5253,74.4674-130.5066,195.3029-224.205,340.2485-263.8335,144.9467-39.6288,296.6463-20.4422,427.1527,54.0241,16.4152,9.3673,35.0724,11.1929,51.9675,6.5737,16.8952-4.6192,32.0283-15.6831,41.3943-32.0991Zm-95.1033,166.6722c18.7314-32.8295,7.3039-74.6269-25.5248-93.3597-117.7379-67.1807-254.5996-84.4883-385.375-48.734-130.7753,35.7543-239.794,120.2862-306.9746,238.024-18.7314,32.8295-7.3039,74.6269,25.5248,93.3597,32.8304,18.7347,74.6299,7.3066,93.3618-25.5253,49.0602-85.9808,128.6785-147.7139,224.186-173.8259s195.4591-13.4737,281.4399,35.5866c16.4152,9.3673,35.0724,11.1929,51.9675,6.5737,16.8952-4.6192,32.0283-15.6831,41.3943-32.0991Zm-99.0219,173.543c18.7489-32.8204,7.3434-74.6261-25.477-93.3751-71.3865-40.7818-154.3924-51.2952-233.7279-29.6046-79.2743,21.6738-145.3856,72.9331-186.154,144.339-18.7424,32.8232-7.3261,74.626,25.4979,93.367,32.8246,18.7432,74.6276,7.3234,93.3678-25.4993,22.6492-39.6654,59.3658-68.139,103.3863-80.1743,44.0431-12.0415,90.1158-6.2096,129.7327,16.4228,16.4214,9.3818,35.0906,11.2133,51.9976,6.5909,16.8834-4.6159,32.0092-15.6686,41.3766-32.0665Z" style="fill:url(#linear-gradient-6); stroke-width:0px;"/><polygon points="2415.917 1034.4194 2551.2256 1172.4757 2482.1975 1172.4757 2482.1975 1421.332 2349.6366 1421.332 2349.6366 1172.4757 2280.6085 1172.4757 2415.917 1034.4194" style="fill:url(#linear-gradient-7); stroke-width:0px;"/><polygon points="2783.7726 1421.332 2648.464 1283.2758 2717.4921 1283.2758 2717.4921 1034.4195 2850.0529 1034.4194 2850.053 1283.2757 2919.0811 1283.2757 2783.7726 1421.332" style="fill:url(#linear-gradient-8); stroke-width:0px;"/><path d="m3246.1373,1710.5042c-161.54,344.9234-204.0532,524.0666-6.7433,707.2721,302.4315-17.0558,432.6793-167.0297,627.4551-500.9032l-52.8993-58.0611-196.3669-161.5019-371.4456,13.1941Z" style="fill:#38a35f; stroke-width:0px;"/><path d="m3186.5036,2359.7091c302.4239-17.0406,432.6759-167.0251,627.4538-500.8935l-143.2008-126.1418-88.2229-77.7112-17.841-15.7132-128.3788,4.5648-130.1792,4.6195-112.9022,4.0009c-10.9301,23.3152-21.2964,45.8847-31.0989,67.7449-11.912,26.6069-22.9696,52.1409-33.0994,76.7472-14.9859,36.3913-27.9527,70.7093-38.6464,103.2632-16.3679,49.7401-27.4798,95.352-32.5539,137.9084-14.8221,124.0868,21.642,222.2577,128.6698,321.6107Z" style="fill:url(#linear-gradient-9); stroke-width:0px;"/><path d="m3129.0342,1796.9267l307.2797-153.1125-130.1792,4.6195-144.0011,71.7458c-11.912,26.6069-22.9696,52.1409-33.0994,76.7472Z" style="fill:#abdc67; stroke-width:0px;"/><path d="m3057.8338,2038.0984l612.9227-305.4246-88.2229-77.7112-492.1459,245.2273c-16.3679,49.7401-27.4798,95.352-32.5539,137.9084Z" style="fill:#abdc67; stroke-width:0px;"/><path d="m3203.4681,2312.9969c128.1076-10.1021,223.5639-47.3081,307.5035-119.4131,85.245-73.2257,160.5175-183.3066,244.7723-325.4564l-207.521-182.7969-325.5266,11.5548c-6.637,14.3725-13.0201,28.3916-19.0763,41.8983-12.3754,27.6421-23.0244,52.3307-32.544,75.4519-15.2907,37.1359-27.5551,69.8921-37.4937,100.145-16.0518,48.7804-26.0597,91.002-30.6019,129.1013-6.6512,55.6847-1.4812,104.1099,15.8049,148.0524,16.2471,41.3016,44.026,81.1752,84.6828,121.4626Z" style="fill:url(#linear-gradient-10); stroke-width:0px;"/><path d="m3289.2227,2139.5418c-.0838-.0396-.1676-.0793-.2511-.1198-9.2826-4.4826-16.7983-13.2581-20.6625-24.126l-65.1429-183.1941c-7.4976-21.0834.5713-43.9968,18.0224-51.1776,17.4497-7.1825,37.6737,4.0852,45.1714,25.1717l49.9546,140.4806,247.0481-142.1391c16.5029-9.4964,37.5016-.8604,46.9048,19.289,9.4018,20.1477,3.6455,44.1774-12.8568,53.672l-280.4807,161.3751c-8.4303,4.8505-18.4929,5.1256-27.7072.7683Z" style="fill:#38a35f; stroke-width:0px;"/><path d="m3277.5941,2127.5382c-.0838-.0396-.1676-.0793-.2511-.1198-9.2826-4.4826-16.7983-13.2581-20.6625-24.126l-65.1429-183.1941c-7.4976-21.0834.5713-43.9968,18.0224-51.1776,17.4497-7.1825,37.6737,4.0852,45.1714,25.1717l49.9546,140.4806,247.0481-142.1391c16.5029-9.4964,37.5016-.8604,46.9048,19.289,9.4018,20.1477,3.6455,44.1774-12.8568,53.672l-280.4807,161.3751c-8.4303,4.8505-18.4929,5.1256-27.7072.7683Z" style="fill:url(#linear-gradient-11); stroke-width:0px;"/><path d="m3118.7764,2191.5386c16.2589,41.3017,44.0298,81.1664,84.6948,121.4499.8365-.0728,1.673-.1274,2.4915-.2002-34.2452-36.1728-58.1605-72.146-72.7826-109.2828-17.2772-43.9386-22.4421-92.3512-15.8042-148.0384,4.5466-38.1008,14.5492-80.33,30.6081-129.1063,9.9298-30.2623,22.2057-63.0163,37.5006-100.1532,9.5115-23.1151,20.1688-47.7943,32.5357-75.4378,6.0563-13.5126,12.4395-27.5344,19.0777-41.9017l324.7388-11.5303-13.6217-12.0031-325.5207,11.5484c-6.6384,14.3674-13.0218,28.3893-19.0777,41.9019-12.3669,27.6434-23.0244,52.3226-32.536,75.4559-15.2947,37.1369-27.5524,69.8909-37.5004,100.1351-16.0589,48.7763-26.0615,91.0054-30.6081,129.1062-6.6381,55.6872-1.4732,104.1179,15.804,148.0566Z" style="fill:#9ec0e8; stroke-width:0px;"/></svg>