<svg xmlns="http://www.w3.org/2000/svg" viewBox="0 0 4680 3120"><defs><style>.cls-1{isolation:isolate;}.cls-2{fill:#fff;}.cls-3{fill:#eeeef7;}.cls-4{fill:#4ac0b7;}.cls-5{fill:#7bcdd3;}.cls-6{fill:#1aa79e;}.cls-7{fill:#529297;}.cls-8{fill:#b12d3d;}.cls-9{fill:#f9b383;}.cls-10{fill:#dfdfe4;}.cls-11{fill:#b0cfc5;}.cls-12{fill:#681744;}.cls-13{fill:#13071b;}.cls-14{fill:#22192b;}.cls-15{fill:#faba97;}.cls-16{fill:#f5927e;}.cls-17{opacity:0.24;}.cls-18{fill:#f08372;}.cls-19{fill:#de7360;}.cls-20{fill:#281c1c;}.cls-21{fill:#383939;}.cls-22{fill:#3b3246;}.cls-23{fill:#ee4155;}.cls-24{fill:#aee1f7;}.cls-25{fill:#bbb7d8;}.cls-26{fill:#ffd77a;}.cls-27{fill:#e1e1e1;}.cls-28{opacity:0.3;}.cls-29{fill:#8b7fba;}.cls-30{fill:#7a70a3;}.cls-31{fill:#b9bbd1;}.cls-32{fill:#215d7f;}.cls-33{fill:#f6975a;}.cls-34{fill:#e2f3fa;}.cls-35{fill:#2b3676;}.cls-36{fill:#0d374d;}.cls-37{fill:#ea7c3e;}.cls-38{fill:#575757;}.cls-39{fill:#a1a7d4;}.cls-40{fill:#2b2b2b;}.cls-41{fill:#70c7f0;}.cls-42{fill:#4a4a4a;}.cls-43{fill:#fbb75e;}.cls-44{fill:#1862ad;}.cls-45{fill:#3f4040;}.cls-46{fill:#d8e5e7;}.cls-47{fill:#892058;}.cls-48{fill:#1762ab;}.cls-49{fill:#199bd7;}.cls-50{fill:#47bcec;}.cls-51{fill:#9a603a;}.cls-52{fill:#f8b282;}.cls-53{fill:#dedee3;}.cls-54{fill:#152148;}.cls-55{fill:#e2886c;}.cls-56{opacity:0.4;}.cls-57{fill:#234084;}.cls-58{opacity:0.2;}.cls-59{fill:#ba2028;}.cls-60{fill:#efa87f;}.cls-61{fill:#fab995;}.cls-62{fill:#5a201f;}.cls-63{fill:#f5917e;}.cls-64{opacity:0.32;}.cls-65{fill:#ee8171;}.cls-66{fill:#100f0e;}.cls-67{fill:#843236;}.cls-68{fill:#993c41;}.cls-69{fill:#d46b5e;}.cls-70{fill:#383c48;}.cls-71{fill:#292b38;}.cls-72{fill:#6bafe0;}.cls-73{fill:#f1c8ac;}.cls-74{fill:#9583bd;}.cls-75{fill:#fafbfb;}.cls-76{opacity:0.5;mix-blend-mode:screen;}</style></defs><title>05</title><g class="cls-1"><g id="_05" data-name="05"><rect id="_05-2" data-name="05" class="cls-2" width="4680" height="3120"/><path class="cls-3" d="M1310.54,2236.26s-376.6-478.59-247.48-1060.14,670.15-862.34,1022-809.92S2772.78,781,3116.32,840.86s850,389.15,718.31,960.82S3380.51,2413.61,2862,2409.11,1598.8,2632,1310.54,2236.26Z"/><path class="cls-4" d="M1363.14,2669.26s-359.23-736.8-146-760.46,269.81,765.75,269.81,765.75Z"/><path class="cls-5" d="M1211,1915.64q44.18,143.29,88.36,286.58c29.33,95.13,59,190.17,87.92,285.42,16,52.65,31.24,105.54,43.76,159.12,1.28,5.5,9.75,3.17,8.47-2.33-22.36-95.7-53-189.31-81.93-283.17q-44.17-143.28-88.36-286.57l-49.75-161.38c-1.66-5.38-10.14-3.08-8.47,2.33Z"/><path class="cls-5" d="M1265,1922q-13.21,43.88-23.18,88.61c-.61,2.75,3.62,3.92,4.24,1.16q10-44.71,23.18-88.6c.81-2.71-3.42-3.87-4.24-1.17Z"/><path class="cls-5" d="M1262.67,2064.86c-10.05.21-19.76-6-29-10.5-8.53-4.12-17-8.29-25.64-12.21-17.79-8.12-35.87-15.12-54.54-18.9-2.14-.43-3.06,3.79-.9,4.23,19.36,3.92,38.09,11.31,56.51,19.81,9.24,4.26,18.41,8.77,27.6,13.21,8.4,4.05,16.82,8.94,26,8.74,2.18,0,2.19-4.43,0-4.38Z"/><path class="cls-5" d="M1280.07,2116.84l-125.42-40.38c-2.69-.87-3.85,3.37-1.17,4.23l125.42,40.38c2.7.87,3.85-3.36,1.17-4.23Z"/><path class="cls-5" d="M1340.2,2316.41,1214.78,2276c-2.7-.86-3.85,3.37-1.17,4.23L1339,2320.63c2.69.87,3.85-3.36,1.17-4.22Z"/><path class="cls-5" d="M1358.77,2377.33,1233.35,2337c-2.7-.87-3.85,3.37-1.17,4.23l125.42,40.38c2.69.87,3.85-3.36,1.17-4.23Z"/><path class="cls-5" d="M1305.1,2207.88c25.39-44.05,46.54-89.92,68.56-135.33,1.1-2.27-2.68-4.24-3.79-2-22,45.4-43.17,91.28-68.56,135.32-1.28,2.22,2.5,4.19,3.79,2Z"/><path class="cls-5" d="M1318.69,2248.61c25.39-44.05,46.55-89.92,68.57-135.33,1.1-2.27-2.68-4.25-3.79-2-22,45.41-43.18,91.29-68.57,135.33-1.28,2.22,2.51,4.19,3.79,2Z"/><path class="cls-6" d="M1215.92,2667.49s-571.65-585.44-298.43-784.12c0,0,121-58.09,236.89,225.26s216.72,558.86,216.72,558.86Z"/><path class="cls-5" d="M912.91,1901.09c51.68,103.83,104.39,207.23,154,312,48.17,101.69,90.48,205.93,135.81,308.88,25.43,57.77,52,115.06,81.25,171,2.61,5,10.2.58,7.58-4.43-51.9-99.19-95.07-202.54-139.11-305.36-44.91-104.88-93.32-207.86-144.11-310q-43.9-88.29-87.87-176.55c-2.52-5.06-10.1-.62-7.59,4.43Z"/><path class="cls-5" d="M1000.26,2062.79c1.27-11.45,8.87-23,13.49-33.77q6.68-15.49,12.65-31.2,12.38-32.5,21.68-65.78c.65-2.32-3.58-3.31-4.24-1q-9.66,34.37-22.53,68-6.45,16.8-13.72,33.37c-4.31,9.84-10.56,19.8-11.72,30.34-.26,2.38,4.13,2.36,4.39,0Z"/><path class="cls-5" d="M1037.08,2140c-58.66-12.78-118.92-5.93-177.8-16.45-2.48-.44-3.54,3.78-1,4.23,58.89,10.52,119.16,3.67,177.8,16.45,2.47.54,3.53-3.68,1-4.23Z"/><path class="cls-5" d="M1070.79,2205c-61.43-4.73-123.43,3.48-184.55-6.19-2.73-.43-3.91,3.79-1.15,4.23,61.53,9.73,123.86,1.59,185.7,6.34,2.79.22,2.77-4.17,0-4.38Z"/><path class="cls-5" d="M1055.64,2176c25.39-44.05,46.54-89.92,68.56-135.33,1.1-2.27-2.68-4.24-3.79-2-22,45.4-43.17,91.28-68.56,135.33-1.28,2.21,2.5,4.18,3.79,1.95Z"/><path class="cls-5" d="M1097.9,2266.75c2.81-11.82,12.07-21.82,18.78-31.68q10.41-15.3,20.22-31,20-32,37.4-65.45c1.3-2.5-2.49-4.72-3.8-2.21q-18.06,34.63-38.84,67.77-10.23,16.26-21.09,32.08c-6.34,9.23-14.26,18.21-16.91,29.33-.65,2.75,3.58,3.92,4.24,1.17Z"/><path class="cls-5" d="M1177.06,2445.15a677.29,677.29,0,0,0,72.33-98c1.47-2.42-2.33-4.63-3.79-2.22a670.3,670.3,0,0,1-71.65,97.12c-1.87,2.11,1.23,5.22,3.11,3.1Z"/><path class="cls-5" d="M1189,2476.5a676.16,676.16,0,0,0,72.34-98c1.46-2.42-2.33-4.62-3.8-2.21a670,670,0,0,1-71.64,97.12c-1.87,2.11,1.22,5.22,3.1,3.1Z"/><path class="cls-5" d="M1152.78,2392.83q-64.4-15.61-130-25.07c-2.77-.4-4,3.82-1.17,4.23q65.6,9.44,130,25.07c2.75.67,3.92-3.56,1.17-4.23Z"/><path class="cls-4" d="M1111.73,2666S741,2375.56,841.18,2271.19,1200,2668.81,1200,2668.81Z"/><path class="cls-5" d="M843,2274.28q130.27,145,250,299,34.36,44.23,67.79,89.21c3.34,4.48,11,.11,7.59-4.43Q1051.19,2500.72,923,2352q-36.49-42.33-73.86-83.9c-3.78-4.21-10,2-6.21,6.2Z"/><path class="cls-5" d="M1087.08,2553.26q6.66-30.86,15-61.32c.74-2.73-3.49-3.89-4.23-1.16q-8.29,30.45-15,61.32c-.6,2.75,3.63,3.92,4.23,1.16Z"/><path class="cls-5" d="M1052.24,2510.6a931.88,931.88,0,0,0-98,11.71c-2.36.41-1.36,3.83,1,3.42a924,924,0,0,1,97-11.58c2.39-.15,2.41-3.71,0-3.55Z"/><path class="cls-5" d="M1008.38,2456.39q12.4-35.61,26.31-70.66c1-2.62-3.21-3.76-4.24-1.16q-13.91,35-26.31,70.66c-.93,2.67,3.31,3.82,4.24,1.16Z"/><path class="cls-5" d="M966.87,2407.32a916.23,916.23,0,0,0-98.85,9.25c-2.4.36-2.43,4.75,0,4.39a913.72,913.72,0,0,1,98.85-9.26c2.45-.09,2.46-4.48,0-4.38Z"/><path class="cls-5" d="M934.07,2370.39q13.23-33,27.12-65.82c1.09-2.57-2.69-4.81-3.79-2.22q-14.13,33.3-27.56,66.88c-1.05,2.62,3.19,3.75,4.23,1.16Z"/><path class="cls-4" d="M3311.87,2699.73s359.23-736.8,146-760.46S3188.08,2705,3188.08,2705Z"/><path class="cls-5" d="M3464,1946.11q-44.19,143.3-88.36,286.58c-29.33,95.13-59,190.17-87.92,285.42-16,52.65-31.24,105.54-43.76,159.12-1.29,5.5-9.76,3.17-8.47-2.33,22.36-95.7,53-189.31,81.92-283.17q44.19-143.28,88.36-286.57,24.88-80.68,49.76-161.38c1.66-5.38,10.14-3.08,8.47,2.33Z"/><path class="cls-5" d="M3410,1952.47q13.22,43.88,23.18,88.61c.62,2.75-3.62,3.92-4.23,1.16q-10-44.71-23.18-88.6c-.82-2.71,3.42-3.87,4.23-1.17Z"/><path class="cls-5" d="M3412.34,2095.33c10,.21,19.76-6,29-10.5,8.53-4.12,17.05-8.29,25.64-12.21,17.79-8.12,35.86-15.12,54.53-18.9,2.15-.43,3.07,3.79.91,4.23-19.37,3.92-38.09,11.31-56.52,19.81-9.24,4.26-18.4,8.77-27.59,13.21-8.41,4.05-16.83,8.94-26,8.74-2.19,0-2.19-4.43,0-4.38Z"/><path class="cls-5" d="M3394.94,2147.31l125.41-40.38c2.7-.87,3.85,3.37,1.17,4.23l-125.42,40.38c-2.69.87-3.85-3.36-1.16-4.23Z"/><path class="cls-5" d="M3334.81,2346.88l125.42-40.39c2.69-.86,3.85,3.37,1.17,4.23L3336,2351.1c-2.7.87-3.85-3.36-1.17-4.22Z"/><path class="cls-5" d="M3316.24,2407.8l125.42-40.38c2.69-.87,3.85,3.37,1.17,4.23L3317.41,2412c-2.7.87-3.85-3.36-1.17-4.23Z"/><path class="cls-5" d="M3369.91,2238.35c-25.39-44-46.55-89.92-68.57-135.33-1.1-2.27,2.68-4.24,3.79-1.95,22,45.4,43.18,91.28,68.57,135.32,1.28,2.22-2.51,4.19-3.79,2Z"/><path class="cls-5" d="M3356.31,2279.08c-25.39-44-46.54-89.92-68.56-135.33-1.1-2.27,2.68-4.24,3.79-2,22,45.41,43.18,91.29,68.57,135.33,1.28,2.22-2.51,4.19-3.8,2Z"/><path class="cls-6" d="M3459.09,2698s571.65-585.44,298.43-784.12c0,0-121-58.09-236.9,225.26S3303.91,2698,3303.91,2698Z"/><path class="cls-5" d="M3762.09,1931.56c-51.68,103.83-104.38,207.23-154,312.05-48.17,101.69-90.48,205.93-135.81,308.88-25.43,57.77-52,115.06-81.25,171-2.62,5-10.2.58-7.58-4.43,51.9-99.19,95.07-202.54,139.1-305.36,44.91-104.88,93.33-207.86,144.12-310q43.89-88.29,87.87-176.55c2.51-5.06,10.09-.62,7.58,4.43Z"/><path class="cls-5" d="M3674.75,2093.26c-1.27-11.45-8.88-23.05-13.49-33.77q-6.68-15.49-12.65-31.2-12.37-32.51-21.68-65.78c-.65-2.32,3.58-3.31,4.23-1q9.68,34.37,22.54,68,6.45,16.8,13.71,33.37c4.32,9.84,10.56,19.8,11.73,30.34.26,2.38-4.13,2.36-4.39,0Z"/><path class="cls-5" d="M3637.93,2170.45c58.66-12.78,118.91-5.93,177.8-16.45,2.47-.44,3.54,3.78,1,4.23-58.88,10.52-119.16,3.67-177.79,16.45-2.48.54-3.53-3.68-1.05-4.23Z"/><path class="cls-5" d="M3604.22,2235.44c61.43-4.73,123.42,3.48,184.54-6.19,2.74-.43,3.92,3.79,1.16,4.23-61.53,9.73-123.86,1.59-185.7,6.34-2.79.22-2.78-4.17,0-4.38Z"/><path class="cls-5" d="M3619.37,2206.45c-25.39-44-46.55-89.92-68.57-135.33-1.1-2.27,2.68-4.24,3.8-1.95,22,45.4,43.17,91.28,68.56,135.33,1.28,2.21-2.51,4.18-3.79,1.95Z"/><path class="cls-5" d="M3577.11,2297.22c-2.81-11.82-12.07-21.82-18.79-31.68q-10.41-15.3-20.22-31-20-32-37.39-65.45c-1.3-2.5,2.48-4.72,3.79-2.21q18.08,34.64,38.85,67.77,10.21,16.26,21.09,32.08c6.33,9.23,14.26,18.21,16.9,29.33.66,2.75-3.58,3.92-4.23,1.17Z"/><path class="cls-5" d="M3498,2475.62a677.29,677.29,0,0,1-72.33-98c-1.47-2.42,2.33-4.63,3.79-2.22a669.57,669.57,0,0,0,71.65,97.12c1.86,2.11-1.23,5.22-3.11,3.1Z"/><path class="cls-5" d="M3486,2507a676.83,676.83,0,0,1-72.33-98c-1.47-2.42,2.33-4.62,3.79-2.21a670.85,670.85,0,0,0,71.65,97.12c1.87,2.11-1.23,5.22-3.11,3.1Z"/><path class="cls-5" d="M3522.23,2423.3q64.39-15.62,130.05-25.07c2.76-.4,4,3.82,1.17,4.23q-65.6,9.43-130.06,25.07c-2.74.67-3.91-3.56-1.16-4.23Z"/><path class="cls-4" d="M3563.28,2696.48S3934,2406,3833.83,2301.66,3475,2699.28,3475,2699.28Z"/><path class="cls-5" d="M3832.06,2304.75q-130.28,145-250,299-34.36,44.24-67.8,89.21c-3.33,4.48-11,.11-7.58-4.43q117.11-157.38,245.26-306.12,36.51-42.33,73.87-83.9c3.78-4.21,10,2,6.21,6.2Z"/><path class="cls-5" d="M3587.93,2583.73q-6.66-30.86-14.95-61.32c-.75-2.73,3.49-3.89,4.23-1.16q8.29,30.45,14.95,61.32c.59,2.75-3.64,3.92-4.23,1.16Z"/><path class="cls-5" d="M3622.76,2541.07a931.75,931.75,0,0,1,98,11.71c2.36.41,1.36,3.83-1,3.42a923.32,923.32,0,0,0-97-11.58c-2.38-.15-2.4-3.71,0-3.55Z"/><path class="cls-5" d="M3666.63,2486.86q-12.4-35.61-26.31-70.66c-1-2.62,3.2-3.76,4.24-1.16q13.89,35,26.3,70.66c.93,2.67-3.31,3.82-4.23,1.16Z"/><path class="cls-5" d="M3708.14,2437.79A916.47,916.47,0,0,1,3807,2447c2.4.36,2.43,4.75,0,4.39a914,914,0,0,0-98.85-9.26c-2.45-.09-2.46-4.48,0-4.38Z"/><path class="cls-5" d="M3740.93,2400.86q-13.21-33-27.11-65.82c-1.09-2.57,2.69-4.81,3.79-2.22q14.11,33.3,27.56,66.88c1,2.62-3.2,3.75-4.24,1.16Z"/><polygon class="cls-7" points="3416.62 2675.27 3418.53 2699.2 3197.26 2686.8 3203 2667.97 3416.62 2675.27"/><path class="cls-8" d="M3416.62,2675.29s-66.93,1.11-127.84-.6c-35.36-1-65.53-2.34-82.59-6.08,20.53-5.37,39.54-12.92,59.73-21.18,52-21.26,71.35-37.36,68.33-79.12-2.35-32.38-9.71-81.29-9.71-81.29l74.62-5.29s2.44,50.71,4,90.45C3404.2,2599,3413.25,2665.65,3416.62,2675.29Z"/><path class="cls-9" d="M3403.14,2572.16l-68.9-3.87c-2.34-32.38-9.71-81.29-9.71-81.29l74.62-5.29S3401.59,2532.42,3403.14,2572.16Z"/><path class="cls-10" d="M3374.93,2567.49a9.4,9.4,0,0,0-8.67-5.6c-4.11-.06-7.71,2-10.67,4.7a86.83,86.83,0,0,0-9,10,115.82,115.82,0,0,0-13.37,20.87c-.17-.58-.32-1.16-.54-1.73a56,56,0,0,0-2.79-5.92,88.14,88.14,0,0,0-6.68-10.59,89.91,89.91,0,0,0-8.14-9.72c-2.67-2.75-5.85-5.38-9.67-6.28-6.23-1.48-13.47,2.6-12.78,9.6.39,3.88,3,7.19,5.64,9.93a86.27,86.27,0,0,0,8.88,8.21,90.87,90.87,0,0,0,21.35,12.55,1.55,1.55,0,0,0,0,.22,2.22,2.22,0,0,0-.23.39,2.25,2.25,0,0,0,1.41,2.75,107.79,107.79,0,0,1,16.64,9.58c1.38,1,3.34,2.51,5,1.07,1.95-1.74-.45-3.83-1.87-4.79-2.65-1.8-5.39-3.47-8.19-5-1.73-1-3.5-1.87-5.28-2.74a43.22,43.22,0,0,0,9.7-3,61.2,61.2,0,0,0,10.84-5.62c6.79-4.43,14.05-10.43,17.72-17.82A13.1,13.1,0,0,0,3374.93,2567.49Zm-60.41,23.21c-5.59-3.76-11.42-8.1-15.74-13.32-2-2.42-4-6.19-1.44-9,2-2.1,5.28-2.45,7.9-1.63,3.39,1,6.07,3.56,8.46,6.08a78.63,78.63,0,0,1,6.59,8,86.77,86.77,0,0,1,6.32,10.14c1,1.82,1.88,3.68,2.8,5.54.48,1,1,1.89,1.53,2.83A89.78,89.78,0,0,1,3314.52,2590.7Zm56-12.89c-3.69,6.09-9.82,11.3-15.81,15a58.11,58.11,0,0,1-10.38,5.1c-2.92,1.09-6,1.61-9,2.42a130.82,130.82,0,0,1,9.79-16.18,114.44,114.44,0,0,1,7.51-9.48c2.48-2.8,5-5.84,8.27-7.81,3-1.84,7.76-2.74,10.19.52S3372.39,2574.75,3370.54,2577.81Z"/><path class="cls-10" d="M3343,2627.48c-.93-.74-2-1.37-2.94-2.05l-5.73-3.92c-3.87-2.66-7.81-5.22-11.73-7.81-1.84-1.22-3.6,1.56-1.85,2.86,3.73,2.75,7.43,5.54,11.2,8.23l5.47,3.9c1.67,1.19,4,3.59,6.16,2.85a1.34,1.34,0,0,0,1-1.19A3.39,3.39,0,0,0,3343,2627.48Z"/><path class="cls-10" d="M3336,2645.58c-3.73-3.49-7.57-6.87-11.38-10.28a124.85,124.85,0,0,0-13.22-10.86c-1.11-.75-2.27.74-1.48,1.73a124.7,124.7,0,0,0,10.55,11c3.57,3.5,7.19,7,10.89,10.34,1.44,1.31,3.7,4.17,5.94,3.16C3339.72,2649.59,3337.06,2646.58,3336,2645.58Z"/><path class="cls-10" d="M3312.4,2652.37l-7.67-8.51q-4.3-4.77-8.73-9.39a1.38,1.38,0,0,0-2.06,1.83c4.57,6.07,9.3,12,14,17.95,1.14,1.44,2.45,3.69,4.63,3.06a2,2,0,0,0,1.35-1.94C3314,2654.11,3313.19,2653.23,3312.4,2652.37Z"/><path class="cls-11" d="M3288.78,2674.69c-33,5.25-69.21,1.45-85.77-6.72a512.24,512.24,0,0,0,62.91-20.54,70.45,70.45,0,0,1,19,20.15A74.87,74.87,0,0,1,3288.78,2674.69Z"/><path class="cls-2" d="M3377.19,2640.42a16,16,0,0,0,16.51-1.63c11.9-9,6.38-29.49-9.45-27.54C3370,2613,3362.56,2633.06,3377.19,2640.42Z"/><path class="cls-12" d="M3498.5,1681.71l-21.18-28.24-258.39,7.1,37.09,459.1,23,442.55,134,4.68c6.85-85.43,25.12-423.35,25.12-423.35h0l23-178.5c2.58-11.28,12.07-67.59,21.83-112.69C3488.61,1826.44,3509.74,1759,3498.5,1681.71Z"/><path class="cls-13" d="M3362.4,812.18s39.27-61.38,82.81-10.23,22.2,231.9,22.2,231.9-5.12,86.1,7.68,107.42-103.3-24.73-97.32-132.15Z"/><path class="cls-14" d="M3381.82,825.23A92,92,0,0,0,3371,818c-35.93-20.81-85.41-19.09-115.34,9.59-90,4.1-85.62,73.7-75.4,117l18.81,35.82,177.8,38.26c21.46,6.74,49.22-54.19,51.26-70.55C3433.81,902.64,3418,853.29,3381.82,825.23Z"/><path class="cls-15" d="M3355.57,985.41l11.8,126.67s-19,16.66-52.07,19.2c-39.88,3-49.46-6.29-49.46-6.29l-4.28-78.78-1.82-42.09Z"/><polygon class="cls-16" points="3337.86 1050.1 3265.44 1119.69 3261.56 1046.22 3337.86 1050.1"/><path class="cls-15" d="M3348.27,863.23,3345.76,1035a19.06,19.06,0,0,1-12,17.36l-71.31,28.51a19.17,19.17,0,0,1-18.26-2.27l-37.64-27.34a19,19,0,0,1-7.88-15.62l.11-5.9,1-68.69.56-39.88a60.22,60.22,0,0,1,61.1-59.24Z"/><g class="cls-17"><path class="cls-18" d="M3218.64,996.08c1.26,12.69-6.83,24.23-18.84,28.39l-.21-51.38A27.13,27.13,0,0,1,3218.64,996.08Z"/></g><path class="cls-19" d="M3248.53,1008.49a2.42,2.42,0,0,1-1-.13l-25.83-9.11a2.51,2.51,0,0,1-1.58-3L3237,933.75a2.5,2.5,0,1,1,4.83,1.31l-16.33,60.25,23.64,8.34a2.5,2.5,0,0,1-.65,4.84Z"/><path class="cls-15" d="M3325.57,990.3A35,35,0,1,0,3361,955.9,34.93,34.93,0,0,0,3325.57,990.3Z"/><path class="cls-20" d="M3196.3,919.43c2.81,6.85,27.4,2.49,26.11-4.26C3220.27,904,3191.85,908.59,3196.3,919.43Z"/><path class="cls-20" d="M3306.22,921.64c-3.42,6.57-27.5,0-25.6-6.61C3283.77,904.07,3311.64,911.25,3306.22,921.64Z"/><g class="cls-17"><path class="cls-18" d="M3329.63,995a26.41,26.41,0,1,1-28.35-24.28A26.37,26.37,0,0,1,3329.63,995Z"/></g><path class="cls-20" d="M3284.21,965.2c-.1,6.57-3.28,11.84-7.11,11.79s-6.85-5.43-6.76-12,3.28-11.85,7.11-11.79S3284.3,958.63,3284.21,965.2Z"/><path class="cls-20" d="M3219.5,964.25c-.1,6.34-3.17,11.44-6.87,11.38s-6.61-5.23-6.52-11.57,3.16-11.44,6.86-11.38S3219.59,957.91,3219.5,964.25Z"/><path class="cls-21" d="M3274.32,1038.77a21.39,21.39,0,0,1-2.48,2.83,29.33,29.33,0,0,1-24.54,7.21,27,27,0,0,1-10.66-4.36c-5-3.5-8.57-8.5-9.53-14-.55-3.13.17-7,3.52-8.32a8.1,8.1,0,0,1,2.45-.39,28.93,28.93,0,0,1,4.58.74,65.25,65.25,0,0,0,25,.66,23.48,23.48,0,0,1,8.17-.35c2.42.4,4.31,1.42,5.35,3.39C3278.35,1030.23,3277,1035,3274.32,1038.77Z"/><path class="cls-2" d="M3270.86,1022.83a8.64,8.64,0,0,1-2.1,5.63c-1.56,1.62-3.83,2.21-6,2.56a54.73,54.73,0,0,1-23.95-1c-1.85-.51-3.82-1.22-4.94-2.76s-1.1-3.53-.77-5.44a28.93,28.93,0,0,1,4.58.74,65.25,65.25,0,0,0,25,.66A23.48,23.48,0,0,1,3270.86,1022.83Z"/><path class="cls-18" d="M3271.84,1041.6a29.33,29.33,0,0,1-24.54,7.21,27,27,0,0,1-10.66-4.36c3.21-3.91,8.6-6.06,13.8-6.78A32.54,32.54,0,0,1,3271.84,1041.6Z"/><rect class="cls-16" x="3347.02" y="988.96" width="28.54" height="3.57" transform="translate(283.8 2666.73) rotate(-45)"/><polygon class="cls-16" points="3368.99 1000.65 3360.04 992.03 3362.52 989.47 3371.47 998.09 3368.99 1000.65"/><path class="cls-14" d="M3238.1,869.88s4.43,23.5,45,32.23c19.73,4.26,33.55,2.82,38.9,8.88,6.72,7.53,1.23,31.37,7.07,39.66,5,7.09,5.61,3.89,12.93,8.69,0,1.45,2.08,15.58,1.76,28.26,17.32-24.23,56.33-42.45,51-71.69-4-21.72-12.79-42.72-26.94-59.69s-33.76-29.68-55.4-33.88c-18.63-3.61-38.19-.88-55.95,5.83a129.8,129.8,0,0,0-68.62,61.17c-14.37,27.82-4.42,44.5,3.5,74.78C3204.19,877.1,3238.1,869.88,3238.1,869.88Z"/><path class="cls-22" d="M3429.19,925.51c-1.11-38.48-17.09-76.82-47.37-100.28A92,92,0,0,0,3371,818c-35.93-20.81-85.41-19.09-115.34,9.59-36.4,1.65-57.26,14.87-68.82,32.5,5.77-3.72,38.72-29.63,62.14-15.9,0,0,74.17-43.46,121.5-6.52s57.85,88,57.85,88Z"/><path class="cls-14" d="M3467.41,1033.85s21.34-180.75-22.2-231.9c-33.15-39-63.83-12.65-76.58,2.11,0,.15,0,.3,0,.45s56.92-26.15,74,28.42-25,263.15,32.44,308.34C3462.29,1120,3467.41,1033.85,3467.41,1033.85Z"/><path class="cls-23" d="M3355,810.19s1.09-13.78,13.63-6.13,28.11,14.09,30.77,23.94.37,14.78.37,14.78S3385.36,824.59,3355,810.19Z"/><path class="cls-24" d="M2596,2087.94l10,.76c-.24,3.06-.1,46.23,0,74.47v2.08l-36.68,36.68v120.76h-10V2197.78L2596,2161.1C2595.92,2148,2595.72,2092.1,2596,2087.94Z"/><path class="cls-2" d="M2551.89,2322.69a12.39,12.39,0,0,0,12.44,12.39h0a12.4,12.4,0,0,0,12.4-12.39h0a12.41,12.41,0,0,0-12.4-12.39h0a12.41,12.41,0,0,0-12.44,12.39Z"/><path class="cls-24" d="M2638.91,2087.94l10.1.76c-.29,3.06-.2,46.23,0,74.47v2.08l-36.78,36.68v71.88h-10v-76l36.68-36.68C2638.82,2148,2638.59,2092.1,2638.91,2087.94Z"/><path class="cls-2" d="M2594.84,2273.81a12.37,12.37,0,0,0,12.39,12.42h0a12.4,12.4,0,0,0,12.4-12.42h0a12.41,12.41,0,0,0-12.4-12.41h0a12.39,12.39,0,0,0-12.39,12.41Z"/><path class="cls-24" d="M2683.52,2084.79l10,.7c-.28,4-.13,58.43.06,94.11v2.12L2647.21,2228v91.26h-10.05v-95.44l46.3-46.24C2683.42,2162.07,2683.14,2090,2683.52,2084.79Z"/><path class="cls-2" d="M2629.77,2319.21a12.39,12.39,0,0,0,12.39,12.41h0a12.41,12.41,0,0,0,12.46-12.41h0a12.48,12.48,0,0,0-12.46-12.44h0a12.46,12.46,0,0,0-12.39,12.44Z"/><polygon class="cls-25" points="2727.93 2085.42 2738.01 2085.42 2738.01 2133.36 2712.79 2158.5 2712.79 2216.89 2743.34 2247.42 2743.34 2351.18 2733.3 2351.18 2733.3 2251.59 2702.75 2221.07 2702.75 2154.35 2727.93 2129.18 2727.93 2085.42"/><path class="cls-26" d="M2750.75,2351.18a12.4,12.4,0,0,1-12.41,12.37h0a12.43,12.43,0,0,1-12.44-12.37h0a12.46,12.46,0,0,1,12.44-12.44h0a12.43,12.43,0,0,1,12.41,12.44Z"/><polygon class="cls-25" points="2814.39 2207.11 2821.5 2214.21 2775.83 2259.83 2775.83 2301.56 2765.74 2301.56 2765.74 2255.64 2814.39 2207.11"/><path class="cls-26" d="M2758.34,2297.92a12.43,12.43,0,0,0,12.44,12.38h0a12.39,12.39,0,0,0,12.4-12.38h0a12.4,12.4,0,0,0-12.4-12.43h0a12.44,12.44,0,0,0-12.44,12.43Z"/><rect class="cls-25" x="2770.35" y="1853.71" width="10.09" height="336.98"/><path class="cls-26" d="M2763.56,2190.68A12.42,12.42,0,0,0,2776,2203.1h0a12.4,12.4,0,0,0,12.39-12.42h0a12.4,12.4,0,0,0-12.39-12.42h0a12.42,12.42,0,0,0-12.46,12.42Z"/><rect class="cls-25" x="2814.68" y="1964.6" width="10.08" height="297.53"/><path class="cls-26" d="M2807.32,2262.13a12.45,12.45,0,0,0,12.4,12.46h0a12.47,12.47,0,0,0,12.45-12.46h0a12.4,12.4,0,0,0-12.45-12.35h0a12.39,12.39,0,0,0-12.4,12.35Z"/><polygon class="cls-25" points="2989.68 2052.33 2999.72 2052.33 2999.72 2142.51 2987.08 2155.09 2987.08 2184.11 2977.05 2184.11 2977.05 2150.93 2989.68 2138.32 2989.68 2052.33"/><path class="cls-26" d="M2995.34,2184.11a12.39,12.39,0,0,1-12.41,12.35h0a12.39,12.39,0,0,1-12.44-12.35h0a12.43,12.43,0,0,1,12.44-12.45h0a12.43,12.43,0,0,1,12.41,12.45Z"/><rect class="cls-25" x="2945.93" y="1890.24" width="10.05" height="336.99"/><path class="cls-26" d="M2938.52,2227.23A12.39,12.39,0,0,0,2951,2239.6h0a12.37,12.37,0,0,0,12.38-12.37h0A12.43,12.43,0,0,0,2951,2214.8h0a12.45,12.45,0,0,0-12.46,12.43Z"/><polygon class="cls-25" points="2902.32 2059.38 2912.41 2059.38 2912.41 2161.21 2887.18 2186.35 2887.18 2244.76 2917.73 2275.28 2917.73 2351.18 2907.7 2351.18 2907.7 2279.44 2877.14 2248.94 2877.14 2182.2 2902.32 2157.01 2902.32 2059.38"/><path class="cls-26" d="M2900.34,2351.18a12.39,12.39,0,0,0,12.41,12.37h0a12.39,12.39,0,0,0,12.38-12.37h0a12.42,12.42,0,0,0-12.38-12.44h0a12.42,12.42,0,0,0-12.41,12.44Z"/><rect class="cls-25" x="2857.86" y="1856.57" width="10.05" height="456.63"/><path class="cls-26" d="M2850.46,2310.3a12.37,12.37,0,0,0,12.39,12.39h0a12.35,12.35,0,0,0,12.41-12.39h0a12.37,12.37,0,0,0-12.41-12.38h0a12.39,12.39,0,0,0-12.39,12.38Z"/><polygon class="cls-25" points="3033.42 2076.42 3043.48 2076.42 3043.48 2186.73 3009.2 2220.91 3009.2 2297.92 2999.11 2297.92 2999.11 2216.78 3033.42 2182.49 3033.42 2076.42"/><path class="cls-26" d="M2991.74,2297.92a12.38,12.38,0,0,0,12.41,12.38h0a12.37,12.37,0,0,0,12.4-12.38h0a12.38,12.38,0,0,0-12.4-12.43h0a12.39,12.39,0,0,0-12.41,12.43Z"/><path class="cls-25" d="M2477,960.77l-15.22-1.13c.29-4.69.15-70.5-.07-113.53v-3.2l56-55.89V603H2533V793.34l-55.9,55.89C2477.19,869.24,2477.55,954.4,2477,960.77Z"/><path class="cls-26" d="M2544.31,603a18.92,18.92,0,0,0-18.9-18.91h0A18.86,18.86,0,0,0,2506.5,603h0a18.86,18.86,0,0,0,18.91,18.88h0a18.93,18.93,0,0,0,18.9-18.88Z"/><path class="cls-25" d="M2411.74,960.77l-15.37-1.13c.42-4.69.19-70.5,0-113.53v-3.2l56-55.89V677.49h15.31V793.34l-55.9,55.89C2411.89,869.24,2412.17,954.4,2411.74,960.77Z"/><path class="cls-26" d="M2478.93,677.49a18.93,18.93,0,0,0-18.9-18.94h0a18.88,18.88,0,0,0-18.91,18.94h0A18.89,18.89,0,0,0,2460,696.4h0a18.94,18.94,0,0,0,18.9-18.91Z"/><path class="cls-25" d="M2343.77,965.57l-15.31-1.1c.44-6,.28-89,0-143.37v-3.25l70.62-70.53v-139h15.31V753.7l-70.62,70.47C2343.83,847.88,2344.34,957.57,2343.77,965.57Z"/><path class="cls-26" d="M2425.6,608.29a18.89,18.89,0,0,0-18.91-18.91h0a18.93,18.93,0,0,0-18.87,18.91h0a18.93,18.93,0,0,0,18.87,18.91h0a18.89,18.89,0,0,0,18.91-18.91Z"/><polygon class="cls-25" points="2276.08 964.61 2260.7 964.61 2260.7 891.54 2299.13 853.23 2299.13 764.24 2252.52 717.7 2252.52 559.57 2267.89 559.57 2267.89 711.36 2314.45 757.84 2314.45 859.55 2276.08 897.92 2276.08 964.61"/><path class="cls-26" d="M2241.23,559.57a18.89,18.89,0,0,1,18.9-18.85h0a18.91,18.91,0,0,1,19,18.85h0a18.94,18.94,0,0,1-19,19h0a18.92,18.92,0,0,1-18.9-19Z"/><polygon class="cls-25" points="2144.31 779.17 2133.39 768.33 2203.08 698.8 2203.08 635.2 2218.45 635.2 2218.45 705.15 2144.31 779.17"/><path class="cls-26" d="M2229.66,640.78a18.9,18.9,0,0,0-18.91-18.91h0a19,19,0,0,0-19,18.91h0a19,19,0,0,0,19,18.93h0a18.93,18.93,0,0,0,18.91-18.93Z"/><path class="cls-24" d="M2196,926.16a52.34,52.34,0,0,0,15.23-11.82v403.38H2196Z"/><path class="cls-25" d="M2143.71,695.29V826.76a54.35,54.35,0,0,0-15.23,11.71V695.29Z"/><path class="cls-24" d="M2128.48,914.7a55.1,55.1,0,0,0,15.23,11.65v222.48h-15.23Z"/><path class="cls-26" d="M2155,695.21a18.91,18.91,0,0,0-18.9-18.91h0a19,19,0,0,0-19,18.91h0a18.92,18.92,0,0,0,19,18.88h0a18.81,18.81,0,0,0,18.9-18.88Z"/><rect class="cls-25" x="1928.45" y="748.48" width="15.38" height="513.54"/><path class="cls-26" d="M1955,748.48a18.86,18.86,0,0,0-18.88-18.88h0a18.94,18.94,0,0,0-19,18.88h0a19,19,0,0,0,19,18.94h0A18.88,18.88,0,0,0,1955,748.48Z"/><polygon class="cls-25" points="2010.23 1004.3 1994.93 1004.3 1994.93 849.09 2033.28 810.78 2033.28 721.79 1986.72 675.2 1986.72 559.57 2002.03 559.57 2002.03 668.9 2048.66 715.39 2048.66 817.13 2010.23 855.47 2010.23 1004.3"/><path class="cls-26" d="M2013.31,559.57a18.88,18.88,0,0,0-18.89-18.85h0a18.92,18.92,0,0,0-19,18.85h0a19,19,0,0,0,19,19h0a18.92,18.92,0,0,0,18.89-19Z"/><rect class="cls-25" x="2062.74" y="617.46" width="15.31" height="695.93"/><path class="cls-26" d="M2089.33,621.87a18.91,18.91,0,0,0-19-18.88h0a18.81,18.81,0,0,0-18.89,18.88h0a18.87,18.87,0,0,0,18.89,18.91h0a19,19,0,0,0,19-18.91Z"/><path class="cls-27" d="M2360.51,1101.4a218.05,218.05,0,0,1,53.07-23l10.93-52.46,88.75-1.55,12.78,52a217.85,217.85,0,0,1,53.85,21.16l24.62-29.36h20.24l63.85,61.57-27.8,45.79a216.76,216.76,0,0,1,23.06,53l52.53,10.92,1.56,88.63-52.11,12.76a216.77,216.77,0,0,1-21.19,53.77l29.4,44.8-61.65,63.77h-20.23l-25.63-27.77a217.29,217.29,0,0,1-53.07,23l-10.94,52.46-88.75,1.56-12.77-52a217.85,217.85,0,0,1-53.85-21.16l-44.85,29.36h-20.24l-43.62-61.57,27.8-45.79a217,217,0,0,1-23.07-53l-52.52-10.92-1.56-88.62,52.11-12.77a217.13,217.13,0,0,1,21.18-53.77L2253,1137.41l41.42-63.78h20.23l45.86,27.77Zm47.31,118.07a95.16,95.16,0,1,0,134.65-2.36A95,95,0,0,0,2407.82,1219.47Z"/><g class="cls-28"><path d="M2360.51,1101.4a218.05,218.05,0,0,1,53.07-23l10.93-52.46,88.75-1.55,12.78,52a217.85,217.85,0,0,1,53.85,21.16l24.62-29.36h20.24l63.85,61.57-27.8,45.79a216.76,216.76,0,0,1,23.06,53l52.53,10.92,1.56,88.63-52.11,12.76a216.77,216.77,0,0,1-21.19,53.77l29.4,44.8-61.65,63.77h-20.23l-25.63-27.77a217.29,217.29,0,0,1-53.07,23l-10.94,52.46-88.75,1.56-12.77-52a217.85,217.85,0,0,1-53.85-21.16l-44.85,29.36h-20.24l-43.62-61.57,27.8-45.79a217,217,0,0,1-23.07-53l-52.52-10.92-1.56-88.62,52.11-12.77a217.13,217.13,0,0,1,21.18-53.77L2253,1137.41l41.42-63.78h20.23l45.86,27.77Zm47.31,118.07a95.16,95.16,0,1,0,134.65-2.36A95,95,0,0,0,2407.82,1219.47Z"/></g><path class="cls-27" d="M2340.28,1101.4a218.05,218.05,0,0,1,53.07-23l10.93-52.46,88.75-1.55,12.78,52a217.85,217.85,0,0,1,53.85,21.16l44.85-29.36,63.86,61.57-27.8,45.79a216.76,216.76,0,0,1,23.06,53l52.53,10.92,1.56,88.63-52.11,12.76a216.77,216.77,0,0,1-21.19,53.77l29.4,44.8-61.65,63.77-45.86-27.77a217.19,217.19,0,0,1-53.08,23l-10.93,52.46-88.75,1.56-12.77-52a217.85,217.85,0,0,1-53.85-21.16l-44.86,29.36-63.85-61.57,27.8-45.79a217,217,0,0,1-23.07-53l-52.52-10.92-1.56-88.62L2241,1236a217.13,217.13,0,0,1,21.18-53.77l-29.39-44.79,61.65-63.78,45.86,27.77Zm47.31,118.07a95.16,95.16,0,1,0,134.65-2.36A95,95,0,0,0,2387.59,1219.47Z"/><g id="_2" data-name="2"><path class="cls-29" d="M3853.24,951.39v106.53a32.06,32.06,0,0,1-32.08,32H3565.3a32.06,32.06,0,0,1-32.08-32V951.39a32.06,32.06,0,0,1,32.08-32h255.86A32.07,32.07,0,0,1,3853.24,951.39Z"/><path class="cls-30" d="M3533.22,1057.92a32.06,32.06,0,0,0,32.08,32h13.09v45.72l61.82-45.72h180.95a32.06,32.06,0,0,0,32.08-32V951.39C3732.45,1072,3533.22,1057.92,3533.22,1057.92Z"/><path class="cls-2" d="M3736.05,971.43H3565.63a8.87,8.87,0,1,1,0-17.74h170.42C3747.61,953.73,3747.71,971.38,3736.05,971.43Z"/><path class="cls-2" d="M3634.38,1013.53h-68.75c-11.6,0-11.63-17.69,0-17.74h68.75C3646,995.83,3646,1013.48,3634.38,1013.53Z"/><path class="cls-2" d="M3820.82,1013.53H3675.7a8.87,8.87,0,1,1,0-17.74h145.12C3832.4,995.83,3832.48,1013.48,3820.82,1013.53Z"/><path class="cls-2" d="M3706.17,1055.63H3565.63c-11.57-.05-11.65-17.7,0-17.75h140.54C3717.75,1037.93,3717.82,1055.57,3706.17,1055.63Z"/></g><ellipse class="cls-31" cx="2355.69" cy="2672.71" rx="1299.01" ry="87.29"/><path class="cls-32" d="M1354.76,2685.07q-88.69,0-188.8-11.39a9,9,0,1,1,2-17.79c313.2,35.63,541-13.22,677-145.27,144.28-140,130.18-326.51,130-328.38a9,9,0,0,1,17.87-1.51c.16,1.95,14.9,196.86-135.39,342.73C1746.76,2631,1578.09,2685.06,1354.76,2685.07Z"/><path class="cls-33" d="M1366.89,2685.07q-55.92,0-115.78-3.59a9,9,0,1,1,1.07-17.87c325.79,19.5,562.12-41.33,702.47-180.88,136.4-135.63,129-299,128.87-300.67a9,9,0,0,1,8.45-9.44,9.06,9.06,0,0,1,9.45,8.45c.39,7,7.93,173.11-134.12,314.35C1840.54,2621.45,1638.88,2685.06,1366.89,2685.07Z"/><path class="cls-34" d="M2793.87,2630.48a433,433,0,0,1-47.33,16.59c-2.21.66-4.42,1.32-6.7,1.91-116.06,32.23-275.58,36.41-417.89,31l-12.07-.54c-105.37-4.41-200.28-13.84-259.51-20.77-22.17-2.56-33.23-28.47-19.48-46.07,15.06-19.34,33.23-48.41,53-92.1,56.24-124.26-7.77-232.89-7.77-232.89s91.92-397.09,97.9-407,603-99.61,566.65,10.27-34.72,415.47-24.74,518.9c6.75,70.43,57,139,88.27,175.66C2816.82,2600.16,2811.68,2623,2793.87,2630.48Z"/><path class="cls-35" d="M2668.82,2018.18S2309.53,2443.34,2106.55,2420c0,0-2.23-97.46-34.55-132.78,0,0,85,16,179.94-18.25S2668.82,2018.18,2668.82,2018.18Z"/><path class="cls-36" d="M2934.09,1679.69,2689,1837.86,2252,771.63s13.8-7.94,46-16.41a522.72,522.72,0,0,1,62.21-12c12.85-1.85,27-3.4,42.44-4.6,19.12-1.61,40.28-2.68,63.65-3,13-.24,26.72-.24,41.18.06,10.34.18,21.1.48,32.21.95q18.48.81,36.16,2.93c278.4,32.29,415.09,289.53,415.09,289.53C3158.21,1360.37,2934.09,1679.69,2934.09,1679.69Z"/><polygon class="cls-6" points="2530.66 837.37 2565.14 778.34 2641.68 803.32 2624.32 860.08 2673.8 881.61 2713.56 836.18 2775.05 880.12 2743.09 928.75 2773.33 959.54 2803.92 930.76 2855.47 992.21 2783.18 1063.31 2608.99 1010.16 2530.66 837.37"/><path class="cls-29" d="M2575.78,739.58,2541.12,876.5,2402,869.1l-92.76-78-11.29-35.87a522.72,522.72,0,0,1,62.21-12l16.12,59.09,26.9-12.93-.58-50.76c19.12-1.61,40.28-2.68,63.65-3l-2.31,75.12,19.42,26.86,24.07-101.92c10.34.18,21.1.48,32.21.95Q2558.1,737.46,2575.78,739.58Z"/><path class="cls-37" d="M2856.72,1070.75l47.82-49.83,47.81,54.95,51.18-16,2.74-70,75,7.5-8,71.43,37.65,21.57,53.74-43.31,42.53,51.28-47.64,51,6.66,35.23,60.38,22.34-29.07,69.89-51.27-29.09-15.44,25.62c5,9,31.38,52.22,31.38,52.22L3106.48,1360l-27.25-59-26.31,7.55v56.91l-66.39-1.8.86-57.9-33-7.11-34.21,43-51.4-44.71,41.78-47.15-8.33-20.11-52.54,9.62-20.13-94.89,73.89-11.19-7.83-12.69Z"/><path class="cls-26" d="M3027.92,1281.2a95.42,95.42,0,1,1,95.56-95.42A95.6,95.6,0,0,1,3027.92,1281.2Zm0-184.87a89.45,89.45,0,1,0,89.58,89.45A89.61,89.61,0,0,0,3027.92,1096.33Z"/><ellipse class="cls-26" cx="3027.93" cy="1185.78" rx="40.75" ry="40.69"/><path class="cls-38" d="M2154.45,813.17a5.15,5.15,0,1,0,5.14-5.14A5.14,5.14,0,0,0,2154.45,813.17Z"/><path class="cls-38" d="M2154.45,906.93a5.15,5.15,0,1,0,5.14-5.14A5.14,5.14,0,0,0,2154.45,906.93Z"/><path class="cls-26" d="M2748.56,2644.88c-134-123.61-156.18-286-151.2-400.44,5.29-120.09,40.41-213.65,44.46-224.09l1-2.74-11.11-4.29-1.09,2.8c-4.07,10.43-39.83,105.46-45.23,227.65-5.14,116,17.12,280.77,152.39,407.4l1.21,1.13,1.6-.43c2.3-.6,4.54-1.27,6.78-1.93l5-1.5Z"/><path class="cls-26" d="M2322,2680l-12.07-.54c72.92-360-58.33-404.37-59.65-404.78a6,6,0,0,1,3.41-11.46C2259.5,2265,2396.48,2309.43,2322,2680Z"/><polygon class="cls-29" points="2869.97 1153.98 2902.18 1229.78 2881.56 1234.25 2875.64 1235.57 2789.16 1254.43 2695.03 1080.15 2748.82 1037.41 2733.1 1012.88 2729.27 1006.97 2714.7 994.79 2822.57 994.79 2818.68 1052.09 2844.09 1067.85 2899.79 1047.56 2932.6 1126.58 2869.97 1153.98"/><path class="cls-39" d="M2886.1,1074.3l-48.53,16.83a3,3,0,0,1-2.93-.48L2796,1058.6a2.92,2.92,0,0,1-1.07-2.39l2-44.46-63.89,1.13-12.61.24a3,3,0,0,1-3-2.93,3,3,0,0,1,2.93-3l8.9-.18,70.77-1.25a3.11,3.11,0,0,1,2.21.89,2.93,2.93,0,0,1,.84,2.27L2801,1055l36.22,30,49.61-17.25a2.91,2.91,0,0,1,3.7,1.67l19.73,48.35a2.87,2.87,0,0,1-.06,2.33,3,3,0,0,1-1.68,1.61L2846.12,1145l35.44,89.29-5.92,1.32-36.22-91.2a2.86,2.86,0,0,1,.06-2.33,2.69,2.69,0,0,1,1.68-1.55l62.39-23.34Z"/><path class="cls-40" d="M2826.37,1123.44a37,37,0,1,1-37-37A37,37,0,0,1,2826.37,1123.44Z"/><path class="cls-24" d="M2823.52,1572.25c-.12,2.33-.3,4.84-.54,7.58-7.23,79.09-76.08,335.32-130.95,413.21-56.78,80.57-418.37,274.55-481.12,292.46-24.45,7-63.18,17.67-105.85,21.9-66.88,6.69-143.5-2.44-190-66.67-5.38-7.4-11.89-18.74-19.13-33.12-6.57-13.19-13.62-29-20.85-46.5-1.68-4.05-3.35-8.29-5-12.59-22.59-57.6-45-131.73-53.61-200.25-7.71-61.47-11.47-189.74-17.51-395-.12-3.34-.18-6.68-.3-10-.18-6.81-.42-13.67-.59-20.65-.18-7.7-.42-15.52-.66-23.4q-.9-28.29-1.85-58.25a707.43,707.43,0,0,1,18.88-187.6c1-4.29,2.09-8.53,3.17-12.71,1.08-4,2.15-8,3.17-11.94.36-1.13.65-2.32,1-3.46C1862.52,1079.85,1936,993.3,1936,993.3c173.32-247.69,400.44-229.79,400.44-229.79,143.44,11.94,233.09,50.74,379.52,226.81S2826.51,1503.62,2823.52,1572.25Z"/><path class="cls-41" d="M1918.05,1740.45c-38.65,49.8,88.74,72.66,111.75,91.58,8.73,7.16-57.48,20.39-70.43,21.51-109.18,9.43-58.37,122,15.08,252.16,2.63,4.59,5.67,15,5.61,21.63-.06,3.76,7,3.94,6.12,8.06-63-1.31-105.61,21-106.32,21.31a6,6,0,0,1-6.94-1c-.59-1.49-1.19-3-1.79-4.59-23-58-39-93.2-54.69-202.88-8.77-61.33-11.47-189.74-17.51-395-.12-3.34-.18-6.68-.3-10-.18-6.81-.42-13.67-.59-20.65-.18-7.7-.42-15.52-.66-23.4q-.9-28.29-1.85-58.25a707.43,707.43,0,0,1,18.88-187.6c1-4.29,2.09-8.53,3.17-12.71,1.08-4,2.15-8,3.17-11.94a131.86,131.86,0,0,1,21.57-1.55s64.43-66.19,172.07,38.44c56.06,54.49,29.69,204.23,4.29,261.47C1994.83,1580.84,1966.12,1678.5,1918.05,1740.45Z"/><path class="cls-29" d="M2342.72,1215.31a27.22,27.22,0,1,1-27.22-27.18A27.2,27.2,0,0,1,2342.72,1215.31Z"/><path class="cls-42" d="M2330.1,1215.31a14.61,14.61,0,1,1-14.6-14.58A14.6,14.6,0,0,1,2330.1,1215.31Z"/><ellipse class="cls-29" cx="2532.38" cy="2459.61" rx="21.28" ry="21.25"/><path class="cls-42" d="M2543.79,2459.61a11.41,11.41,0,1,1-11.41-11.4A11.4,11.4,0,0,1,2543.79,2459.61Z"/><ellipse class="cls-29" cx="2375.5" cy="2614.41" rx="21.28" ry="21.25"/><path class="cls-42" d="M2386.92,2614.41a11.42,11.42,0,1,1-11.42-11.4A11.41,11.41,0,0,1,2386.92,2614.41Z"/><path class="cls-29" d="M2709.69,2432a21.28,21.28,0,1,1-21.28-21.25A21.26,21.26,0,0,1,2709.69,2432Z"/><path class="cls-42" d="M2699.82,2432a11.41,11.41,0,1,1-11.41-11.4A11.4,11.4,0,0,1,2699.82,2432Z"/><path class="cls-29" d="M2562,1274.7a18.09,18.09,0,1,1-18.09-18.06A18.07,18.07,0,0,1,2562,1274.7Z"/><path class="cls-42" d="M2553.65,1274.7a9.7,9.7,0,1,1-9.7-9.68A9.69,9.69,0,0,1,2553.65,1274.7Z"/><path class="cls-29" d="M2459.29,1234a20.19,20.19,0,1,1-20.19-20.17A20.18,20.18,0,0,1,2459.29,1234Z"/><path class="cls-42" d="M2449.94,1234a10.84,10.84,0,1,1-10.84-10.82A10.82,10.82,0,0,1,2449.94,1234Z"/><path class="cls-29" d="M1907.54,1175.72a20.2,20.2,0,1,1-20.2-20.16A20.18,20.18,0,0,1,1907.54,1175.72Z"/><path class="cls-42" d="M1898.18,1175.72a10.84,10.84,0,1,1-10.84-10.81A10.83,10.83,0,0,1,1898.18,1175.72Z"/><path class="cls-29" d="M2043.38,1186.23a27.23,27.23,0,1,1-27.22-27.19A27.2,27.2,0,0,1,2043.38,1186.23Z"/><path class="cls-42" d="M2030.76,1186.23a14.61,14.61,0,1,1-14.6-14.59A14.59,14.59,0,0,1,2030.76,1186.23Z"/><path class="cls-35" d="M2748.81,1037.39s-104.59,49.49-134.48,186.23S2683.5,1562,2823,1579.81c0,0,28.63-158.38,26.06-197.8C2833.11,1137.57,2748.81,1037.39,2748.81,1037.39Z"/><path class="cls-43" d="M2720.54,1421.07l64.13,52.7-63.23,57.06s-37.54-28.29-72.26-96.57c-1-1.73-1.85-3.52-2.75-5.37-3.65-7.46-7.29-15.4-10.82-23.76-.66-1.49-1.31-3.22-2-5.13-3.35-9-7.29-21.54-10.1-29.42-11.66-32.83-16.68-62.26-17.16-88.88v-1.07a242.79,242.79,0,0,1,1-24.89c.24-2,.42-4.06.66-6.09,5.86-48.82,26.3-87.5,45-121l65,39.87-31,64.92,32.61,38.67,78.1-12.54,19.11,101.91-80.56,8.84Z"/><path class="cls-26" d="M2617,1249.24a90.05,90.05,0,0,0-9,.41c-.24,2-.42,4.06-.66,6.09a85.77,85.77,0,0,1,9.68-.54,89.32,89.32,0,0,1,29.47,173.69c.9,1.85,1.79,3.64,2.75,5.37a95.29,95.29,0,0,0-32.22-185Z"/><path class="cls-44" d="M3043.65,1401.55c-.66,4.6-2.15,11.94-4.25,21.07-.41,2-.89,4.18-1.43,6.39-11.54,49.66-36.58,138.83-46.62,143.48-2.81,1.26-82.18,26.68-119.23,38.5-2,.66-3.95,1.25-5.68,1.85-8.07,2.57-13,4.12-13,4.12l-41.12-111.85,96.64-42,22.53,55.57,31.86-26,8.19-76.57Z"/><path class="cls-39" d="M3039.4,1422.62c-.41,2-.89,4.18-1.43,6.39l-42.73,7.76-4.67,75.5a3,3,0,0,1-.89,1.91l-55.41,55.21a3,3,0,0,1-2.69.78,2.86,2.86,0,0,1-2.21-1.79l-29.58-72.76-60.31,25.54,32.64,89.83,5,13.85a3,3,0,0,1-1.8,3.82,3,3,0,0,1-3.82-1.79l-5.08-14-33.53-92.27a3,3,0,0,1,1.61-3.76l65.75-27.88a3.13,3.13,0,0,1,2.33,0,3,3,0,0,1,1.61,1.67l29,71.39,51.46-51.21,4.72-76.7a2.92,2.92,0,0,1,2.45-2.74Z"/><path class="cls-2" d="M2796.62,1590.1s146.43-67.58,208.19-7.9,35.86,147.23-15.94,208.9S2791.64,2004,2719.92,2004s-68.63-18-54.69-63.81S2796.62,1590.1,2796.62,1590.1Z"/><path class="cls-29" d="M2954.11,1767a6,6,0,0,1-5.41-8.49c24.51-52.54,28.46-89.29,11.74-109.23-25.25-30.14-90.8-13.23-91.45-13a6,6,0,1,1-3.06-11.54c3-.79,73.6-19,103.68,16.92,19.95,23.81,16.56,64.84-10.08,121.94A6,6,0,0,1,2954.11,1767Z"/><path class="cls-29" d="M2802.36,1913.3a6,6,0,0,1-2.79-11.25c51.91-27.4,91.15-74.94,91.54-75.42a6,6,0,0,1,9.26,7.55c-1.66,2-41.19,49.91-95.22,78.42A5.86,5.86,0,0,1,2802.36,1913.3Z"/><path class="cls-26" d="M2683.78,1879.7a6.06,6.06,0,0,1-1.49,4.29c-13,14.81-282.82,317.53-474.67,317.53-28.27,0-54.81-6.56-78.59-21.55-52.42-33-101.91-43.75-142.85-44.58-63-1.31-105.61,21-106.32,21.31a37.1,37.1,0,0,0-4.78,4.41c-1.68-4.05-3.35-8.29-5-12.59l4.13-2.27c.72-.42,46.2-24.35,113.32-22.68,42.55,1,93.83,12.24,147.92,46.32,170.87,107.73,510-262.86,536.29-292-.84-24.66-1.31-221.86,135.61-301.42,4.25,1,12.73,2.33,15.66,3.34C2681.39,1659.63,2683.6,1877.43,2683.78,1879.7Z"/><path class="cls-29" d="M2268.68,1966.18c18.43-9-128.23-20.07-162.74-39.91-66.74-38.38-73.54,14.54-98.74,14.54-18.93,0-16-29.48-40.22-37.3-24-7.76-51.09,12.39-66,22.63a6.18,6.18,0,0,0,2.39,11.17c17.89,3.38,48.18,9.78,59.45,16.19,3.68,2.09,37.37,50.73,94.88,17.9C2057.75,1971.4,2249.54,1975.48,2268.68,1966.18Z"/><path class="cls-29" d="M2019.57,2046c-23-2.11-38.13-12.26-49-19.54l-2-1.35a6,6,0,1,1,6.64-9.93l2,1.38c17.56,11.79,44.1,29.64,99.63,7a6,6,0,1,1,4.52,11.05C2056,2045,2035.82,2047.49,2019.57,2046Z"/><path class="cls-45" d="M2677.81,1341.09a61.32,61.32,0,0,1-44.23,58.91c-3.35-9-7.29-21.54-10.1-29.42-11.66-32.83-16.68-62.26-17.16-88.88v-1.07a62.69,62.69,0,0,1,10.11-.84A61.32,61.32,0,0,1,2677.81,1341.09Z"/><path class="cls-46" d="M2019.65,1848.47c1.33-.22,31.13-20,60.52-22.31,36.6-2.94,79.42,10,79.42,10s-61.49-25.83-71.21-30.8-28.54,3.77-38,9.89S2019.65,1848.47,2019.65,1848.47Z"/><path class="cls-46" d="M2182.88,1834.69a5.88,5.88,0,0,1-6.52,5.37c-44.83-4.29-53.19-9.43-65.8-17.19a138.91,138.91,0,0,0-17.22-9.43c-22.83-10.5-39.68,5-54.92,21.79-4.66,5.13,5.26-3.63,2-2.14-16.55,7.4-37.16-25.39-54.19-25.39-16.14,0-27.1-8.06-40.25-14.8-17.69-9.08-32.54-9.85-36-26.8-8.25-40.82,3-33.59,29.27-71.37,18-26,28.77-71.37,42.75-108.44,1.62-4.18,5.15-9.85,7.06-14.8,28.81-74.91,96.73-213.69,26.93-292.23-35.86-40.29-76.39-60.52-120.55-59.63-27.62.48-54.09,9.07-77.82,21q2.06-7.79,4.12-15.4c22.59-10.14,47.4-17.07,73.46-17.55,47.69-.89,91.44,20.6,129.69,63.69,74.71,84,7.94,232.86-21.71,310-1.91,5-5.5,10.63-7.06,14.8-14.52,38.38-28.66,78.87-47.07,105.37-25.7,37-43.48,30.11-36.24,66,2.74,13.31,9.66,10.93,24,18.33,23.91,12.18,74.63,50.27,103.62,37.2,1.2-.6-13.45,7.12-10.82,4.19,12.61-13.9,36-39.69,68.79-24.65a155.25,155.25,0,0,1,18.53,10.15c11.54,7.1,18.53,11.4,60.61,15.46A6,6,0,0,1,2182.88,1834.69Z"/><path class="cls-29" d="M3008.87,1614.46a21.28,21.28,0,1,1-21.27-21.24A21.26,21.26,0,0,1,3008.87,1614.46Z"/><path class="cls-42" d="M2999,1614.46a11.42,11.42,0,1,1-11.41-11.4A11.4,11.4,0,0,1,2999,1614.46Z"/><path class="cls-29" d="M2759.77,1957.86a21.28,21.28,0,1,1-21.27-21.25A21.26,21.26,0,0,1,2759.77,1957.86Z"/><path class="cls-42" d="M2749.91,1957.86a11.42,11.42,0,1,1-11.41-11.4A11.4,11.4,0,0,1,2749.91,1957.86Z"/><polygon class="cls-8" points="3425.47 2642.51 3436.89 2664.93 3211.22 2737.98 3209.45 2717.55 3425.47 2642.51"/><path class="cls-23" d="M3425.48,2642.53s-66.34,26.8-127.78,48.56c-35.68,12.6-66.3,22.92-84.81,25.86,18.35-13.09,34.32-27.7,51.18-43.45,43.4-40.56,56.33-63.58,36.72-102.83-15.2-30.43-42-74.93-42-74.93l72.34-33.8s22.58,48.13,39.92,86C3382.75,2573.44,3418.29,2634.49,3425.48,2642.53Z"/><path class="cls-9" d="M3371.05,2547.91l-70.27,22.75c-15.21-30.44-42-74.94-42-74.94l72.34-33.8S3353.71,2510.06,3371.05,2547.91Z"/><path class="cls-10" d="M3341.05,2554.24a10.34,10.34,0,0,0-10.87-2.09c-4.13,1.53-6.9,4.91-8.78,8.65a88.16,88.16,0,0,0-5,13.11,117.49,117.49,0,0,0-5,25.33,19,19,0,0,0-1.23-1.46,57,57,0,0,0-5.14-4.67,95.32,95.32,0,0,0-10.86-7.68,97.41,97.41,0,0,0-12-6.27c-3.76-1.63-8-3-12.15-2.36-6.8,1-12.4,7.7-8.93,14.2,1.93,3.61,5.9,5.79,9.57,7.44a95.9,95.9,0,0,0,12.12,4.54,101.36,101.36,0,0,0,26.28,3.94,1.86,1.86,0,0,0,.1.2,2.57,2.57,0,0,0-.07.46,2.38,2.38,0,0,0,2.51,2.12,118.79,118.79,0,0,1,20.39,2.88c1.77.4,4.33,1.14,5.37-.86,1.25-2.44-2-3.54-3.77-3.93-3.36-.72-6.75-1.28-10.16-1.71-2.12-.26-4.24-.46-6.36-.62a45.84,45.84,0,0,0,8.49-6.63,65.08,65.08,0,0,0,8.58-9.6c5-6.9,9.87-15.49,10.59-24.06A13.38,13.38,0,0,0,3341.05,2554.24Zm-51,45.68c-7.08-1.49-14.62-3.44-21-6.84-2.94-1.57-6.46-4.45-5-8.1,1.12-2.8,4.29-4.4,7.23-4.63,3.8-.28,7.48,1.12,10.86,2.64a84.06,84.06,0,0,1,9.74,5.19,93.22,93.22,0,0,1,10.34,7.38c1.7,1.39,3.34,2.85,5,4.28.86.75,1.76,1.45,2.66,2.16A99.26,99.26,0,0,1,3290,2599.92Zm50.76-34c-1.26,7.3-5.3,14.7-9.81,20.6a61.6,61.6,0,0,1-8.32,8.92c-2.49,2.17-5.35,3.86-8,5.79a132.92,132.92,0,0,1,3.33-19.42,120.9,120.9,0,0,1,3.73-12.06c1.36-3.66,2.72-7.59,5.14-10.73,2.27-2.94,6.66-5.64,10.38-3.41S3341.4,2562.24,3340.77,2565.92Z"/><path class="cls-10" d="M3333.06,2624.56c-1.22-.37-2.5-.58-3.75-.86l-7.26-1.6c-4.93-1.08-9.88-2-14.82-3a1.77,1.77,0,0,0-.7,3.47c4.81,1.24,9.61,2.51,14.44,3.67l7,1.67c2.13.51,5.38,2,7.28.39a1.37,1.37,0,0,0,.56-1.56A3.61,3.61,0,0,0,3333.06,2624.56Z"/><path class="cls-10" d="M3333.23,2644.77c-5.11-1.94-10.28-3.74-15.43-5.57a139.05,139.05,0,0,0-17.51-5.43,1.2,1.2,0,0,0-.79,2.25,136.78,136.78,0,0,0,14.9,6.6c4.95,2,9.95,4,15,5.82,1.95.71,5.35,2.61,7.18.78C3338.55,2647.22,3334.69,2645.33,3333.23,2644.77Z"/><path class="cls-10" d="M3312.4,2660.4l-11-5.28q-6.18-3-12.44-5.73a1.44,1.44,0,0,0-1.32,2.57c7,4.12,14,8,21.11,12,1.71.95,3.91,2.62,5.84,1.17a2,2,0,0,0,.58-2.39C3314.7,2661.47,3313.53,2660.94,3312.4,2660.4Z"/><path class="cls-2" d="M3297.7,2691.09c-30.87,17.78-68.47,28-88.23,26.46,18.34-13.09,37.74-28.3,54.6-44.05a76.55,76.55,0,0,1,27,12.18A78.76,78.76,0,0,1,3297.7,2691.09Z"/><path class="cls-2" d="M3372.29,2624a17.37,17.37,0,0,0,15.82-7.93c8.28-13.3-5.35-31-20.37-23C3354.24,2600.16,3354.77,2622.45,3372.29,2624Z"/><path class="cls-35" d="M3253.8,2559.44c.52,1.19,6.3-.56,13.4,0s12.61,2.93,13.27,1.82c.74-.94-4.62-5.8-13-6.34S3253.19,2558.41,3253.8,2559.44Z"/><path class="cls-35" d="M3263.83,2556.46c.83,1.08,6.26-2.19,13.63-3.45,7.35-1.41,13.6-.26,14-1.56.51-1.14-6.2-4.72-14.86-3.12S3262.94,2555.57,3263.83,2556.46Z"/><path class="cls-47" d="M3215.07,1681.71S3102.14,2118.4,3099,2159.55s153.64,414.34,153.64,414.34l144-35.12L3383.1,2492l-102.37-352.66s124.4-372,123-375.94C3400.15,1753.14,3369,1735,3369,1735Z"/><path class="cls-48" d="M3479,1191.45a101.25,101.25,0,0,1,31.84,57.72c11.57,66.44,35.61,207.31,34.23,222.55-1.83,20-11.86,51.86-34.63,57.32s-43.73,0-43.73,0L3450.88,1166Z"/><path class="cls-48" d="M3480.2,1560.92l-.33-356.29s-5.13-14.57-26-35.93c-9.61-9.81-55.16-41.49-55.16-41.49l-3.82-23.55c-14.6-11.31-40.73-18.56-59.21-18.32-60.07.77-96.48,27.62-96.48,27.62l-5.92,23.21L3205.72,1149l-49.42,190.26-16.79,264.88-49.37,540.33L3522,2157l-5.88-376.45a642.66,642.66,0,0,0-12.54-104.91Z"/><path class="cls-35" d="M3233.24,1136.17a7.28,7.28,0,0,0,1.67-.34l4.71-1.24c4.09-1,10-2.46,17.45-3.86a488.32,488.32,0,0,1,58.51-7.21c23-1.4,43.91-1.27,58.93.18,7.52.64,13.56,1.58,17.71,2.33l4.76.94a7.86,7.86,0,0,0,1.69.24,7.19,7.19,0,0,0-1.62-.51l-4.73-1.2a157.54,157.54,0,0,0-17.71-2.79c-15.07-1.7-36.05-2-59.12-.58s-43.81,4.46-58.62,7.63c-7.41,1.53-13.34,3.1-17.4,4.31l-4.64,1.49A7.87,7.87,0,0,0,3233.24,1136.17Z"/><path class="cls-35" d="M3479.87,1220.8c.76,0,1.07,74.69.7,166.8s-1.29,166.8-2,166.79-1.07-74.67-.7-166.81S3479.12,1220.8,3479.87,1220.8Z"/><path class="cls-35" d="M3180.82,2144.42a10.64,10.64,0,0,1-.05-2.08c0-1.51.07-3.52.12-6.1.17-5.5.41-13.36.73-23.41.75-20.47,1.84-49.83,3.18-86.06,3-72.78,7-173.08,11.56-283.86,4.82-110.81,9.18-211.11,12.35-283.88,1.71-36.2,3.09-65.55,4.06-86,.53-10,.95-17.88,1.24-23.38.17-2.56.3-4.57.39-6.08a11.93,11.93,0,0,1,.23-2.06,11.7,11.7,0,0,1,0,2.08c0,1.5-.07,3.52-.12,6.08-.17,5.51-.41,13.36-.73,23.41-.75,20.47-1.84,49.83-3.18,86-3,72.78-7.05,173.1-11.56,283.93-4.82,110.78-9.19,211.07-12.35,283.84-1.71,36.2-3.1,65.55-4.06,86-.53,10-.95,17.88-1.24,23.38-.17,2.56-.3,4.57-.39,6.08A11.93,11.93,0,0,1,3180.82,2144.42Z"/><path class="cls-35" d="M3478.53,1554.39c0,.19-2.41.77-6.85,1.67s-10.91,2-18.94,3.2a455.64,455.64,0,0,1-63.21,4.55,445.8,445.8,0,0,1-63.22-4.51c-8-1.18-14.49-2.3-18.93-3.24s-6.88-1.52-6.84-1.7,2.53.05,7,.65,11,1.44,19,2.37a556.44,556.44,0,0,0,63,3.7,574.54,574.54,0,0,0,63-3.74l19-2.33C3476,1554.44,3478.5,1554.21,3478.53,1554.39Z"/><path class="cls-35" d="M3398.67,1127.21a4.37,4.37,0,0,1,1.19.51l3.37,1.74c2.92,1.58,7.18,4,12.47,7.51a404.54,404.54,0,0,1,42.64,32.32,302.87,302.87,0,0,1,26.7,25.62,98.23,98.23,0,0,1,12.6,16.52c2,3.09,3,6.6,4.44,10,1.11,3.48,2.33,7,3.39,10.58,8.25,28.77,14.67,61,21,94.8,6.1,33.88,11.2,66.29,15,95.89,1.88,14.8,3.49,28.89,4.6,42.13,1,13.25.41,26.09-4.13,36.77a45.64,45.64,0,0,1-20.36,22.64,65.93,65.93,0,0,1-22,7,76.1,76.1,0,0,1-14.57.77c-1.67-.06-2.93-.18-3.78-.29a3.84,3.84,0,0,1-1.28-.25c0-.11,1.75,0,5.07,0a86.84,86.84,0,0,0,14.39-1.27,66.65,66.65,0,0,0,21.44-7.29,44.17,44.17,0,0,0,19.32-22.06c4.26-10.32,4.7-22.75,3.65-35.82s-2.89-27.24-4.83-42c-3.91-29.53-9.08-61.89-15.18-95.74-6.27-33.78-12.62-66-20.68-94.57-1-3.56-2.21-7-3.29-10.46-1.41-3.27-2.38-6.75-4.23-9.64a96.15,96.15,0,0,0-12.18-16.17,310.23,310.23,0,0,0-26.28-25.69,452.42,452.42,0,0,0-42-32.89c-5.18-3.59-9.33-6.18-12.16-7.91l-3.22-2A4.66,4.66,0,0,1,3398.67,1127.21Z"/><path class="cls-49" d="M3180.82,1658.16H3113s-31.45,194.64,2.65,207.36,48.24-16.92,48.24-16.92Z"/><path class="cls-50" d="M3180.82,1658.16a27.51,27.51,0,0,1-.16,3.51c-.19,2.58-.44,6.06-.77,10.47-.75,9.44-1.82,22.81-3.15,39.51-2.89,34.18-6.91,81.89-11.57,137.07l0,.25-.11.2a42.25,42.25,0,0,1-11.58,13.62,35.48,35.48,0,0,1-17.12,6.92,41.91,41.91,0,0,1-18.79-2.16,16.81,16.81,0,0,1-4.64-1.89,15.49,15.49,0,0,1-3.79-3.46,31,31,0,0,1-4.67-8.72c-3.33-9.49-4.47-19.25-5.24-28.77s-.88-18.93-.77-28.13c.23-18.39,1.41-36,2.86-52.61,3-33.22,7-62.45,10.77-86l.13-.77h.77l50.15.5,13.25.22,3.37.1a4.32,4.32,0,0,1,1.08.09,7.76,7.76,0,0,1-1.27.09l-3.54.09-13.47.22-49.57.51.9-.77c-3.5,23.49-7.28,52.73-10.09,85.88-1.37,16.57-2.48,34.14-2.67,52.43-.08,9.14.1,18.47.81,27.89s1.93,19,5.1,28c2.14,5.73,5.35,11.31,11.37,12.41A39.25,39.25,0,0,0,3136,1867c11.74-1.22,21.56-9.47,26.66-19l-.12.44c5.13-54.75,9.57-102.1,12.74-136,1.66-16.81,3-30.27,3.91-39.77.47-4.52.85-8.08,1.12-10.73A36.89,36.89,0,0,1,3180.82,1658.16Z"/><path class="cls-15" d="M2988.39,1347.52l-7.43-6.11s-8.59-24.48-10.94-29.19-19.73-30.07-25.87-38.34-31.52-37.72-39.15-31.81c-8.64,6.68,1.1,20,6.64,26.58s16,22.45,9.63,25.4-46.36-19.34-46.36-19.34l-10.56-4.47s-8-1-10.72,7.68,5.7,17.76,5.7,17.76h0s-5.6,3.3-4.86,9.53,3.79,15.33,3.79,15.33.13,13.6,14.1,25.35c1.63,1.38,73.37,42.35,73.37,42.35l23.7,19.48Z"/><path class="cls-48" d="M3205.08,1148.21c.36-.25-12.2,9.31-16.52,13.67-7.25,7.31-30.82,49.43-42,92.17-10.68,40.78-30,123.9-30,123.9s-14.57-3.82-17.71,14.6L2979.1,1331s-53.19,31.06-35.82,82c0,0,81.87,63.09,111.85,79.31,0,0,110.71,59.66,144.94,16.83,31.27-39.13,50.64-99.29,59.53-122.9l33.84-129s20.26-70.35-20.62-98.47S3205.08,1148.21,3205.08,1148.21Z"/><path class="cls-35" d="M3131.26,1439c-.42.54-10.73-7.74-19.88-21.06s-13.33-25.82-12.67-26,5.9,11.51,14.92,24.47S3131.83,1438.37,3131.26,1439Z"/><path class="cls-35" d="M3150.71,1427.49c-.42.54-10.73-7.74-19.88-21.06s-13.32-25.82-12.67-26,5.9,11.51,14.93,24.47S3151.28,1426.89,3150.71,1427.49Z"/><path class="cls-35" d="M3273.86,1330.81s-.2.83-.72,2.4l-2.34,7-8.91,26.79c-8,23.18-19,57-37,97.16a298.5,298.5,0,0,1-15.9,30.71,127.08,127.08,0,0,1-10.53,15.21,39.08,39.08,0,0,1-16,11.07c-12.53,4.66-26.53,4.36-40.21,2.49s-27.57-5.9-41.35-10.74a373.44,373.44,0,0,1-41.24-17.63c-13.82-6.82-26.61-15.92-39.6-25-25.89-18.36-52.06-38.22-78.64-58.91l-.37-.29-.1-.38-1.84-7.19a26.75,26.75,0,0,1-1-5.77l-.57-5.82c.3-3.89,0-7.83,1-11.61,1.15-7.69,4.25-14.9,8-21.46a81.9,81.9,0,0,1,14-17.71,98.41,98.41,0,0,1,17.49-13.77l.65-.4.71.37L3098.63,1390l-1.85.9c.79-4.49,2.59-9.08,6.15-12.32a15.13,15.13,0,0,1,13.26-3.09l-1.53.92c16.62-71,30.79-130.31,47.73-169.54,8.17-19.66,16.92-34.17,24.39-42.84a72,72,0,0,1,9.29-9.13l2.58-2.11a5.72,5.72,0,0,1,.91-.68s-1,1.13-3.24,3.08a80.07,80.07,0,0,0-9,9.33c-7.22,8.74-15.7,23.24-23.64,42.91-16.47,39.19-30.29,98.52-46.65,169.52l-.28,1.19-1.25-.28a12.63,12.63,0,0,0-10.95,2.61c-2.92,2.66-4.59,6.68-5.3,10.88l-.3,1.72-1.55-.82-119.28-62.47,1.35,0a96.3,96.3,0,0,0-16.9,13.36,79.17,79.17,0,0,0-13.53,17.13c-3.65,6.32-6.61,13.2-7.7,20.52-.94,3.59-.64,7.34-1,11l.55,5.55a25.27,25.27,0,0,0,.91,5.51c.6,2.36,1.2,4.71,1.75,6.89l-.47-.68c26.53,20.67,52.69,40.53,78.49,58.88,13,9.07,25.65,18.11,39.2,24.83a372.93,372.93,0,0,0,40.9,17.59c13.65,4.83,27.3,8.71,40.83,10.73s27.1,2.18,39-2.21a36.7,36.7,0,0,0,15.07-10.36,125.28,125.28,0,0,0,10.39-14.86,299.17,299.17,0,0,0,15.95-30.41c18.17-39.91,29.55-73.62,37.82-96.68,4.06-11.46,7.22-20.41,9.42-26.62,1.09-3,2-5.34,2.6-6.87S3273.86,1330.81,3273.86,1330.81Z"/><path class="cls-35" d="M3287.16,1267.49c-.52-.23,4.29-8.66,8.15-23.55,3.84-14.64,6.11-36.82-2.61-58.6a74.31,74.31,0,0,0-18.7-26.5,70.46,70.46,0,0,0-22.67-13.91c-14.48-5.29-24.42-3.46-24.35-4.17,0-.09.58-.21,1.72-.35a34.29,34.29,0,0,1,5-.34,55.64,55.64,0,0,1,18.25,3,69.46,69.46,0,0,1,23.72,13.85,74.74,74.74,0,0,1,19.54,27.35,86,86,0,0,1,6,33,100.58,100.58,0,0,1-4.05,27.09,103,103,0,0,1-6.62,17.21C3288.6,1265.53,3287.3,1267.56,3287.16,1267.49Z"/><path class="cls-29" d="M2266.52,1369.82l279.61,67.69S2351.25,1551.74,2266.52,1369.82Z"/><path class="cls-29" d="M1771.39,1374.92l259.84-22.16S1896.64,1507,1771.39,1374.92Z"/><polygon class="cls-51" points="1313.95 2690.53 1314.45 2714.11 1097.6 2689.21 1104.33 2671.07 1313.95 2690.53"/><path class="cls-37" d="M1314,2690.55s-65.88-2.76-125.68-8c-34.71-3-64.29-6.06-80.85-10.71,20.49-4.09,39.62-10.39,60-17.33,52.34-17.87,72.31-32.54,71.76-73.67-.43-31.89-4.84-80.29-4.84-80.29l73.68-.89s-.54,49.88-1.31,88.93C1306.16,2615,1311.2,2680.9,1314,2690.55Z"/><path class="cls-52" d="M1306.67,2588.63l-67.53-7.76c-.43-31.89-4.84-80.28-4.84-80.28l73.68-.9S1307.44,2549.57,1306.67,2588.63Z"/><path class="cls-53" d="M1279.2,2582.42a9.26,9.26,0,0,0-8.2-6c-4-.29-7.7,1.53-10.76,4a85,85,0,0,0-9.44,9.25,113.3,113.3,0,0,0-14.35,19.7c-.14-.58-.26-1.16-.44-1.73a55.92,55.92,0,0,0-2.4-6,86.85,86.85,0,0,0-5.95-10.77,88.37,88.37,0,0,0-7.44-10c-2.47-2.85-5.45-5.62-9.15-6.73-6-1.8-13.4,1.78-13.12,8.68.16,3.84,2.58,7.24,5,10.07a84.48,84.48,0,0,0,28.53,22.1,1.62,1.62,0,0,0,0,.22,2.12,2.12,0,0,0-.25.36,2.22,2.22,0,0,0,1.23,2.79,105.85,105.85,0,0,1,15.81,10.34c1.3,1,3.13,2.66,4.8,1.35,2-1.6-.22-3.79-1.56-4.81-2.5-1.92-5.1-3.72-7.76-5.4-1.65-1-3.33-2-5-3a42.57,42.57,0,0,0,9.71-2.38,61,61,0,0,0,11-4.89c6.93-4,14.42-9.42,18.46-16.46A12.87,12.87,0,0,0,1279.2,2582.42Zm-60.75,19.29c-5.28-4-10.76-8.59-14.7-14-1.82-2.48-3.58-6.3-.9-8.86,2.05-2,5.33-2.09,7.86-1.15,3.28,1.23,5.77,3.85,8,6.46a75.39,75.39,0,0,1,6,8.2,88,88,0,0,1,5.63,10.31c.85,1.84,1.63,3.72,2.43,5.59.41,1,.88,1.92,1.34,2.87A88.38,88.38,0,0,1,1218.45,2601.71Zm55.83-9.41c-4,5.75-10.3,10.51-16.41,13.81a58.2,58.2,0,0,1-10.5,4.41c-2.93.89-6,1.22-9,1.84a129.54,129.54,0,0,1,10.56-15.3,113.17,113.17,0,0,1,7.94-8.87c2.59-2.6,5.3-5.43,8.57-7.17,3.07-1.64,7.79-2.25,10,1.09S1276.28,2589.4,1274.28,2592.3Z"/><path class="cls-53" d="M1244.36,2639.43c-.87-.78-1.85-1.46-2.77-2.18l-5.4-4.18c-3.66-2.83-7.39-5.57-11.09-8.34-1.74-1.3-3.63,1.33-2,2.7,3.51,2.92,7,5.87,10.54,8.72l5.15,4.14c1.57,1.27,3.69,3.75,5.9,3.16a1.34,1.34,0,0,0,1.09-1.12A3.35,3.35,0,0,0,1244.36,2639.43Z"/><path class="cls-53" d="M1236.39,2656.77c-3.47-3.64-7-7.17-10.59-10.73a126,126,0,0,0-12.37-11.42c-1-.8-2.28.6-1.56,1.62a124.17,124.17,0,0,0,9.73,11.41c3.31,3.64,6.68,7.25,10.12,10.77,1.33,1.36,3.4,4.3,5.65,3.44C1239.83,2660.92,1237.38,2657.81,1236.39,2656.77Z"/><path class="cls-53" d="M1212.81,2662.07l-7.06-8.78c-2.63-3.28-5.32-6.51-8-9.72a1.36,1.36,0,0,0-2.13,1.68c4.14,6.22,8.45,12.31,12.75,18.41,1,1.48,2.19,3.76,4.38,3.27a2,2,0,0,0,1.44-1.82C1214.29,2663.87,1213.53,2663,1212.81,2662.07Z"/><path class="cls-26" d="M1188.28,2682.6c-32.78,3.26-68.13-2.56-83.94-11.52a507.15,507.15,0,0,0,63.05-16.52,67.87,67.87,0,0,1,20.89,28Z"/><path class="cls-2" d="M1277.2,2654.09a15.84,15.84,0,0,0,16.33-.65c12.22-8.17,8-28.56-7.7-27.56C1271.74,2626.78,1263.24,2646,1277.2,2654.09Z"/><polygon class="cls-51" points="1518.85 2682.36 1515.14 2705.66 1733.39 2710.23 1729.19 2691.36 1518.85 2682.36"/><path class="cls-37" d="M1518.84,2682.38s65.65,6.15,125.6,9.08c34.8,1.66,64.53,2.66,81.56.28-19.75-6.81-37.84-15.64-57-25.25-49.43-24.77-67.22-42-61.08-82.67,4.76-31.54,15.71-78.89,15.71-78.89l-72.88-10.83s-6.25,49.49-10.8,88.29C1536.84,2608.55,1522.88,2673.19,1518.84,2682.38Z"/><path class="cls-52" d="M1539.91,2582.38l68,1.42c4.76-31.54,15.7-78.89,15.7-78.89l-72.88-10.83S1544.46,2543.57,1539.91,2582.38Z"/><path class="cls-53" d="M1567.87,2590.77c3.05,7.52,9.72,13.94,16.06,18.8a60.93,60.93,0,0,0,10.21,6.32,42.29,42.29,0,0,0,9.3,3.67q-2.73,1.07-5.39,2.28c-2.87,1.31-5.69,2.74-8.43,4.3-1.47.84-4,2.71-2.19,4.56,1.47,1.53,3.5.16,4.94-.68a105.37,105.37,0,0,1,17.06-8.12,2.22,2.22,0,0,0,1.6-2.6,2.81,2.81,0,0,0-.19-.39,1.49,1.49,0,0,0,0-.21,90.31,90.31,0,0,0,21.92-10.68,86.38,86.38,0,0,0,9.35-7.38c2.75-2.48,5.61-5.52,6.28-9.3,1.22-6.8-5.58-11.34-11.81-10.37-3.82.6-7.14,2.94-10,5.43a92.13,92.13,0,0,0-16.09,18.76,55.31,55.31,0,0,0-3.19,5.6c-.26.54-.46,1.09-.67,1.65a113.72,113.72,0,0,0-11.54-21.45,85.13,85.13,0,0,0-8.09-10.44c-2.71-2.87-6.08-5.16-10.13-5.42a9.3,9.3,0,0,0-8.94,4.84A12.89,12.89,0,0,0,1567.87,2590.77Zm40.88,23.72c.58-.88,1.18-1.75,1.72-2.66,1-1.74,2.07-3.5,3.17-5.21a87,87,0,0,1,7-9.46,77.46,77.46,0,0,1,7.07-7.31c2.54-2.29,5.37-4.55,8.78-5.32,2.63-.6,5.87,0,7.63,2.2,2.32,2.89.05,6.44-2.09,8.65-4.64,4.79-10.69,8.6-16.47,11.86A87.86,87.86,0,0,1,1608.75,2614.49Zm-37-34.36c2.63-3,7.23-1.77,10,.26,3,2.18,5.3,5.35,7.52,8.27a117.25,117.25,0,0,1,6.66,9.85,129.55,129.55,0,0,1,8.38,16.59c-2.87-1-5.85-1.76-8.64-3a57.45,57.45,0,0,1-9.8-5.78c-5.61-4.09-11.23-9.66-14.38-15.9C1569.92,2587.24,1569.19,2583,1571.72,2580.13Z"/><path class="cls-53" d="M1594.75,2641.11c1-.65,2-1.2,3-1.78l5.92-3.41c4-2.32,8.07-4.52,12.12-6.77,1.9-1.05,3.41,1.81,1.6,2.95-3.87,2.41-7.72,4.86-11.63,7.21l-5.67,3.41c-1.72,1-4.16,3.22-6.27,2.33a1.34,1.34,0,0,1-.93-1.25A3.36,3.36,0,0,1,1594.75,2641.11Z"/><path class="cls-53" d="M1600.28,2659.37c3.93-3.14,8-6.15,12-9.2a124.07,124.07,0,0,1,13.8-9.65,1.14,1.14,0,0,1,1.33,1.82,123.49,123.49,0,0,1-11.19,10c-3.77,3.16-7.6,6.29-11.49,9.3-1.51,1.18-4,3.81-6.07,2.65C1596.32,2663,1599.16,2660.27,1600.28,2659.37Z"/><path class="cls-53" d="M1622.93,2667.8l8.19-7.75q4.58-4.34,9.28-8.54a1.36,1.36,0,0,1,1.88,2c-4.94,5.6-10,11.05-15.13,16.52-1.23,1.32-2.69,3.42-4.78,2.64a2,2,0,0,1-1.18-2C1621.22,2669.39,1622.1,2668.6,1622.93,2667.8Z"/><path class="cls-26" d="M1644.44,2691.46c32,7.64,67.85,6.65,84.74-.1a508.74,508.74,0,0,1-60.23-24.87,69.13,69.13,0,0,0-20.19,18.29A71.84,71.84,0,0,0,1644.44,2691.46Z"/><path class="cls-2" d="M1560.21,2651.21a15.83,15.83,0,0,1-16.09-2.85c-11-9.74-4-29.37,11.38-26.26C1569.34,2624.89,1575.14,2645.1,1560.21,2651.21Z"/><path class="cls-54" d="M1852.86,1436.41s19-48.27-59.49-113.45l1.19,107.85Z"/><path class="cls-52" d="M1815.6,1257.92l-24.23,31.48-7.51,9.81L1794.94,1404s31.75,25,33.32,27.64c.71,1.14,11.61-24.55,23.6-53.8,15.47-37.59,32.75-81,32.75-81Z"/><path class="cls-55" d="M1783.86,1299.21,1794.94,1404s31.75,25,33.32,27.64c.71,1.14,11.61-24.55,23.6-53.8l-60.49-88.41Z"/><path class="cls-23" d="M1445.63,1567.28,1454,1798c.2,6.21.39,12.47.62,18.63,4.29,126.71,12.57,248.4,24,366,13,133.2,30,261.19,50.06,385.39h131.45c17.51-276.88,47-609.28-7.14-910l-33-80.4Z"/><path class="cls-23" d="M1264.79,1671c-33,274.82-61.54,582.49-48.85,869.42l142.77,27.65c39-239.27,107.13-547,115.8-824.48l19-225.56-214.08,59.63Z"/><path class="cls-37" d="M1525.28,1074.51c-34.9,48.19-79.3,27.09-96-5.3l-113.44,502c105.85,45.41,207.62,52.13,303-1.73l-60.28-475.33Z"/><path class="cls-48" d="M1564.77,2124c44.28,9.67,113.55,3,171.22-5.75-14.17-128.43-58.69-607.31-88.58-720.3l124.53-12.11a462.22,462.22,0,0,0-7.92-61.72,559.66,559.66,0,0,0-19.68-73.16c-.28-.88-.62-1.77-.95-2.66-30.06-86.66-84.66-151.93-218.89-174.21C1482.45,1273.71,1493.39,1930.38,1564.77,2124Z"/><path class="cls-48" d="M1236.18,1596.34c-7.57,45-68.9,467.82-75.7,514.7,43,15.26,111.58,38.58,171.21,35.92,24.94-79.92,80-558.73,89.71-644.86a6.13,6.13,0,0,1,.1-.95c15.37-137,21.2-281.43,3.68-431.8-54.92,3.89-107.1,20.67-159.83,54.33-18.08,11.56-32.74,28.58-42.54,48.73-36.89,75.61-54.07,142.11-68.35,210.8l115.41,46.69q-5.07,21.06-9.61,41.63C1250.88,1514,1243.13,1555.1,1236.18,1596.34Z"/><path class="cls-48" d="M1620.87,1349.53l15.44,125.27,7.2,9.5,35.36,46.6c14.38,18.95,34.13,28.39,54,28.56,21.41.16,42.83-10.45,57.44-31.78l62.57-91.27c-30.78-41-60.45-82.65-69-137.2-40.38,46.88-52.37,64.55-52.37,64.55Z"/><g class="cls-56"><path class="cls-57" d="M1236.18,1596.34c67.1-6.49,130.73-37.31,185.22-94.24.24-.28.53-.52.76-.81l-.66-.14-161.24-29.62C1250.88,1514,1243.13,1555.1,1236.18,1596.34Z"/></g><polygon class="cls-57" points="1716.72 1388.42 1785.73 1300.65 1781.98 1297.73 1712.98 1385.5 1716.72 1388.42"/><g class="cls-56"><path class="cls-57" d="M1290.5,1245.53l-23.8,135.9s42.43,28,55.47,5.06C1332.34,1368.58,1319,1310.11,1290.5,1245.53Z"/></g><polygon class="cls-57" points="1676.52 1531.19 1681.24 1530.64 1647.02 1243.28 1642.29 1243.84 1676.52 1531.19"/><g class="cls-56"><path class="cls-57" d="M1673.36,1496.59l5.51,34.31c14.38,18.95,34.13,28.39,54,28.56-19.58-79.55-66-136.93-66-136.93Z"/></g><g class="cls-58"><path class="cls-57" d="M1715.45,1386.2l48.57-62.11a559.66,559.66,0,0,0-19.68-73.16c-.28-.88-.62-1.77-.95-2.66C1734.19,1265.38,1712.72,1313.48,1715.45,1386.2Z"/></g><rect class="cls-57" x="1265.98" y="1362.64" width="183.87" height="4.74" transform="translate(-109.86 118.89) rotate(-4.82)"/><path class="cls-59" d="M1469.62,1821.56c-20.45,124.06-2.67,243.51,8.8,361.12,22.62-72.1,37.56-122.41,37.56-122.41S1477.65,1841.54,1469.62,1821.56Z"/><path class="cls-52" d="M1815.6,1257.92l67.62,42.49s5.14-17.09,12.09-20.44,41.68-1.41,51.61-15.81a103.45,103.45,0,0,0,13.67-28s29.2-26.2,48.48-36.06,10.3-16.15-3.48-17.54-38.66,12-38.66,12,17.09-51.76,11.06-54.2-14-2.94-25,24.41c0,0,4.23-21.49-7.22-21.75s-24.36,61.69-24.36,61.69l-31.41,1.1s11.64-36.63,1.28-44.06-16.7-2.33-16.21,7.51-1,29.77-16.12,35S1826.48,1226.68,1815.6,1257.92Z"/><path class="cls-55" d="M1945.47,1232.28c.19-.41.52-1.09,9.73-67.18l-4.33-.6c-3.55,25.55-9,64.27-9.47,66.25l1.73.4Z"/><rect class="cls-55" x="1905.81" y="1216.37" width="27.85" height="4.36" transform="translate(472.15 2972.05) rotate(-82.86)"/><path class="cls-55" d="M1857.45,1244.54c12-23.27,35.48-15.72,36.48-15.39l1.4-4.11c-.28-.1-28.07-9.14-41.77,17.52Z"/><path class="cls-60" d="M1966.93,1194.59l-6.34,41.61s29.2-26.2,48.48-36.06,10.3-16.15-3.48-17.54S1966.93,1194.59,1966.93,1194.59Z"/><path class="cls-61" d="M1524.5,1074.06s-7.68,29.72-37.51,30.13-60.4-21.91-61.1-28.37Z"/><path class="cls-62" d="M1399.23,931.6s-30.24-94.08,27.14-113.3C1457.9,807.74,1462.21,937.43,1399.23,931.6Z"/><path class="cls-62" d="M1607.2,837.46s14.48,51.16-12,74.65c0,0-7.37,2.83-10.43,2.15s-20.84-1.45-20.19-5.78,6.49-26,8.07-33,8.45-23.35,11.48-26.83S1607.2,837.46,1607.2,837.46Z"/><path class="cls-61" d="M1525.59,965.94v109.67s-12.37,5.82-49,8.63c-30.79,2.36-49-8.63-49-8.63V952.81Z"/><polygon class="cls-63" points="1525.6 1076.15 1456.12 1015.78 1525.6 1044.66 1525.6 1076.15"/><path class="cls-61" d="M1594.92,857.1v143.64a19.46,19.46,0,0,1-8.27,15.91l-39.18,27.43a19.44,19.44,0,0,1-18.76,2l-72.87-30.27a19.53,19.53,0,0,1-12-18V857.1Z"/><g class="cls-64"><path class="cls-65" d="M1594.92,929.46V986a28.29,28.29,0,1,1,0-56.57Z"/></g><path class="cls-19" d="M1537.1,959.92H1559a2.18,2.18,0,0,0,2.17-2.4l-6.36-61.4a2.18,2.18,0,0,0-4.34.45l6.11,59H1537.1a2.18,2.18,0,1,0,0,4.35Z"/><path class="cls-61" d="M1453.73,952.36a35.94,35.94,0,1,1-35.94-35.8A35.88,35.88,0,0,1,1453.73,952.36Z"/><path class="cls-66" d="M1524.81,885.06c-.15,8.24-27.5,13.61-28.9,6.09C1493.6,878.66,1525.05,872,1524.81,885.06Z"/><path class="cls-66" d="M1597.29,890.53c-3.79,6.58-28.25-1.18-26-7.87C1575,871.57,1603.3,880.11,1597.29,890.53Z"/><g class="cls-64"><path class="cls-65" d="M1512.12,955.86a28.41,28.41,0,1,1-28.41-28.29A28.36,28.36,0,0,1,1512.12,955.86Z"/></g><path class="cls-20" d="M1522.52,917c-.13,5.71-3,10.28-6.29,10.2s-5.93-4.77-5.8-10.48,3-10.27,6.29-10.19S1522.65,911.27,1522.52,917Z"/><path class="cls-20" d="M1582.16,916.94c-.13,5.7-2.94,10.27-6.28,10.19s-5.94-4.77-5.8-10.47,2.94-10.28,6.28-10.2S1582.29,911.23,1582.16,916.94Z"/><path class="cls-19" d="M1425.52,973.65a2.19,2.19,0,0,0,1.72-.84c3-3.85,5-8.9,5.79-15,2.4-18-14.61-25.23-23.94-26.5a2.17,2.17,0,1,0-.59,4.3h0c.92.13,22.64,3.36,20.2,21.63-.71,5.33-2.36,9.67-4.9,12.91a2.18,2.18,0,0,0,.37,3.05A2.2,2.2,0,0,0,1425.52,973.65Z"/><path class="cls-19" d="M1430.87,959.68a2.17,2.17,0,0,0,1.82-3.36c-7.42-11.28-18.19-8.54-22.84-5.51a2.17,2.17,0,1,0,2.37,3.64c1-.65,10.08-6,16.82,4.25A2.18,2.18,0,0,0,1430.87,959.68Z"/><path class="cls-67" d="M1441.35,865.7c-.74-6.48-7.44-34-7.51-40.53-.1-9.71-.32-14.32,2.5-23.69,4.33-14.33,31.06-28.19,45.08-29.75,13.35-1.49,27,.53,39.85,4a190.71,190.71,0,0,1,25.84,9.17c37.54,16.29,68.58,15.46,71.7,4.78,3.12,16.21-5.31,23.53-15.3,24.78,16-.63,21.23-10.27,21.23-10.27s-11.61,68.22-40,67.11-68.59-20.86-85.14-9.35S1458.9,873.46,1441.35,865.7Z"/><path class="cls-67" d="M1440.52,818.41c1.29-.61-10.46-49.36-23.1-49.36s11.55,37,11.55,37-18-22.78-27.52-17.09S1425.27,825.53,1440.52,818.41Z"/><path class="cls-67" d="M1460.34,870.48s4.28,60.38-14.5,71c0,0,2-18-17-22.76-19.16-4.83-.62-18.09.63-24.32s8.14-35.55,8.14-35.55l37.56-11.22Z"/><path class="cls-68" d="M1573.38,794s-7.62,19.45-18.71,26.29,1.93,16.29-1.09,26.88a32.23,32.23,0,0,1-10.25,16l-17.83-3.62s13.34-9.5,11.57-18.49-2.21-22.57,4-26.78,15.53-25.36,15.53-25.36S1566.09,792.28,1573.38,794Z"/><path class="cls-68" d="M1542.87,783.18s-16.91,16.53-17.24,32.15.13,15.76.13,15.76,1.39,7.06-.79,13.27-8.46,13.2-8.46,13.2l-5.26,0s11.66-13.39,11.18-19.07-2.69-23.93,2.26-35.56a118.38,118.38,0,0,1,12.71-21.91Z"/><path class="cls-67" d="M1434.47,818.94s-52,21.82-13.15,95.4c0,0,14.4-13.72,16-20.27s19.1-33.36,16.28-37.72S1434.47,818.94,1434.47,818.94Z"/><path class="cls-21" d="M1523.81,992.17a18,18,0,0,0,2.07,2.47,25.11,25.11,0,0,0,20.83,6.68,23.22,23.22,0,0,0,9.21-3.49c4.33-2.88,7.51-7.07,8.45-11.7.54-2.66,0-6-2.83-7.17a6.66,6.66,0,0,0-2.08-.39,25.35,25.35,0,0,0-3.94.53,55.93,55.93,0,0,1-21.42,0,20.37,20.37,0,0,0-7-.48,5.9,5.9,0,0,0-4.65,2.78C1520.55,984.79,1521.63,988.92,1523.81,992.17Z"/><path class="cls-2" d="M1527.12,978.64a7.39,7.39,0,0,0,1.67,4.86,8.86,8.86,0,0,0,5.1,2.31,47,47,0,0,0,20.51-.37,7.53,7.53,0,0,0,4.28-2.25,6,6,0,0,0,.78-4.62,25.35,25.35,0,0,0-3.94.53,55.93,55.93,0,0,1-21.42,0A20.37,20.37,0,0,0,1527.12,978.64Z"/><path class="cls-69" d="M1525.88,994.64a25.11,25.11,0,0,0,20.83,6.68,23.22,23.22,0,0,0,9.21-3.49c-2.66-3.41-7.22-5.35-11.65-6.08A27.93,27.93,0,0,0,1525.88,994.64Z"/><path class="cls-35" d="M1389.6,1071.86l-31.29,142.24,37.77,30.18-11.87,43.1,18.34,73.28,29.14-3.23s12.89-232.4-6.51-288.08Z"/><path class="cls-35" d="M1525.28,1074.51s39.13,4.89,45.61,9.74-2.16,1.08-2.16,1.08l5.93,128.77-37.76,16.17,16.18,24.25-25.36,100.21-26.43-1.61S1480.75,1293.22,1525.28,1074.51Z"/><path class="cls-37" d="M1685,1598.59l-190.82-80.16c-8.07-3.39-11.67-13.14-8-21.77l105.39-250.22c3.64-8.63,13.13-12.87,21.2-9.49l190.82,80.16c8.08,3.4,11.68,13.14,8,21.77l-105.4,250.22C1702.53,1597.73,1693,1602,1685,1598.59Z"/><path class="cls-26" d="M1673.31,1593.7l-190.83-80.16c-8.06-3.39-11.66-13.14-8-21.77l105.4-250.22c3.63-8.63,13.13-12.87,21.19-9.48l190.83,80.15c8.06,3.39,11.68,13.14,8,21.77l-105.39,250.22C1690.88,1592.84,1681.38,1597.09,1673.31,1593.7Z"/><rect class="cls-2" x="1510.54" y="1310.99" width="269.43" height="210.56" transform="matrix(0.39, -0.92, 0.92, 0.39, -297.67, 2384.64)"/><rect class="cls-2" x="1502.46" y="1307.59" width="269.43" height="210.58" transform="translate(-299.49 2375.12) rotate(-67.21)"/><path class="cls-70" d="M1746.64,1293.24a17.29,17.29,0,0,0-.53-7.44,15.61,15.61,0,0,0-1.84-4,15.28,15.28,0,0,0-7-5.91l-18.42-7.74a20.92,20.92,0,0,0-1.15-18.83,12.16,12.16,0,0,0-1.36-1.9c0-.05,0-.05,0-.06a17.49,17.49,0,0,0-4.16-3.82,19.78,19.78,0,0,0-3-1.63,16.92,16.92,0,0,0-5.39-1.3,15.09,15.09,0,0,0-3.49,0,20.68,20.68,0,0,0-16.67,12.74l-18.38-7.72a15.15,15.15,0,0,0-8.94-.85,14.57,14.57,0,0,0-4.07,1.4,18.31,18.31,0,0,0-8.19,8.61l101.5,42.64A17.35,17.35,0,0,0,1746.64,1293.24Zm-49.31-45.54a11.38,11.38,0,0,1,4-1.19,11.08,11.08,0,0,1,5.62.8,11.53,11.53,0,0,1,6.45,7.21,13.17,13.17,0,0,1-6.62,15.72,11.22,11.22,0,0,1-14.17-3,11.72,11.72,0,0,1-1.94-3.66,13.3,13.3,0,0,1,6.68-15.86Z"/><path class="cls-70" d="M1754.14,1313.92c-2.54,6-9.21,9-14.86,6.65l-107.43-45.13c-5.66-2.38-8.18-9.22-5.64-15.26h0c2.56-6.06,9.21-9,14.87-6.66l107.44,45.13c5.65,2.37,8.18,9.2,5.62,15.27Z"/><rect class="cls-71" x="1689.77" y="1224.38" width="7.24" height="110.08" transform="translate(-142 2345.17) rotate(-67.21)"/><path class="cls-43" d="M1679,1332.72c2-2.76,6.41-3.49,13.16.3,4.59,2.59,8.68,11.7,7,17.71,6.05,0,13.79,6.2,16.3,11.74a22.65,22.65,0,0,1,1.6,11.93,19.07,19.07,0,0,1-3.08,8.11c8,1.2,13,10.07,12.82,18.94A25.21,25.21,0,0,1,1722,1416a22.41,22.41,0,0,1-4.52,4.3c2.24.94,12.67,11.18,5.88,26.79-5.83,13.34-16.41,15.12-18.07,15.88,8.72,13.72-5.73,32.17-17.25,27.79a4.23,4.23,0,0,0,0,.94c3.07,17-19,26.62-28.62,16.49a24.44,24.44,0,0,1-9,7.74c-6.85,3.4-16.61,1.77-19.55-5.15a26.31,26.31,0,0,1-4.29,1.61c-7.12,1.92-16.09.21-18.25-8-.4-1.56.1-4.37.74-6.95l65.1-154.56S1677.33,1334.89,1679,1332.72Z"/><path class="cls-2" d="M1691.3,1393.94a1.57,1.57,0,0,1-.86-1.8,1.63,1.63,0,0,1,1.85-1.33c15.3,2.91,21.53-11.14,21.8-11.74a1.62,1.62,0,0,1,2.07-.92h0a1.62,1.62,0,0,1,.78,2.13c-.08.18-7.51,17.15-25.33,13.75A1.58,1.58,0,0,1,1691.3,1393.94Z"/><path class="cls-2" d="M1657.34,1511.45a1.11,1.11,0,0,1-.39-.26,1.67,1.67,0,0,1-.15-2.27s0,0,0-.05c1.07-1.28,10.34-12.8,8.15-23.12-1.21-5.76-5.8-10.29-13.66-13.45h0a1.65,1.65,0,0,1,1.27-3c8.79,3.54,14,8.83,15.48,15.66,2.47,11.66-7,23.74-8.88,26A1.59,1.59,0,0,1,1657.34,1511.45Z"/><path class="cls-2" d="M1668.08,1452.38a1.44,1.44,0,0,1-.67-.58,1.69,1.69,0,0,1,.48-2.27c3.35-2.38,6.62-9.87,6-17.81-.28-4-1.89-11.18-9.46-14.35-14.18-6-24.51,10.88-24.94,11.6a1.55,1.55,0,0,1-2.16.59,1.62,1.62,0,0,1-.47-2.22c.13-.2,12.2-20,28.85-13,6.72,2.82,10.73,8.87,11.3,17s-2.7,17.44-7.49,20.85A1.54,1.54,0,0,1,1668.08,1452.38Z"/><path class="cls-2" d="M1675.27,1431a1.51,1.51,0,0,1-.8-.79,1.72,1.72,0,0,1,.82-2.18c9.72-4.87,18.57-5.79,26.31-2.75,12.18,4.77,17.06,17.57,17.26,18.11a1.72,1.72,0,0,1-.9,2.14,1.49,1.49,0,0,1-2-.83c-.06-.14-4.62-12.09-15.58-16.37-6.91-2.7-14.92-1.82-23.82,2.63A1.49,1.49,0,0,1,1675.27,1431Z"/><path class="cls-2" d="M1630.22,1512.25a1.57,1.57,0,0,1-.81-2.06,5.86,5.86,0,0,1,.79-1.3c1.52-2.11,4.66-6.5,2.48-11.1a1.73,1.73,0,0,1,.74-2.22,1.48,1.48,0,0,1,2.08.66c3,6.4-1.22,12.31-2.82,14.54a5.56,5.56,0,0,0-.41.59,1.6,1.6,0,0,1-2,.91Z"/><path class="cls-2" d="M1677.76,1404.65l0,0c-7.64-3.52-13.31-12.4-13.2-20.64.07-7,4.12-12.89,11.37-16.63,5.34-2.77,8.55-6.27,9.56-10.41,1.65-6.8-3.14-13.3-3.18-13.36a1.71,1.71,0,0,1,.29-2.31,1.52,1.52,0,0,1,2.2.22c.24.31,5.73,7.76,3.72,16.09-1.24,5.16-5,9.44-11.31,12.68s-9.45,7.9-9.53,13.62c-.1,7.07,4.82,14.68,11.44,17.74a1.65,1.65,0,0,1-1.32,3Z"/><path class="cls-2" d="M1617.65,1481.76a9.49,9.49,0,0,1-2-1.13,1.66,1.66,0,0,1-.19-2.29,1.53,1.53,0,0,1,2.19-.31,6.46,6.46,0,0,0,4.91,1.08c2.41-.52,4.71-2.54,6.8-6a1.56,1.56,0,0,1,2.17-.58,1.63,1.63,0,0,1,.45,2.23c-2.62,4.35-5.63,6.91-9,7.59A8.94,8.94,0,0,1,1617.65,1481.76Z"/><path class="cls-2" d="M1679.3,1478a1.6,1.6,0,0,1-.9-1.77,1.67,1.67,0,0,1,1.84-1.37c2.27.36,4,0,5.09-1.15,2-2,2-6.08,1.8-7.5a1.73,1.73,0,0,1,1.36-1.88c3.28-.58,5.4-1.79,6.28-3.6,1.42-2.87-.5-6.61-.53-6.66a1.7,1.7,0,0,1-.09-1.31,1.76,1.76,0,0,1,.9-1c4.24-2,4.62-4.69,4.47-6.14-.19-1.8-1.26-2.86-1.77-2.94a1.55,1.55,0,0,1-1.28-1.82,1.66,1.66,0,0,1,1.81-1.42c2.18.29,4,2.74,4.35,5.69.38,3.5-1.47,6.71-5,8.82a10.79,10.79,0,0,1-.09,8.13c-1.22,2.53-3.65,4.26-7.23,5.16,0,2.2-.36,6.2-2.86,8.75-1.89,1.91-4.52,2.62-7.83,2.09A2.14,2.14,0,0,1,1679.3,1478Z"/><path class="cls-2" d="M1668,1459.37a1.55,1.55,0,0,1-.91-1.7.77.77,0,0,1,.07-.28c.23-.9.95-3.93-.27-5.92a4.53,4.53,0,0,0-3.53-2,1.53,1.53,0,0,1-1.24-1.84,1.66,1.66,0,0,1,1.82-1.39,7.45,7.45,0,0,1,5.63,3.38c1.84,3,1,7,.58,8.53h0a1.61,1.61,0,0,1-1.77,1.31A1.41,1.41,0,0,1,1668,1459.37Z"/><path class="cls-2" d="M1710.75,1413.56a1.61,1.61,0,0,1-.82-2,2.7,2.7,0,0,1,.35-.58c2.07-2.83,3-5.59,2.54-7.56-.36-1.56-1.61-2.8-3.68-3.72a1.62,1.62,0,0,1-.77-2.13,1.59,1.59,0,0,1,2.05-.89l0,0c3,1.31,4.81,3.28,5.39,5.82.68,3-.42,6.66-3.13,10.37h0a1.59,1.59,0,0,1-1.9.73A.09.09,0,0,1,1710.75,1413.56Z"/><path class="cls-2" d="M1637.85,1459.86a1.5,1.5,0,0,1-.83-.86c-1.37-3.65-1.38-6.63,0-8.89.88-1.42,2.71-3.23,6.57-3.65h0a1.49,1.49,0,0,1,1.68.86,1.72,1.72,0,0,1-.77,2.19,2,2,0,0,1-.72.2c-2.55.27-3.64,1.26-4.11,2-1,1.63-.37,4.14.33,5.93a1.73,1.73,0,0,1-.91,2.15A1.46,1.46,0,0,1,1637.85,1459.86Z"/><path class="cls-2" d="M1697.37,1378.3c-2.88-1.21-4.64-2.91-5.23-5.1-.44-1.58-.48-4.13,1.91-7.42h0a1.59,1.59,0,0,1,1.77-.78,1.56,1.56,0,0,1,1.06,2,2.13,2.13,0,0,1-.36.69c-1.57,2.16-1.61,3.63-1.37,4.5.5,1.78,2.72,2.87,4.49,3.48a1.56,1.56,0,0,1,.92,2,1.61,1.61,0,0,1-2,1C1698.14,1378.62,1697.75,1378.46,1697.37,1378.3Z"/><path class="cls-72" d="M1669.48,1328.74c.54-3.39-2-7-9.42-9.18-5.08-1.48-14.45,2-17.58,7.38-4.23-4.35-14.11-5.51-19.8-3.42a22.64,22.64,0,0,0-9.67,7.19,19.28,19.28,0,0,0-3.64,7.88c-6.45-4.87-16.28-2.22-22.54,4.08a25.25,25.25,0,0,0-7,13.59,22,22,0,0,0,.1,6.24c-2.26-1-16.86-1.23-23.29,14.53-5.48,13.49.64,22.28,1.26,24-15.92,3.37-19,26.59-7.84,31.75a6.81,6.81,0,0,1-.64.67c-14.33,9.69-5.77,32.18,8.19,32a24.53,24.53,0,0,0,.73,11.81c2.36,7.27,10.35,13.1,17.37,10.36a26.58,26.58,0,0,0,1.84,4.18c3.6,6.43,11.1,11.63,18.48,7.44,1.39-.8,3.06-3.12,4.46-5.38l65.1-154.56S1669.05,1331.41,1669.48,1328.74Z"/><path class="cls-2" d="M1617,1362.73a1.1,1.1,0,0,1-.26-.15c-14.91-10.35-8-27.52-7.88-27.7a1.6,1.6,0,0,1,2.07-.93,1.58,1.58,0,0,1,.78,2.12h0c-.24.61-5.94,14.88,6.83,23.76a1.66,1.66,0,0,1,.38,2.27A1.6,1.6,0,0,1,1617,1362.73Z"/><path class="cls-2" d="M1555.71,1467.53l1.56.12-1.56-.15c.32-3,2.38-18.17,12.44-24.56,5.91-3.73,13.34-3.7,22,.11a1.65,1.65,0,0,1-1.32,3c-7.75-3.4-14.21-3.51-19.18-.35-8.91,5.65-10.68,20.33-10.85,22l-1.57,0Z"/><path class="cls-2" d="M1591.41,1420.17a1.53,1.53,0,0,1-.9-1.18c-.92-5.81,3.33-14.57,9.68-19.93s13.37-6.66,20.1-3.84c16.64,7,10.91,29.47,10.85,29.7a1.61,1.61,0,0,1-1.92,1.21,1.54,1.54,0,0,1-1.08-2c.21-.82,5-20-9.13-25.92-7.58-3.18-13.84.69-16.9,3.28-6.09,5.15-9.15,12.73-8.52,16.78a1.71,1.71,0,0,1-1.29,1.93A1.49,1.49,0,0,1,1591.41,1420.17Z"/><path class="cls-2" d="M1601.67,1400.12a1.49,1.49,0,0,1-.84-.94c-3.06-9.47-8-15.81-14.83-18.85l-.47-.2c-10.61-4.46-22,.47-22.09.53a1.5,1.5,0,0,1-2-.85,1.75,1.75,0,0,1,.91-2.14c.52-.24,13.11-5.7,25-.35,7.59,3.4,13.12,10.36,16.45,20.7a1.76,1.76,0,0,1-1,2.12A1.62,1.62,0,0,1,1601.67,1400.12Z"/><path class="cls-2" d="M1575.06,1489.08l-.06,0a1.6,1.6,0,0,1-.76-2.06,5.5,5.5,0,0,0,.14-.71c.48-2.7,1.74-9.86,8.43-12.18a1.47,1.47,0,0,1,1.93,1,1.72,1.72,0,0,1-1.07,2.08c-4.81,1.67-5.76,7-6.21,9.53a6.72,6.72,0,0,1-.36,1.49A1.61,1.61,0,0,1,1575.06,1489.08Z"/><path class="cls-2" d="M1618.81,1379.89a1.66,1.66,0,0,1,1.24-3.06c6.81,2.59,15.71.77,20.7-4.24,4-4,5.1-9.7,3.09-16.32s-1.67-12.45,1.16-17c4.55-7.26,13.74-8.54,14.12-8.59a1.52,1.52,0,0,1,1.7,1.42,1.72,1.72,0,0,1-1.44,1.83c-.14,0-8.1,1.17-11.8,7.06-2.25,3.62-2.52,8.36-.77,14.11,2.39,7.79,1,14.8-3.93,19.75-5.83,5.84-16.15,8-24,5Z"/><path class="cls-2" d="M1605.66,1476.72a9,9,0,0,1-4.14-3.43c-1.86-2.88-2.14-6.82-.86-11.73a1.65,1.65,0,0,1,1.93-1.23,1.56,1.56,0,0,1,1.09,2c-1,3.94-.88,7,.43,9.07a6.41,6.41,0,0,0,4.21,2.75,1.54,1.54,0,0,1,1.31,1.8,1.68,1.68,0,0,1-1.79,1.45A9.79,9.79,0,0,1,1605.66,1476.72Z"/><path class="cls-2" d="M1565.26,1430.07a1.49,1.49,0,0,1-.31-.18c-2.7-2-4-4.36-4-7.05.06-3.57,2.68-6.63,4.26-8.15-1.88-3.2-2.33-6.14-1.38-8.78,1.12-3.13,4-4.91,5.76-5.75-.94-4,.08-7.54,2.82-9.73,2.34-1.84,5.4-2.22,7.12-.86a1.64,1.64,0,0,1,.26,2.28,1.57,1.57,0,0,1-2.21.36c-.4-.33-1.91-.33-3.34.79-1.13.91-2.81,3.08-1.24,7.49a1.84,1.84,0,0,1-.09,1.34,1.72,1.72,0,0,1-1,.84s-4.05,1.27-5.12,4.28c-.69,1.9-.07,4.25,1.8,7a1.71,1.71,0,0,1-.39,2.3c-1.13.87-4.06,3.74-4.1,6.53q0,2.37,2.74,4.43a1.66,1.66,0,0,1,.3,2.27A1.58,1.58,0,0,1,1565.26,1430.07Z"/><path class="cls-2" d="M1586.47,1425.12a1.17,1.17,0,0,1-.34-.2,1.59,1.59,0,0,1-.31-2.14c.84-1.46,3.09-4.79,6.52-5.59a7.48,7.48,0,0,1,6.37,1.66,1.62,1.62,0,0,1,.26,2.26,1.53,1.53,0,0,1-2.19.4,4.54,4.54,0,0,0-3.89-1.13c-2.26.53-4,3.16-4.41,4a2.29,2.29,0,0,1-.15.24A1.55,1.55,0,0,1,1586.47,1425.12Z"/><path class="cls-2" d="M1589.36,1362.57a.14.14,0,0,1-.08,0,1.55,1.55,0,0,1-.8-1.8c.77-4.59,2.62-8,5.23-9.55,2.24-1.36,4.92-1.44,8-.21h0a1.61,1.61,0,0,1,.82,2.09,1.65,1.65,0,0,1-2.08.94c-2.12-.84-3.87-.86-5.24,0-1.73,1-3,3.65-3.63,7.1a2.76,2.76,0,0,1-.18.65A1.6,1.6,0,0,1,1589.36,1362.57Z"/><path class="cls-2" d="M1607.21,1447a1.44,1.44,0,0,1-.82-.87,1.73,1.73,0,0,1,.91-2.15c1.78-.76,4-2.09,4.47-3.92.23-.88.17-2.35-1.4-4.36a1.5,1.5,0,0,1-.36-.65,1.69,1.69,0,0,1,1-2.08,1.44,1.44,0,0,1,1.74.57c2.42,3.08,2.42,5.65,2,7.26-.66,2.54-2.8,4.62-6.37,6.19A1.48,1.48,0,0,1,1607.21,1447Z"/><path class="cls-2" d="M1624,1347.47a12.2,12.2,0,0,1-1.17-.54,1.61,1.61,0,0,1-.64-2.17,1.56,1.56,0,0,1,2.11-.77c1.67.84,4,1.66,5.63.77.78-.42,1.81-1.49,2.27-4.12a2.24,2.24,0,0,1,.24-.75,1.58,1.58,0,0,1,2.16-.62,1.61,1.61,0,0,1,.69,1.77c-.74,4-2.58,5.8-4,6.59C1629.27,1348.73,1626.84,1348.67,1624,1347.47Z"/><path class="cls-2" d="M1575.63,1460.05a1.34,1.34,0,0,1-.26-.14,15.06,15.06,0,0,1-6.13-17.08,1.62,1.62,0,0,1,2-1,1.59,1.59,0,0,1,.9,2c-.13.34-2.71,7.92,5,13.3a1.61,1.61,0,0,1,.36,2.25A1.55,1.55,0,0,1,1575.63,1460.05Z"/><path class="cls-52" d="M1606.58,1385.25c10.72,3.32,18.51,8.3,16.29,15.69-2.34,7.79-20.95,8.49-38.47,7.35,12.61,2.65,23.73,7,21.92,14.26-4.42,17.42-50.19-9.82-84.87,12-26.21,16.47-44.75,21.43-58.86,22.58-10.27.82-18.18-.37-25-.62-6.22-22.89-6.84-48.14-5.44-69.87,7.45-4.7,16.39-9.73,27.1-15.18s23.13-11.29,37.61-17.62c13.39-5.86,35.22-19.43,46.86-21.52,17.4-3.13,92.16-5.16,93,12.89.51,10.4-25.48,11.59-44.39,11.08,19.13,1.86,45.38,6.73,43.67,19.42C1634.88,1384,1621.62,1385.88,1606.58,1385.25Z"/><path class="cls-73" d="M1552.39,1404.47a223.88,223.88,0,0,1,32,3.82C1567.9,1407.19,1552.39,1404.47,1552.39,1404.47Z"/><path class="cls-73" d="M1592.29,1356.26c-10.19-.28-18.33-1-19.16-1.13C1573.93,1355.14,1582.09,1355.27,1592.29,1356.26Z"/><path class="cls-73" d="M1561.48,1378.67s26.81.89,45.1,6.58C1585.73,1384.36,1561.48,1378.67,1561.48,1378.67Z"/><path class="cls-55" d="M1550.39,1353.43c7.71-.19,15.51-.44,23.21,0s15.39,1.24,23,2.45c18.69,2.94,29.93,7.7,29.21,7.48-17.18-5.17-44.72-7.34-52.43-7.83s-15.34-1.37-23-1.86C1550.17,1353.71,1550.21,1353.43,1550.39,1353.43Z"/><path class="cls-55" d="M1548.11,1381.09c10.46-2.48,41-1,58.28,3.92.73.21.45.47-.31.4-9.78-.89-48.22-3.67-58-4.08C1547.93,1381.32,1548,1381.13,1548.11,1381.09Z"/><path class="cls-55" d="M1541.87,1404.49c13.63-1.69,29.06,0,45,4.36.72.19.29.56-.47.47-14.94-1.73-26.65-3.19-44.55-4.31A.26.26,0,0,1,1541.87,1404.49Z"/><path class="cls-60" d="M1462.59,1457.1c-10.27.82-18.18-.37-25-.62-6.22-22.89-6.84-48.14-5.44-69.87,7.45-4.7,16.39-9.73,27.1-15.18,0,0-13.82,59.94,3.38,85.65Z"/><path class="cls-52" d="M1467.85,1367.14c.53-.76,51.8-42.7,56.14-55.26,3.92-11.36,15.67-14.88,19.25-.08s.44,20.49.44,20.49C1533.26,1334.17,1489.93,1360.19,1467.85,1367.14Z"/><path class="cls-48" d="M1154.46,1383.22l-10,42c-13,54.5,28,106.34,79.41,100.36l244.3-29.55-18.64-138.71Z"/><path class="cls-49" d="M1210.83,1766.2l105,11.5s-8.63,162.36-40.28,171-92.08-8.62-92.08-8.62Z"/><path class="cls-49" d="M1700,1772l-106.47,5.75s11.51,140.81,21.58,153.74,86.33,11.49,100.71,1.43Z"/><polygon class="cls-46" points="2052.57 1388.86 1885.23 1775.97 2038.42 1835.23 1923.36 1756.93 2059.99 1404.72 2052.57 1388.86"/><g id="Speech_Bubble" data-name="Speech Bubble"><g id="Speech_Bubble-2" data-name="Speech Bubble"><path class="cls-74" d="M1856.53,668.38c-44.13-43.46-115.94-43.47-160.08,0a110.4,110.4,0,0,0,0,157.64c44.13,43.46,115.93,43.46,160.06,0A110.39,110.39,0,0,0,1856.53,668.38ZM1703.65,819a100.49,100.49,0,0,1,0-143.5c40.17-39.56,105.53-39.54,145.71,0a100.47,100.47,0,0,1,0,143.46C1809.15,858.49,1743.8,858.49,1703.65,819Z"/><path class="cls-2" d="M1849.32,818.93c-40.17,39.56-105.52,39.56-145.67,0a100.49,100.49,0,0,1,0-143.5c40.17-39.56,105.53-39.54,145.71,0A100.47,100.47,0,0,1,1849.32,818.93Z"/><path class="cls-74" d="M1670.07,843.46l16.2-36.14,29.17,28.73-36.7,16A6.53,6.53,0,0,1,1670.07,843.46Z"/></g><g id="Bulb"><path class="cls-75" d="M1757.16,741.51c-.42,0-.83,0-1.22,0a10.62,10.62,0,0,1-5.68-1.29c-.29-.22-1.16-.82-.87-1.8a2.51,2.51,0,0,1,2.59-1.76c1.73,0,3.9,1.2,5.82,3.24l1.37,1.45Zm19.31-11.21-.8-1.32c-2.18-3.5-3-7.08-2.24-9.41a3.25,3.25,0,0,1,6.07,0c.8,2.33,0,5.91-2.2,9.41Zm26.24,10a10.81,10.81,0,0,1-5.72,1.29c-.39,0-.77,0-1.19,0l-2-.13,1.37-1.45c1.92-2,4.09-3.24,5.82-3.24a2.55,2.55,0,0,1,2.59,1.73C1803.89,739.43,1803,740,1802.71,740.25Z"/></g></g><path class="cls-26" d="M1776.94,668.22h-.38c-28.09,0-49.07,19.52-51.37,47.39-1.14,13.67-1.38,26,21.12,52.39,4.71,5.52,6.1,16.57,6.61,23.07.29,3.54,17.43,5.85,23.83,6.32h0c6.41-.47,23.54-2.78,23.83-6.32.52-6.5,1.91-17.55,6.6-23.07,22.51-26.35,22.26-38.72,21.14-52.39C1826,687.74,1805,668.22,1776.94,668.22Z"/><path class="cls-2" d="M1771.8,704.27a3.88,3.88,0,1,0,3.88,3.87A3.88,3.88,0,0,0,1771.8,704.27Z"/><path class="cls-2" d="M1739.79,716.28a3.88,3.88,0,1,0,3.87,3.88A3.88,3.88,0,0,0,1739.79,716.28Z"/><path class="cls-2" d="M1777.23,730.24a3.88,3.88,0,1,0,3.88,3.87A3.88,3.88,0,0,0,1777.23,730.24Z"/><path class="cls-2" d="M1778.59,682.38a3.68,3.68,0,1,0,3.69,3.68A3.69,3.69,0,0,0,1778.59,682.38Z"/><path class="cls-2" d="M1789.07,707a2.52,2.52,0,1,0,0,5,2.52,2.52,0,1,0,0-5Z"/><path class="cls-2" d="M1808.47,695.56a2.52,2.52,0,1,0,2.52,2.51A2.51,2.51,0,0,0,1808.47,695.56Z"/><path class="cls-2" d="M1808.86,726.17a2.52,2.52,0,1,0,2.53,2.52A2.52,2.52,0,0,0,1808.86,726.17Z"/><path class="cls-2" d="M1814.1,707.76a3.49,3.49,0,1,0,3.5,3.49A3.49,3.49,0,0,0,1814.1,707.76Z"/><path class="cls-2" d="M1806.92,749a2.52,2.52,0,1,0,2.53,2.52A2.52,2.52,0,0,0,1806.92,749Z"/><path class="cls-2" d="M1757.44,725.2a2.52,2.52,0,1,0,2.52,2.52A2.52,2.52,0,0,0,1757.44,725.2Z"/><path class="cls-2" d="M1739.59,702.53a2.52,2.52,0,1,0,2.53,2.52A2.52,2.52,0,0,0,1739.59,702.53Z"/><path class="cls-2" d="M1751.23,690.32a2.52,2.52,0,1,0,2.53,2.52A2.52,2.52,0,0,0,1751.23,690.32Z"/><path class="cls-2" d="M1762.87,684.12a2.52,2.52,0,1,0,2.53,2.52A2.52,2.52,0,0,0,1762.87,684.12Z"/><path class="cls-2" d="M1795.27,686.64a2.52,2.52,0,1,0,2.53,2.52A2.52,2.52,0,0,0,1795.27,686.64Z"/><path class="cls-2" d="M1756.28,705.05a2.52,2.52,0,1,0,2.52,2.52A2.52,2.52,0,0,0,1756.28,705.05Z"/><path class="cls-2" d="M1795.47,727.72a2.52,2.52,0,1,0,2.53,2.52A2.52,2.52,0,0,0,1795.47,727.72Z"/><polygon class="cls-2" points="1739.29 719.51 1740.28 720.8 1756.77 708.21 1755.79 706.92 1739.29 719.51"/><polygon class="cls-2" points="1755.47 707.61 1756.63 727.76 1758.25 727.67 1757.09 707.52 1755.47 707.61"/><polygon class="cls-2" points="1756.78 727.24 1758.1 728.2 1772.46 708.63 1771.14 707.66 1756.78 727.24"/><rect class="cls-2" x="1747.44" y="714.67" width="1.62" height="18.54" transform="translate(374.38 2025.07) rotate(-65.94)"/><polygon class="cls-2" points="1738.78 705.06 1738.97 720.17 1740.6 720.15 1740.4 705.04 1738.78 705.06"/><rect class="cls-2" x="1747.12" y="697.87" width="1.62" height="16.88" transform="matrix(0.15, -0.99, 0.99, 0.15, 788.73, 2329.29)"/><rect class="cls-2" x="1763.23" y="700.09" width="1.63" height="15.53" transform="translate(990.86 2444.26) rotate(-87.86)"/><rect class="cls-2" x="1766.53" y="685.75" width="1.62" height="23.29" transform="translate(-132.33 730.6) rotate(-22.54)"/><polygon class="cls-2" points="1755.5 707.32 1757.06 707.81 1763.65 686.88 1762.1 686.4 1755.5 707.32"/><rect class="cls-2" x="1752.94" y="692.42" width="1.63" height="15.56" transform="translate(-132.26 605.88) rotate(-18.9)"/><rect class="cls-2" x="1736.98" y="698.13" width="16.87" height="1.63" transform="translate(35.41 1480.52) rotate(-46.39)"/><rect class="cls-2" x="1750.46" y="688.93" width="13.19" height="1.62" transform="translate(-118.03 906.63) rotate(-28.03)"/><rect class="cls-2" x="1762.87" y="685.54" width="15.72" height="1.62" transform="translate(-24.33 66.41) rotate(-2.13)"/><polygon class="cls-2" points="1777.85 686.39 1788.33 709.84 1789.81 709.18 1779.33 685.73 1777.85 686.39"/><rect class="cls-2" x="1775.16" y="680.69" width="1.62" height="34.77" transform="matrix(0.66, -0.75, 0.75, 0.66, 82.25, 1577.09)"/><rect class="cls-2" x="1779.62" y="700.17" width="1.63" height="17.32" transform="translate(934.74 2428.47) rotate(-85.52)"/><polygon class="cls-2" points="1776.5 733.76 1777.96 734.46 1789.8 709.85 1788.34 709.15 1776.5 733.76"/><polygon class="cls-2" points="1771.01 708.31 1776.43 734.46 1778.02 734.13 1772.6 707.98 1771.01 708.31"/><polygon class="cls-2" points="1756.48 728.49 1776.99 734.89 1777.47 733.34 1756.95 726.95 1756.48 728.49"/><polygon class="cls-2" points="1788.29 709.74 1794.7 730.48 1796.25 730 1789.84 709.26 1788.29 709.74"/><rect class="cls-2" x="1795.44" y="728.72" width="13.46" height="1.63" transform="translate(-66.1 191.37) rotate(-5.97)"/><polygon class="cls-2" points="1808.08 728.46 1809.64 728.92 1814.88 711.48 1813.32 711.01 1808.08 728.46"/><rect class="cls-2" x="1791.49" y="719.93" width="26.6" height="1.63" transform="translate(25.52 1502.35) rotate(-45.48)"/><polygon class="cls-2" points="1789.01 710.31 1814.05 712.06 1814.16 710.44 1789.13 708.69 1789.01 710.31"/><polygon class="cls-2" points="1788.66 708.8 1789.48 710.2 1808.88 698.77 1808.06 697.37 1788.66 708.8"/><polygon class="cls-2" points="1807.73 698.39 1813.36 711.56 1814.85 710.93 1809.22 697.75 1807.73 698.39"/><rect class="cls-2" x="1801.06" y="685.78" width="1.62" height="16.28" transform="translate(184.37 1748.41) rotate(-54.16)"/><polygon class="cls-2" points="1788.29 709.27 1789.85 709.74 1796.05 689.4 1794.5 688.92 1788.29 709.27"/><rect class="cls-2" x="1786.13" y="679.12" width="1.62" height="16.98" transform="translate(784.29 2318.76) rotate(-79.47)"/><rect class="cls-2" x="1777.03" y="731.36" width="18.65" height="1.62" transform="translate(-113.43 388.71) rotate(-12.04)"/><polygon class="cls-2" points="1794.75 730.62 1806.2 751.93 1807.63 751.16 1796.19 729.85 1794.75 730.62"/><rect class="cls-2" x="1796.35" y="739.6" width="23.48" height="1.63" transform="matrix(0.05, -1, 1, 0.05, 981.07, 2510.56)"/><rect class="cls-2" x="1792.04" y="725.09" width="1.62" height="36.06" transform="translate(252.97 1924.36) rotate(-60.01)"/><path class="cls-35" d="M1749.46,779.79v35h0c0,.61.82,1.4,2.35,2.25l18.63,10.37a14.34,14.34,0,0,0,12.61,0l18.62-10.37c1.52-.85,2.29-1.64,2.35-2.25v-35h-54.57Z"/><rect class="cls-48" x="1746.87" y="779.79" width="59.75" height="7.11"/><rect class="cls-48" x="1746.87" y="794.13" width="59.75" height="7.11"/><rect class="cls-48" x="1746.87" y="808.46" width="59.75" height="7.12"/><g class="cls-76"><path class="cls-2" d="M1760.12,682.7c-7.68-4-19,2.63-25.31,14.76s-5.18,25.2,2.5,29.17,19-2.64,25.3-14.77S1767.79,686.67,1760.12,682.7Z"/></g></g></g></svg>