<?xml version="1.0" encoding="utf-8"?>
<!-- Generator: Adobe Illustrator 29.1.0, SVG Export Plug-In . SVG Version: 9.03 Build 55587)  -->
<svg version="1.1" id="Layer_1" xmlns="http://www.w3.org/2000/svg" xmlns:xlink="http://www.w3.org/1999/xlink" x="0px" y="0px"
	 width="2023.5px" height="2500px" viewBox="0 0 2023.5 2500" style="enable-background:new 0 0 2023.5 2500;" xml:space="preserve"
	>
<style type="text/css">
	.st0{fill:#DCE9F5;}
	.st1{fill:#AEC7E6;}
	.st2{fill:#071F3B;}
	.st3{fill:#0C3461;}
	.st4{fill:#114077;}
	.st5{fill:#E9F0F7;}
	.st6{fill:#FF8666;}
	.st7{fill:#ED4944;}
	.st8{fill:#F2A29B;}
	.st9{fill:#FFC5B3;}
	.st10{fill:#98ADD4;}
	.st11{fill:#F29594;}
	.st12{fill:#ED8A8A;}
	.st13{fill:#6A0000;}
	.st14{fill:#9CB4DB;}
	.st15{fill:#0F3F75;}
	.st16{fill:#CDE2F7;}
	.st17{fill:#144B8A;}
	.st18{opacity:0.56;}
	.st19{fill:#5386B4;}
	.st20{opacity:0.35;}
	.st21{enable-background:new    ;}
	.st22{fill:#27639E;}
	.st23{fill:#3D75A9;}
	.st24{fill:#7D8185;}
	.st25{fill:#FBC977;}
	.st26{fill:#77FBE1;}
	.st27{fill:#C7DCF2;}
	.st28{clip-path:url(#SVGID_00000146479937176911361980000001495088296740146340_);enable-background:new    ;}
	.st29{fill:#5A6778;}
	.st30{fill:#D8E4F3;}
	.st31{clip-path:url(#SVGID_00000016048801592344056760000014748428024619956355_);enable-background:new    ;}
	.st32{fill:#E5ECF3;}
	.st33{fill:#44D9ED;}
</style>
<g>
	<g>
		<path class="st0" d="M489.7,662.9c-1.6-16.6-13.9-26.3-29-32.4L476,537c0.8-4.8-0.4-8.1-2.9-9.6c0.2,0.1,0.4,0.3,0.6,0.4l-7.9-6.2
			c-0.1-0.1-0.2-0.2-0.3-0.2c-1.9-1.2-4.3-1.2-6.4-0.7c-1.9,0.5-3.6,1.3-5.3,2.2c0,0-65.1,37.6-102.8,59.4c1.5-4,3.2-8.3,5.1-13.1
			c7.8-20,5.3-39.9-3.1-56.4c22.8-18.4,29.4-60.3,31.2-88c0.4-2.1,0.6-4.3,0.6-6.5c0-0.6,0-1.1,0-1.7c0.6-10.2,1-19.4,1.2-27.4
			c0.6-0.2,1.2-0.3,1.8-0.4c0.5-0.1,1.1-0.3,1.7-0.6c1.6-0.9,3.1-2.6,3.8-4.6c1-2.7-0.2-5.1-3-4.6c-1.4,0.2-2.8,0.6-4.2,1.1
			c0.4-21-0.3-32.2-0.3-32.2c0.3-2.5,0.4-5.6,0.2-9.2c29.6-25.2,17.3-57.3,8.9-65.7c-18.5-18.5-35.9-15.4-35.9-15.4
			s-30.5-45.2-80.6-45.2c-91.9,0-130,61.7-129.2,79.4c-16.5,14.2-16.5,53.2-12.5,84.7c3.3,26.1,28.5,68.5,55.7,89.6
			c-1.5,4.1-3.1,8.6-4.6,12.2c0,0-12.8,5.9-22.4,17.7c-24.4,10.7-64.7,32.3-101.6,70.6c-2.4,2.5-4.4,4.9-6,7.3
			c-1.4,2-3.4,4.9-5.8,8.7c0,0,0,0,0,0C30.4,611.6-18.8,714.9,7.6,790.7c-0.1,28.7,1.4,60.8,5,96.8c0.4,4.2,2.3,8.4,5.4,12.5
			c9.3,58.6,37.1,146,8.5,509.6c-0.2,4.7,1.8,8.9,5.5,12.6c-1.9,6.4-3.8,12.7-5.9,27.3c-3.6,25.1,18.7,41.1,45.7,52.9
			c25.8,11.3,29.7,18.3,61.5,40.1c31.8,21.8,68.5,14.8,89.7,1.2c23.5-15.1,23.2-46.2,5.7-60.7c-14.4-12-62.4-27.5-85.8-60.3
			c4.6-4.7,7.5-10.5,8.1-17.5c21.8-166.3,33.5-285.6,37.1-374.8c10.7,60.6,14.4,148.9-0.5,286.3c-0.5,5,0.2,9.3,2,13.2
			c-2,6.7-3.9,12.9-6.1,28.1c-3.6,25.1,18.7,41.1,45.7,52.9c25.8,11.3,29.7,18.3,61.5,40.1c31.8,21.8,68.5,14.8,89.7,1.2
			c23.5-15.1,23.2-46.2,5.7-60.7c-14-11.6-59.5-26.6-83.5-57.3c2.3-2.6,3.7-5.5,4-8.6c26.1-261.8,9.7-393.8-7.3-459.8l40.9,2.7
			l6.7-29c-5.5-8.2-10.5-17.3-15.1-26.9l92.4-53.3c4-2.3,7.9-5.8,11.2-9.8c3.4,1.2,7.6,1.5,12.1,0.3c13.4-3.4,27-11.4,32.5-30.4
			c4.6-7.5,7.6-17.3,8.2-30.2c0.1-1.7,0-3.2-0.3-4.5c1.3-5.2,2.1-11.1,2.2-17.8C490,665.5,489.9,664.1,489.7,662.9z"/>
		<path class="st0" d="M1981.3,2290.2c0.4-1.8,0.5-3.6,0.4-5.6c-4.3-83.4-25.9-178.8,8.3-331.4c23.2-103.8,49.6-154.5,21.1-235.3
			c1.4-6.1,1.4-12.2-0.3-18.4c-6.1-22.4-5.8-96.7-20.8-218.7c-7.4-60.1-27.9-96.7-52.9-121.2c-20.9-20.5-56-28.8-84-19.6
			c-2.5-2.9-4.5-4.6-4.5-4.7c-1-3.2-1.7-6.2-2.3-8.9c40.7-26.5,87-82,71.3-149.8c-5.6-24.2-19.2-50-43.7-76.6
			c0,0-14.7-35.2-104.8-36.8c-54.4-1-83.3,22.9-92,31.6c-2.4,2.4-5.2,4.5-8.3,6c-2.1,1-4.6,2.1-7.3,3.3
			c-16.1,6.5-25.7,22.5-25.4,38.9c0.1,6.8,1.9,13.6,5.6,19.9c4.6,7.8,10.5,13.5,16.6,17.7c1.7,45.2,10.2,156.8,52.3,169.3
			c8.8,2.6,26.3,6.7,50.3,4.1c0.5,4.7,0.9,9,1.2,12.8l-14.6,29c0,0,1.1,0.7,3.2,1.8l-50.3,29c-8.9-8-16.1-14.9-20.8-18.4
			c-2.3-1.8-5.5-2-9.1-1c-1-4.7-2.3-9-3.9-13c0-0.1-0.1-0.2-0.1-0.3c-0.1-0.2-0.1-0.3-0.2-0.5c-0.1-0.3-0.2-0.5-0.4-0.8
			c-12.6-28.9-26.8-36.4-38.4-43.3c-7.6-4.5-17-4.4-24.4-9.2l-21.1-13.7c-0.8-0.6-1.8-0.9-2.8-1l-11-74.5c-0.4-2.7-1.8-4.4-3.7-4.9
			c0.1,0,0.3,0.1,0.4,0.1l-6.1-2.3c0,0,0,0,0,0c-1.3-0.5-2.7-0.3-3.8,0.3c-0.5,0.2-69.2,40-69.7,40.2c-0.2,0.1-0.4,0.3-0.6,0.4
			c-0.4,0.3-0.8,0.7-1.2,1c-0.4,0.4-0.8,0.8-1.1,1.3c0,0,0,0,0,0l0,0c-1.4,2-2.3,4.4-2.4,6.8c0,0.4,0,0.7,0,1.1
			c0,0.9,26.1,177.6,26.2,178.6c0.1,0.7,0.3,1.4,0.6,2.1c0.2,0.5,0.5,0.9,0.8,1.3c0.5,0.6,1.2,1.1,1.9,1.4l6.1,2.3c0,0,0,0,0,0
			c1.3,0.5,2.8,0.3,4.4-0.6l37.4-21.6c1.1,1.6,2.2,3.1,3.2,4.7c-2.3,0.3-4.6,1.2-6.8,2.8c-4.6,3.2-7.6,6.9-9.5,10.7
			c-3.4-0.2-6.8,0.6-10,2.9c-7.2,5.1-10.7,11.2-11.7,17.4c-2.6,0.2-5.2,1.1-7.7,2.9c-23.1,16.4-8.7,43.8,7.5,47.9
			c1.6,7.7,4.7,15.3,7.9,21.2c7.3,13.6,15.4,19,18.9,20.9c-0.7,2.8-0.6,5.2,0.5,7.3c65.6,126.8,100.7,141.6,129,141.6
			c15,0,39.9-5.4,63.4-39.4c3.3,34.1-6.7,50.9-10.4,76.2c-1.1,7.5-0.6,14.2,1.3,20.1c-20.4,51.2-56.3,153.7-62.5,255.3
			c-6.2,101.5-2.8,236.8-0.9,301.9c-17.6-10.5-37.8-25.5-69.6-9c-46.7,24.3-27,70.5-4.6,86.6c31.2,22.4,56.5,25.8,80.9,42.1
			c24.4,16.3,59.5,41.9,100.7,16.8c37.5-22.8,17.1-56.3,12-80.9c1.7-2.2,2.7-4.6,2.7-7.1c0-14.3-1.4-44.8-2.2-83.3
			c31.1,22.3,56.3,25.7,80.7,41.9c24.4,16.3,59.5,41.9,100.7,16.8c37.6-22.9,17-56.5,12-81.1
			C1982.1,2293.9,1981.7,2292,1981.3,2290.2z M1592.2,1444.8c7.7,4.9,13.7,8.7,22.8,14.2c0.9,0.5,1.8,1,2.7,1.5
			c-1.3,3.1-2.2,5.9-2.4,8.3c-3.7-2.6-7.5-4.4-11.2-5.5c-3.9-5.5-8.5-11.6-13.4-17.8C1591.3,1445.2,1591.7,1445,1592.2,1444.8z
			 M1635.6,1546.1c-0.6-0.7-1.3-1.4-2.1-2c1.8-2.4,3-4.6,3.4-5.8c0,0,7.8-16,1.9-36.3c6.7,7.8,14.6,16.2,23.7,24.6
			c-1.2,25.5-2.1,45.1-2.1,45.1L1635.6,1546.1z M1793.6,2231.4c-1.7,0.9-3.3,1.8-4.8,2.7c1-63.1,5.5-131,18.7-181.2
			c9.9-37.8,30.6-76.6,52.6-114.9c-0.7,10.2-1.4,20.7-2.1,31.5c-5.8,95.8,1.9,209.5,6.4,271.6
			C1846.6,2230.7,1826.1,2214.5,1793.6,2231.4z"/>
		<path class="st0" d="M1261.1,1044.3c0.8-22.5,1.6-45,2.4-67.5c0,0.1,0,0.1,0,0.2c0-0.1,0-0.1,0-0.2c0-2.2,0.1-4.5-0.1-6.7
			c-0.4-9.9-3.9-19.2-10.5-26.5c7.9-33.5,11.5-58.8,14.8-90.4c1.6-15.7,3-34.7,3.7-56.2c35.4,0.5,59.4-23.4,59.5-66.5
			c0.1-44.8-25.5-98.5-63.1-139.5c-0.7-3.4-1.4-6.8-2.2-10.2c-2.6-14.7-7.7-29.9-12.3-44c-31.4-90.8-99.5-147.7-171.5-172.6
			c-20.9-8.1-51.2-14.3-69.7-16.2c-24.1-2.9-44.2-2.8-60.9-1.8l0.6-154.5l0,0l0.1-39.2c0-8.2-5.7-18.2-12.9-22.3L716.7,1.8
			c-7.1-4.1-12.9-0.8-12.9,7.4l-0.1,26.8l-0.8,212.3c0,8.2,5.7,18.2,12.9,22.3L872,360.7c-83,26-144.9,81-177.3,164.2
			c-16.4,41.4-27.9,96.6-27.5,137.1c-0.5,9.8-0.5,18.8-0.1,27.5c0,12.1,1.8,23.7,5,34.9c-1.3,4.7-1.6,8.8-2.2,13.3
			c-0.3,2.6-0.4,2.7-0.6,7.9c0.2,7.9,0.5,15.9,0.9,23.9c-0.2,5.9-0.1,12,0.4,18.1c0.3,16.1,3.9,81.5,4.6,97.8
			c0.2,5.3,0.6,13.4,0.8,18.7c0.3,5.3,0.4,13.5,0.9,18.7c0.6,5.1,2,10.7,5.1,15.8c2.4,3.9,5.5,7.2,9.1,10c3.7,15.1,7.9,30,12.5,43.5
			c3.4,10.1,8,23.4,12.4,33.5c-8.2,4-16.2,8.3-23.9,12.8c-76.7,44.6-115,103-115,161.4c0-0.2,0-0.3,0-0.5c0,0-2,688.4-2,688.4
			c-0.2,59,38.8,118.2,116.8,163.2c18.3,10.5,37.5,19.6,57.1,27.4c59.2,23.2,122.5,35.2,185.8,38.7c103,5.3,213.2-11,305.1-59.7
			c35.9-19.3,69.8-44.2,94.4-77.1c14.6-19.5,25.5-42,29.9-66.1c1.3-6.8,2-13.8,2.2-20.7c1.3-1.9,1.2-644.9,1.8-685.6
			C1371.2,1149.4,1335.5,1090.2,1261.1,1044.3z"/>
		<polygon class="st0" points="1351,319.3 1324.3,303.9 1324.3,305.8 1351,321.3 		"/>
		<polygon class="st0" points="1351,314.4 1324.3,299 1324.3,300.9 1351,316.3 		"/>
		<polygon class="st0" points="1351,309.4 1324.4,294 1324.3,295.9 1351,311.3 		"/>
		<path class="st0" d="M1397.8,349.8c3.6,2.1,6.5,0.4,6.5-3.7c0-4.1-2.9-9.2-6.5-11.2c-3.6-2.1-6.5-0.4-6.5,3.7
			C1391.3,342.7,1394.2,347.7,1397.8,349.8z"/>
		<polygon class="st0" points="1437.7,369.4 1411.1,354 1411,355.9 1437.7,371.3 		"/>
		<polygon class="st0" points="1437.8,364.4 1411.1,349 1411.1,351 1437.8,366.4 		"/>
		<polygon class="st0" points="1437.8,359.5 1411.1,344.1 1411.1,346 1437.8,361.4 		"/>
		<path class="st0" d="M1484.5,399.9c3.6,2.1,6.5,0.4,6.5-3.7c0-4.1-2.9-9.2-6.5-11.2c-3.6-2.1-6.5-0.4-6.5,3.7
			C1478,392.8,1480.9,397.8,1484.5,399.9z"/>
		<polygon class="st0" points="1524.5,419.5 1497.8,404.1 1497.8,406 1524.5,421.4 		"/>
		<polygon class="st0" points="1524.5,414.5 1497.8,399.1 1497.8,401 1524.5,416.5 		"/>
		<polygon class="st0" points="1524.5,409.6 1497.8,394.1 1497.8,396.1 1524.5,411.5 		"/>
		<path class="st0" d="M1311,299.7c3.6,2.1,6.5,0.4,6.5-3.7c0-4.1-2.9-9.2-6.5-11.2c-3.6-2.1-6.5-0.4-6.5,3.7
			C1304.6,292.6,1307.5,297.7,1311,299.7z"/>
		<polygon class="st0" points="1405.3,610.1 1400.1,607.1 1400.1,614.6 1405.2,617.5 		"/>
		<polygon class="st0" points="1400,631.5 1405.2,634.5 1405.2,627.1 1400,624.1 		"/>
		<polygon class="st0" points="1400,648.5 1405.1,651.5 1405.2,644 1400,641.1 		"/>
		<polygon class="st0" points="1399.9,665.4 1405.1,668.4 1405.1,661 1399.9,658 		"/>
		<polygon class="st0" points="1399.9,682.4 1405,685.4 1405.1,677.9 1399.9,675 		"/>
		<polygon class="st0" points="1399.8,699.3 1405,702.3 1405,694.9 1399.8,691.9 		"/>
		<polygon class="st0" points="1399.8,716.3 1404.9,719.3 1405,711.9 1399.8,708.9 		"/>
		<polygon class="st0" points="1399.7,733.2 1404.9,736.2 1404.9,728.8 1399.8,725.8 		"/>
		<polygon class="st0" points="1399.8,750.2 1404.9,753.2 1404.9,745.8 1399.8,742.8 		"/>
		<polygon class="st0" points="1399.7,767.1 1404.9,770.1 1404.9,762.7 1399.7,759.7 		"/>
		<polygon class="st0" points="1402.4,785.5 1407.5,788.5 1407.6,781 1402.4,778.1 		"/>
		<path class="st0" d="M1402.8,571.6c-5.8-3.4-10.6-0.7-10.6,6c0,6,3.7,13.1,8.7,17c0.6,0.5,1.2,0.9,1.9,1.3
			c0.3,0.2,0.6,0.3,0.9,0.5c-0.3-0.1-0.6-0.3-0.9-0.5c-0.6-0.4-1.3-0.8-1.9-1.3l-0.7-0.4l0,3.5l5.2,3l0-3.5l-0.7-0.4
			c4.9,1.8,8.7-1,8.7-6.9C1413.3,583.1,1408.6,574.9,1402.8,571.6z M1402.7,589.9c-3-1.7-5.4-5.9-5.4-9.3c0-3.4,2.4-4.8,5.4-3.1
			c3,1.7,5.4,5.9,5.4,9.3C1408.1,590.2,1405.7,591.6,1402.7,589.9z"/>
		<polygon class="st0" points="1384.7,775.4 1390.8,779 1390.8,773 1384.7,769.5 		"/>
		<path class="st0" d="M1365.8,750.1c-0.8-0.7-1.7-1.3-2.6-1.9c-0.9-0.5-1.8-0.9-2.6-1.1c-4.6-1.3-8,1.5-8,7.2
			c0,6.7,4.7,14.9,10.5,18.2c5,2.9,9.3,1.3,10.3-3.5l3.3,1.9l0-5.9l-3.5-2C1372.3,758.2,1369.4,753.3,1365.8,750.1z M1363.1,766.6
			c-3-1.7-5.4-5.9-5.4-9.3c0-3.4,2.4-4.8,5.4-3.1c3,1.7,5.4,5.9,5.4,9.3C1368.6,766.9,1366.1,768.3,1363.1,766.6z"/>
		<g>
			<path class="st0" d="M1575.3,661.1C1575.3,661.1,1575.3,661.1,1575.3,661.1c-0.1-1.1-0.2-3-0.4-5.5c0,0,0,0,0,0
				c-2.7-35.7-17.9-204.9-68.9-234.3c-11.5-6.7-20.4-4.1-27.2,4.3c-5.2,6.4-14.4,6.2-23.9,0.7c-4.9-2.8-9.9-7.1-14.5-12.6
				c-4.2-5-8.9-9.2-14.1-12.2c-11.3-6.5-19.8-4.5-26.3,2.5c-3.2,3.4-8.2,3.1-13.2,0.2c-5.5-3.2-11-9.5-13.7-17.2
				c-10.2-29-24.7-53.6-45.3-65.5c-42.4-24.5-61.1,37.4-69.2,90c-6.2,30.4-6.1,62.7-6.1,64.4l322.9,186.4
				C1575.3,661.9,1575.3,661.5,1575.3,661.1z"/>
			<path class="st0" d="M562.9,361c-63.2-36.5-114.6-15.5-114.7,46.9C448,470.3,499,550.5,562.2,587c9.1,5.3,18,9.3,26.5,12.3l0,0
				l42.1,52.2L616,604.8l0,0c36.2,1.9,60.9-21.5,61-64.7C677.1,477.7,626.1,397.5,562.9,361z"/>
		</g>
	</g>
	<g id="Ai_data_analysis_00000109714326182154617690000009682666289994602137_">
		<g>
			<g>
				<g>
					<path class="st1" d="M273.2,710.5c-61.4-54.6-41.6-173-15-215.6c35.9-57.5,123.9,8.3,97.9,74.4c-15.7,40-19,50.7-9,69.1
						c10,18.4,38.2,15.2,65.9,3.4c32.9-14,64,63.8,32.1,82.2C394.1,753.5,330.1,761.1,273.2,710.5z M447.2,723L447.2,723L447.2,723z
						"/>
					<g>
						<g>
							<g>
								<path class="st2" d="M380.3,1452.2c-21.2,13.6-57.9,20.5-89.7-1.2c-31.8-21.8-35.7-28.8-61.5-40.1
									c-27-11.8-49.2-27.8-45.7-52.9c3.6-25.1,6.4-25.5,10.3-44.5c3.8-18.8,19.2-32.3,46-33.3c26.8-0.9,46.5,15.7,49.6,28
									c12.6,49.2,79.2,68.8,96.7,83.3C403.5,1406.1,403.8,1437.2,380.3,1452.2z"/>
								<g>
									<path class="st3" d="M130.6,835.5c-15.7,97.5,100.6,77.8,57,481.2c-5.4,49.7,115.7,41.1,118.9,9
										c36.4-364.5-9.8-477.5-25-510.7C245.4,722,143.8,753.6,130.6,835.5z"/>
								</g>
							</g>
							<g>
								<path class="st2" d="M222.9,1543.7c-21.2,13.6-57.9,20.5-89.7-1.2c-31.8-21.8-35.7-28.8-61.5-40.1
									c-27-11.8-49.2-27.8-45.7-52.9c3.6-25.1,6.4-25.5,10.3-44.5c3.8-18.8,19.2-32.3,46-33.3c26.8-0.9,46.5,15.7,49.6,28
									c12.6,49.2,79.2,68.8,96.7,83.3S246.4,1528.7,222.9,1543.7z"/>
								<g>
									<path class="st4" d="M15.2,869.3c0,66.6,45.1,110.3,11.3,540.4c-1.3,35,120.7,44.9,124.5-4.4
										c41.1-314.1,46.4-460.7,28.8-553C162.2,760,15.2,786.3,15.2,869.3z"/>
								</g>
							</g>
						</g>
						<g>
							<g>
								<g>
									<path class="st5" d="M119.9,925.5c49.5-13.1,175.9-77.6,172.5-91.5c-4.2-16.7-14.1-88.9-7-134.8
										c7.1-45.9,46.3-95.7,55.1-127.9c15.1-55.8,4.5-80.1-34.1-95.1c-17.6-6.8-45-9-118.1,11.1c0,0-66.4,18.9-124.4,79.2
										c-2.4,2.5-4.4,4.9-6,7.3C45.8,591-9,669.1,12.5,887.5C15,912.7,70.4,938.6,119.9,925.5z"/>
								</g>
								<path class="st1" d="M119.9,925.5c-49.5,13.1-104.9-12.8-107.4-38C-2.5,734.7,19.8,650.6,38.6,608
									c33.4,4.3,66.4,24.2,89.3,49.1c-7.3,21.8,0.5,60.3,22.1,73.3c27.6,16.6,99.3,19.2,137.6-42.4c0,0,0.1-0.1,0.2-0.1
									c-1,3.8-1.8,7.6-2.4,11.4c-7.1,45.9,2.8,118.1,7,134.8C295.9,847.9,169.4,912.4,119.9,925.5z"/>
							</g>
							<g>
								<path class="st6" d="M260.9,636.6c-2.5,130.2,30.4,228.8,30.4,228.8l48.8,3.2l6.7-29c-36.8-55-53.3-147.2-60.6-209
									c-4.4-37.6-5.4-63.9-5.4-63.9l3.4-24.1l-37,12l17.9,18.1C262.6,594.6,261.3,616,260.9,636.6z"/>
								<path class="st7" d="M291.3,865.4l48.8,3.2l6.7-29c-36.8-55-53.3-147.2-60.6-209c0,0-1.9,3.4-7.3,4.6c-11,2.5-18,1.4-18,1.4
									C258.4,766.8,291.3,865.4,291.3,865.4z"/>
							</g>
							<path class="st8" d="M196.2,455.1c0,0-4.8,14.4-8.4,23.1c-3,7.3-5.7,14.1-7.5,19.7c-4,12.2,8.5,70.3,87.7,49.9
								c0,0,4.8-12.3,14.6-54.9C294.6,441.6,213.6,401.8,196.2,455.1z"/>
							<path class="st1" d="M187.9,478.2c0,0-14.8,37,15.5,57.8c32.5,22.3,64.6,11.7,64.6,11.7l-10.1,47.3c0,0-77.5,13.1-100.6-56.8
								C144.3,498.4,187.9,478.2,187.9,478.2z"/>
							<path class="st1" d="M268,547.8l25.3,26.9c0,0,11.9-28.4-12.6-74.6C280.7,500.1,269.5,539.2,268,547.8z"/>
						</g>
					</g>
					<path class="st5" d="M33.5,832.3c-73.2-72.8-7.4-214.8,18.5-249.8c25.9-35,102.6,18.8,88.2,49.7
						C125.9,663,87,727.7,109.3,755.4c22.3,27.7,78.7,10.2,105,0.7c26.3-9.5,50.8,69.9,27.5,80C218.4,846.2,97.6,896,33.5,832.3z"/>
					<g>
						<g>
							<path class="st9" d="M428.3,627c-8.4,3.5-8.4,2.1-15.4,10.9c-20.1,25.4-7,43.1-7,43.1s22,13.5,34.9,42c0,0,48.4-1.6,49-56
								c0.2-22.2-17.6-33.3-37.5-39.4C449.2,626.6,434.6,624.4,428.3,627z"/>
							<path class="st8" d="M406,681c0,0,22,13.5,34.9,42c0,0,16.7-9.5,31.1-20.5c-1.8-9.3-5.4-20.5-12.1-33.7c0,0-6.2-14.5-21.7-18
								c-8.4-1.9-22.8,0.7-34.4,3.5C398.3,670.6,406,681,406,681z"/>
							<path class="st9" d="M453.2,657.6c0,0-21-4-32.2,18.7c-10.1,20.4-33.7,11.3-29.3-6.3c5.4-21.6,18-37.6,36.4-42.8
								C452.7,620.1,468.2,654,453.2,657.6z"/>
						</g>
						<path class="st9" d="M277.4,755.8c0,0,0.7-9.8,25.8-6.7c19.2,2.3,25.6-22.3,8.3-27.9c-21.2-6.8-52.6,0.8-64.4,10.7
							C227.5,748.4,267.1,771.8,277.4,755.8z"/>
						<g>
							<path class="st1" d="M463.7,528.1c3.1-1.4,7.1-2.5,10.1-0.3l-7.9-6.2c-0.1-0.1-0.2-0.2-0.3-0.2c-1.9-1.2-4.3-1.2-6.4-0.7
								c-1.9,0.5-3.6,1.3-5.3,2.2c0,0-135.6,78.3-135.6,78.3c-1.4,0.8-2.7,1.7-4,2.7c-6.2,5-11.2,11.5-14.3,18.8
								c-0.8,2-1.5,4-1.8,6.1c0,0-31.8,194.7-31.8,194.7c-0.7,4.4,0.2,7.5,2.2,9.2c0,0,7.9,6.2,7.9,6.2c-2.1-1.6-3-4.8-2.2-9.2
								l31.8-194.7c0.7-4.1,2.4-7.9,4.5-11.5c3.4-5.7,7.9-10.9,13.4-14.8c0.7-0.5,1.5-1,2.2-1.4c0,0,135.6-78.3,135.6-78.3
								C462.3,528.8,463,528.5,463.7,528.1z"/>
							<g>
								<path class="st10" d="M461.6,529.2c9.5-5.5,15.9-2,14.3,7.8l-31.8,194.7c-1.6,9.8-10.6,22.2-20.1,27.7l-135.6,78.3
									c-9.5,5.5-15.9,2-14.3-7.8l31.8-194.7c1.6-9.8,10.6-22.2,20.1-27.7L461.6,529.2z"/>
							</g>
						</g>
						<g>
							<path class="st11" d="M267.9,805.5c0,0,8.3,10.2,23.7,0.1c9.8-6.4,19.9,0.5,11.9,11.7c-10.7,15-30.3,12.1-35.7,10.7
								C246.8,822.4,257.3,799.6,267.9,805.5z"/>
							<path class="st11" d="M273.2,794.1c0,0,11.2,10.5,29.4,2.1c17.4-8.1,22.7,5,14,17.2c-11.6,16.3-42.8,14.8-54.9,4.9
								C243.3,803.2,264.7,790.7,273.2,794.1z"/>
							<path class="st8" d="M282.1,778.3c0,0,11.5,11.8,30,0.2c17.7-11.2,27.8,3.8,17.6,19.5c-10.5,16.2-38.6,16.7-57.7,11.2
								C247.3,802.1,272.5,775.9,282.1,778.3z"/>
							<path class="st9" d="M292,763.1c0,0,8.9,2.7,27.4-9c17.7-11.2,30,4.6,19.8,20.4c-10.5,16.2-38.1,25.1-57.2,19.6
								C257.2,786.9,282.4,760.6,292,763.1z"/>
						</g>
						<path class="st9" d="M247.1,731.9c7.7-5.2,17.6,4.1,18.9,8.6c4.5,16.3,26,22.5,26,22.5L266,827.4c-18.4,2.1-25.6-0.7-25.6-0.7
							c-3.5,0.7-19.1-6.8-24.5-25.1c-5.4-18.3-2.6-36.5,4.9-38.7C227.4,746.1,243.7,734.3,247.1,731.9z"/>
						<path class="st12" d="M448.7,700.5c0,0,8.5,16.5-13.5,28.9c-17.2,9.7-4.4,24.6,12,20.4c16.6-4.2,33.6-15.4,34.9-46
							C483.1,680.9,446.8,690.8,448.7,700.5z"/>
						<path class="st11" d="M450.5,685.5c0,0,9.5,18.4-15.1,32.4c-19.2,10.9-5,27.6,13.5,22.9c18.6-4.8,37.6-17.3,39.1-51.5
							C489,663.5,448.4,674.6,450.5,685.5z"/>
						<path class="st8" d="M455.6,674.9c-1,4.7-1,21.4-20.2,33.4c-18.7,11.7-5,27.6,13.5,22.9c18.6-4.8,37.6-17.3,39.1-51.5
							C489,653.9,456.6,670.3,455.6,674.9z"/>
						<path class="st9" d="M456.2,657.8c-1.1,6.9-3.3,28.3-17.8,34.7c-20.2,8.9-5.1,27.1,13.5,22.9c21.8-4.9,34.8-19.8,37.9-48.5
							C491.9,647.8,457.3,650.9,456.2,657.8z"/>
					</g>
					<g>
						<path class="st9" d="M385.7,347.9c0,0,1.7,26.8-1.5,76c-2,31.3-10,81.8-41.2,94.9c-45,18.9-122.5-25.3-155.7-61.8
							c-33.2-36.5-44.8-72.3-44.8-118.1c0-51,55.2-116.6,134.1-116.6C363.4,222.4,389.4,320.9,385.7,347.9z"/>
						<path class="st4" d="M136.7,376.5c3.8,30.3,37.3,82.8,69.1,98c0,0-8.3-26.3,14.4-26.3c4.9,0,17,3,17-5.5l0.1-42.8
							c-1-11.9,0.1-25.7,19.5-25.7c18.9,0,42.2,2.4,98.5-18.5c66.7-24.7,50.1-72.3,39.6-82.7c-18.5-18.5-35.9-15.4-35.9-15.4
							s-30.5-45.2-80.6-45.2c-91.9,0-130,61.7-129.2,79.4C132.8,306,132.8,345,136.7,376.5z"/>
						<path class="st3" d="M401,282.9c7.6,18.2,8,53-45.8,72.9c-56.3,20.8-79.6,18.5-98.5,18.5c-19.4,0-20.5,13.8-19.5,25.7
							l-0.1,42.8c0,8.5-12.1,5.5-17,5.5c-22.7,0-14.4,26.3-14.4,26.3c-31.7-15.2-65.2-67.7-69.1-98c-2.4-18.7-3.3-40.1-0.2-57.4
							c0.7,4.2,1.8,8.4,3.3,12.5c6.5,17.4,23.9,32.3,42.3,29.4c14.7-2.3,25.5-14.8,38.9-21.2c23-11.1,50.1-3.6,75.7-3.5
							C337.2,336.5,377,315.4,401,282.9z"/>
						<path class="st9" d="M222.5,425.1l0.7,41.5c0.2,5.1-4.2,7.6-8.3,5.9c-12.1-4.8-31-23-34-36.8c-5-23.4,3.5-36.1,24.9-33.9
							C220.3,403.4,222.1,414.1,222.5,425.1z"/>
					</g>
				</g>
				<g>
					<g>
						<path class="st13" d="M367.3,460.1c1.6-0.9,2.9-0.2,2.9,1.7l0,1.6c0,13.6-9.5,30.1-21.3,37s-21.4,1.3-21.5-12.2l0-1.6
							c0-1.9,1.3-4.1,2.9-5.1L367.3,460.1z"/>
					</g>
					<g>
						<path class="st13" d="M314.5,420.4c3.9-2.2,7.8-3.7,11.5-4.4c2.8-0.5,4,1.9,3,4.6c-0.8,2-2.3,3.7-3.8,4.6
							c-0.6,0.3-1.1,0.6-1.7,0.7c-2.9,0.5-5.9,1.7-8.9,3.4c-3,1.7-6,4.1-8.9,6.9c-0.5,0.5-1.1,1-1.7,1.3c-1.6,0.9-3.1,1-3.8-0.2
							c-1.1-1.5,0.2-5.3,3-8C306.8,425.7,310.6,422.7,314.5,420.4z"/>
					</g>
					<g>
						<path class="st13" d="M315.3,443.2c3.7-2.1,6.6,3,6.7,11.4c0,8.4-2.9,16.9-6.6,19c-3.6,2.1-6.6-3-6.6-11.4
							C308.7,453.8,311.7,445.3,315.3,443.2z"/>
					</g>
					<g>
						<path class="st13" d="M378.7,383.4c3.9-2.2,7.8-3.7,11.5-4.4c2.8-0.5,4,1.9,3,4.6c-0.8,2-2.3,3.7-3.8,4.6
							c-0.6,0.3-1.1,0.6-1.7,0.6c-2.9,0.5-5.9,1.7-8.9,3.4c-3,1.7-6,4.1-8.9,6.9c-0.5,0.5-1.1,1-1.7,1.3c-1.6,0.9-3.1,1-3.9-0.2
							c-1.1-1.5,0.2-5.3,3-8C371,388.6,374.8,385.6,378.7,383.4z"/>
					</g>
					<g>
						<path class="st13" d="M378.1,406.9c3.6-2.1,6.6,3,6.6,11.4c0,8.4-2.9,16.9-6.6,19c-3.7,2.1-6.6-3-6.6-11.4
							C371.5,417.6,374.4,409.1,378.1,406.9z"/>
					</g>
				</g>
			</g>
			<g>
				<g>
					<path class="st8" d="M1567.6,1344.8c0,0,25.9-9.4,47,2.3c21.1,11.8,49.1,25.4,55.8,61c4.9,26.1-5.1,44-22.4,52.4
						c-10.6,5.1-23,4.4-33.1-1.6c-14.3-8.5-20.8-13.1-38.8-24.1C1559.2,1424.4,1547.5,1365.3,1567.6,1344.8z"/>
					<path class="st8" d="M1568.1,1447.2c-22-2.2-21-25.9-17.1-38.6c6.7-21.8,28.6-6.9,30.4-1.8c1.8,5.1,0,9,0,9s18.7,0.2,20.5,14.3
						C1602.9,1438.3,1595.9,1450,1568.1,1447.2z"/>
					<path class="st8" d="M1562.3,1430.7c-22.4-6.4-17.7-31.4-11.7-44.3c10.4-22.1,30.7-2.2,31.8,3.6c1.1,5.8-1.4,9.6-1.4,9.6
						s19.3,3.6,19,19C1599.9,1427.5,1590.8,1438.8,1562.3,1430.7z"/>
					<path class="st8" d="M1557.5,1411.9c-20.4-14-8.6-38.6,1-50.1c16.6-19.6,31.1,7.7,30.5,14.1c-0.6,6.4-4.1,9.6-4.1,9.6
						s18.1,10.1,13.5,26C1595.6,1420.9,1583.4,1429.6,1557.5,1411.9z"/>
					<path class="st8" d="M1557.9,1391.1c-20.4-14-8.6-38.6,1-50.1c16.6-19.6,31.1,7.7,30.5,14.1s-4.1,9.6-4.1,9.6
						s18.1,10.1,13.5,26C1596,1400.1,1583.8,1408.8,1557.9,1391.1z"/>
				</g>
				<path class="st1" d="M1833,1582.3c103.6-11.5,121.6-126.9,126.4-152.5c15.2-80.3-103.5-116.9-116.6-70.1
					c-10.7,38.4-12.1,107.5-55.3,111.3c-43.2,3.8-91.8-50.2-108.1-62.9s-73.4,52.6-62.7,66.1C1640.6,1504.5,1703,1596.7,1833,1582.3
					z"/>
				<g>
					<g>
						<g>
							<path class="st14" d="M1486,1298.3l26.1,177.6c0.6,4.4,4.1,6.3,7.6,4.2l69.2-40c3.6-2.1,5.9-7.3,5.3-11.7l-26.1-177.6
								c-0.6-4.4-4.1-6.3-7.6-4.2l-69.2,40C1487.7,1288.6,1485.4,1293.9,1486,1298.3z M1487.9,1297.5c-0.5-3.3,1.3-7.3,4-8.8
								l68.7-39.7c2.7-1.6,5.3-0.1,5.8,3.2l26,176.9c0.5,3.3-1.3,7.3-4,8.8l-68.7,39.7c-2.7,1.6-5.3,0.1-5.8-3.2L1487.9,1297.5
								L1487.9,1297.5z"/>
						</g>
						<g>
							<path class="st15" d="M1517.5,1478.8c0.8,0,1.6-0.2,2.4-0.7l68.7-39.7c2.9-1.7,4.8-5.9,4.3-9.4l-26-176.9
								c-0.4-2.6-2-4.3-4.1-4.3c-0.8,0-1.6,0.2-2.4,0.7l-68.7,39.7c-2.9,1.7-4.8,5.9-4.3,9.4l26,176.9
								C1513.8,1477.1,1515.4,1478.8,1517.5,1478.8C1517.5,1478.8,1517.5,1478.8,1517.5,1478.8z"/>
							<path class="st3" d="M1487.9,1297.5l26,176.9c0.5,3.3,3.1,4.8,5.8,3.2l68.7-39.7c2.7-1.6,4.5-5.5,4-8.8l-26-176.9
								c-0.5-3.3-3.1-4.8-5.8-3.2l-68.7,39.7C1489.2,1290.2,1487.4,1294.2,1487.9,1297.5z"/>
						</g>
						<path class="st16" d="M1479.8,1295c0-0.4,0-0.7,0-1.1c0.1-2.4,1-4.9,2.4-6.8c0,0,0,0,0,0c0,0,0,0,0,0c0.3-0.5,0.7-0.9,1.1-1.3
							c0.4-0.4,0.8-0.7,1.2-1c0.2-0.1,0.4-0.3,0.6-0.4c0.5-0.3,69.2-40,69.7-40.2c1.2-0.6,2.6-0.8,3.8-0.3c0,0,0,0,0,0l6.1,2.3
							c-1.4-0.5-3-0.2-4.3,0.6c0,0-69.2,40-69.2,40c-1.2,0.7-2.1,1.6-2.9,2.7c0,0,0,0,0,0c-1.8,2.6-2.8,5.8-2.4,9
							c0.1,0.8,26,177.4,26.2,178.1c0.4,1.8,1.4,3.6,3.2,4.3l-6.1-2.3c-0.8-0.3-1.4-0.8-1.9-1.4c-0.3-0.4-0.6-0.8-0.8-1.3
							c-0.3-0.7-0.5-1.4-0.6-2.1C1505.9,1472.6,1479.8,1295.9,1479.8,1295z"/>
						<path class="st17" d="M1491.9,1288.7l68.7-39.7c2.7-1.6,5.3-0.1,5.8,3.2l9.4,63.9l-65.8,131.3l-22-149.8
							C1487.4,1294.2,1489.2,1290.2,1491.9,1288.7z"/>
						<g class="st18">
							<path class="st19" d="M1492.6,1292.2c-1.3,0.8-2.2,2.7-2,4.4c0.2,1.6,1.5,2.3,2.8,1.6c1.3-0.8,2.2-2.7,2-4.4
								C1495.2,1292.1,1493.9,1291.4,1492.6,1292.2z"/>
						</g>
						<g>
							<path class="st4" d="M1492.7,1292.1c-1.2,0.7-2.1,2.5-1.8,4.1c0.2,1.5,1.4,2.2,2.7,1.5c1.2-0.7,2.1-2.5,1.8-4.1
								C1495.2,1292.1,1494,1291.4,1492.7,1292.1z"/>
						</g>
						<g>
							<path class="st15" d="M1492.9,1293.6c-0.6,0.3-1,1.2-0.9,1.9c0.1,0.7,0.7,1,1.3,0.7c0.6-0.3,1-1.2,0.9-1.9
								C1494.1,1293.6,1493.5,1293.2,1492.9,1293.6z"/>
						</g>
						<g class="st20">
							<path class="st19" d="M1492.3,1293.5c-0.4,0.2-0.6,0.8-0.5,1.2c0.1,0.5,0.4,0.7,0.8,0.4c0.4-0.2,0.6-0.8,0.5-1.2
								C1493,1293.5,1492.7,1293.3,1492.3,1293.5z"/>
						</g>
					</g>
				</g>
				<path class="st9" d="M1581.9,1326.3l21.1,13.7c7.4,4.8,16.8,4.8,24.4,9.2c11.8,7,26.2,14.5,38.9,44.5
					c3.5,8.2-9.2,25.4-39.8,18.2c-27-6.4-29.9-35-29.9-35s-13.5-8.2-25.3-23.3C1558.7,1337.6,1574.2,1321.1,1581.9,1326.3z"/>
				<g>
					<path class="st2" d="M1789,2318.1c31.2,22.4,56.5,25.8,80.9,42c24.4,16.3,59.5,41.9,100.7,16.8c37.6-22.9,17-56.5,12-81.1
						c-5.3-26.2-16.2-39.4-41-44c-27.2-5-41.7,1.8-63.5-4.3s-43.5-37.4-84.5-16C1746.9,2255.7,1766.5,2302,1789,2318.1z"/>
					<g>
						<path class="st4" d="M1989.9,1953.2c-34.1,152.6-12.6,248-8.3,331.4c1.4,26.5-41.3,37.1-74.9,31.6
							c-21.6-3.6-39.4-13.8-39.4-30.8c0-20-17.4-184.8-9.4-315.9c8.7-143.4,25.5-236.1,25.5-236.1c1.9-6.9,4-13.3,6.3-19.3
							c29.4-78.6,84.3-84.6,114.6-13.2C2043.2,1792,2014.7,1842.3,1989.9,1953.2z"/>
						<path class="st3" d="M1906.8,2316.2c-21.6-3.6-39.4-13.8-39.4-30.8c0-20-17.4-184.8-9.4-315.9
							c8.7-143.4,25.5-236.1,25.5-236.1c1.9-6.9,4-13.3,6.3-19.3c12.2,3.7,38.4,18.1,44.2,74.3c0,0-3.8,47-29.9,113.2
							C1883,1955.2,1899.7,2218.6,1906.8,2316.2z"/>
					</g>
				</g>
				<g>
					<path class="st2" d="M1595,2430.7c31.2,22.4,56.5,25.8,80.9,42c24.4,16.3,59.5,41.9,100.7,16.8c37.6-22.9,17-56.5,12-81.1
						c-5.3-26.2-16.2-39.4-41-44c-27.2-5-41.7,1.8-63.5-4.3c-21.7-6.1-43.5-37.4-84.5-16C1552.9,2368.3,1572.6,2414.5,1595,2430.7z"
						/>
					<path class="st4" d="M1746.9,1762.4c0,0-68,145.3-76.7,288.7c-8,131.1,0,318.5,0,338.5c0,55.3,121.2,39.8,121.2,11.9
						c0-43.6-12.7-238.6,16.2-348.5c28.9-109.9,148.3-228.4,128.6-317.9C1918.2,1653.5,1789,1646.9,1746.9,1762.4z"/>
				</g>
				<g>
					<path class="st0" d="M1823.4,1827.1c-7.6,1.4-14,2.1-18.7,2.1c-47.4-0.1-78.6-17.8-73.3-53.5c5.3-35.7,22.8-54.2-1.4-128
						c-10.4-31.7-30.6-69.3-44.6-105.2c-18.6-47.7-26.3-92.3,14.1-115.6l141.3-81.6c29.2-16.9,72.1-9.4,96.2,14.2
						c25,24.5,45.5,61.1,52.9,121.2c15,122,14.8,196.3,20.8,218.7C2027.2,1760,1885.4,1815.8,1823.4,1827.1z"/>
					<path class="st1" d="M1823.4,1827.1c-7.6,1.4-14,2.1-18.7,2.1c-47.4-0.1-78.6-17.8-73.3-53.5c5.3-35.7,22.8-54.2-1.4-128
						c-10.4-31.7-30.6-69.3-44.6-105.2l1.9-54.2c0,0,64.1-22.3,83.6,34.1c0,0,20.3,92.7,7.6,218.4
						C1774.6,1779.1,1768.1,1807.6,1823.4,1827.1z"/>
				</g>
				<g>
					<g>
						<path class="st8" d="M1637,1538.3c0,0,12.3-24.9-5.4-52.2s-38.7-27.6-56.9-21.2c-19.2,6.7-4.7,34.3,5.5,32
							c3.5-0.8,6.2-1.1,8.2-1.1c3.1,0,5.3,3.8,3.8,6.4c-5.5,9.1-15,30.7,5.2,48.1C1617.9,1567.9,1634.9,1543.9,1637,1538.3z"/>
						<path class="st8" d="M1525.7,1548.4c-17.3-0.5-35.8-30.9-11-48.5c18.9-13.4,44.6,22.1,28.1,38.7
							C1542.7,1538.6,1535.5,1548.7,1525.7,1548.4z"/>
						<path class="st8" d="M1545.1,1528.1c-17.3-0.5-35.8-30.9-11-48.5c18.9-13.4,44.6,22.1,28.1,38.7
							C1562.1,1518.3,1554.9,1528.4,1545.1,1528.1z"/>
						<path class="st9" d="M1616.6,1481.6c0,0-25.8-41-48.8-61c-18.7-16.3-37.6,4.4-24.8,19.5c14.3,16.8,30,41.4,36.1,56.5
							C1587.2,1516.3,1629.5,1505.1,1616.6,1481.6z"/>
						<path class="st8" d="M1564.6,1514.5c-17.3-0.5-35.8-30.9-11-48.5c18.9-13.4,44.6,22.1,28.1,38.7
							C1581.6,1504.7,1574.4,1514.8,1564.6,1514.5z"/>
						<path class="st9" d="M1634.2,1561.4l-4-9.9c0,0,1.6-49.4-14.3-71.1c-15.9-21.7-64.8,18.7-85.2,34.2
							c-16.4,12.5-9,38.9-0.6,54.5c9.7,18,20.8,21.8,20.8,21.8C1563.3,1616.7,1648.4,1583.9,1634.2,1561.4z"/>
					</g>
					<path class="st0" d="M1678.4,1738.8c28.2,0,91.4-19.3,114.4-210.7c16-133.1-123.8-127.9-127.9-48.4c-2.3,43.7-4.4,92-4.4,92
						l-24.9-25.5c-22.2-26-96.1,32-86.2,51.2C1615,1724.1,1650.1,1738.8,1678.4,1738.8z"/>
				</g>
				<g>
					<path class="st1" d="M1748.1,1398.9c10.3,5.8,64.9,31.2,107.9-6c4.1-3.5,24.8-22.8-2.5-52.4c-0.1,0.1-0.9-0.3-2.3-1.1
						L1748.1,1398.9z"/>
					<g>
						<path class="st9" d="M1824.9,1400.5c-23.8,7.4-53.1,4.8-63-9.6c0,0,2.5-19.4-4.3-58c-5.3-30.4,76.3-51.6,87.1-23.4
							c0,0-1.5,18,9.4,39.6C1867.2,1375.3,1848.9,1393,1824.9,1400.5z"/>
						<path class="st8" d="M1796.9,1397.6c7.5,1.7,16.7,2.8,28,2.9c-23.8,7.4-53.1,4.8-63-9.6c0,0,2.5-19.4-4.3-58
							c-5.3-30.4,76.3-51.6,87.1-23.4c0,0-10.3,19.5-49.6,36.7C1775.7,1354.8,1782.9,1394.4,1796.9,1397.6z"/>
					</g>
					<g>
						<path class="st9" d="M1657.7,1161.6c0,0-0.2,172.5,52.7,188.2c18.8,5.6,76.8,18,154.2-42.3c77.4-60.3,57.9-227.2-76.9-233.9
							C1652.8,1067,1655.4,1145.2,1657.7,1161.6z"/>
						<path class="st6" d="M1635.8,1142.9c0.1,6.8,1.9,13.6,5.6,19.9c6.6,11.2,15.9,18.1,24.7,22.4c15.7,7.7,25.9,24.7,25.8,43.6
							l4.4,33c0,11.8,13,14.5,13,5c0-13.8,6.2-39,24.1-25.2c15,11.6,16.4,26,9.6,42.2c0,0.1-0.1,0.2-0.1,0.3
							c-5.5,12.8-4.8,27.5,2.1,39.5c5.3,9.1,12.4,17.7,20.9,19.5c24.3,5.2,42.9,6.6,77.3-14.7c41.4-25.7,90.3-82.3,74.2-151.7
							c-5.6-24.2-19.2-50-43.7-76.6c0,0-14.7-35.2-104.8-36.8c-54.4-1-83.3,22.9-92,31.6c-2.4,2.4-5.2,4.5-8.3,6
							c-2.1,1-4.6,2.1-7.3,3.3C1645.2,1110.6,1635.5,1126.6,1635.8,1142.9z"/>
						<path class="st7" d="M1635.8,1142.9c0.1,6.8,1.9,13.6,5.6,19.9c6.6,11.2,15.9,18.1,24.7,22.4c15.7,7.7,25.9,24.7,25.8,43.6
							l4.4,33c0,11.8,13,14.5,13,5c0-13.8,6.2-39,24.1-25.2c15,11.6,16.4,26,9.6,42.2c0,0.1-0.1,0.2-0.1,0.3
							c-5.5,12.8-4.8,27.5,2.1,39.5c5.3,9.1,12.4,17.7,20.9,19.5c24.3,5.2,42.9,6.6,77.3-14.7c41.4-25.7,90.3-82.3,74.2-151.7
							c-1.9-8-4.6-16.1-8.2-24.4c0.7,35-21.2,48.9-35.7,53.5c-16.8,5.3-36.4,4-53.9,6.4c-11.4,1.6-24.2,1.9-35.8,0.8
							c-9.3-0.8-21.1-3.1-29.6-7.3c-16.2-8-21.8-25.3-35.1-36.6c-20.3-17.4-45.2-11.1-69-19.3
							C1645.3,1148.1,1640.4,1145.8,1635.8,1142.9z"/>
					</g>
					<path class="st0" d="M1848.5,1335.3c0,0,4.9,16.3-17.8,27.8c-37.2,18.7-68.8,3.7-68.8,3.7l-14.6,29c0,0,53.5,33.6,101.8-3.9
						C1883.3,1365.2,1848.5,1335.3,1848.5,1335.3z"/>
				</g>
			</g>
		</g>
		<g>
			<g>
				<g>
					<g>
						<g class="st21">
							<path class="st3" d="M1240.7,1074.5c-104.3-72.9-259.3-87.6-381.9-63.2c-68,13.8-139.5,41.4-188.7,91.8
								c-11,11.5-20.7,24.3-28.1,38.4c-9.5,17.9-15,38-15.1,58.2c0,0-2,688.4-2,688.4c0.1-17.6,4.2-35.1,11.6-51.1
								c12.2-26.7,32.5-48.9,55.4-66.9c80.2-61.9,193.9-83.5,293.5-81.1c40.6,1.1,81.2,6.2,120.7,16c23.8,5.9,47.3,13.5,69.8,23.2
								c72.8,30.3,141.6,89.5,140.8,161.9c0,0,2-688.4,2-688.4C1318.8,1156.6,1292.8,1111.5,1240.7,1074.5z"/>
							<g>
								<path class="st17" d="M1216.6,1075.9c135.5,78.2,136.2,205.1,1.6,283.3c-134.6,78.2-353.6,78.2-489.1,0
									c-135.5-78.2-136.2-205.1-1.6-283.3C862.1,997.7,1081.1,997.7,1216.6,1075.9z"/>
							</g>
							<path class="st1" d="M1368.4,1206.3c-4.2,90.1-89.6,150.1-165.9,181.5c-57.8,23.7-119.8,36.2-182.1,40.5
								c-64.4,4.3-129.6-0.2-192.6-14.6c-113.9-24.9-250.4-99.6-250.7-214.2c0,0-2,688.4-2,688.4c-0.2,59,38.8,118.2,116.8,163.2
								c18.3,10.5,37.5,19.6,57.1,27.4c59.2,23.2,122.5,35.2,185.8,38.7c103,5.3,213.2-11,305.1-59.7c35.9-19.3,69.8-44.2,94.4-77.1
								c14.6-19.5,25.5-42,29.9-66.1c1.3-6.8,2-13.8,2.2-20.7C1367.9,1891.7,1367.7,1189.7,1368.4,1206.3z"/>
							<g>
								<path class="st5" d="M1251.7,1038.6c155,89.5,155.9,234.6,1.8,324.2c-154,89.5-404.6,89.5-559.6,0
									c-155-89.5-155.9-234.6-1.8-324.1C846.1,949.1,1096.7,949.1,1251.7,1038.6z M729,1342.4c135.5,78.2,354.5,78.2,489.1,0
									c134.6-78.2,133.9-205.1-1.6-283.3c-135.5-78.2-354.5-78.2-489.1,0C592.8,1137.3,593.5,1264.1,729,1342.4L729,1342.4z"/>
							</g>
						</g>
					</g>
					<g>
						<g>
							<g>
								<path class="st10" d="M1153.5,1113.3c99,57.5,98.5,151.1-1.2,208.6c-99.6,57.5-261.2,57.5-360.2,0
									c-99-57.5-98.5-151.1,1.2-208.6C892.9,1055.8,1054.5,1055.8,1153.5,1113.3z M1139.1,1314.2c92.3-53.3,92.8-140,1.1-193.3
									c-91.7-53.3-241.4-53.3-333.7,0c-92.3,53.3-92.8,140-1.1,193.3C897.1,1367.5,1046.8,1367.5,1139.1,1314.2L1139.1,1314.2z"/>
							</g>
							<g>
								<path class="st22" d="M1010.3,1196c20.5,11.9,20.4,31.3-0.3,43.3c-20.7,11.9-54.2,11.9-74.7,0
									c-20.5-11.9-20.4-31.3,0.2-43.3C956.2,1184,989.7,1184,1010.3,1196z M996.8,1231.6c13.3-7.7,13.4-20.2,0.2-27.9
									c-13.2-7.7-34.8-7.7-48.2,0c-13.3,7.7-13.4,20.2-0.2,27.9C961.9,1239.3,983.5,1239.2,996.8,1231.6L996.8,1231.6z"/>
							</g>
							<g>
								<path class="st23" d="M1058,1168.4c46.7,27.1,46.4,71.3-0.6,98.4c-47,27.1-123.2,27.1-169.8,0
									c-46.7-27.1-46.4-71.3,0.6-98.4C935.1,1141.3,1011.3,1141.3,1058,1168.4z M1044.2,1259.1c39.7-22.9,39.9-60.1,0.5-83
									c-39.4-22.9-103.7-22.9-143.3,0c-39.7,22.9-39.9,60.1-0.5,83C940.3,1282,1004.6,1282,1044.2,1259.1L1044.2,1259.1z"/>
							</g>
							<g>
								<path class="st19" d="M1105.7,1140.9c72.8,42.3,72.4,111.2-0.9,153.5c-73.3,42.3-192.2,42.3-265,0
									c-72.8-42.3-72.4-111.2,0.9-153.5C914,1098.5,1032.9,1098.5,1105.7,1140.9z M1091.6,1286.7c66-38.1,66.3-100.1,0.8-138.1
									c-65.5-38.1-172.5-38.1-238.5,0s-66.3,100.1-0.8,138.2C918.7,1324.8,1025.7,1324.8,1091.6,1286.7L1091.6,1286.7z"/>
							</g>
						</g>
						<path class="st1" d="M1201.2,1085.7c-125.1-72.7-329.4-72.7-455.3,0c-63,36.4-94.6,84.1-94.9,131.9
							c-0.3,47.8,30.9,95.5,93.4,131.9c125.1,72.7,329.4,72.7,455.3,0c63-36.4,94.6-84.1,94.9-131.9
							C1294.9,1169.8,1263.8,1122.1,1201.2,1085.7z M1186.5,1341.8c-118.6,68.5-311,68.5-428.8,0c-58.9-34.2-88.2-79.2-88-124.2
							c0.2-45,30.1-90,89.4-124.2c118.6-68.5,311-68.5,428.8,0c58.9,34.2,88.2,79.2,88,124.2
							C1275.6,1262.6,1245.8,1307.6,1186.5,1341.8z"/>
					</g>
					<g>
						<path class="st4" d="M971.3,1968.3c36.3-1.5,50.6-36,30.9-55.1c-21.8-21.2-70.6-11.8-70.7,20.4
							C931.5,1952.4,949.7,1968.3,971.3,1968.3L971.3,1968.3z"/>
						<path class="st4" d="M971.6,1865.5c16.3-0.6,22.1-15.1,13.5-23.8c-10.3-10.3-30.7-4.3-30.7,9
							C954.3,1858.9,962.1,1865.5,971.6,1865.5L971.6,1865.5z"/>
						<path class="st4" d="M971.9,1781.6c15.8-0.6,22-15.3,13.5-23.8c-10.3-10.3-30.7-4.3-30.7,9
							C954.5,1774.9,962.3,1781.5,971.9,1781.6L971.9,1781.6z"/>
						<path class="st4" d="M972.1,1697.6c15.8-0.6,22-15.3,13.5-23.8c-10.3-10.3-30.7-4.3-30.7,9
							C954.8,1691,962.5,1697.6,972.1,1697.6L972.1,1697.6z"/>
						<path class="st4" d="M972.3,1632.5c36.3-1.5,50.6-36,30.9-55.1c-21.8-21.2-70.6-11.8-70.7,20.4
							C932.5,1616.5,950.7,1632.4,972.3,1632.5L972.3,1632.5z"/>
					</g>
				</g>
				<g>
					<g>
						<g>
							<path class="st24" d="M671.8,1485.2c14.6,8.5,26.5,28.9,26.4,45.8l-1,346.5c0,16.8-12,23.6-26.6,15.2
								c-14.6-8.5-26.5-29-26.4-45.8l1-346.5C645.2,1483.5,657.1,1476.8,671.8,1485.2z"/>
						</g>
						<path class="st25" d="M696.6,1883.6c0.4-2,0.6-4,0.6-6.1c0,0,1-346.5,1-346.5c0-4.4-0.8-8.7-2-12.9
							c-4.7-15-15.9-31.2-31.5-35.8c-0.6,2.2-0.9,4.6-0.9,7.3l-1,346.5c0,16.8,11.8,37.3,26.4,45.8c2.5,1.4,4.8,2.4,7.1,3
							C696.4,1884.4,696.5,1884,696.6,1883.6z"/>
						<path class="st19" d="M690.9,1893.5c2.2-1.7,3.8-4.1,4.7-6.7c0.2-0.6,0.5-1.3,0.6-2c-0.5-0.1-1-0.3-1.4-0.4
							c-2.4-0.8-4.8-2-7-3.3c-10.8-7-18.4-18.3-22.6-30.3c-1.4-4.3-2.4-8.8-2.5-13.3c0.1-5.5,0.7-345.3,1.1-350.7
							c0.1-1.5,0.4-3,0.8-4.5c-1.1-0.3-2.3-0.5-3.5-0.6c-5.1-0.5-10.3,1.8-13,6.3c-2.1,3.3-2.9,7.2-3.1,11.1
							c-0.2,0.1-0.9,347.3-1,347.8c0,2.2,0.2,4.3,0.5,6.4c2.7,15.3,11.6,29.9,24.5,38.5C675.5,1895.9,684.5,1898.5,690.9,1893.5z"/>
					</g>
					<g>
						<g>
							<path class="st24" d="M1267,1485.2c-14.6,8.5-26.5,28.9-26.4,45.8l1,346.5c0,16.8,12,23.6,26.6,15.2
								c14.6-8.5,26.5-29,26.4-45.8l-1-346.5C1293.6,1483.5,1281.7,1476.8,1267,1485.2z"/>
						</g>
						<path class="st25" d="M1242.2,1883.6c-0.4-2-0.6-4-0.6-6.1c0,0-1-346.5-1-346.5c0-4.4,0.8-8.7,2-12.9
							c4.7-15,15.9-31.2,31.5-35.8c0.6,2.2,0.9,4.6,0.9,7.3l1,346.5c0,16.8-11.8,37.3-26.4,45.8c-2.5,1.4-4.8,2.4-7.1,3
							C1242.4,1884.4,1242.3,1884,1242.2,1883.6z"/>
						<path class="st19" d="M1247.9,1893.5c-2.2-1.7-3.8-4.1-4.7-6.7c-0.2-0.6-0.5-1.3-0.6-2c0.5-0.1,1-0.3,1.4-0.4
							c2.4-0.8,4.8-2,7-3.3c10.8-7,18.4-18.3,22.6-30.3c1.4-4.3,2.4-8.8,2.5-13.3c-0.1-5.5-0.7-345.3-1.1-350.7
							c-0.1-1.5-0.4-3-0.8-4.5c1.1-0.3,2.3-0.5,3.5-0.6c5.1-0.5,10.3,1.8,13,6.3c2.1,3.3,2.9,7.2,3.1,11.1
							c0.2,0.1,0.9,347.3,1,347.8c0,2.2-0.2,4.4-0.6,6.6c-2.8,15.2-11.6,29.7-24.5,38.3C1263.3,1895.9,1254.3,1898.5,1247.9,1893.5z
							"/>
					</g>
				</g>
			</g>
			<g>
				<g>
					<g>
						<path class="st19" d="M703.7,35.9l-0.8,212.3c0,8.2,5.7,18.2,12.9,22.3l222.4,128.4c7.1,4.1,12.9,0.8,12.9-7.4l0.8-212.3
							L703.7,35.9z"/>
						<path class="st3" d="M939.1,130.2c7.1,4.1,12.9,14.1,12.9,22.3l-0.1,26.7L703.7,35.9l0.1-26.7c0-8.2,5.8-11.5,12.9-7.4
							L939.1,130.2z M772.9,65.3c4.9,2.8,9,0.6,9-5.1c0-5.7-4-12.6-8.9-15.4c-4.9-2.8-9-0.6-9,5.1C764,55.6,768,62.5,772.9,65.3
							L772.9,65.3z M720.3,34.9c4.9,2.8,9,0.6,9-5.1c0-5.7-4-12.6-8.9-15.4c-4.9-2.8-9-0.6-9,5.1C711.3,25.2,715.3,32.1,720.3,34.9
							L720.3,34.9z M746.6,50.1c4.9,2.8,9,0.6,9-5.1c0-5.7-4-12.6-8.9-15.4s-9-0.6-9,5.1C737.7,40.4,741.6,47.3,746.6,50.1
							L746.6,50.1z"/>
					</g>
					<path class="st6" d="M773,44.8c4.9,2.8,8.9,9.8,8.9,15.4c0,5.7-4,8-9,5.1c-4.9-2.8-8.9-9.8-8.9-15.4
						C764,44.2,768,41.9,773,44.8z"/>
					<g>
						<g>
							<path class="st1" d="M932.1,245.5c2.4,1.4,4.4,4.9,4.4,7.7l0,11.6c0,2.8-2,4-4.5,2.6l-33.2-19.2c-2.4-1.4-4.4-4.9-4.4-7.7
								l0-11.6c0-2.8,2-4,4.5-2.6L932.1,245.5z"/>
						</g>
						<g>
							<path class="st1" d="M932.2,199.5c2.4,1.4,4.4,4.9,4.4,7.7l0,11.6c0,2.8-2,4-4.5,2.6L899,202.2c-2.4-1.4-4.4-4.9-4.4-7.7
								l0-11.6c0-2.8,2-4,4.5-2.6L932.2,199.5z"/>
						</g>
						<g>
							<path class="st1" d="M790.8,256c2.4,1.4,4.4,4.9,4.4,7.7l0,11.6c0,2.8-2,4-4.5,2.6l-68-39.2c-2.4-1.4-4.4-4.9-4.4-7.7l0-11.6
								c0-2.8,2-4,4.5-2.6L790.8,256z"/>
						</g>
						<g>
							<path class="st1" d="M825.6,184c2.4,1.4,4.4,4.9,4.4,7.7l0,11.6c0,2.8-2,4-4.5,2.6L723,146.7c-2.4-1.4-4.4-4.9-4.4-7.7
								l0-11.6c0-2.8,2-4,4.5-2.6L825.6,184z"/>
						</g>
						<g>
							<path class="st1" d="M856.5,247.9c2.4,1.4,4.4,4.9,4.4,7.7l0,11.6c0,2.8-2,4-4.5,2.6l-133.5-77.1c-2.4-1.4-4.4-4.9-4.4-7.7
								l0-11.6c0-2.8,2-4,4.5-2.6L856.5,247.9z"/>
						</g>
						<g>
							<path class="st1" d="M931.9,337.5c2.4,1.4,4.4,4.9,4.4,7.7l0,11.6c0,2.8-2,4-4.5,2.6l-33.2-19.2c-2.4-1.4-4.4-4.9-4.4-7.7
								l0-11.6c0-2.8,2-4,4.5-2.6L931.9,337.5z"/>
						</g>
						<g>
							<path class="st1" d="M856.7,155.9c2.4,1.4,4.4,4.9,4.4,7.7l0,11.6c0,2.8-2,4-4.5,2.6l-133.5-77.1c-2.4-1.4-4.4-4.9-4.4-7.7
								l0-11.6c0-2.8,2-4,4.5-2.6L856.7,155.9z"/>
						</g>
						<g>
							<path class="st1" d="M932,291.5c2.4,1.4,4.4,4.9,4.4,7.7l0,11.6c0,2.8-2,4-4.5,2.6l-33.2-19.2c-2.4-1.4-4.4-4.9-4.4-7.7
								l0-11.6c0-2.8,2-4,4.5-2.6L932,291.5z"/>
						</g>
					</g>
					<path class="st26" d="M720.3,14.4c4.9,2.8,8.9,9.8,8.9,15.4c0,5.7-4,8-9,5.1c-4.9-2.8-8.9-9.8-8.9-15.4
						C711.4,13.8,715.4,11.5,720.3,14.4z"/>
					<path class="st25" d="M746.6,29.6c4.9,2.8,8.9,9.8,8.9,15.4c0,5.7-4,8-9,5.1c-4.9-2.8-8.9-9.8-8.9-15.4
						C737.7,29,741.7,26.7,746.6,29.6z"/>
				</g>
				<g>
					<g>
						<g>
							<path class="st22" d="M1479,554.3c-22.9-18-22.7-69.3-56-99.7c4.7-3.8,10.2-7.1,21.2-3.1c38.8,14.2,29.1-15.3,63,4.2
								c0.4,0.2,0.8,0.5,1.2,0.7c50.7,30.1,64.1,167.3,66.5,199.1c0.2,2.5,0.3,4.4,0.4,5.5c-1.7-23.6-21.9-93.7-51.2-110.6
								c-23.5-13.6-26.4,14.9-42.3,5.7C1480.9,555.8,1480,555.1,1479,554.3z"/>
						</g>
						<g class="st21">
							<g>
								<path class="st22" d="M1354.7,449.4c-12.2-8.5-17.1-25.6-23.7-42.5c6.9-3.1,15-3,24.8,2.6c12.1,7,17.7,15.8,23,24.4
									c1.8,3,3.7,6,5.7,8.8c-1.7,0.9-3.3,1.9-4.8,3c-7.2,5-13.1,10.6-23,4.9C1356,450.3,1355.3,449.9,1354.7,449.4z"/>
							</g>
							<g>
								<polygon class="st4" points="1351,319.3 1351,321.3 1324.3,305.8 1324.3,303.9 								"/>
							</g>
							<g>
								<polygon class="st4" points="1351,314.4 1351,316.3 1324.3,300.9 1324.3,299 								"/>
							</g>
							<g>
								<polygon class="st4" points="1351,309.4 1351,311.3 1324.3,295.9 1324.4,294 								"/>
							</g>
							<g>
								<path class="st22" d="M1397.8,334.9c3.6,2.1,6.5,7.1,6.5,11.2c0,4.1-2.9,5.8-6.5,3.7c-3.6-2.1-6.5-7.1-6.5-11.2
									C1391.3,334.4,1394.2,332.8,1397.8,334.9z"/>
							</g>
							<g>
								<polygon class="st22" points="1437.7,369.4 1437.7,371.3 1411,355.9 1411.1,354 								"/>
							</g>
							<g>
								<path class="st19" d="M1303.2,369c14.7,8.5,21.9,23.1,27.8,37.9c6.6,16.9,11.5,34,23.7,42.5c0.7,0.5,1.3,0.9,2,1.3
									c9.9,5.7,15.8,0,23-4.9c1.5-1.1,3.1-2.1,4.8-3c6.2-3.2,13.9-4.4,25.5,2.3c2.4,1.4,5,3.1,7.8,5.2c1.8,1.4,3.6,2.9,5.2,4.4
									c33.3,30.4,33.1,81.7,56,99.7c1,0.8,1.9,1.4,2.8,1.9c15.9,9.2,18.8-19.3,42.3-5.7c29.3,16.9,49.5,86.9,51.2,110.6
									c0,0.4,0.1,0.8,0.1,1.1l-322.9-186.4c0-1.7-0.1-34,6.1-64.4C1264.8,381,1277.5,354.1,1303.2,369z"/>
							</g>
							<g>
								<polygon class="st22" points="1437.8,364.4 1437.8,366.4 1411.1,351 1411.1,349 								"/>
							</g>
							<g>
								<polygon class="st22" points="1437.8,359.5 1437.8,361.4 1411.1,346 1411.1,344.1 								"/>
							</g>
							<g>
								<path class="st19" d="M1484.5,384.9c3.6,2.1,6.5,7.1,6.5,11.2c0,4.1-2.9,5.8-6.5,3.7c-3.6-2.1-6.5-7.1-6.5-11.2
									C1478,384.5,1480.9,382.9,1484.5,384.9z"/>
							</g>
							<g>
								<polygon class="st19" points="1524.5,419.5 1524.5,421.4 1497.8,406 1497.8,404.1 								"/>
							</g>
							<g>
								<polygon class="st19" points="1524.5,414.5 1524.5,416.5 1497.8,401 1497.8,399.1 								"/>
							</g>
							<g>
								<polygon class="st19" points="1524.5,409.6 1524.5,411.5 1497.8,396.1 1497.8,394.1 								"/>
							</g>
							<g>
								<path class="st4" d="M1506,421.3c51.1,29.5,66.3,198.7,68.9,234.4c-2.4-31.8-15.8-168.9-66.5-199.1
									c-0.4-0.2-0.8-0.5-1.2-0.7c-33.8-19.5-24.2,9.9-63-4.2c-11-4-16.6-0.7-21.2,3.1c-1.7-1.5-3.4-3-5.2-4.4
									c-2.8-2.1-5.4-3.9-7.8-5.2c-11.6-6.7-19.3-5.5-25.5-2.3c-2-2.9-3.9-5.8-5.7-8.8c-5.3-8.6-10.9-17.4-22.9-24.3
									c-9.9-5.7-18-5.7-24.9-2.7c-5.8-14.8-13-29.4-27.8-37.9c-25.7-14.8-38.3,12-44.6,42.5c8.1-52.6,26.8-114.5,69.2-90
									c20.6,11.9,35.1,36.4,45.3,65.5c2.7,7.7,8.2,14,13.7,17.2c5,2.9,10.1,3.2,13.2-0.2c6.5-7,15-9,26.3-2.5
									c5.2,3,9.8,7.1,14.1,12.2c4.6,5.5,9.6,9.8,14.5,12.6c9.5,5.5,18.7,5.7,23.9-0.7C1485.6,417.2,1494.4,414.6,1506,421.3z"/>
							</g>
						</g>
						<g>
							<path class="st4" d="M1311.1,284.8c3.6,2.1,6.5,7.1,6.5,11.2c0,4.1-2.9,5.8-6.5,3.7c-3.6-2.1-6.5-7.1-6.5-11.2
								C1304.6,284.4,1307.5,282.7,1311.1,284.8z"/>
						</g>
					</g>
					<g>
						<path class="st27" d="M1405.3,597.1l-0.7-0.4c-0.6-0.2-1.2-0.5-1.9-0.9c-0.6-0.4-1.3-0.8-1.9-1.3l-0.7-0.4l0,3.5l5.2,3
							L1405.3,597.1z"/>
						<polygon class="st27" points="1400.1,614.6 1405.2,617.5 1405.3,610.1 1400.1,607.1 						"/>
						<polygon class="st27" points="1400,631.5 1405.2,634.5 1405.2,627.1 1400,624.1 						"/>
						<polygon class="st27" points="1400,648.5 1405.1,651.5 1405.2,644 1400,641.1 						"/>
						<polygon class="st27" points="1399.9,665.4 1405.1,668.4 1405.1,661 1399.9,658 						"/>
						<polygon class="st27" points="1399.9,682.4 1405,685.4 1405.1,677.9 1399.9,675 						"/>
						<polygon class="st27" points="1399.8,699.3 1405,702.3 1405,694.9 1399.8,691.9 						"/>
						<polygon class="st27" points="1399.8,716.3 1404.9,719.3 1405,711.9 1399.8,708.9 						"/>
						<polygon class="st27" points="1399.7,733.2 1404.9,736.2 1404.9,728.8 1399.8,725.8 						"/>
						<polygon class="st27" points="1399.8,750.2 1404.9,753.2 1404.9,745.8 1399.8,742.8 						"/>
						<polygon class="st27" points="1399.7,767.1 1404.9,770.1 1404.9,762.7 1399.7,759.7 						"/>
						<polygon class="st27" points="1402.4,785.5 1407.5,788.5 1407.6,781 1402.4,778.1 						"/>
						<path class="st27" d="M1402.8,571.6c-5.8-3.4-10.6-0.7-10.6,6c0,6,3.7,13.1,8.7,17c0.6,0.5,1.2,0.9,1.9,1.3
							c0.6,0.4,1.2,0.7,1.9,0.9c4.9,1.8,8.7-1,8.7-6.9C1413.3,583.1,1408.6,574.9,1402.8,571.6z M1402.7,589.9
							c-3-1.7-5.4-5.9-5.4-9.3c0-3.4,2.4-4.8,5.4-3.1c3,1.7,5.4,5.9,5.4,9.3C1408.1,590.2,1405.7,591.6,1402.7,589.9z"/>
						<polygon class="st27" points="1384.7,775.4 1390.8,779 1390.8,773 1384.7,769.5 						"/>
						<path class="st27" d="M1365.8,750.1c-0.8-0.7-1.7-1.3-2.6-1.9c-0.9-0.5-1.8-0.9-2.6-1.1c-4.6-1.3-8,1.5-8,7.2
							c0,6.7,4.7,14.9,10.5,18.2c5,2.9,9.3,1.3,10.3-3.5l3.3,1.9l0-5.9l-3.5-2C1372.3,758.2,1369.4,753.3,1365.8,750.1z
							 M1363.1,766.6c-3-1.7-5.4-5.9-5.4-9.3c0-3.4,2.4-4.8,5.4-3.1c3,1.7,5.4,5.9,5.4,9.3C1368.6,766.9,1366.1,768.3,1363.1,766.6z
							"/>
					</g>
				</g>
			</g>
			<g>
				<g class="st21">
					<g class="st21">
						<defs>
							<path id="SVGID_1_" class="st21" d="M785.2,881.8c2.1-59.2,4.2-118.4,6.2-177.6c0,0.2-0.1,0.4-0.3,0.5l-6.2,177.6
								C785.1,882.2,785.2,882,785.2,881.8z"/>
						</defs>
						<clipPath id="SVGID_00000118373303098367830250000009383764425903917247_">
							<use xlink:href="#SVGID_1_"  style="overflow:visible;"/>
						</clipPath>
						<g style="clip-path:url(#SVGID_00000118373303098367830250000009383764425903917247_);enable-background:new    ;">
							<path class="st29" d="M791.1,704.7l-6.2,177.6c0.2-0.1,0.3-0.3,0.3-0.5l0.3-8.9l0.3-8.9l0,0l0.3-8.9l0.3-8.9l0,0l0.3-8.9
								l0.3-8.9l0,0l0.3-8.9l0.3-8.9l0,0l0.3-8.9l0.3-8.9l0,0l0.3-8.9l0.3-8.9l0,0l0.3-8.9l0.3-8.9l0.3-8.9l0.3-8.9l0.3-8.9l0.3-8.9
								l0.3-8.9l0.3-8.9l0,0C791.5,704.4,791.3,704.6,791.1,704.7L791.1,704.7z"/>
						</g>
					</g>
					<path class="st3" d="M677,752.6c0.8-29.3,16.8-59.4,38.3-79c11-9.6,24.9-18.2,40-17.1c3.8,0.4,7.6,1.5,10.9,3.4
						c0,0,2.5,1.4,2.5,1.4c-5.9-3.5-13.1-4.2-19.8-3c-38.8,7.8-71.1,61.4-69.4,99.4c0,0,7.2,169.8,7.2,169.8
						c0.1,1.9,0.3,3.7,0.5,5.6c1.1,7.4,4.1,14.8,10.1,19.5c0.8,0.6,1.7,1.2,2.5,1.7c-1.6-1-3.6-2-5-3.2c-5.7-4.5-8.8-11.6-10-18.6
						c-0.4-2.2-0.6-4.3-0.7-6.5c0,0-7.2-169.8-7.2-169.8C677,755.2,677,753.9,677,752.6z"/>
					<g>
						<path class="st5" d="M741.4,673.8c-28.3,16.3-50.7,56.4-49.4,88.1c2.4,56.6,4.8,113.2,7.2,169.8c1.1,25.7,20,35.6,42.9,22.3
							c22.9-13.2,41.7-44.9,42.7-71.8c2.1-59.2,4.2-118.4,6.2-177.6C792.3,671.6,769.6,657.5,741.4,673.8z"/>
					</g>
					<path class="st19" d="M679.4,755.3c0.1-31.9,20.1-67.5,45.6-86.1c10.7-7.6,24.4-13.9,37.7-10.3c4.6,1.2,8.6,4,12.3,6.8
						c10.3,7.7,15.7,19.2,16.3,31.8c0.2,2.2,0.2,4.5,0.1,6.7c0,0.2-0.1,0.4-0.3,0.5c1.5-39.5-30.2-47.7-57.9-25.4
						c-20,15.8-34.1,39.3-39.6,64.3c-1.5,7.1-2,14.4-1.5,21.6c0.1,1.9,0.2,4.1,0.3,6c0.3,8,0.7,16.2,1,24.2
						c1.1,26.3,4.6,108.8,5.8,136.3c1.1,25.7,20,35.6,42.9,22.3c22.9-13.2,41.7-44.9,42.7-71.8c0.2-0.1,0.3-0.3,0.3-0.5
						c-0.1,1.5-0.2,2.9-0.3,4.3c-2.3,21.2-13.1,41.7-28.3,57.1c-20.8,20.9-41.2,20.6-54.8,12.4c-4.4-2.2-8.2-5.7-10.5-9.9
						c-2.4-4.2-3.7-8.9-4.3-13.7c-0.2-1.5-0.3-2.9-0.4-4.4c0,0-7.2-169.8-7.2-169.8C679.5,757,679.4,756.2,679.4,755.3z"/>
					<path class="st25" d="M748.3,653.5C748.3,653.5,748.3,653.5,748.3,653.5l-0.2,0L748.3,653.5z"/>
					<path class="st19" d="M669.4,745.7c0.2-5.2,0.3-5.3,0.6-7.9c0.6-4.8,0.9-9.1,2.4-14.1c10-35.8,46.2-76.9,78.9-69.7
						c4.9,1,10.4,3.3,14.9,6c-2-1.2-4.2-2-6.5-2.6c-12.8-3.1-25.9,2.6-36.3,9.8c-19.1,13.6-32.9,34-40.8,55.9
						c-3.4,9.6-5.6,19.8-5.7,30c0,1.1,0,3.3,0,3.3s7.2,169.8,7.2,169.8c0.1,2.3,0.3,4.5,0.7,6.7c1.2,7.9,5.7,16.4,12.4,20.1
						c-0.9-0.5-1.9-1.2-2.8-1.8c-5-3.3-9.4-7.4-12.5-12.5c-3.1-5.1-4.5-10.7-5.1-15.8c-0.5-5.3-0.6-13.4-0.9-18.7
						c-0.2-5.3-0.6-13.3-0.8-18.7c-0.7-16.5-1.5-34.4-2.2-50.9c-0.6-14.9-1.3-30.4-1.9-45.3C670.6,774.8,669.7,760.1,669.4,745.7z"
						/>
				</g>
				<g>
					<g>
						<g>
							<path class="st30" d="M670.7,787.7c0.7,31.6,3.1,61.7,7.5,93.4c-0.3-1.8-0.6-3.5-0.8-5.3c4.2,33.3,14,80,26.3,116.5
								c3.6,10.7,8.6,24.9,13.1,35.2c2.2,5.1,9.5,20.8,11.8,26.1c4.6,9.3,7.4,14.4,13.1,24.5c9.8,17.4,22.4,35,35.1,50.4
								c88.6,107.2,229.3,124,332.4,52.5c36.4-24,68.5-62.1,89.3-97.6c2.1-3.7,11-20.1,13.3-24.2c3.6-7.9,8.4-17.9,12.1-25.8
								c10.7-24.5,19.7-52.2,26.2-77.7c10-39.9,14.2-67.4,17.8-102.8c2.2-22,4.2-50.3,4-83c0-12-1.2-18.2-3.2-28.6
								c-1.1-6.1-4.1-14.4-6.3-20.4c-0.8-2.2-3.4-9.1-9.6-19.7c-2.2-3.8-4.3-7.1-6.9-10.9c-5.8-8.8-13.4-16.8-20.3-24.2
								c-5.7-6-14.1-13.2-20.8-18.2c-10.8-8-20.5-14.8-33.9-21.9c-24.6-13.4-30.8-14.8-52.6-23.1c2,0.8,4.3,1.6,6.6,2.5
								c-23.8-9.3-50.3-15.3-75.5-19.5c-11.4-2-22.6-3.3-38.3-4.6c-32.1-2.6-57.6-1.2-66-0.8C799.3,588.2,660.8,660.6,670.7,787.7z
								 M1130.3,613.6c17.4,7.2,34,15.8,49.2,26.2c84.7,55.8,91.3,151.6-13,212.9c-15.5,8.7-26.9,15.3-48.2,22.5
								c-228.7,73-426.2-28.1-420.4-139.6c2.4-37.6,31.6-77.2,79.6-104.6C873.7,575.6,1020.9,568.8,1130.3,613.6z"/>
							<g>
								<path class="st10" d="M1174,621.2c-115.3-64.7-299.7-62.8-411.8,4.2c-112.1,67-109.5,173.8,5.8,238.5s299.7,62.8,411.8-4.2
									C1291.9,792.7,1289.3,685.9,1174,621.2z"/>
							</g>
							<g>
								<path class="st4" d="M715.3,1020c12.8,34,24.4,49.8,33.9,60.8c11.7,12,26.6,23.3,44.6,33.4c24.6,13.8,52.7,24.1,82.6,31
									c27.2,4.3,41.7-3,43.1-21.6c-2.1-24.5-3.7-52.7-4.7-83.3c-4-24-21.5-39.8-54.9-49.7c-35-8.1-67.9-20.2-96.6-36.3
									c-21.1-11.8-38.4-25-52.2-39.1c-7-6.5-20.1-18.6-18.9,4.8c0.1,2.4,0.6,5.5,0.8,7.8C698,960.3,705.3,991.4,715.3,1020
									L715.3,1020z"/>
							</g>
							<g>
								<path class="st3" d="M1161.5,628.6c-108.2-60.7-281.3-59-386.5,3.9s-102.7,163.1,5.5,223.8c108.2,60.7,281.3,59,386.5-3.9
									C1272.2,789.6,1269.7,689.4,1161.5,628.6z"/>
							</g>
						</g>
						<g>
							<g>
								<path class="st10" d="M1098.8,1187.9c-0.2,0.1-0.3,0.2-0.5,0.3L1098.8,1187.9z"/>
								<path class="st10" d="M1174.3,1036.6c-26.4,10.3-33.5-12-33.5-25.3c0-21.3,13.6-53.8,44.2-78.3c0.5-13.3,0.7-26.8,0.7-40.5
									c0-15.5-8.4-33.1-19.6-39.5c0.3-0.2,0.6-0.4,0.9-0.5c3.4-2,6.7-4.1,9.8-6.2c11.9,6,20.6,23.4,20.7,38.8
									c0,13.7-0.2,27.2-0.7,40.5l3.7-1.6c34.3-10.9,26.2,40.6,10.3,72.3c-10,20-20.3,28.9-25.3,33.2
									c-13.4,70-38.6,125.7-77.9,152.7l-8.7,5.5C1137,1162.7,1161.4,1107.2,1174.3,1036.6z"/>
								<path class="st10" d="M1095,1190.3c1.1-0.7,2.2-1.4,3.3-2.1l-2.5,1.6L1095,1190.3z"/>
							</g>
						</g>
					</g>
					<g>
						<path class="st30" d="M667.2,689.6c0.1,43.2,22.3,80.9,53.7,109.5c24.6,22.5,56.7,40.1,84.1,50.9
							c80.1,31.4,171.2,38.4,260.6,21.1c18.2-3.7,29.7-6.6,44.3-11.3c13.1-4.3,21.2-6.7,35.6-13c18.2-8.1,33.8-15.9,50.7-27.5
							c36.8-24.3,72.2-63.4,79.3-112.6c1.1-6.9,1.4-13.7,1.3-21.3c0.1-7.1-0.3-17.9-0.8-28.7c-1.3-24.8-4.6-51-10.2-75.9
							c-2.6-14.7-7.7-29.9-12.3-44c-31.4-90.8-99.5-147.7-171.5-172.6c-20.9-8.1-51.2-14.3-69.7-16.2c-30.8-3.7-55.2-2.5-74-0.7
							c-14.8,1.4-32.6,4.4-48.1,8.4C798,379,729.5,435.8,694.8,525c-16.4,41.4-27.9,96.6-27.5,137.1
							C666.8,671.9,666.8,680.9,667.2,689.6z M667.4,668.7c0,2.7-0.1,5.4-0.2,8.3C667.3,674,667.3,671.3,667.4,668.7z M674.6,597.2
							c-1.7,9.7-2.8,18.1-3.9,27C672.1,612.1,673.1,604.8,674.6,597.2z"/>
						<path class="st4" d="M912.8,800.5c-3.4-0.4-8.5-3.5-8.6-10.6c0.2-6.3,0.4-12.5,0.7-18.7c0.3-10.7-4.1-18.3-7.9-22.8
							c-15.2-18-43.8-13.9-46.1,12.4c-0.5,6.1-0.9,12.3-1.2,18.6c-0.1,1.2-0.4,3.6-2.2,5.5c-5,5.2-14.5-0.1-14.3-10.1
							c0.4-6.2,0.9-12.4,1.4-18.5c1.1-11.3,5.3-20.3,12.5-27c26.1-24.2,76.3-1.6,75.4,43.9c-0.2,6.2-0.3,12.4-0.5,18.7
							C921.5,797.4,917.9,800.8,912.8,800.5L912.8,800.5z M735.5,737.9c-2.2-1.6-5.3-6.6-4.7-13.6c0.7-6.1,1.6-12.1,2.5-18
							c2.2-15-2.1-29.6-7.4-37.4c-8.7-12.7-19.1-8.7-22.3,8.7c-1,5.8-2,11.7-2.8,17.7c-0.2,1.1-0.6,3.9-2,5
							c-2.9,2.4-6.4-5.5-5.3-14.7c0.8-6,1.8-11.8,2.9-17.6c2.2-11.2,5.9-18.8,11.1-22.7c18.9-14.2,43.1,30.6,37.5,69.5
							c-0.9,5.9-1.7,12-2.4,18.1C741.7,738.2,738.9,740.1,735.5,737.9L735.5,737.9z M707.4,559.8c-0.2-0.6-0.5-1.4-0.8-2
							c-1.2-2.4-7.8-13.3-18.4,12c-8.5,21.8-14.3,46.1-17.6,73c-2.2,19.7-2.9,48.9,2,66.1c11.3,34.4,40.3,67.1,86.9,93.2
							c61,34.2,140.5,50.7,219.4,49.5c23.4-1.7,39.6-20.4,40.3-46.4c-0.6-28.7-1.6-56.2-3-82.6c-2.3-22.1-17-36.2-38.5-37
							c-69.6,1.1-139.8-13.4-193.6-43.7C743,619.1,717.3,590.2,707.4,559.8L707.4,559.8z"/>
						<path class="st5" d="M881.1,720.2c24.4,5,41.8,27.3,41.2,53.1c-0.2,6.2-0.3,12.4-0.5,18.7c-0.6,9.3-10.3,11.2-15.3,5.1
							c-2.3-2.9-2.4-5.8-2.4-7.1c0.2-6.3,0.4-12.5,0.7-18.7c0.8-28.7-30-42.8-46.2-27.5c-4.5,4.3-7.1,10-7.7,17.1
							c-0.5,6.1-0.9,12.3-1.2,18.6c-0.9,8.8-9.4,9.7-14,3.6c-2.6-3.5-2.6-7-2.5-8.2c0.4-6.2,0.9-12.4,1.4-18.5
							C837.3,727.5,860.6,716.2,881.1,720.2L881.1,720.2z"/>
						<path class="st5" d="M727,648.6c13.6,13.5,21.3,42,17.8,66.2c-0.9,5.9-1.7,12-2.4,18.1c-1,6.9-5.5,7.5-8.7,3.3
							c-0.9-1.1-3.6-5.3-3-11.9c0.7-6.1,1.6-12.1,2.5-18c3.7-24.8-10.8-52.2-22.8-43.1c-2.3,1.7-5.3,5.6-7,14.4
							c-1,5.8-2,11.7-2.8,17.7c-1,6.5-3.6,6.1-4.9,4.3c-1.4-1.8-3.2-7.1-2.4-14c0.8-6,1.8-11.8,2.9-17.6
							C701.5,640.8,715.7,637.7,727,648.6L727,648.6z"/>
					</g>
				</g>
				<g class="st21">
					<g class="st21">
						<defs>
							<path id="SVGID_00000015332227241081421750000013204437818106126472_" class="st21" d="M1257.3,1154.3
								c2.1-59.2,4.2-118.4,6.2-177.6c0,0.2-0.1,0.4-0.3,0.5l-6.2,177.6C1257.1,1154.7,1257.2,1154.5,1257.3,1154.3z"/>
						</defs>
						<clipPath id="SVGID_00000041255912549321141420000012701983919211402650_">
							<use xlink:href="#SVGID_00000015332227241081421750000013204437818106126472_"  style="overflow:visible;"/>
						</clipPath>
						<g style="clip-path:url(#SVGID_00000041255912549321141420000012701983919211402650_);enable-background:new    ;">
							<path class="st29" d="M1263.1,977.3l-6.2,177.6c0.2-0.1,0.3-0.3,0.3-0.5l0.3-8.9l0.3-8.9l0,0l0.3-8.9l0.3-8.9l0,0l0.3-8.9
								l0.3-8.9l0,0l0.3-8.9l0.3-8.9l0,0l0.3-8.9l0.3-8.9l0,0l0.3-8.9l0.3-8.9l0,0l0.3-8.9l0.3-8.9l0.3-8.9l0.3-8.9l0.3-8.9l0.3-8.9
								l0.3-8.9l0.3-8.9l0,0C1263.5,977,1263.4,977.1,1263.1,977.3L1263.1,977.3z"/>
						</g>
					</g>
					<path class="st3" d="M1149,1025.2c0.8-29.3,16.8-59.4,38.3-79c11-9.6,24.9-18.2,40-17.1c3.8,0.4,7.6,1.5,10.9,3.4
						c0,0,2.5,1.4,2.5,1.4c-5.9-3.5-13.1-4.2-19.8-3c-38.8,7.8-71.1,61.4-69.4,99.4c0,0,7.2,169.8,7.2,169.8
						c0.1,1.9,0.3,3.7,0.5,5.6c1.1,7.4,4.1,14.8,10.1,19.5c0.8,0.6,1.7,1.2,2.5,1.7c-1.6-1-3.6-2-5-3.2c-5.7-4.5-8.8-11.6-10-18.6
						c-0.4-2.2-0.6-4.3-0.7-6.5c0,0-7.2-169.8-7.2-169.8C1149,1027.7,1149,1026.4,1149,1025.2z"/>
					<g>
						<path class="st5" d="M1213.4,946.3c-28.3,16.3-50.7,56.4-49.4,88.1c2.4,56.6,4.8,113.2,7.2,169.8c1.1,25.7,20,35.6,42.9,22.3
							c22.9-13.2,41.7-44.9,42.7-71.8c2.1-59.2,4.2-118.4,6.2-177.6C1264.3,944.1,1241.7,930,1213.4,946.3z"/>
					</g>
					<path class="st19" d="M1151.5,1027.8c0.1-31.9,20.1-67.5,45.6-86.1c10.7-7.6,24.4-13.9,37.7-10.3c4.6,1.2,8.6,4,12.3,6.8
						c10.3,7.7,15.7,19.2,16.3,31.8c0.2,2.2,0.2,4.5,0.1,6.7c0,0.2-0.1,0.4-0.3,0.5c1.5-39.5-30.2-47.7-57.9-25.4
						c-20,15.8-34.1,39.3-39.6,64.3c-1.5,7.1-2,14.4-1.5,21.6c0.1,1.9,0.2,4.1,0.3,6c0.3,8,0.7,16.2,1,24.2
						c1.1,26.3,4.6,108.8,5.8,136.3c1.1,25.7,20,35.6,42.9,22.3c22.9-13.2,41.7-44.9,42.7-71.8c0.2-0.1,0.3-0.3,0.3-0.5
						c-0.1,1.5-0.2,2.9-0.3,4.3c-2.3,21.2-13.1,41.7-28.3,57.1c-20.8,20.9-41.2,20.6-54.8,12.4c-4.4-2.2-8.2-5.7-10.5-9.9
						c-2.4-4.2-3.7-8.9-4.3-13.7c-0.2-1.5-0.3-2.9-0.4-4.4c0,0-7.2-169.8-7.2-169.8C1151.5,1029.6,1151.5,1028.7,1151.5,1027.8z"/>
					<path class="st25" d="M1220.3,926C1220.3,926,1220.4,926,1220.3,926l-0.2,0L1220.3,926z"/>
					<path class="st19" d="M1141.4,1018.2c0.2-5.2,0.3-5.3,0.6-7.9c0.6-4.8,0.9-9.1,2.4-14.1c10-35.8,46.2-76.9,78.9-69.7
						c4.9,1,10.4,3.3,14.9,6c-2-1.2-4.2-2-6.5-2.6c-12.8-3.1-25.9,2.6-36.3,9.8c-19.1,13.6-32.9,34-40.8,55.9
						c-3.4,9.6-5.6,19.8-5.7,30c0,1.1,0,3.3,0,3.3s7.2,169.8,7.2,169.8c0.1,2.3,0.3,4.5,0.7,6.7c1.6,10.2,7.3,16.8,11.2,19.4
						c-0.5-0.3-1.2-0.7-1.6-1c-4.9-3.3-9.4-7.4-12.5-12.5c-3.1-5.1-4.5-10.7-5.1-15.8c-0.5-5.3-0.6-13.4-0.9-18.7
						c-0.2-5.3-0.6-13.3-0.8-18.7c-0.7-16.5-1.5-34.4-2.2-50.9c-0.6-14.9-1.3-30.4-1.9-45.3
						C1142.6,1047.4,1141.7,1032.7,1141.4,1018.2z"/>
				</g>
			</g>
			<g>
				<g class="st21">
					<g>
						<path class="st5" d="M623.7,543.7c4.7,2.7,8.5,9.3,8.5,14.7c0,5.4-3.8,7.6-8.6,4.9l-122.4-70.7c-4.7-2.7-8.5-9.3-8.5-14.7
							c0-5.4,3.8-7.6,8.6-4.9L623.7,543.7z"/>
					</g>
					<path class="st6" d="M677,540.1c0.2-62.4-50.9-142.6-114.1-179c-63.2-36.5-114.6-15.5-114.7,46.9
						C448,470.3,499,550.5,562.2,587c9.1,5.3,18,9.3,26.5,12.3l0,0l42.1,52.2L616,604.8l0,0C652.1,606.7,676.8,583.3,677,540.1z
						 M501.5,392.2l122.4,70.7c4.7,2.7,8.5,9.3,8.5,14.7c0,5.4-3.8,7.6-8.6,4.9l-122.4-70.7c-4.7-2.7-8.5-9.3-8.5-14.7
						C492.9,391.7,496.8,389.5,501.5,392.2z M501.4,432.6l122.4,70.7c4.7,2.7,8.5,9.3,8.5,14.7c0,5.4-3.8,7.6-8.6,4.9l-122.4-70.7
						c-4.7-2.7-8.5-9.3-8.5-14.7C492.8,432.1,496.7,429.9,501.4,432.6z M501.2,492.7c-4.7-2.7-8.5-9.3-8.5-14.7
						c0-5.4,3.8-7.6,8.6-4.9l122.4,70.7c4.7,2.7,8.5,9.3,8.5,14.7c0,5.4-3.8,7.6-8.6,4.9L501.2,492.7z"/>
					<g>
						<path class="st5" d="M623.8,503.3c4.7,2.7,8.5,9.3,8.5,14.7c0,5.4-3.8,7.6-8.6,4.9l-122.4-70.7c-4.7-2.7-8.5-9.3-8.5-14.7
							c0-5.4,3.8-7.6,8.6-4.9L623.8,503.3z"/>
					</g>
					<g>
						<path class="st5" d="M623.9,462.9c4.7,2.7,8.5,9.3,8.5,14.7c0,5.4-3.8,7.6-8.6,4.9l-122.4-70.7c-4.7-2.7-8.5-9.3-8.5-14.7
							c0-5.4,3.8-7.6,8.6-4.9L623.9,462.9z"/>
					</g>
				</g>
			</g>
			<g>
				<g class="st21">
					<g>
						<path class="st32" d="M1276.2,734.2c4.8,2.8,8.7,9.5,8.7,15.1c0,5.6-3.9,7.8-8.8,5l-125.5-72.5c-4.8-2.8-8.7-9.6-8.7-15.1
							c0-5.6,3.9-7.8,8.8-5L1276.2,734.2z"/>
					</g>
					<g>
						<path class="st32" d="M1276.4,692.8c4.8,2.8,8.7,9.6,8.7,15.1c0,5.6-3.9,7.8-8.8,5l-125.5-72.5c-4.8-2.8-8.7-9.6-8.7-15.1
							c0-5.5,3.9-7.8,8.8-5L1276.4,692.8z"/>
					</g>
					<path class="st33" d="M1213.9,546.9c-64.8-37.4-117.5-15.9-117.6,48.1c-0.1,36,16.5,77.8,42.5,114.2l0,0l-20.7,39.9l51.3-4.2
						c13.5,13.2,28.3,24.7,43.8,33.7c64.8,37.4,117.5,15.9,117.6-48.1C1331.1,666.5,1278.7,584.3,1213.9,546.9z M1276.2,754.3
						l-125.5-72.5c-4.8-2.8-8.7-9.6-8.7-15.1c0-5.6,3.9-7.8,8.8-5l125.5,72.5c4.8,2.8,8.7,9.5,8.7,15.1
						C1284.9,754.8,1281,757.1,1276.2,754.3z M1276.3,712.9l-125.5-72.5c-4.8-2.8-8.7-9.6-8.7-15.1c0-5.5,3.9-7.8,8.8-5l125.5,72.5
						c4.8,2.8,8.7,9.6,8.7,15.1C1285.1,713.4,1281.1,715.6,1276.3,712.9z M1276.4,671.4L1150.9,599c-4.8-2.8-8.7-9.6-8.7-15.1
						c0-5.5,3.9-7.8,8.8-5l125.5,72.5c4.8,2.8,8.7,9.6,8.7,15.1C1285.2,672,1281.3,674.2,1276.4,671.4z"/>
				</g>
				<g>
					<path class="st32" d="M1276.5,651.3c4.8,2.8,8.7,9.6,8.7,15.1c0,5.6-3.9,7.8-8.8,5L1150.9,599c-4.8-2.8-8.7-9.6-8.7-15.1
						c0-5.5,3.9-7.8,8.8-5L1276.5,651.3z"/>
				</g>
			</g>
		</g>
	</g>
</g>
</svg>
