<svg xmlns="http://www.w3.org/2000/svg" viewBox="0 0 4680 3120"><defs><style>.cls-1,.cls-12{fill:#fff;}.cls-1{opacity:0;}.cls-2{fill:#cae2ff;}.cls-3{fill:#53a396;}.cls-4{fill:#6cd3c2;}.cls-5{fill:#3a8a7e;}.cls-6{opacity:0.09;}.cls-7{fill:#ffbc01;}.cls-8{fill:#ff8a01;}.cls-9{opacity:0.27;}.cls-10{fill:#b93a04;}.cls-11{fill:#eb4c00;}.cls-13{opacity:0.26;}.cls-14{fill:#781e02;}.cls-15{fill:#4a8ecc;}.cls-16{fill:#1177c1;}.cls-17{fill:#81b2f0;}.cls-18{fill:#8fd8e5;}.cls-19{fill:#6abbdb;}.cls-20{fill:#e0e0e0;}.cls-21{fill:#204083;}.cls-22{fill:#e3f0fe;}.cls-23{fill:#9dd7f5;}.cls-24{fill:#b4d7fa;}.cls-25{fill:#a3d8f5;}.cls-26{fill:#ffc800;}.cls-27{fill:#385a65;}.cls-28{fill:#dcdcdc;}.cls-29{fill:#292177;}.cls-30{fill:#fccfc9;}.cls-31{fill:#efafa5;}.cls-32{fill:#db8e05;}.cls-33{fill:#d6d6d6;}.cls-34{fill:#cc1f3d;}.cls-35{fill:#aa1f3d;}.cls-36{fill:#231d17;}.cls-37{fill:#302921;}.cls-38{fill:#73432f;}.cls-39{fill:#3f1221;}.cls-40{fill:#000103;}.cls-41{fill:#f5aea8;}.cls-42{fill:#1d3d44;}.cls-43{fill:#ff1f3d;}.cls-44{fill:#2b79bf;}.cls-45{fill:#f23860;}.cls-46{fill:#bababa;}.cls-47{fill:#471d0c;}.cls-48{fill:#522309;}</style></defs><title>03</title><g id="_03" data-name="03"><rect id="_03-2" data-name="03" class="cls-1" width="4680" height="3120"/><path class="cls-2" d="M3400.19,847.92c-344.91-234.07-792-290.13-1196.83-330.45-171.74-17.11-346.24-23.65-516,7.56-89.17,16.4-186.75,51.72-223.89,134.42-29.64,66-12,144.34-33.78,213.31-30.91,97.71-131.36,153.64-225.06,195.16-198.31,87.87-410,157.65-575.79,297.53C291.36,1650.2,382.07,2136.17,734,2363.88c148.82,96.28,322.39,146.66,495.43,185.11q54.12,12,108.53,22.63c551.55,107.61,1124.12,106.65,1675.32-2.89,238.17-47.33,484.89-122,650.89-299.26,125.85-134.36,192.26-316.25,214.21-499C3923,1398.85,3698.42,1050.3,3400.19,847.92Z"/><path class="cls-3" d="M4132.12,1752.88c-18.11-.84-35.88,4.75-52.87,11.09-133.69,49.89-280.26,237.3-309.42,280.74l132.27,18.65c84.31-84.35,236.57-112.72,277.12-237.17,5.13-15.73,6.55-33.73-1.47-48.19C4169,1762.14,4150.24,1753.72,4132.12,1752.88Z"/><path class="cls-4" d="M4118.38,1491.63c-74.81-63.81-172,41.15-217.11,93.7-68.27,79.48-123.06,170.36-168.69,264.39-6.61,13.61-72.64,178.71-73.47,178.59l28.33,4,82.5,11.63s149.38-214.18,282.85-335.5C4116,1651,4170.07,1535.75,4118.38,1491.63Z"/><path class="cls-5" d="M3881,1770.73c-52.82,79.74-104.73,171.61-150.12,265.65l12,5.79c57.38-118.92,176.43-340.13,329-485.56l-9.19-9.64C4002.46,1604.36,3941.34,1679.64,3881,1770.73Z"/><path class="cls-5" d="M3257.16,1337.2c-71.68-26.79-92.64,57.33-87.19,115.6,7.06,75.5,71,132.63,106.4,193.11,65.1,111.3,88.84,181.92,124.71,345.88l108,15.36s36.49-356.83-97.41-543.07C3375.52,1413.77,3312.46,1357.88,3257.16,1337.2Z"/><path class="cls-4" d="M3592.41,1291.23c-30.2-57.55-126.26-188.56-198.95-151.08-42,21.68,2.11,127.34,13.25,158.77,36.14,101.91,61.09,208.93,77.06,317.64,18.46,125.76,27.41,256.44,19.1,384.79-.1,1.63-.22,3.25-.34,4.88l69.58,9.81c53.34-71.6,85.21-405.38,78.61-512.28C3646.13,1429.47,3625.75,1354.74,3592.41,1291.23Z"/><path class="cls-5" d="M3747.67,1396.49c-106.43,149.19-155.58,433-167.8,620.64l99.51,14c68.19-57.74,355.55-583.29,332.55-797C4004,1160.47,3868.36,1227.31,3747.67,1396.49Z"/><path class="cls-4" d="M3231.94,1389.36l-7.78,8.37c147.12,136.75,235.88,372.93,226.14,601.69l11.4.49c4.8-112.51-13.74-228.87-53.59-336.52C3367.38,1553.4,3306.46,1458.64,3231.94,1389.36Z"/><path class="cls-5" d="M3530.69,1356.73c-18.44-61.36-45-112.82-78.93-153l-10.17,8.6c59.61,70.52,94.46,175.17,106.56,319.93,12.37,148.06,9.42,304.85-9,479.32l13.25,1.4c18.52-175.31,21.48-332.92,9-481.82C3555.8,1463.87,3545.75,1406.8,3530.69,1356.73Z"/><path class="cls-4" d="M3756.57,1648.39c-58.77,131.35-99,254.34-123.11,376l11.2,2.22c43.35-219,141.15-447.47,307.79-718.86l-9.73-6C3865.67,1427.25,3804.77,1540.64,3756.57,1648.39Z"/><path class="cls-5" d="M4022.63,1853.76c-52.56,38.25-129.54,103.16-197.8,195.17l9.17,6.8c67.32-90.74,143.25-154.8,195.09-192.55,56.23-41,97.05-60.66,97.46-60.86l-4.93-10.3C4119.93,1792.83,4079.65,1812.26,4022.63,1853.76Z"/><g class="cls-6"><ellipse cx="3832.11" cy="2476.07" rx="430.15" ry="69"/><path d="M4136.46,2426.11c-81.3-13.05-189.39-20.23-304.35-20.23s-223.05,7.18-304.35,20.23c-47.43,7.6-127,24.21-127,50s79.56,42.35,127,50c81.3,13,189.39,20.23,304.35,20.23s223-7.19,304.35-20.23c47.43-7.61,127-24.21,127-50S4183.89,2433.71,4136.46,2426.11Zm-.37,97.58c-81.19,13-189.14,20.19-304,20.19s-222.79-7.17-304-20.19c-79.43-12.74-125-30.1-125-47.62s45.56-34.88,125-47.62c81.19-13,189.14-20.2,304-20.2s222.79,7.18,304,20.2c79.43,12.74,125,30.1,125,47.62S4215.52,2511,4136.09,2523.69Z"/></g><path class="cls-7" d="M4138.12,2037.53l-512.66-8.23a73.22,73.22,0,0,0-73.77,63.67l-44.88,341.79a48.38,48.38,0,0,0,47.19,54.67l584.72,9.38A50.67,50.67,0,0,0,4190.2,2449l5.65-351.82A58.67,58.67,0,0,0,4138.12,2037.53Z"/><path class="cls-8" d="M4148.44,2038.62c-10.22,3.67-33.27,22.54-40.36,117.2-9.21,122.87-40,240.56-48,283.85s46.09,58.62,78.62,59.14A50.67,50.67,0,0,0,4190.2,2449l5.65-351.82A58.68,58.68,0,0,0,4148.44,2038.62Z"/><g class="cls-9"><path d="M3552.61,2095.17,3519.4,2348c131.3,3.28,400.24,9.45,465.57,6.77,87.31-3.59,91.25-93.27,96.83-173s35.42-144.65,35.42-144.65l-488.36-7.84A75.67,75.67,0,0,0,3552.61,2095.17Z"/><path d="M4117.22,2036.69l-488.35-7.84a76.18,76.18,0,0,0-76.76,66.25L3518.9,2348a.5.5,0,0,0,.11.39.55.55,0,0,0,.38.18c98.28,2.45,310.21,7.41,416.43,7.41,21.16,0,38.14-.19,49.17-.65,38.25-1.57,63.93-19.8,78.52-55.75,12.82-31.58,15.64-72.23,18.37-111.54l.43-6.14c5.51-78.68,35.07-143.82,35.36-144.47a.49.49,0,0,0,0-.48A.5.5,0,0,0,4117.22,2036.69ZM4081.3,2181.8l-.43,6.14c-2.72,39.23-5.53,79.8-18.29,111.23-14.43,35.54-39.82,53.57-77.63,55.12-66.28,2.73-346.79-3.8-465-6.75l33.14-252.31a75.15,75.15,0,0,1,75.74-65.38l487.59,7.83C4113.23,2045,4086.52,2107.33,4081.3,2181.8Z"/></g><path class="cls-7" d="M3551.69,2093l-32.12,244.64c127,3.17,387.21,9.14,450.41,6.54,84.48-3.47,88.28-90.24,93.69-167.33s34.25-139.94,34.25-139.94l-472.46-7.58A73.22,73.22,0,0,0,3551.69,2093Z"/><path class="cls-10" d="M3941.51,1954.59l-148.13-2.38c-46-.74-58.82,79.76-58.82,79.76s8.65-.78,34.53-.37c-2.29-36.78,23.88-53.5,23.88-53.5s116.58-3.88,132.28,3.56,16.41,53.64,16.41,53.64l33.07.53C3976,1959.75,3941.51,1954.59,3941.51,1954.59Z"/><path class="cls-11" d="M3941.51,1954.59l-148.13-2.38c-23-.37-37.71,19.57-46.67,39.6,36-48.49,150-18.5,174.05-11.5a21.06,21.06,0,0,1,4.49,1.35c15.71,7.45,16.41,53.64,16.41,53.64l33.07.53C3976,1959.75,3941.51,1954.59,3941.51,1954.59Z"/><path class="cls-12" d="M3895.94,2264.74h-.31a15.39,15.39,0,0,0-15.5,13.25l-13.39,95.45a15.39,15.39,0,0,0,15,17.53h.31a15.4,15.4,0,0,0,15.5-13.26l13.39-95.44A15.4,15.4,0,0,0,3895.94,2264.74Z"/><g class="cls-13"><path class="cls-12" d="M3625.46,2029.3a73.22,73.22,0,0,0-73.77,63.67l-44.88,341.79a48,48,0,0,0,4.31,27.16c60.37-34.4,151.36-104.49,163.81-219C3693.8,2069.58,3823,2033.39,3823,2033.39l-5.21-1Z"/></g><path class="cls-12" d="M3616.22,2260.25h-.31a15.41,15.41,0,0,0-15.5,13.26L3587,2368.94a15.39,15.39,0,0,0,15,17.54h.32a15.41,15.41,0,0,0,15.5-13.26l13.39-95.44A15.41,15.41,0,0,0,3616.22,2260.25Z"/><polygon class="cls-14" points="3591.07 2338.91 3622.58 2339.42 3624.8 2323.62 3593.45 2323.11 3591.07 2338.91"/><polygon class="cls-14" points="3870.85 2343.41 3902.36 2343.91 3904.57 2328.11 3873.23 2327.61 3870.85 2343.41"/><polygon class="cls-15" points="587.62 1179.54 739.45 1548.05 676.42 1563.82 796.11 1835.71 853.89 1825.79 1238.8 2760 1947.26 2674.1 1042.71 1071.02 587.62 1179.54"/><polygon class="cls-16" points="3009.3 1105.78 2720.55 461.55 2652.36 490.07 2612.83 400.16 1206.15 1028.25 1947.26 2674.1 3337.59 2048.67 2937.19 1137.92 3009.3 1105.78"/><polygon class="cls-17" points="719.61 580.53 993.25 1214.39 918.94 1185.62 1047.29 1506.68 1153.68 1586.03 1425.37 2215.37 1947.26 2674.1 1206.15 1028.25 719.61 580.53"/><rect class="cls-18" x="1802.88" y="646.93" width="1146.54" height="1517.9" transform="translate(-245.7 540.72) rotate(-12.35)"/><circle class="cls-19" cx="2530.07" cy="914.82" r="189.29" transform="translate(94.16 2056.98) rotate(-45)"/><rect class="cls-12" x="1785.32" y="880.11" width="461.5" height="32.45" transform="translate(-145.05 451.92) rotate(-12.35)"/><path d="M1787,928.86l-1,.22,7.36,33.63,451.79-98.91,1-.21L2238.77,830Zm7.91,31.49-6.52-29.76,448.88-98.28,6.52,29.76Z"/><rect class="cls-12" x="1803.06" y="961.11" width="461.5" height="32.45" transform="translate(-161.97 457.58) rotate(-12.35)"/><path d="M1804.71,1009.87l-1,.21,7.37,33.64,451.79-98.91,1-.22L2256.5,911Zm7.91,31.49-6.51-29.76L2255,913.32l6.51,29.76Z"/><rect class="cls-12" x="1820.79" y="1042.12" width="461.5" height="32.45" transform="translate(-178.88 463.25) rotate(-12.35)"/><path d="M1822.45,1090.88l-1,.21,7.36,33.64,451.79-98.92,1-.21L2274.24,992Zm7.91,31.48-6.52-29.76,448.88-98.27,6.52,29.76Z"/><rect class="cls-12" x="1838.53" y="1123.13" width="461.5" height="32.45" transform="translate(-195.8 468.92) rotate(-12.35)"/><path d="M1840.18,1171.88l-1,.22,7.37,33.63,451.79-98.91,1-.21L2292,1073Zm7.91,31.49-6.51-29.76,448.88-98.27,6.51,29.75Z"/><circle class="cls-20" cx="2519.12" cy="864.77" r="69.54" transform="translate(-82.67 295.16) rotate(-6.6)"/><path d="M2504,795.87A70.55,70.55,0,0,0,2519,935.33,70.55,70.55,0,1,0,2504,795.87Zm29.75,135.86a68.55,68.55,0,0,1-29.33-133.93,68.55,68.55,0,0,1,29.33,133.93Z"/><ellipse class="cls-20" cx="2558.05" cy="1042.59" rx="126.89" ry="145.22" transform="translate(-163.79 571.22) rotate(-12.35)"/><path d="M2526.78,899.76c-68.88,15.08-110.89,91.43-93.65,170.18,15.23,69.57,71.66,118.1,132.09,118.1a112.61,112.61,0,0,0,24.1-2.61c33.39-7.32,61.52-29.06,79.21-61.23s22.78-70.83,14.44-109C2665.72,936.49,2595.65,884.68,2526.78,899.76Zm140,223.48c-17.4,31.66-45.06,53.06-77.89,60.25-67.81,14.84-136.81-36.28-153.82-114s24.32-153,92.13-167.82a110.67,110.67,0,0,1,23.68-2.56c59.51,0,115.12,47.9,130.15,116.53C2689.27,1053.33,2684.21,1091.53,2666.78,1123.24Z"/><rect class="cls-12" x="1888.26" y="1352.1" width="461.5" height="28.84" transform="translate(-243.22 484.78) rotate(-12.35)"/><path d="M1890.31,1400.82l-1,.21,6.59,30.12,451.79-98.92,1-.21-6.59-30.12Zm7.13,28-5.74-26.24,448.88-98.27,5.75,26.23Z"/><rect class="cls-21" x="2362.56" y="1248.26" width="461.5" height="28.84" transform="translate(-210.05 583.86) rotate(-12.35)"/><rect class="cls-12" x="1899.44" y="1403.17" width="461.5" height="28.84" transform="matrix(0.98, -0.21, 0.21, 0.98, -253.9, 488.39)"/><path d="M1901.49,1451.89l-1,.21,6.59,30.12,451.79-98.92,1-.21-6.59-30.12Zm7.14,28-5.75-26.24,448.88-98.27,5.75,26.23Z"/><rect class="cls-21" x="2373.75" y="1299.33" width="461.5" height="28.84" transform="translate(-220.71 587.43) rotate(-12.35)"/><rect class="cls-12" x="1910.62" y="1454.24" width="461.5" height="28.84" transform="translate(-264.56 491.97) rotate(-12.35)"/><path d="M1912.67,1503l-1,.21,6.59,30.12,451.79-98.92,1-.21-6.59-30.12Zm7.14,28-5.75-26.24,448.88-98.27,5.75,26.23Z"/><rect class="cls-21" x="2384.93" y="1350.4" width="461.5" height="28.84" transform="translate(-231.38 591.01) rotate(-12.35)"/><rect class="cls-12" x="1921.81" y="1505.31" width="461.5" height="28.84" transform="translate(-275.22 495.54) rotate(-12.35)"/><path d="M1923.85,1554l-1,.21,6.59,30.11,451.79-98.91,1-.21-6.59-30.12Zm7.14,28-5.75-26.24,448.88-98.27,5.75,26.23Z"/><rect class="cls-12" x="2026.2" y="1912" width="947.04" height="116.58" transform="translate(-363.55 580.2) rotate(-12.35)"/><path d="M2950.57,1810.9l-926.09,202.75-1,.22,25.14,114.85.21,1L2975,1926.93l1-.21-25.15-114.85Zm-900.19,316.42-24.51-111.94,923.19-202.12,24.5,111.94Z"/><rect class="cls-21" x="2396.11" y="1401.47" width="461.5" height="28.84" transform="matrix(0.98, -0.21, 0.21, 0.98, -242.04, 594.58)"/><rect class="cls-12" x="1974.97" y="1748.14" width="461.5" height="28.84" transform="translate(-325.93 512.53) rotate(-12.35)"/><path d="M1977,1796.85l-1,.21,6.59,30.12,451.8-98.91,1-.22-6.6-30.11Zm7.14,28-5.74-26.24,448.88-98.28,5.74,26.24Z"/><rect class="cls-12" x="2449.27" y="1644.3" width="461.5" height="28.84" transform="matrix(0.98, -0.21, 0.21, 0.98, -292.74, 611.57)"/><path d="M2451.31,1693l-1,.21,6.6,30.12,451.79-98.92,1-.21-6.59-30.11Zm7.14,28-5.74-26.23,448.88-98.28,5.74,26.24Z"/><rect class="cls-12" x="1986.15" y="1799.21" width="461.5" height="28.84" transform="translate(-336.59 516.11) rotate(-12.35)"/><path d="M1988.19,1847.92l-1,.21,6.6,30.12,451.79-98.91,1-.22L2440,1749Zm7.14,28-5.74-26.24,448.88-98.28,5.74,26.24Z"/><rect class="cls-12" x="2460.45" y="1695.36" width="461.5" height="28.84" transform="translate(-303.39 615.09) rotate(-12.35)"/><path d="M2462.5,1744.08l-1,.21,6.6,30.12,451.79-98.92,1-.21-6.59-30.11Zm7.13,28-5.74-26.23,448.88-98.28,5.74,26.24Z"/><rect class="cls-12" x="1997.33" y="1850.28" width="461.5" height="28.84" transform="translate(-347.23 519.64) rotate(-12.35)"/><path d="M1999.37,1899l-1,.21,6.6,30.12,451.79-98.91,1-.22-6.59-30.11Zm7.14,28-5.74-26.23,448.88-98.28,5.74,26.24Z"/><rect class="cls-12" x="2471.63" y="1746.43" width="461.5" height="28.84" transform="translate(-314.07 618.71) rotate(-12.35)"/><path d="M2473.68,1795.15l-1,.21,6.59,30.12,451.79-98.92,1-.21-6.59-30.11Zm7.13,28-5.74-26.23L2924,1698.6l5.75,26.24Z"/><rect class="cls-12" x="2008.51" y="1901.35" width="461.5" height="28.84" transform="matrix(0.98, -0.21, 0.21, 0.98, -357.92, 523.25)"/><path d="M2010.55,1950.06l-1,.21,6.6,30.12L2468,1881.48l1-.22-6.59-30.11Zm7.14,28-5.74-26.23,448.88-98.28,5.74,26.24Z"/><rect class="cls-12" x="2482.81" y="1797.5" width="461.5" height="28.84" transform="translate(-324.72 622.24) rotate(-12.35)"/><path d="M2484.86,1846.22l-1,.21,6.59,30.12,451.79-98.92,1-.21-6.59-30.12Zm7.14,28-5.75-26.23,448.88-98.28,5.75,26.24Z"/><rect class="cls-22" x="1715.19" y="771.56" width="1146.54" height="1517.9" transform="translate(-348.14 738.14) rotate(-17.05)"/><circle class="cls-23" cx="2401.65" cy="1028.49" r="189.29" transform="translate(-23.83 1999.46) rotate(-45)"/><rect class="cls-12" x="1657.11" y="1035.94" width="461.5" height="32.45" transform="translate(-225.51 599.7) rotate(-17.05)"/><path d="M1661.25,1103.64l10.09,32.92,443.12-135.88-10.09-32.92Zm11.41,30.44-8.93-29.12,439.32-134.72,8.93,29.13Z"/><rect class="cls-12" x="1681.42" y="1115.22" width="461.5" height="32.45" transform="translate(-247.69 610.31) rotate(-17.05)"/><path d="M1685.56,1182.92l10.09,32.92L2138.77,1080,2128.68,1047Zm11.41,30.44-8.93-29.12,439.32-134.72,8.93,29.13Z"/><rect class="cls-12" x="1705.73" y="1194.5" width="461.5" height="32.45" transform="translate(-269.85 620.88) rotate(-17.05)"/><path d="M1709.87,1262.2l10.09,32.93,443.13-135.88-10.1-32.92Zm11.41,30.44-8.93-29.12,439.32-134.71,8.93,29.12Z"/><rect class="cls-12" x="1730.04" y="1273.78" width="461.5" height="32.45" transform="translate(-292.04 631.53) rotate(-17.05)"/><path d="M1734.18,1341.49l10.1,32.92,443.12-135.88-10.1-32.92Zm11.41,30.44-8.93-29.13L2176,1208.09l8.94,29.12Z"/><circle class="cls-20" cx="2386.62" cy="979.5" r="69.54" transform="translate(-180.83 1231.67) rotate(-27.92)"/><path d="M2419.69,917.19a70.54,70.54,0,1,0,34.37,41.63A70.09,70.09,0,0,0,2419.69,917.19Zm-13,127.85a68.55,68.55,0,1,1,45.44-85.63A68.63,68.63,0,0,1,2406.72,1045Z"/><ellipse class="cls-20" cx="2439.99" cy="1153.54" rx="126.89" ry="145.22" transform="translate(-230.97 766) rotate(-17.05)"/><path d="M2397.13,1013.75c-32.68,10-58.94,34-73.93,67.51s-16.91,72.45-5.47,109.77c19.8,64.58,75,107.26,132,107.26a112.82,112.82,0,0,0,33.1-5c67.41-20.67,103-100.2,79.39-177.28S2464.54,993.08,2397.13,1013.75Zm85.14,277.68a110.54,110.54,0,0,1-32.52,4.87c-56.17,0-110.58-42.14-130.12-105.85-11.3-36.86-9.39-75.35,5.38-108.38s40.57-56.57,72.7-66.42a110.56,110.56,0,0,1,32.53-4.87c56.17,0,110.57,42.14,130.11,105.85C2583.67,1192.67,2548.64,1271.08,2482.27,1291.43Z"/><rect class="cls-12" x="1798.21" y="1497.92" width="461.5" height="28.84" transform="translate(-354.22 661.28) rotate(-17.05)"/><path d="M1803.83,1565.25l-.95.29,9,29.48L2255,1459.14l-9-29.47Zm9.41,27.29-7.87-25.68,439.32-134.71,7.87,25.68Z"/><rect class="cls-12" x="2262.42" y="1355.58" width="461.5" height="28.84" transform="translate(-292.09 791.11) rotate(-17.05)"/><path d="M2267.09,1423.2l9,29.48,442.17-135.59.95-.29-9-29.48Zm10.35,27-7.87-25.68,439.32-134.71,7.88,25.67Z"/><rect class="cls-12" x="1813.54" y="1547.9" width="461.5" height="28.84" transform="matrix(0.96, -0.29, 0.29, 0.96, -368.2, 667.97)"/><path d="M1818.21,1615.53l9,29.47,442.17-135.58.95-.3-9-29.47Zm10.36,27-7.88-25.68L2260,1482.13l7.87,25.68Z"/><rect class="cls-12" x="2277.74" y="1405.56" width="461.5" height="28.84" transform="translate(-306.06 797.76) rotate(-17.05)"/><path d="M2283.36,1472.89l-1,.29,9,29.48,442.17-135.59,1-.29-9-29.47Zm9.41,27.29-7.88-25.68,439.33-134.71,7.87,25.68Z"/><rect class="cls-12" x="1828.87" y="1597.89" width="461.5" height="28.84" transform="translate(-382.18 674.65) rotate(-17.05)"/><path d="M1834.49,1665.22l-1,.29,9,29.47,443.12-135.87-9-29.48Zm9.4,27.28-7.87-25.68,439.32-134.71,7.88,25.68Z"/><rect class="cls-12" x="2293.07" y="1455.54" width="461.5" height="28.84" transform="translate(-320.05 804.49) rotate(-17.05)"/><path d="M2298.69,1522.88l-1,.29,9,29.47,443.12-135.88-9-29.47Zm9.4,27.28-7.87-25.68,439.33-134.71,7.87,25.68Z"/><rect class="cls-12" x="1844.19" y="1647.87" width="461.5" height="28.84" transform="translate(-396.16 681.34) rotate(-17.05)"/><path d="M1849.81,1715.2l-1,.29,9,29.48L2301,1609.09l-9-29.48Zm9.41,27.28-7.88-25.67,439.33-134.72,7.87,25.68Z"/><rect class="cls-12" x="1984.32" y="2024.61" width="947.04" height="116.58" transform="translate(-502.64 812.07) rotate(-17.05)"/><path d="M1987.75,2165l-1,.29,34.76,113.35,907.32-278.21-34.75-113.36Zm35.13,111.16-33.6-109.55,903.53-277.06,33.59,109.56Z"/><rect class="cls-12" x="2308.4" y="1505.53" width="461.5" height="28.84" transform="translate(-334.03 811.18) rotate(-17.05)"/><path d="M2313.07,1573.15l9,29.47L2764.28,1467l.95-.29-9-29.48Zm10.35,27-7.87-25.67,439.32-134.72,7.88,25.68Z"/><rect class="cls-12" x="1917.07" y="1885.52" width="461.5" height="28.84" transform="translate(-462.63 713.15) rotate(-17.05)"/><path d="M1921.74,1953.15l9,29.47L2373,1847l1-.29-9-29.47Zm10.35,27-7.87-25.68,439.32-134.71,7.88,25.68Z"/><rect class="cls-12" x="2381.27" y="1743.18" width="461.5" height="28.84" transform="translate(-400.5 842.98) rotate(-17.05)"/><path d="M2386.89,1810.51l-.95.29,9,29.48,442.17-135.59.95-.29-9-29.47Zm9.41,27.29-7.88-25.68,439.33-134.71,7.87,25.68Z"/><rect class="cls-12" x="1932.39" y="1935.51" width="461.5" height="28.84" transform="translate(-476.61 719.84) rotate(-17.05)"/><path d="M1937.06,2003.13l9,29.47L2388.27,1897l.95-.29-9-29.48Zm10.36,27-7.88-25.68,439.33-134.71,7.87,25.68Z"/><rect class="cls-12" x="2396.6" y="1793.16" width="461.5" height="28.84" transform="translate(-414.48 849.67) rotate(-17.05)"/><path d="M2402.22,1860.5l-.95.29,9,29.47,443.13-135.88-9-29.47Zm9.4,27.28-7.87-25.68,439.32-134.71,7.88,25.68Z"/><rect class="cls-12" x="1947.72" y="1985.49" width="461.5" height="28.84" transform="translate(-490.59 726.53) rotate(-17.05)"/><path d="M1953.34,2052.82l-.95.29,9,29.48,443.12-135.88-9-29.48Zm9.4,27.28-7.87-25.67,439.32-134.72,7.88,25.68Z"/><rect class="cls-12" x="2411.92" y="1843.15" width="461.5" height="28.84" transform="translate(-428.46 856.36) rotate(-17.05)"/><path d="M2416.59,1910.77l9,29.47,442.17-135.58.95-.29-9-29.48Zm10.36,27-7.88-25.68,439.33-134.71,7.87,25.68Z"/><rect class="cls-12" x="1963.05" y="2035.47" width="461.5" height="28.84" transform="translate(-504.57 733.22) rotate(-17.05)"/><path d="M1967.72,2103.09l9,29.48L2418.93,1997l1-.29-9-29.47Zm10.35,27-7.87-25.68,439.32-134.71,7.87,25.67Z"/><rect class="cls-12" x="2427.25" y="1893.13" width="461.5" height="28.84" transform="translate(-442.44 863.05) rotate(-17.05)"/><path d="M2431.92,1960.75l9,29.48,442.17-135.59.95-.29-9-29.48Zm10.35,27-7.87-25.68,439.32-134.72,7.88,25.68Z"/><rect class="cls-12" x="1646.04" y="773.1" width="1146.54" height="1517.9" transform="translate(-469.02 1318.97) rotate(-30.09)"/><rect class="cls-24" x="1490.37" y="1140.2" width="461.5" height="32.45" transform="matrix(0.87, -0.5, 0.5, 0.87, -347.84, 1018.62)"/><rect class="cls-24" x="1531.94" y="1211.95" width="461.5" height="32.45" transform="translate(-378.21 1049.12) rotate(-30.09)"/><rect class="cls-24" x="1573.51" y="1283.7" width="461.5" height="32.45" transform="translate(-408.57 1079.63) rotate(-30.09)"/><rect class="cls-24" x="1615.08" y="1355.46" width="461.5" height="32.45" transform="matrix(0.87, -0.5, 0.5, 0.87, -438.94, 1110.14)"/><rect class="cls-22" x="1731.66" y="1558.48" width="461.5" height="28.84" transform="translate(-524.11 1195.71) rotate(-30.09)"/><rect class="cls-22" x="2151.78" y="1315.08" width="461.5" height="28.84" transform="translate(-345.49 1373.51) rotate(-30.09)"/><rect class="cls-22" x="1757.87" y="1603.72" width="461.5" height="28.84" transform="translate(-543.26 1214.91) rotate(-30.09)"/><rect class="cls-22" x="2177.99" y="1360.31" width="461.5" height="28.84" transform="matrix(0.87, -0.5, 0.5, 0.87, -364.63, 1392.73)"/><rect class="cls-22" x="1784.08" y="1648.95" width="461.5" height="28.84" transform="translate(-562.39 1234.11) rotate(-30.09)"/><rect class="cls-22" x="2204.2" y="1405.55" width="461.5" height="28.84" transform="matrix(0.87, -0.5, 0.5, 0.87, -383.78, 1411.97)"/><rect class="cls-22" x="1810.28" y="1694.19" width="461.5" height="28.84" transform="translate(-581.55 1253.42) rotate(-30.09)"/><rect class="cls-22" x="2035.44" y="1973.7" width="947.04" height="116.58" transform="translate(-680.61 1531.52) rotate(-30.09)"/><rect class="cls-22" x="2230.4" y="1450.78" width="461.5" height="28.84" transform="matrix(0.87, -0.5, 0.5, 0.87, -402.93, 1431.2)"/><rect class="cls-24" x="1934.9" y="1909.27" width="461.5" height="28.84" transform="translate(-672.59 1344.87) rotate(-30.09)"/><rect class="cls-24" x="2355.02" y="1665.87" width="461.5" height="28.84" transform="translate(-493.96 1522.64) rotate(-30.09)"/><rect class="cls-24" x="1961.11" y="1954.51" width="461.5" height="28.84" transform="matrix(0.87, -0.5, 0.5, 0.87, -691.73, 1364.06)"/><rect class="cls-24" x="2381.23" y="1711.11" width="461.5" height="28.84" transform="translate(-513.11 1541.87) rotate(-30.09)"/><rect class="cls-24" x="1987.31" y="1999.75" width="461.5" height="28.84" transform="translate(-710.87 1383.29) rotate(-30.09)"/><rect class="cls-24" x="2407.43" y="1756.34" width="461.5" height="28.84" transform="translate(-532.25 1561.1) rotate(-30.09)"/><path class="cls-25" d="M2363,846.36A213.42,213.42,0,0,0,2232,799.46h-2.77c-118.39,0-214.37,96-214.37,214.36s96,214.37,214.37,214.37a213.84,213.84,0,0,0,160.94-72.77,2.09,2.09,0,0,1,.2-.22A214.35,214.35,0,0,0,2363,846.36Z"/><path class="cls-26" d="M2229.2,1013.81H2014.83c0,118.39,96,214.37,214.37,214.37a213.84,213.84,0,0,0,160.94-72.77,2.09,2.09,0,0,1,.2-.22l-4.05-3.11Z"/><path class="cls-27" d="M2229.2,799.45v214.36L2363,846.37h0A213.42,213.42,0,0,0,2232,799.46Z"/><path class="cls-28" d="M2363,846.36,2229.2,1013.81l160.94,141.6A214.34,214.34,0,0,0,2363,846.36Z"/><path d="M2480.2,2064.07c.93,5.85,1.56,11.75,2,17.68s.44,11.87.32,17.82-.54,11.89-1.1,17.83-1.4,11.84-2.35,17.73c-.5,2.94-1,5.89-1.55,8.87l-1.61,8.87c-2.21,11.76-4.81,23.42-9.58,34.13a61.35,61.35,0,0,1-9,14.77,44,44,0,0,1-13.11,10.78,34.31,34.31,0,0,1-7.87,3,39.77,39.77,0,0,1-4.16.72c-.7.06-1.4.17-2.1.2l-2.11,0a31.69,31.69,0,0,1-8.32-1.15l-1-.26c-.34-.1-.66-.23-1-.35-.66-.24-1.33-.46-2-.71a42.33,42.33,0,0,1-3.85-1.83,54,54,0,0,1-13.57-10.65,92,92,0,0,1-10.64-14,122.49,122.49,0,0,1-8.24-15.73,130.72,130.72,0,0,1-6-16.72c-.79-2.86-1.49-5.71-2.05-8.65s-1.12-5.87-1.61-8.81c-.91-5.9-1.68-11.84-2.11-17.8a257.41,257.41,0,0,1-.31-35.89,270.28,270.28,0,0,1,4.52-35.63,240.14,240.14,0,0,1,9.61-34.63,187.68,187.68,0,0,1,15.34-32.46,153,153,0,0,1,10.1-14.87c1.87-2.34,3.71-4.72,5.74-6.93s4.06-4.4,6.15-6.55c1.05-1.07,2.18-2,3.27-3.09l1.65-1.52c.55-.52,1.15-1,1.72-1.44l1.73-1.42c.59-.45,1.22-.86,1.83-1.29l1.83-1.28,1.93-1.14a45.19,45.19,0,0,1,16.75-6,35.31,35.31,0,0,1,17.61,2.2,38,38,0,0,1,14.44,10.53,38.18,38.18,0,0,0-14.31-10.84,35.7,35.7,0,0,0-17.82-2.57,45.83,45.83,0,0,0-17.18,5.77l-2,1.13-1.89,1.27c-.62.44-1.27.84-1.88,1.3l-1.78,1.42c-.59.48-1.22.93-1.77,1.44l-1.69,1.52c-1.11,1-2.28,2-3.35,3.07-2.14,2.14-4.32,4.24-6.31,6.53s-4,4.58-5.9,6.91a157,157,0,0,0-10.42,14.89,190.06,190.06,0,0,0-16,32.6A243.44,243.44,0,0,0,2369,2047.7a274.26,274.26,0,0,0-5.08,36,259.83,259.83,0,0,0,0,36.38,202.37,202.37,0,0,0,5.54,36.07,133.59,133.59,0,0,0,6,17.33,128.67,128.67,0,0,0,8.36,16.37,94.56,94.56,0,0,0,11.07,14.83,58.61,58.61,0,0,0,14.68,11.68,47.23,47.23,0,0,0,4.3,2.07c.74.3,1.5.55,2.25.83.38.13.75.28,1.13.39l1.17.32a37.32,37.32,0,0,0,9.52,1.39l2.41,0c.81,0,1.6-.15,2.4-.22a42,42,0,0,0,4.75-.78,39,39,0,0,0,9-3.32,48.9,48.9,0,0,0,14.74-11.91,66.05,66.05,0,0,0,9.88-15.93c5.15-11.33,7.89-23.38,10.22-35.25L2483,2145c.56-2.95,1.09-5.93,1.61-8.93,1-6,1.87-12,2.48-18.1s1-12.15,1.21-18.25.1-12.22-.25-18.33c-.35-5.67-.93-11.34-1.76-17a48.08,48.08,0,0,1-9.87-17.67A172.94,172.94,0,0,1,2480.2,2064.07Z"/><path d="M2549.26,1905.79a.18.18,0,0,0,0-.07s0,0,0,0-.07.06-.15.11a1.85,1.85,0,0,0-.26.12l-.16,0s0,0,0,0,.08,0,.3.11l.1,0a.71.71,0,0,1,.08-.21Z"/><path d="M2482.23,2045.09a3,3,0,0,0-5.82,1.66l5.83-1.62Z"/><path d="M2585.09,2040.62a39.1,39.1,0,0,1-4.91-4.89,43.79,43.79,0,0,1-4.08-5.71,57,57,0,0,1-3.33-6.28,93.36,93.36,0,0,1-4.93-13.54c-1.31-4.62-2.46-9.49-3.65-14.25-2.36-9.58-4.63-19.17-6.75-28.79s-4.15-19.26-5.85-28.92c-.84-4.83-1.62-9.67-2.21-14.5a85.66,85.66,0,0,1-.83-14.23,14.71,14.71,0,0,1,.45-3c0-.09.07-.2.1-.3l-.1,0c-.22-.1-.33-.13-.3-.11s0,0,0,0l.16,0a1.85,1.85,0,0,1,.26-.12c.08,0,.13-.13.15-.11s0-.09,0,0a.18.18,0,0,1,0,.07l-.08.18a.71.71,0,0,0-.08.21,1.25,1.25,0,0,1,.3.18,3.6,3.6,0,0,1,.47.37,13,13,0,0,1,2,2.26,43,43,0,0,1,3.55,5.94c1.07,2.11,2.07,4.3,3,6.53s1.82,4.46,2.75,6.82l2.69,6.85,1.32,3.42,1.2,3.46c.79,2.31,1.63,4.6,2.37,6.93,1.41,4.68,2.93,9.33,4.12,14.08.61,2.36,1.32,4.71,1.85,7.1l1.66,7.15c2.06,9.57,3.88,19.2,5.21,28.92l.54,3.63.45,3.65.89,7.31c.46,4.88,1,9.76,1.37,14.66.15,1.77.28,3.54.4,5.31a34.31,34.31,0,0,0,5.59,3.67c.38.2.76.38,1.15.57-.21-3.36-.44-6.72-.74-10.07-.34-5-.93-9.9-1.4-14.85l-.92-7.4-.46-3.71-.55-3.69c-1.36-9.86-3.28-19.64-5.41-29.37l-1.73-7.28c-.55-2.43-1.28-4.82-1.92-7.23-1.23-4.83-2.8-9.57-4.27-14.34-.77-2.38-1.63-4.72-2.45-7.08l-1.24-3.53-1.37-3.49-2.76-6.93c-.89-2.24-1.82-4.62-2.82-6.92s-2-4.61-3.22-6.9a49.67,49.67,0,0,0-4.09-6.74,18.63,18.63,0,0,0-2.94-3.24,9,9,0,0,0-1-.76,7.56,7.56,0,0,0-1.2-.69,6.47,6.47,0,0,0-3.28-.63c-.15,0-.3,0-.47,0l-.6.15a3.82,3.82,0,0,0-1.1.5,3.93,3.93,0,0,0-.87.68,5.86,5.86,0,0,0-.64.73l-.45.71c-.12.23-.21.44-.31.66a10.84,10.84,0,0,0-.44,1.23,20.65,20.65,0,0,0-.64,4.29,90.39,90.39,0,0,0,.92,15.32c.64,5,1.45,9.89,2.33,14.78,1.77,9.79,3.83,19.49,6,29.14s4.56,19.28,7,28.87c1.24,4.81,2.4,9.55,3.81,14.43a98.6,98.6,0,0,0,5.31,14.24,60.67,60.67,0,0,0,3.66,6.77,49,49,0,0,0,4.57,6.3,43.62,43.62,0,0,0,5.62,5.5,37.19,37.19,0,0,0,3.71,2.64q-.18-3.2-.41-6.38Z"/><path d="M2857.28,1881.15c-.27.13-.54.29-.81.44l-.76.55a28.09,28.09,0,0,0-2.72,2.52c-1.72,1.78-3.33,3.65-4.93,5.53-3.19,3.78-6.31,7.61-9.45,11.42q-9.39,11.46-19,22.75-19.17,22.59-39.3,44.33c-6.71,7.25-13.41,14.49-20.37,21.46-3.49,3.48-7,6.9-10.72,10.1a67.38,67.38,0,0,1-5.7,4.5,27.67,27.67,0,0,1-3,1.83,8.55,8.55,0,0,1-3,1,2.08,2.08,0,0,1-2-.92,9.11,9.11,0,0,1-1.19-2.9c-.57-2.24-.87-4.69-1.24-7.14-.73-4.89-1.61-10-4-14.72a21.62,21.62,0,0,0-4.79-6.37,20.59,20.59,0,0,0-6.89-4.07,26.22,26.22,0,0,0-7.75-1.54,22.66,22.66,0,0,0-7.92,1,31.55,31.55,0,0,0-12.94,8.63,77.3,77.3,0,0,0-9.16,12.08c-2.69,4.22-5.13,8.56-7.65,12.75s-5.22,8.29-8,12.25a128.57,128.57,0,0,1-9.06,11.39,76.55,76.55,0,0,1-10.61,9.7,53.86,53.86,0,0,1-12.32,7,55.31,55.31,0,0,1-13.7,3.51,62.17,62.17,0,0,1-14.23.1A39,39,0,0,1,2592,2045c.11,1.83.23,3.66.32,5.49a45.08,45.08,0,0,0,11.24,2.71,66.72,66.72,0,0,0,15.35-.21,60.61,60.61,0,0,0,14.89-3.93,57,57,0,0,0,13.26-7.73,81.75,81.75,0,0,0,11.13-10.38,133.39,133.39,0,0,0,9.26-11.88c2.87-4.11,5.51-8.3,8.09-12.6s4.89-8.6,7.46-12.74a74.66,74.66,0,0,1,8.59-11.59,28.09,28.09,0,0,1,11.34-7.8,20.89,20.89,0,0,1,13.43.32,17.35,17.35,0,0,1,10,8.7c2.15,4.11,3.09,8.89,3.87,13.72.41,2.43.74,4.89,1.41,7.43a11.72,11.72,0,0,0,1.73,3.86,4.83,4.83,0,0,0,4.46,2,11.28,11.28,0,0,0,4-1.33,29.52,29.52,0,0,0,3.29-2.07,71.81,71.81,0,0,0,5.86-4.75c3.72-3.33,7.24-6.83,10.7-10.38,6.91-7.11,13.52-14.47,20.12-21.82q19.8-22.08,38.71-44.93c6.29-7.62,12.45-15.35,18.57-23.1,3.07-3.88,6.11-7.77,9.23-11.6,1.56-1.91,3.14-3.81,4.81-5.62a29.35,29.35,0,0,1,2.67-2.56l.74-.55c.26-.16.52-.32.8-.46a2.71,2.71,0,0,1,1.79-.24A2.7,2.7,0,0,0,2857.28,1881.15Z"/><path d="M2482.24,2045.13l-5.83,1.62a48.08,48.08,0,0,0,9.87,17.67c-.06-.43-.11-.86-.18-1.29A179.63,179.63,0,0,0,2482.24,2045.13Z"/><path d="M2590.84,2044.42a34.31,34.31,0,0,1-5.59-3.67q.23,3.18.41,6.38c1,.59,1.92,1.15,2.91,1.67a37.84,37.84,0,0,0,3.74,1.68c-.09-1.83-.21-3.66-.32-5.49C2591.6,2044.8,2591.22,2044.62,2590.84,2044.42Z"/><path d="M2545.65,2054.17c-.12-1.7-.31-3.38-.51-5l-.66-4.91c-.45-3.26-1-6.52-1.49-9.77-2.12-13-4.73-25.83-7.16-38.66l-6.37,1.33c4.32,19.24,8.35,38.61,13,57.88.89,3.67,1.82,7.35,2.76,11,.08-.46.16-.93.21-1.39A49.63,49.63,0,0,0,2545.65,2054.17Z"/><path d="M2585.66,2047.13c.34,5.9.59,11.82.8,17.73.29,9.83.35,19.67.28,29.51,0,5.07.21,10,.29,14.9a102.9,102.9,0,0,1-.54,14.34,48.23,48.23,0,0,1-1.31,6.77l-.51,1.6-.26.8-.32.76c-.22.51-.42,1-.65,1.52l-.76,1.43a5.05,5.05,0,0,1-.69,1.09,4.6,4.6,0,0,1-.78.75,2.85,2.85,0,0,1-1.54.65,2,2,0,0,1-1.3-.48,7.18,7.18,0,0,1-1.59-1.91c-1-1.66-2-4.12-3-6.3s-2-4.45-2.9-6.73-1.88-4.51-2.75-6.79l-2.6-6.87a535.08,535.08,0,0,1-16.66-56.46c-4.68-19.12-8.73-38.45-13.09-57.75a3.25,3.25,0,0,0-6.36,1.32c2.47,12.87,5.08,25.66,7.2,38.49.52,3.2,1,6.41,1.48,9.62l.65,4.82c.19,1.58.37,3.15.49,4.71a43.25,43.25,0,0,1-.14,9.12,19.63,19.63,0,0,1-2.67,7.92,15.9,15.9,0,0,1-2.58,3,15.42,15.42,0,0,1-3.37,2.14,19.14,19.14,0,0,1-8.18,1.62,23.17,23.17,0,0,1-4.31-.44,23.62,23.62,0,0,1-4.21-1.22,46.16,46.16,0,0,1-8.27-4,61.17,61.17,0,0,1-14.25-11.93,42.58,42.58,0,0,1-9-15.7,179.63,179.63,0,0,1,3.86,18c.07.43.12.86.18,1.29.13.14.24.29.37.44a67.65,67.65,0,0,0,15.65,13.23,53,53,0,0,0,9.31,4.59,29.08,29.08,0,0,0,5.19,1.51,28.39,28.39,0,0,0,5.44.58,25.39,25.39,0,0,0,10.9-2.15,21.15,21.15,0,0,0,4.89-3.1,22,22,0,0,0,3.8-4.39,24.14,24.14,0,0,0,2.42-5.15,33.27,33.27,0,0,0,1-4c-.94-3.67-1.87-7.35-2.76-11-4.68-19.27-8.71-38.64-13-57.88l6.37-1.33c2.43,12.83,5,25.67,7.16,38.66.53,3.25,1,6.51,1.49,9.77l.66,4.91c.2,1.66.39,3.34.51,5a49.63,49.63,0,0,1-.19,10.46c-.05.46-.13.93-.21,1.39,4,15.55,8.54,31,14.06,46.17l2.66,7c.89,2.33,1.88,4.62,2.82,6.93s1.95,4.6,3,6.88l1.53,3.42a30.1,30.1,0,0,0,1.87,3.64,13.5,13.5,0,0,0,3.2,3.69,8.64,8.64,0,0,0,5.59,1.82,9.35,9.35,0,0,0,5.25-2,11.19,11.19,0,0,0,1.88-1.82,10.46,10.46,0,0,0,1.32-2l1-1.83c.29-.63.53-1.27.8-1.9l.39-.94.32-1,.62-1.92a54.68,54.68,0,0,0,1.49-7.76c1.24-10.33.19-20.37.25-30,.06-9.92,0-19.84-.33-29.77q-.24-7.08-.61-14.18a37.84,37.84,0,0,1-3.74-1.68C2587.58,2048.28,2586.61,2047.72,2585.66,2047.13Z"/><path class="cls-29" d="M3727.42,596.75c-17.63-19.79-44.28-29.21-70.48-33.12s-52.92-3-79.21-6.27c-12.87-1.58-26.61-4.67-35.14-14.43-9.12-10.45-9.81-25.52-11.56-39.27A190.75,190.75,0,0,0,3463.87,382c-11.17-9.2-23.73-17.25-37.83-20.53s-30-1.26-41.17,7.93a35.32,35.32,0,0,0-7.32,8.14,31.41,31.41,0,0,0-4.83,16.79c-.24,18.51,12.87,39.07,22.89,53.1,15.94,22.32,36.6,44.55,38.9,73.22,1.49,18.44-5.11,37.58.62,55.16,5,15.26,18.32,26.18,31.85,34.82a242.08,242.08,0,0,0,68.39,29.93c21.81,5.72,47.21,10.28,58.66,29.7,4.66,7.91,6.21,17.26,8.57,26.19,1.57,5.9,3.49,11.62,6.91,16.62,2,2.9,5.07,5.72,8.51,5.09,2.53-.46,4.34-2.63,5.84-4.72,10.13-14,16.94-30.4,28.4-43.37a78.62,78.62,0,0,1,52.81-26c9-.62,18.85.06,26-5.44,6.24-4.81,8.6-13.5,7.32-21.27S3732.66,602.64,3727.42,596.75Z"/><g class="cls-9"><path d="M3545.39,638.5c-107.13-41.6-67.17-84.23-69.4-170.6s-28.38-72.61-81.12-83.67c-6.36-11-17.31-6.68-17.31-6.68h0a31.41,31.41,0,0,0-4.83,16.79c-.24,18.51,12.87,39.07,22.89,53.1,15.94,22.32,36.6,44.55,38.9,73.22,1.49,18.44-5.11,37.58.62,55.16,5,15.26,18.32,26.18,31.85,34.82a242.08,242.08,0,0,0,68.39,29.93c21.81,5.72,47.21,10.28,58.66,29.7,4.66,7.91,6.21,17.26,8.57,26.19C3610.26,682.8,3605.89,662,3545.39,638.5Z"/><path d="M3545.57,638c-38.11-14.8-59.23-30.18-68.47-49.85-8.58-18.28-6.43-38.77-3.7-64.71,1.7-16.26,3.64-34.69,3.1-55.58-1.87-72.22-20.33-74.84-57.11-80.08-7.22-1-15.39-2.19-24.19-4-6.28-10.62-16.88-7-17.77-6.72a.5.5,0,0,0-.31.22,32.08,32.08,0,0,0-4.91,17.06c-.23,18.66,13,39.41,23,53.39,2.73,3.83,5.66,7.73,8.49,11.5,14,18.61,28.43,37.86,30.32,61.47.59,7.28-.11,14.79-.78,22.06-1,11.07-2.07,22.51,1.42,33.22,5.34,16.37,19.94,27.35,32.06,35.09a241.78,241.78,0,0,0,68.53,30c2.22.59,4.48,1.16,6.75,1.73,20.37,5.15,41.42,10.48,51.61,27.75,3.64,6.18,5.4,13.4,7.09,20.38q.69,2.85,1.42,5.67a.53.53,0,0,0,.43.38h.06a.51.51,0,0,0,.44-.26,20.42,20.42,0,0,0,1.64-17.54C3599.65,665.15,3579.77,651.31,3545.57,638Zm-3.33,3.78c-2.27-.58-4.53-1.15-6.74-1.73a240.92,240.92,0,0,1-68.25-29.86c-12-7.65-26.4-18.49-31.64-34.56-3.43-10.5-2.38-21.84-1.37-32.81.67-7.31,1.37-14.87.77-22.23-1.91-23.9-16.45-43.27-30.51-62-2.83-3.77-5.76-7.67-8.48-11.49-9.9-13.87-23-34.43-22.8-52.79a31,31,0,0,1,4.66-16.38c1.3-.47,10.8-3.48,16.56,6.51a.49.49,0,0,0,.33.25c8.92,1.87,17.19,3,24.48,4.08,36.22,5.16,54.4,7.74,56.24,79.11.54,20.82-1.39,39.21-3.1,55.44-2.74,26.1-4.9,46.72,3.8,65.25,9.36,19.93,30.64,35.46,69,50.36a242.86,242.86,0,0,1,29.31,13.4C3564.79,647.51,3553.41,644.63,3542.24,641.81Zm60.52,53.26c-.37-1.46-.73-2.93-1.09-4.4-1.71-7-3.48-14.34-7.2-20.66a42.2,42.2,0,0,0-12.07-13c11.49,7.42,18.63,14.91,21.33,22.44A19.26,19.26,0,0,1,3602.76,695.07Z"/></g><path class="cls-29" d="M3390.84,395l-.32-.2c-1.36.09-2.14.2-2.14.2Z"/><path class="cls-29" d="M3390.52,394.8l.32.2h-2.46s.78-.11,2.14-.2c-4.13-2.62-47.52-29.53-76.61-25.21-30.58,4.53-77.68,15.78-89.46,68.49s153.11,128.61,153.11,128.61,52.77-.93,63.54-91.12C3450.68,395.32,3401.49,394.09,3390.52,394.8Z"/><path class="cls-30" d="M2898,728.38c-20.25-14-63.5,28.49-91,59.63-14.59,16.49-24.76,29.8-24.76,29.8l77.27,3.42s6.08-6.25,13.85-15.62C2891.78,783.36,2919.78,743.51,2898,728.38Z"/><path class="cls-31" d="M2782.16,817.81l77.27,3.42s6.08-6.25,13.85-15.62c-8.1-4.21-29.66-14-66.36-17.6C2792.33,804.5,2782.16,817.81,2782.16,817.81Z"/><path class="cls-32" d="M3366.67,638.47C3326.19,648.8,3272,675.58,3211,739.68,3080.09,877.21,3021.15,943,3021.15,943l189.52,201.82s265.64-229.3,286.69-391.44C3506.89,680,3438.39,620.18,3366.67,638.47Z"/><path class="cls-30" d="M2782.16,809.87s-91.19,15.07-126.51,72.84c-48.71,79.68,26.73,123.81,26.73,123.81l231.67,121,139.12,72.64,47.55-216.07-62.12-34Z"/><polygon class="cls-32" points="2749.59 1058.11 2986.8 1128.6 3100.72 961.03 2879.67 852.7 2749.59 1058.11"/><g class="cls-6"><polygon points="3034.29 928.48 2878.72 1104.16 3053.17 1200.13 2942.39 1090.32 3034.29 928.48"/><path d="M2943.1,1090.22l91.69-161.46a.57.57,0,0,0-.17-.74.56.56,0,0,0-.75.09l-155.58,175.68a.57.57,0,0,0-.13.47.56.56,0,0,0,.28.4l174.46,96a.52.52,0,0,0,.27.07.58.58,0,0,0,.45-.22.56.56,0,0,0,0-.74ZM2879.61,1104,3031.13,932.9,2941.9,1090a.56.56,0,0,0,.1.68l107.9,107Z"/></g><path class="cls-30" d="M2698.72,1393.25c-.87,28.59,51.56,29.85,82.68,28.08,13.09-.73,22.39-2,22.39-2l46.52-69.1s-18,.29-41.67,2.36C2764.05,1356.5,2699.53,1366.73,2698.72,1393.25Z"/><path class="cls-31" d="M2781.4,1421.33c13.09-.73,22.39-2,22.39-2l46.52-69.1s-18,.29-41.67,2.36C2788.22,1386.65,2782.94,1411.62,2781.4,1421.33Z"/><ellipse class="cls-33" cx="3175.85" cy="2626.89" rx="714.7" ry="83.93"/><path class="cls-30" d="M3056.94,2472.51c-19.67-100.12-68-293-68-293L2778.19,2165l-4.54,315.38s-184.84,73.95-203.93,87.87-35.54,61-19.19,67.21,490.63,25.2,509.18,14.49c4-2.29,5.52-66.14,5.43-123.71C3065.12,2517.57,3062,2498.05,3056.94,2472.51Z"/><path class="cls-34" d="M2668.79,2523.41c-45.35,19-90.15,38.39-99.09,44.88-19,13.92-35.53,61-19.2,67.23s490.65,25.19,509.2,14.46c3.78-2.14,5.31-58.63,5.42-113.12C2519.56,2609.19,2611.72,2549,2668.79,2523.41Z"/><path class="cls-31" d="M2778.19,2165l-4.54,315.38,283.29-7.91c-19.67-100.12-20.2-296.35-20.2-296.35Z"/><path class="cls-30" d="M3784.39,2450.86c-28.76-97.89-94.48-285.53-94.48-285.53l-211.24,4.86L3503,2484.67s-177.3,90.55-195,106.16-29.82,64-13,68.68,490.88-19.81,508.37-32.16c3.81-2.66-.56-66.38-5.91-123.69C3796.65,2495,3791.72,2475.84,3784.39,2450.86Z"/><path class="cls-35" d="M3402.52,2537.07c-43.42,23-86.26,46.48-94.57,53.76-17.63,15.59-29.8,64-13,68.71s490.9-19.82,508.39-32.21c3.57-2.47-.07-58.86-4.95-113.14C3261.76,2636.15,3348,2567.74,3402.52,2537.07Z"/><path class="cls-31" d="M3478.67,2170.19,3503,2484.67l281.38-33.81c-28.76-97.89-47.24-293.26-47.24-293.26Z"/><polygon class="cls-36" points="3470.37 1181.3 3137.1 1577.84 3324.29 2127.92 3432.78 2446.7 3814.89 2433.05 3544.43 1450.37 3470.37 1181.3"/><path class="cls-7" d="M3456.82,658.94l-100.08-48.52-139.5,48.52S3105,733.25,3083.8,828.77s86.65,250.2,86.65,250.2,36.79,2.78,85.8,4.58c37.87,1.39,83,2.18,124.14.65,23.53-.86,45.75-2.51,64.52-5.23C3582.9,762.05,3456.82,658.94,3456.82,658.94Z"/><g class="cls-9"><polygon points="3137.1 1577.84 3324.29 2127.92 3544.43 1450.37 3470.37 1181.3 3137.1 1577.84"/><path d="M3470.47,1180.8a.52.52,0,0,0-.49.17l-333.27,396.55a.51.51,0,0,0-.09.49l187.19,550.07a.5.5,0,0,0,.48.34h0a.51.51,0,0,0,.48-.34l220.14-677.55a.57.57,0,0,0,0-.29l-74.07-269.08A.5.5,0,0,0,3470.47,1180.8Zm-146.19,945.52L3137.67,1578l332.47-395.59,73.76,268Z"/></g><g class="cls-9"><path d="M3380.39,1084.2,3476,781.75l-219.74,301.8C3294.12,1084.94,3339.27,1085.73,3380.39,1084.2Z"/><path d="M3476.22,781.3a.51.51,0,0,0-.64.15l-219.74,301.81a.49.49,0,0,0,0,.51.51.51,0,0,0,.43.29c27.09,1,52.33,1.48,75.53,1.48,17.4,0,33.65-.28,48.65-.83a.5.5,0,0,0,.46-.36l95.6-302.45A.5.5,0,0,0,3476.22,781.3ZM3380,1083.71c-34.67,1.28-76,1.07-122.8-.63l217.36-298.53Z"/></g><path class="cls-37" d="M3444.91,1079H3170.45l-499.63,1351.8,443.53,40.95S3523.76,1455,3507.83,1357.21,3444.91,1079,3444.91,1079Z"/><path class="cls-30" d="M3214.05,532.61c3.78,33.47,53,21.57,53,21.57l-19.7-53.69S3210.28,499.15,3214.05,532.61Z"/><path class="cls-31" d="M3228.14,532.63l4.93-.9a7.9,7.9,0,0,0-2-1.77,9.63,9.63,0,0,0-2.1-1c-.31-.11-.63-.2-.95-.28a9.67,9.67,0,0,1,.12,1.31A23.51,23.51,0,0,1,3228.14,532.63Z"/><path class="cls-31" d="M3232.44,525.22a8.69,8.69,0,0,0-3.17-2.93,7.11,7.11,0,0,0-4-.86c.68,1.23,1.21,2.28,1.64,3.28a16.39,16.39,0,0,1,.93,2.77c.1.41.17.8.23,1.19.32.08.64.17.95.28a9.63,9.63,0,0,1,2.1,1,7.9,7.9,0,0,1,2,1.77l-4.93.9a23.51,23.51,0,0,0,0-2.65,9.67,9.67,0,0,0-.12-1.31c-.41-.1-.83-.18-1.25-.24a8.64,8.64,0,0,0-2.33,0,41.53,41.53,0,0,0,2.36,3.59c.37.53.74,1,1,1.5a7.11,7.11,0,0,1,.67,1.23l2.74,7,2.2-7.86a13.3,13.3,0,0,0,.46-2.12,9.77,9.77,0,0,0,0-2.23A9.25,9.25,0,0,0,3232.44,525.22Z"/><path class="cls-30" d="M3289.68,589.8l1.17,33.94c.62,18-7.42,17.35-10,38l-.27,2.36c18-.62,76.17-24.53,75.55-42.55l-1.16-34Z"/><path class="cls-31" d="M3289.68,589.8l1.09,31.77c10.62.33,46.65-.31,64.57-22.52l-.39-11.5Z"/><path class="cls-30" d="M3328.92,405.88c-74.77-6.88-94.73,33.35-94.73,33.35s-34.92,164.62,69.34,164.18,90.77-117.9,90.77-117.9S3403.69,412.75,3328.92,405.88Z"/><path class="cls-30" d="M3429.78,506.58c-9.1-12.36-28.94-16.06-41.09-6.22-2.45,2-5.77,5.33-6.53,8.57,0,0-5,21.44,4.11,35.56,10,4.12,22,7,32.49,2.77,9.61-3.84,15.24-13.31,15.73-23.42a29.52,29.52,0,0,0-2.29-13.06A21.4,21.4,0,0,0,3429.78,506.58Z"/><path class="cls-31" d="M3392,523.46l4.11,2.94a16.18,16.18,0,0,1,2-4.79c-.51.08-1,.17-1.53.29A20.33,20.33,0,0,0,3392,523.46Z"/><path class="cls-31" d="M3402.34,517.05a37,37,0,0,1,5.31-3.45c1.94-1.05,4-2,6.18-3a19.58,19.58,0,0,0-7.2-.15,21.69,21.69,0,0,0-7.06,2.35,17.62,17.62,0,0,0-5.91,5.16,16.7,16.7,0,0,0-3,7.42l-1,6.23,5.08-3.29a22.59,22.59,0,0,1,3.34-1.7c1.22-.54,2.52-1,3.83-1.53l4-1.51c1.35-.52,2.72-1.07,4.1-1.68a28.07,28.07,0,0,0-4.44-.62,35.09,35.09,0,0,0-4.47,0c-1,.07-2,.18-3,.33a16.18,16.18,0,0,0-2,4.79l-4.11-2.94a20.33,20.33,0,0,1,4.6-1.56c.51-.12,1-.21,1.53-.29l.21-.34A19.17,19.17,0,0,1,3402.34,517.05Z"/><path class="cls-38" d="M3268,541.94l.63-2.19-2.37.28Z"/><path class="cls-38" d="M3276.8,538.92c-1.76.17-3.53.3-5.29.51l-2.9.32-.63,2.19-1.74-1.91,2.37-.28,1.12-3.92,1.64-6.14c1.07-4.1,2.1-8.2,3-12.34s1.83-8.28,2.63-12.44,1.51-8.36,2.05-12.59c-1.56,4-3,8-4.24,12s-2.52,8.1-3.67,12.18-2.24,8.16-3.28,12.27l-1.5,6.17-1.4,6.2-.53,2.35,2.27-.43c1.74-.33,3.47-.71,5.2-1.06s3.46-.76,5.19-1.14,3.45-.83,5.17-1.24,3.44-.89,5.15-1.4c-1.78,0-3.56.15-5.33.25S3278.56,538.74,3276.8,538.92Z"/><path class="cls-39" d="M3256.84,476.52c-6.66,2.46-10.3,9.23-9.19,12.25s6.57,1.15,13.24-1.31,12-4.6,10.91-7.62S3263.51,474.05,3256.84,476.52Z"/><path class="cls-39" d="M3311.61,476.28c-6.56-2.73-13.83-.24-15.07,2.73s4,5.32,10.59,8.05,11.94,4.8,13.18,1.82S3318.17,479,3311.61,476.28Z"/><path class="cls-40" d="M3263,496.41c-4.35-.4-8.32,4.11-8.87,10.08s2.52,11.14,6.86,11.54,8.32-4.11,8.87-10.08S3267.3,496.81,3263,496.41Z"/><path class="cls-40" d="M3305.54,498.65c-4.35-.4-8.32,4.11-8.87,10.08s2.52,11.14,6.86,11.54,8.32-4.11,8.87-10.08S3309.88,499.05,3305.54,498.65Z"/><path class="cls-41" d="M3323.8,516.31c-7.38,2.73-11.54,9.9-9.28,16s10.07,8.84,17.46,6.11,11.54-9.89,9.28-16S3331.19,513.58,3323.8,516.31Z"/><path class="cls-41" d="M3246.38,521.62c-4.05,2.36-5,8.26-2.15,13.16s8.47,7,12.53,4.59,5-8.26,2.15-13.16S3250.43,519.25,3246.38,521.62Z"/><path class="cls-27" d="M2886.08,504.33l-93.49,417.19a.77.77,0,0,0,.59.92,36.4,36.4,0,0,0,43.44-27.53l85.5-381.57a42.84,42.84,0,0,1,51.17-32.44l17.79,4L2996,463.1l-33.12-7.42A64.26,64.26,0,0,0,2886.08,504.33Z"/><path class="cls-42" d="M2909.67,509.62l-91.79,409.6a36.27,36.27,0,0,0,18.74-24.31l85.5-381.57a42.84,42.84,0,0,1,51.17-32.44l17.79,4L2996,463.1l-9.53-2.14A64.26,64.26,0,0,0,2909.67,509.62Z"/><path class="cls-43" d="M2995.94,421.47q-7,17-14.81,38.31-3.71,10.11-7.58,21.17-7.86,22.46-16.35,48.59-2.25,6.93-4.54,14.11C2907.06,686.5,2850.12,901,2794.8,1144.26q-4.11,18-8.18,36.21C2736.18,1405.6,2697,1611.35,2674,1763.74c-14.89,99-22.92,175.44-22.7,220.1q0,3.71.1,7.09l34.42,7.71c1-2,2.06-4.14,3.12-6.36,19.25-40.3,44.61-112.87,73.39-208.74,44.29-147.62,96.64-350.42,147.08-575.54q4.08-18.21,8.06-36.24C2971.27,928.26,3011.3,710,3031,561.41c3.17-23.78,5.8-45.78,7.89-65.82q1.22-11.64,2.19-22.38c1.36-15.07,2.34-28.78,3-41a52.21,52.21,0,0,0-48.11-10.69Z"/><path class="cls-44" d="M3044.05,432.16a52.21,52.21,0,0,0-48.11-10.69c-14.24,4.18-27,15.18-35.94,33.57a113.52,113.52,0,0,0-7.63,21.16q-.55,2.16-1,4.41-.6,2.65-1.08,5.29l0,.14c-3.91,21.18-2.75,41.37,2.45,57.61.26.84.54,1.66.83,2.46,6.26,17.74,17.52,30.35,32.31,33.66a36.14,36.14,0,0,0,16.67-.26c10-2.42,19.84-8.76,28.55-18.1,11.37-12.11,20.87-29.26,26.48-49.37V512c.65-2.35,1.26-4.74,1.81-7.17.33-1.5.65-3,.91-4.44a112.18,112.18,0,0,0,2.14-22.39C3062.15,457.46,3055.22,442,3044.05,432.16Z"/><polygon class="cls-34" points="2950.24 485.9 2950.21 486.05 2807.53 1058.11 2803.82 1072.98 2800.41 1086.62 2793.61 1113.89 2790.2 1127.55 2786.5 1142.4 2925.81 1173.62 2928.81 1158.61 2931.54 1144.8 2937.04 1117.23 2939.79 1103.45 2942.77 1088.42 3057.5 512.04 3057.51 511.98 3059.84 500.28 2952.65 476.26 2950.24 485.9"/><rect class="cls-45" x="2164.59" y="1123.37" width="1363.22" height="55.11" transform="translate(1100.77 3676.58) rotate(-77.37)"/><path class="cls-27" d="M2952.37,476.2l107.87,24.17a112.08,112.08,0,0,0,2.12-22.39L2960,455A112.82,112.82,0,0,0,2952.37,476.2Z"/><polygon class="cls-44" points="2803.82 1072.98 2800.41 1086.62 2793.61 1113.89 2790.2 1127.55 2786.5 1142.4 2925.81 1173.62 2928.81 1158.61 2931.54 1144.8 2937.04 1117.23 2939.79 1103.45 2942.77 1088.42 2807.53 1058.11 2803.82 1072.98"/><polygon class="cls-12" points="2800.41 1086.62 2793.61 1113.89 2790.2 1127.55 2928.81 1158.61 2931.54 1144.8 2937.04 1117.23 2939.79 1103.45 2803.82 1072.98 2800.41 1086.62"/><polygon class="cls-44" points="2793.61 1113.89 2931.54 1144.8 2937.04 1117.23 2800.41 1086.62 2793.61 1113.89"/><path class="cls-46" d="M2651.34,1983.84q0,3.71.1,7.09l34.42,7.71c1-2,2.06-4.14,3.12-6.36,19.25-40.3,44.61-112.87,73.39-208.74l-88.33-19.8C2659.15,1862.73,2651.12,1939.18,2651.34,1983.84Z"/><path d="M2661.22,2028c4.7,1,11.83-9.51,21-30.14l-27.07-6.07C2654.58,2014.31,2656.53,2026.91,2661.22,2028Z"/><path class="cls-47" d="M2651.44,1990.93l34.42,7.71c1-2,2.06-4.14,3.12-6.36l-37.64-8.44Q2651.34,1987.55,2651.44,1990.93Z"/><path class="cls-31" d="M2974.24,882.69c-6.73-4.66-49.11-14.55-68.44-17s-15.18,20.36,4.13,36.89c71,29.83,85.84,15.65,86.11,15.54l1.12-1.45S2981,887.34,2974.24,882.69Z"/><path class="cls-31" d="M2875.17,902.68c-18-7.57-20.11,15.49-6,36.63,60.29,47.93,78.41,38.3,78.69,38.26l1.48-1.09s-7.64-32.64-12.86-39S2893.13,910.24,2875.17,902.68Z"/><path class="cls-31" d="M2832.88,948.3c-18-7.57-20.12,15.49-6,36.63,60.29,47.94,78.41,38.3,78.69,38.27l1.47-1.1s-7.64-32.64-12.86-38.94S2850.83,955.86,2832.88,948.3Z"/><path class="cls-30" d="M2963.12,850.29c-27-17-57.46-28.24-88.07-36.75-80.32-22.32-105-15.75-164.32,77.63-15.71,24.73-29.09,47.57-51.33,85.54-1.09,1.87-2.19,3.74-3.31,5.64l.6.35c36.22,21.38,187.54,7.81,187.54,7.81s2.32,2,6.22,5.11c16.86,13.37,63.08,47.25,78.33,29,18.79-22.46-46.8-74.56-44.2-79.8,1.09-2.2,41.45,27.34,46.51,29.84a38.21,38.21,0,0,0,14.93,4.26c13.94.66,26.87-6.38,32.86-19.2,6.18-13.22-6-24.59-16-31.32-15.92-10.7-33-19.69-49-30.46-.38-.25-.77-.51-1.16-.79-1.05-.71-10.41-6.38-8.84-8.4s16.92,6.54,18.62,7.35c12.18,5.74,24.38,11.46,37.06,16,9,3.28,18.57,7.35,28.43,7.45,12.54.11,20.46-9.49,18-22.05C3002.06,876.62,2979.82,860.78,2963.12,850.29Z"/><path class="cls-31" d="M2750.47,1489.61c-10.56,18.79-29.64,63-29.93,72.07s15.19,42.77,15.19,42.77l2,0c.27-.17,22.65-4,42.83-86.85C2778.57,1489.5,2761,1470.81,2750.47,1489.61Z"/><path class="cls-31" d="M2803.51,1486.67c-5.08,20.95-11.48,68.68-9.31,77.48s26.2,37.06,26.2,37.06l1.94-.59c.22-.23,20.71-10,17.72-95.2C2830.53,1479,2808.59,1465.71,2803.51,1486.67Z"/><path class="cls-31" d="M2871.93,1479c-5.08,21-11.48,68.69-9.3,77.48s26.19,37.07,26.19,37.07l1.95-.59c.21-.23,20.71-10,17.72-95.2C2899,1471.33,2877,1458.09,2871.93,1479Z"/><path class="cls-30" d="M2901.45,1332.75c-122.13-8.63-144.21,9-177.19,95.17-12.56,32.84-22.56,67.36-25.23,102.55-1.65,21.76-2.19,52,13.78,69.34,9.59,10.42,23.34,9.68,31.49-1.55,6.39-8.84,9-20,12.08-30.2,4.26-14.29,7.2-28.92,10.1-43.53.4-2,2.77-21.35,5.71-21.41s1.72,12,1.65,13.4c0,.52,0,1-.05,1.55-.9,21.26-4.14,42.39-5.09,63.6-.6,13.33,1.52,31.62,17.35,34.82,15.36,3.11,30.12-3.77,38.7-16.61a42.19,42.19,0,0,0,6-16.09c1.1-6.15,1.36-61.5,4-61,6.38,1.14,9.59,93.78,41.94,91.84,26.25-1.57,26.52-65,25.71-88.8-.2-5.51-.45-8.9-.45-8.9s111.63-125.73,116.43-172c0-.26.05-.5.08-.76l-7.19-.77C2962.92,1338.16,2933.79,1335.05,2901.45,1332.75Z"/><polygon class="cls-30" points="3026.97 1036.19 2762.99 1357.56 2915.12 1501.77 3201.36 1166.23 3242.58 1117.91 3060.32 995.59 3026.97 1036.19"/><path class="cls-7" d="M3346.56,652.36c-38.83,15.42-89.15,48.92-141.45,120.31-112.21,153.15-438.73,517.5-438.73,517.5l213.8,175.89s510.58-553,510.7-716.49C3490.94,675.56,3415.34,625,3346.56,652.36Z"/><path class="cls-12" d="M3270.65,1199.58l-24.48,71q-24.32,71.07-48.44,142.2c-16.13,47.4-32,94.89-48,142.33L3102,1697.58l-47.33,142.57c-15.65,47.57-31.42,95.09-47,142.7l-23.34,71.39-23.21,71.44-23,71.5-11.5,35.76-11.38,35.79,12.36-35.47,12.25-35.5,24.48-71,24.29-71.08,24.16-71.12c16.13-47.41,32-94.89,48-142.34l47.67-142.46,47.31-142.57c15.66-47.57,31.42-95.09,47-142.7s31.09-95.2,46.54-142.83l23-71.5,11.5-35.75,11.39-35.8-12.37,35.47Z"/><path class="cls-12" d="M3531.34,2020.9l-18.91-74L3493.16,1873c-6.54-24.6-13-49.23-19.64-73.79-13.21-49.16-26.66-98.26-40.76-147.19,11.34,49.64,23.35,99.11,35.58,148.53,6,24.72,12.35,49.38,18.53,74.07l18.9,74,19.26,73.88c6.54,24.6,13,49.23,19.64,73.79,13.21,49.16,26.66,98.26,40.76,147.19-11.33-49.64-23.33-99.12-35.56-148.53C3543.81,2070.25,3537.51,2045.59,3531.34,2020.9Z"/><path class="cls-12" d="M3108.46,2328.21l-21.75-4.56q-21.78-4.43-43.58-8.71c-14.52-2.9-29.08-5.62-43.62-8.42l-43.68-8.14-43.72-7.89c-14.6-2.54-29.17-5.16-43.78-7.61s-29.21-4.92-43.83-7.31l-21.95-3.47-11-1.73-11-1.64,10.85,2.37,10.88,2.27,21.75,4.55q21.78,4.44,43.57,8.72c14.53,2.89,29.09,5.61,43.63,8.42l43.67,8.15,43.73,7.89c14.59,2.53,29.17,5.16,43.77,7.61s29.21,4.92,43.83,7.31l21.95,3.47,11,1.72,11,1.64-10.86-2.37Z"/><path class="cls-12" d="M3632.26,2325.92l-39.92,1.71-39.92,2c-13.3.74-26.61,1.41-39.9,2.25-26.6,1.58-53.19,3.34-79.76,5.58,26.66-.21,53.3-.9,79.93-1.77,13.32-.38,26.63-1,39.94-1.43l39.93-1.7,39.92-2c13.3-.75,26.61-1.4,39.9-2.24,26.6-1.59,53.19-3.35,79.76-5.6-26.66.21-53.3.9-79.93,1.76C3658.89,2324.88,3645.58,2325.45,3632.26,2325.92Z"/><path class="cls-29" d="M3339,378.58c-75.31,3.36-66.8,51.16-66.8,51.16C3372.47,474.84,3414.34,375.21,3339,378.58Z"/><path class="cls-29" d="M3374.78,405c-11.9-7.74-70.24,18.9-70.24,18.9s9,29.47,39.63,28.34c15.31,7.37,47.43,47.79,46.67,63,4.71-18.8,20.78-20.13,20.22-40.15S3386.68,412.75,3374.78,405Z"/><path class="cls-29" d="M3227.78,423.91c-11.54,18.7,0,82.09,0,82.09s17.2-62.82,32.78-71.32c19.54-.57,23.36-15.3,23.36-15.3L3300.3,395S3239.31,405.2,3227.78,423.91Z"/><path class="cls-48" d="M3285.88,552.14a17.57,17.57,0,0,1-6.84-1.24,58.3,58.3,0,0,1-7.1-3.27,16.68,16.68,0,0,0,5.68,6.07,14.44,14.44,0,0,0,8.44,2.43,12.35,12.35,0,0,0,8.15-3.62,15.31,15.31,0,0,0,4.13-7.27,45.3,45.3,0,0,1-6.08,4.81A13.18,13.18,0,0,1,3285.88,552.14Z"/></g></svg>