<svg id="Layer_2" data-name="Layer 2" xmlns="http://www.w3.org/2000/svg" xmlns:xlink="http://www.w3.org/1999/xlink" viewBox="0 0 2500 2500"><defs><style>.cls-1,.cls-11,.cls-47,.cls-78{opacity:0.4;}.cls-1{fill:url(#linear-gradient);}.cls-2{fill:url(#linear-gradient-2);}.cls-3{fill:url(#linear-gradient-3);}.cls-4{opacity:0.7;}.cls-5{fill:#c0ffff;}.cls-6{fill:#fff;}.cls-7{fill:url(#linear-gradient-4);}.cls-8{fill:url(#linear-gradient-5);}.cls-9{fill:url(#linear-gradient-6);}.cls-10{fill:url(#linear-gradient-7);}.cls-11{fill:url(#linear-gradient-8);}.cls-12{fill:url(#linear-gradient-9);}.cls-13{fill:url(#linear-gradient-10);}.cls-14{fill:#152e51;}.cls-15{fill:url(#linear-gradient-11);}.cls-16{fill:url(#linear-gradient-12);}.cls-17{fill:url(#linear-gradient-13);}.cls-18{fill:url(#linear-gradient-14);}.cls-19{fill:url(#linear-gradient-15);}.cls-20{fill:url(#linear-gradient-16);}.cls-21{fill:url(#linear-gradient-17);}.cls-22{fill:url(#linear-gradient-18);}.cls-23{fill:url(#linear-gradient-19);}.cls-24{fill:url(#linear-gradient-20);}.cls-25{fill:url(#linear-gradient-21);}.cls-26{fill:url(#linear-gradient-22);}.cls-27{fill:url(#linear-gradient-23);}.cls-28{fill:url(#linear-gradient-24);}.cls-29{fill:url(#linear-gradient-25);}.cls-30{fill:url(#linear-gradient-26);}.cls-31{fill:url(#linear-gradient-27);}.cls-32{fill:url(#linear-gradient-28);}.cls-33{fill:url(#linear-gradient-29);}.cls-34{fill:url(#linear-gradient-30);}.cls-35{fill:url(#linear-gradient-31);}.cls-36{fill:url(#linear-gradient-32);}.cls-37{fill:url(#linear-gradient-33);}.cls-38{fill:url(#linear-gradient-34);}.cls-39{fill:url(#linear-gradient-35);}.cls-40{fill:url(#linear-gradient-36);}.cls-41{fill:url(#linear-gradient-37);}.cls-42{fill:url(#linear-gradient-38);}.cls-43{fill:url(#linear-gradient-39);}.cls-44{fill:url(#linear-gradient-40);}.cls-45{fill:url(#linear-gradient-41);}.cls-46,.cls-56{fill:#c14276;}.cls-46{opacity:0.43;}.cls-47,.cls-76{fill:#191e3a;}.cls-48{fill:url(#linear-gradient-42);}.cls-49{fill:url(#linear-gradient-43);}.cls-50{fill:#b1d4dd;}.cls-51{fill:url(#linear-gradient-44);}.cls-52{fill:url(#linear-gradient-45);}.cls-53{opacity:0.63;fill:url(#linear-gradient-46);}.cls-54{fill:#9b1c2b;}.cls-55{opacity:0.65;}.cls-57{fill:#121738;}.cls-58{fill:url(#linear-gradient-47);}.cls-59{fill:#c12540;}.cls-60{fill:url(#linear-gradient-48);}.cls-61{fill:url(#linear-gradient-49);}.cls-62{fill:url(#linear-gradient-50);}.cls-63{fill:url(#linear-gradient-51);}.cls-64{fill:url(#linear-gradient-52);}.cls-65{fill:url(#linear-gradient-53);}.cls-66{fill:url(#linear-gradient-54);}.cls-67{fill:#8e0e1e;}.cls-68{fill:#c11633;}.cls-69{fill:#181d59;}.cls-70{fill:#231f20;}.cls-71{opacity:0.8;}.cls-72{fill:#323a7b;}.cls-72,.cls-76{opacity:0.6;}.cls-73{fill:#d4f5ff;}.cls-73,.cls-77{opacity:0.3;}.cls-74{fill:url(#linear-gradient-55);}.cls-75{fill:url(#linear-gradient-56);}.cls-77,.cls-78{fill:#e0b0ff;}.cls-79{fill:url(#linear-gradient-57);}.cls-80{fill:url(#linear-gradient-58);}.cls-81{fill:url(#linear-gradient-59);}.cls-82{fill:url(#linear-gradient-60);}.cls-83{fill:url(#linear-gradient-61);}.cls-84{fill:url(#linear-gradient-62);}.cls-85{fill:url(#linear-gradient-63);}</style><linearGradient id="linear-gradient" x1="1289.12" y1="230.03" x2="1289.12" y2="2148.87" gradientUnits="userSpaceOnUse"><stop offset="0" stop-color="#c2f4ff"/><stop offset="0.98" stop-color="#f0f6bd" stop-opacity="0.6"/></linearGradient><linearGradient id="linear-gradient-2" x1="182.76" y1="1686.88" x2="576.77" y2="1686.88" gradientUnits="userSpaceOnUse"><stop offset="0" stop-color="#03dde0"/><stop offset="0.16" stop-color="#03cce0"/><stop offset="0.72" stop-color="#1996f2"/><stop offset="0.98" stop-color="#1965f2"/><stop offset="1" stop-color="#1965f2"/></linearGradient><linearGradient id="linear-gradient-3" x1="135.75" y1="2014.55" x2="518.06" y2="2014.55" xlink:href="#linear-gradient-2"/><linearGradient id="linear-gradient-4" x1="94.56" y1="1856.82" x2="518.06" y2="1856.82" xlink:href="#linear-gradient-2"/><linearGradient id="linear-gradient-5" x1="2106.53" y1="1526.03" x2="2106.53" y2="2438.48" xlink:href="#linear-gradient-2"/><linearGradient id="linear-gradient-6" x1="2136.38" y1="1293.18" x2="2136.38" y2="2527" xlink:href="#linear-gradient-2"/><linearGradient id="linear-gradient-7" x1="2156.91" y1="1452.5" x2="2156.91" y2="2169.44" xlink:href="#linear-gradient-2"/><linearGradient id="linear-gradient-8" x1="1547.46" y1="230.03" x2="1547.46" y2="2148.87" xlink:href="#linear-gradient"/><linearGradient id="linear-gradient-9" x1="726.05" y1="387.82" x2="726.05" y2="1295.36" gradientUnits="userSpaceOnUse"><stop offset="0.12" stop-color="#bf7aed"/><stop offset="1" stop-color="#593dc2"/></linearGradient><linearGradient id="linear-gradient-10" x1="1653.87" y1="1024.79" x2="1136.08" y2="1024.79" gradientUnits="userSpaceOnUse"><stop offset="0" stop-color="#ef72a6"/><stop offset="0.61" stop-color="#ffbd9f"/></linearGradient><linearGradient id="linear-gradient-11" x1="1547" y1="1087.14" x2="1547" y2="935.97" gradientUnits="userSpaceOnUse"><stop offset="0.02" stop-color="#fff"/><stop offset="1" stop-color="#ceede0"/></linearGradient><linearGradient id="linear-gradient-12" x1="1598.14" y1="1130.03" x2="1598.14" y2="672.57" xlink:href="#linear-gradient-11"/><linearGradient id="linear-gradient-13" x1="1625.53" y1="918.63" x2="1625.53" y2="1415.74" xlink:href="#linear-gradient-11"/><linearGradient id="linear-gradient-14" x1="1360.23" y1="1190.54" x2="1360.23" y2="991.53" xlink:href="#linear-gradient-11"/><linearGradient id="linear-gradient-15" x1="1408.05" y1="1082.8" x2="1408.05" y2="1138.64" xlink:href="#linear-gradient-11"/><linearGradient id="linear-gradient-16" x1="1309.96" y1="910.71" x2="1309.96" y2="1094.48" xlink:href="#linear-gradient-11"/><linearGradient id="linear-gradient-17" x1="1677.87" y1="1181.81" x2="1301.35" y2="1181.81" xlink:href="#linear-gradient-10"/><linearGradient id="linear-gradient-18" x1="1584.32" y1="1158.37" x2="1584.32" y2="1492.81" xlink:href="#linear-gradient-11"/><linearGradient id="linear-gradient-19" x1="1454.59" y1="1166.54" x2="1454.59" y2="1526.5" xlink:href="#linear-gradient-11"/><linearGradient id="linear-gradient-20" x1="1126.08" y1="1525.71" x2="1376.67" y2="1525.71" xlink:href="#linear-gradient-11"/><linearGradient id="linear-gradient-21" x1="1584.7" y1="1173.69" x2="1584.7" y2="2108.22" xlink:href="#linear-gradient-9"/><linearGradient id="linear-gradient-22" x1="1567.57" y1="1565.64" x2="1982.78" y2="1565.64" xlink:href="#linear-gradient-11"/><linearGradient id="linear-gradient-23" x1="1599.81" y1="994.46" x2="1599.81" y2="1619.13" xlink:href="#linear-gradient-9"/><linearGradient id="linear-gradient-24" x1="1572.59" y1="1588.07" x2="1572.59" y2="1798.61" xlink:href="#linear-gradient-11"/><linearGradient id="linear-gradient-25" x1="975.23" y1="1519.9" x2="975.23" y2="2151.05" gradientUnits="userSpaceOnUse"><stop offset="0.12" stop-color="#704ded"/><stop offset="1" stop-color="#ffcef9"/></linearGradient><linearGradient id="linear-gradient-26" x1="1655.92" y1="1727.58" x2="1154.73" y2="1727.58" xlink:href="#linear-gradient-10"/><linearGradient id="linear-gradient-27" x1="1514.67" y1="1077.69" x2="1514.67" y2="1456.67" xlink:href="#linear-gradient-11"/><linearGradient id="linear-gradient-28" x1="1503.23" y1="1250.29" x2="1503.23" y2="1594.98" xlink:href="#linear-gradient-9"/><linearGradient id="linear-gradient-29" x1="1415.91" y1="1014.37" x2="1415.91" y2="1607.32" xlink:href="#linear-gradient-9"/><linearGradient id="linear-gradient-30" x1="1067.66" y1="1054.2" x2="1067.66" y2="2638.63" xlink:href="#linear-gradient-25"/><linearGradient id="linear-gradient-31" x1="758.21" y1="2070.37" x2="758.21" y2="1453.45" xlink:href="#linear-gradient-25"/><linearGradient id="linear-gradient-32" x1="957.11" y1="904.09" x2="340.21" y2="904.09" xlink:href="#linear-gradient-2"/><linearGradient id="linear-gradient-33" x1="504.07" y1="721.78" x2="504.07" y2="1027.01" xlink:href="#linear-gradient-2"/><linearGradient id="linear-gradient-34" x1="495.23" y1="663.54" x2="969.72" y2="663.54" xlink:href="#linear-gradient-10"/><linearGradient id="linear-gradient-35" x1="980.09" y1="935.44" x2="688.22" y2="935.44" xlink:href="#linear-gradient-2"/><linearGradient id="linear-gradient-36" x1="666.43" y1="779.99" x2="666.43" y2="1278.14" xlink:href="#linear-gradient-2"/><linearGradient id="linear-gradient-37" x1="541.96" y1="784.51" x2="821.15" y2="784.51" xlink:href="#linear-gradient-10"/><linearGradient id="linear-gradient-38" x1="1582.52" y1="1422.88" x2="1582.52" y2="1991.9" xlink:href="#linear-gradient-9"/><linearGradient id="linear-gradient-39" x1="1232.85" y1="1437.18" x2="1232.85" y2="2344.08" gradientUnits="userSpaceOnUse"><stop offset="0" stop-color="#e0deff"/><stop offset="1" stop-color="#9dabe3"/></linearGradient><linearGradient id="linear-gradient-40" x1="1228.25" y1="2574.88" x2="1228.25" y2="1813.73" xlink:href="#linear-gradient-25"/><linearGradient id="linear-gradient-41" x1="1604.69" y1="766.2" x2="1604.69" y2="979.16" xlink:href="#linear-gradient-11"/><linearGradient id="linear-gradient-42" x1="1488.5" y1="1150.2" x2="1488.5" y2="1449.48" xlink:href="#linear-gradient-9"/><linearGradient id="linear-gradient-43" x1="1478.63" y1="1150.2" x2="1478.63" y2="1449.48" xlink:href="#linear-gradient-9"/><linearGradient id="linear-gradient-44" x1="976.12" y1="1398.37" x2="976.12" y2="2840.51" xlink:href="#linear-gradient-25"/><linearGradient id="linear-gradient-45" x1="1278.54" y1="1318.56" x2="1237.69" y2="1814.9" xlink:href="#linear-gradient-39"/><linearGradient id="linear-gradient-46" x1="1228.25" y1="1206.37" x2="1228.25" y2="2039.8" gradientUnits="userSpaceOnUse"><stop offset="0" stop-color="#5635dc" stop-opacity="0"/><stop offset="1" stop-color="#3f2bb2"/></linearGradient><linearGradient id="linear-gradient-47" x1="1315.5" y1="1187.48" x2="1315.5" y2="1108.76" xlink:href="#linear-gradient-11"/><linearGradient id="linear-gradient-48" x1="697.96" y1="980.67" x2="697.96" y2="1264.77" xlink:href="#linear-gradient-11"/><linearGradient id="linear-gradient-49" x1="548.43" y1="1031.22" x2="548.43" y2="1208.94" gradientUnits="userSpaceOnUse"><stop offset="0" stop-color="#ffd715"/><stop offset="1" stop-color="#f7931e"/></linearGradient><linearGradient id="linear-gradient-50" x1="623.19" y1="1031.22" x2="623.19" y2="1208.94" xlink:href="#linear-gradient-49"/><linearGradient id="linear-gradient-51" x1="697.96" y1="1031.22" x2="697.96" y2="1208.94" xlink:href="#linear-gradient-49"/><linearGradient id="linear-gradient-52" x1="772.72" y1="1031.22" x2="772.72" y2="1208.94" xlink:href="#linear-gradient-49"/><linearGradient id="linear-gradient-53" x1="847.49" y1="1031.22" x2="847.49" y2="1208.94" xlink:href="#linear-gradient-49"/><linearGradient id="linear-gradient-54" x1="697.96" y1="959.73" x2="697.96" y2="1146.91" xlink:href="#linear-gradient-11"/><linearGradient id="linear-gradient-55" x1="979.38" y1="424.07" x2="979.38" y2="1711.98" xlink:href="#linear-gradient-11"/><linearGradient id="linear-gradient-56" x1="979.38" y1="383.99" x2="979.38" y2="638.13" xlink:href="#linear-gradient-9"/><linearGradient id="linear-gradient-57" x1="969.75" y1="630.96" x2="969.75" y2="721.94" xlink:href="#linear-gradient-25"/><linearGradient id="linear-gradient-58" x1="969.75" y1="670.54" x2="969.75" y2="761.51" xlink:href="#linear-gradient-25"/><linearGradient id="linear-gradient-59" x1="969.75" y1="710.11" x2="969.75" y2="801.09" xlink:href="#linear-gradient-25"/><linearGradient id="linear-gradient-60" x1="969.75" y1="779.3" x2="969.75" y2="870.28" xlink:href="#linear-gradient-25"/><linearGradient id="linear-gradient-61" x1="1033.32" y1="813.86" x2="1033.32" y2="904.84" xlink:href="#linear-gradient-25"/><linearGradient id="linear-gradient-62" x1="401.28" y1="15.56" x2="401.28" y2="1674.47" xlink:href="#linear-gradient-46"/><linearGradient id="linear-gradient-63" x1="976.74" y1="15.56" x2="976.74" y2="1674.47" xlink:href="#linear-gradient-46"/></defs><path class="cls-1" d="M2141.71,1219.93c-67.95,8.18-128.92,49.29-172.28,102.25,4.1-79.71-50.31-158.84-126.21-183.55s-166.46,7.21-210.08,74.06c-28,42.83-45.45,103.36-95.59,113.44-51.59,10.37-91.24-41.57-133.09-73.47-60.82-46.35-149.38-52.77-216.24-15.66-58.12,32.26-99.94,93.48-164.07,111-66.5,18.18-134.5-16.08-198-42.92s-143-44.95-196.47-1.45c-31.91,25.94-52.73,72.28-93.71,75.74-59.8,5.06-83.58-83.26-140-103.58-39-14-83.36,10.26-105.89,45s-28.38,77.36-33.68,118.43c-10,77.78-20.08,156.6-10,234.37S289.16,1829.3,350.66,1878c61.25,48.47,142.15,62.24,219.29,74.43,488,77.09,983,154.39,1474.14,101,43.18-4.7,87-10.61,126.52-28.64s-157.56-58.93-145.69-100.71c18.16-63.9,159.8-118.91,147.36-184.16-18.59-97.46,82.4-172,131.21-249.93,44.93-71.77,48.53-175.38-22-231.71C2242.76,1227.35,2190.6,1214,2141.71,1219.93Z"/><path class="cls-2" d="M567.17,1816.3c-9.43-13.46-23.67-22.72-38.11-30.57s-29.57-14.72-42.47-24.91c-28-22.1-42.36-57.11-66.43-83.43-23.11-25.26-54.21-41.55-85.13-56.25s-62.77-28.58-89.14-50.4-47-53.33-47-87.56a181.33,181.33,0,0,0-11.15,117c7.09,29.24,21.38,56.18,36.52,82.18a1175,1175,0,0,0,70,106.44l-23-7.7c57.08,75.53,155.07,118,249.22,108.08,20.19-2.14,42.71-8.33,52.15-26.31C580.3,1848.29,576.6,1829.76,567.17,1816.3Z"/><path class="cls-3" d="M295.06,1954c-130.72-43.92-159.31-26.56-159.31-26.56,67.4,112.34,210.38,177.71,210.38,177.71H518.06s-43.76-118.47-52.44-122.56S295.06,1954,295.06,1954Z"/><g class="cls-4"><path class="cls-5" d="M348.17,1627.52q-6.56-3.26-13.14-6.38c-30.92-14.69-62.77-28.58-89.14-50.4s-47-53.33-47-87.56a181.33,181.33,0,0,0-11.15,117c7.09,29.24,21.38,56.18,36.52,82.18q8.79,15.11,18.06,29.94c4.68-5.1,7.8-8.55,7.8-8.55-63.32-82.72-53.62-176.17-53.62-176.17C238.36,1593.92,336.88,1625.84,348.17,1627.52Z"/></g><g class="cls-4"><path class="cls-5" d="M135.75,1927.39c30.14,50.24,75.39,91.07,116.21,120.87-48.83-40-99.87-111.16-99.87-111.16,49-2,142.21,20.68,142.21,20.68l-10-7.4C162.76,1911,135.75,1927.39,135.75,1927.39Z"/></g><path class="cls-6" d="M464.6,2084.06a4.58,4.58,0,0,1-1.58-.28c-2-.74-197.47-74.28-282.59-126a4.5,4.5,0,1,1,4.67-7.69c84.4,51.27,279.12,124.52,281.08,125.25a4.5,4.5,0,0,1-1.58,8.71Z"/><path class="cls-7" d="M248.35,1948.65c-22.32-36.39-34.64-77.84-49.44-117.88-28.37-76.76-66.41-149.51-104.35-222,77.73,41.66,155,85.08,224.7,139.07S451.37,1867,493,1944.8c10.72,20.06,20.12,41.19,23.67,63.66s.8,46.57-11.34,65.81c-10.69,16.94-29.25,29.29-49.46,30.54-19,1.19-38.14-14.61-54.11-23.77-37.82-21.69-75-45.47-106.7-75.6C277.19,1988.52,261.21,1969.62,248.35,1948.65Z"/><path class="cls-8" d="M2109.59,1975.88c191-113.85,241-102.61,241-102.61-13.27,131.74-175.44,231.83-175.44,231.83H1862.44L1966.61,2003l86.81-19.41Z"/><path class="cls-9" d="M2318.06,1577.5c43.53-68.7,68.52-153.09,49.91-232.26a440,440,0,0,1-170.73,112.61c-21.27,7.7-45.5,15.72-55.21,36.14-9.24,19.42-1.6,43-7.69,63.58-9.34,31.61-45.47,44.85-73.12,62.8-55.42,36-83.64,100.79-108.88,161.87-25.73,62.28-51.84,126.28-53.77,193.64a696.5,696.5,0,0,0,190.83-75.53c25.67-14.87,51.13-32.11,67.22-57,11.44-17.71,17.23-40,13.48-60.91-3.23-18.12-12.64-27.54,2.18-42.55,32.88-33.33,68.12-63.62,98.7-99.31A547.77,547.77,0,0,0,2318.06,1577.5Z"/><g class="cls-4"><path class="cls-5" d="M2175.17,2105.1s162.17-100.09,175.44-231.83c0,0-30.73-6.89-135.9,44.89,37.84-10.86,73.22-20.2,95.14-25.86a14.53,14.53,0,0,1,17.5,18.41C2300.89,1995.36,2190,2093.93,2175.17,2105.1Z"/></g><g class="cls-4"><path class="cls-5" d="M2271,1640.54a547.77,547.77,0,0,0,47.08-63c43.53-68.7,68.52-153.09,49.91-232.26a440.24,440.24,0,0,1-156.51,107.16c44.5-11,78.35-25,102-36.86,21.56-10.86,46.36,7.75,41.63,31.43-18.64,93.43-108.9,224.68-151.24,251.66-7.95,5.06-6.82,8.1.77,9.62C2227.41,1686.41,2250.27,1664.71,2271,1640.54Z"/></g><path class="cls-10" d="M2183.1,1964.62c15.63-19,28.55-40.18,44.05-59.34,26.7-33,60.55-59.47,88.82-91.13A357.63,357.63,0,0,0,2405.15,1603c.86-12.15.32-26.17-9.07-33.93-8.52-7-21.55-5.93-31.21-.55s-16.87,14.17-24.26,22.4a327.59,327.59,0,0,1-112.36,80.93c-20.74,9.07-41.19,14.54-63.06,19.48-20.35,4.6-41.76,12.65-53.3,31.21-8.49,13.65-9.92,30.4-15.19,45.58-8.91,25.66-28.49,46.1-48.91,64-62.3,54.65-135.5,126-139.39,214.75-.56,12.89,21.58,38.17,32.61,47.7,11.72,10.12,30.21.31,42-4.3,35.16-13.68,70-28.46,102.91-47.05C2122.4,2022.63,2156.41,1997.12,2183.1,1964.62Z"/><path class="cls-6" d="M1941.37,2003.13a4.5,4.5,0,0,1-2.27-8.39,1510.76,1510.76,0,0,0,304.81-235c67.56-67.73,102.69-116.88,103-117.37a4.5,4.5,0,0,1,7.34,5.21c-.35.5-35.91,50.26-104,118.52a1520.26,1520.26,0,0,1-306.65,236.42A4.54,4.54,0,0,1,1941.37,2003.13Z"/><path class="cls-6" d="M1953.62,1859.86a4.5,4.5,0,0,1-2.85-8c100.83-82.22,194.63-188.75,255.57-263.63,66-81.17,108.75-143.63,109.18-144.25a4.5,4.5,0,0,1,7.43,5.07c-.42.63-43.34,63.4-109.63,144.86-61.2,75.21-155.44,182.22-256.86,264.93A4.47,4.47,0,0,1,1953.62,1859.86Z"/><path class="cls-6" d="M513.61,1859.86A4.45,4.45,0,0,1,511,1859c-1.9-1.36-190.52-137-281.78-253.88a4.5,4.5,0,0,1,7.09-5.54c90.46,115.84,278,250.75,279.93,252.1a4.5,4.5,0,0,1-2.63,8.16Z"/><path class="cls-6" d="M513.62,2048.32a4.37,4.37,0,0,1-1.76-.36c-61-26-127.84-80.77-198.61-162.9-57.89-67.18-105.41-137.68-130.94-175.55l-3.28-4.86a4.5,4.5,0,1,1,7.46-5l3.28,4.86c50.84,75.41,185.87,275.73,325.61,335.2a4.5,4.5,0,0,1-1.76,8.64Z"/><path class="cls-6" d="M2294,1934.65a4.5,4.5,0,0,0-6.73-6c-70.78,79.67-138.81,135.73-262.35,176.43h27.51c41.2-15.14,76.88-32.6,109.42-53.39C2206.88,2022.93,2247.64,1986.83,2294,1934.65Z"/><path class="cls-11" d="M2154.75,1108.37c-21,26.84-45.81,54-79.08,61.43-34.35,7.63-69.75-7.88-98.6-28s-54.34-45.39-85.66-61.43c-65.2-33.41-143.55-21.74-215.25-6.69s-147.44,32.5-216.75,8.79c-45.06-15.42-84-47.4-130.62-56.9-58.5-11.91-118.3,13.78-167.93,47s-94.17,74.57-148,100.42-122.11,33.31-170.52-1.63c-44.39-32-60.85-93.32-50.59-147.1S834.85,923.42,872.89,884c104-107.64,253.93-169.27,403.53-165.82,82.64,1.91,176.67,19.21,238.72-35.4,43.25-38.07,55.56-99.49,84-149.59,54.58-96,172.08-146.56,282.14-137.22s211,71.58,284.14,154.38c57.46,65.07,105.17,145.74,134,227.74,24.91,70.81-25.88,139.31-58.92,199.78A955.55,955.55,0,0,1,2154.75,1108.37Z"/><path class="cls-6" d="M917.66,1733.93a5.87,5.87,0,0,1-2.34-.48,6,6,0,0,1-3.18-7.87c20.79-48.86,54.29-93.11,96.9-128s92.61-58.94,144.62-69.64,107.46-8.3,160.36,6.91,101.16,42.65,139.53,79.34a6,6,0,0,1-8.29,8.68c-75.74-72.42-186.55-104.29-289.19-83.17s-191.87,94.12-232.88,190.55A6,6,0,0,1,917.66,1733.93Z"/><path class="cls-6" d="M2123.79,818.69c-18.59-20.06-39.68-33.32-62.68-39.4-26.32-6.95-54.7-4.52-84.36,7.24-24.51,9.71-49.76,26-73,47-15.44,13.93-30,29.24-44,44-23.77,25-48.35,50.9-77.29,70-54,35.56-120.67,46.21-185.15,56.5s-130.9,20.9-186.51,56l-.2.14q6.2,3.27,12.44,6.45c52.4-31,115.28-41,176.16-50.76,65.73-10.49,133.7-21.34,189.86-58.33,30.09-19.82,55.15-46.2,79.39-71.71,13.91-14.64,28.29-29.78,43.38-43.41,23.23-21,84-68,146.27-51.49,38.75,10.25,73.24,45.26,94.62,96.06,28.73,68.26,30.39,146.11,6.58,215.62q10.23-13.3,20-27a323.81,323.81,0,0,0,7-44.19c4.6-51.57-3.2-103.14-22.56-149.14C2153.37,857.71,2139.56,835.71,2123.79,818.69Z"/><path class="cls-6" d="M2268.74,928.38c4.16-7.46,8.23-15,12.06-22.63-1.15-58.34-12.69-124.66-47.93-183.76a267.26,267.26,0,0,0-94.73-93.49c-41-23.55-85.14-33.55-127.72-28.92-76.86,8.36-138.17,59.7-197.46,109.35-13.63,11.41-27.71,23.21-41.63,34.15-145.4,114.33-334.63,172.56-519.16,159.75-30.93-2.14-62.29-6.26-92.62-10.25-30.63-4-62.3-8.19-93.73-10.36C990.11,877,929,885.47,879.09,908.09A228.38,228.38,0,0,0,827,940.69a266.29,266.29,0,0,0-21.08,38.59C825.5,954.44,852.37,933.37,884,919c48.08-21.78,107.27-29.9,181-24.82,31,2.13,62.54,6.27,93,10.28s62,8.15,93.35,10.33c187.46,13,379.69-46.15,527.41-162.29,14.06-11.06,28.22-22.92,41.91-34.39,57.92-48.5,117.81-98.66,191-106.62,79.39-8.64,164.12,38.24,210.86,116.62C2261.11,792.79,2270.27,866.75,2268.74,928.38Z"/><path class="cls-6" d="M829.29,1535.16c48.24-12,91.63-37.54,133.59-62.23,21.07-12.4,42.86-25.23,64.9-36.11,174.46-86.12,398.46-56.66,544.72,71.63a6,6,0,0,0,7.92-9,484.55,484.55,0,0,0-125.25-79.22,530.95,530.95,0,0,0-291.23-38.3,484.79,484.79,0,0,0-141.47,44.15c-22.44,11.08-44.42,24-65.67,36.52-41.23,24.27-83.86,49.36-130.41,60.93-65.73,16.34-141.42,6.74-225-28.52-45.59-19.23-89.58-44.07-132.12-68.09-24.39-13.77-49.6-28-74.93-41.09-32.74-16.91-77.76-36.44-120.64-31.58q-2.25,6.27-4.12,12.71c41.24-7,86.62,12.68,119.25,29.54,25.13,13,50.25,27.16,74.54,40.87,42.84,24.19,87.13,49.19,133.35,68.7C682.75,1542.34,761,1552.13,829.29,1535.16Z"/><circle class="cls-6" cx="1865.83" cy="479.73" r="29.11"/><circle class="cls-6" cx="1184.38" cy="793.49" r="8.97"/><circle class="cls-6" cx="1823.17" cy="1185.71" r="24.28"/><circle class="cls-6" cx="2035.11" cy="1473.41" r="16.45"/><circle class="cls-6" cx="2188.77" cy="1284.36" r="22.21"/><path class="cls-12" d="M1079.4,455.74H372.68A34.71,34.71,0,0,0,338,490.46V960.4a34.72,34.72,0,0,0,34.72,34.73h74.8c3.08-21,9.07-59,16.6-93.68a45.2,45.2,0,0,1,11.42-21.59,44.68,44.68,0,0,1,12.8-9.4c24.81-12.15,68.7-34.76,100.43-57.41a199,199,0,0,0,23.61-19.27c-4.16-28.34-6.94-48.83-8.53-61-1.15-8.74-1.68-13.2-1.68-13.2-28.9,2.69-33.14-25.28-30.06-45.12-5.87-6.74-13.38-17.31-16.17-29.71-2.53,0-5.23-1.4-7.94-4.92,0,0-11.75,24-18.64,25.15s-14.17-.38-3.71-37.53c-6.12-4.21-13.27-9.32-5.25-19,0,0-7-2.17-9.17-12.64s.13-18.64,21.57-23c-6.76-14.42-8.42-22,11.49-15.57,0,0-5.74-10.47-1.78-25.54s20.17-20.42,25.78-6.25c0,0,1.66-11.75,9.83-19.28s16.22-5.1,19.28,9.7c0,0,1.53-6.51,7.28-16.08s24.76-20.17,30.76-.64c7.92-16.85,40.34-18.38,38.81-6.13,2.55-12.38,23.11-12.51,23.62-5.36a24.8,24.8,0,0,1,14-11.74c10.09-3.32,12.89,4.21,6.78,15,.21-.15,4.84-3.5,15.82-1.14,11.23,2.43-2.94,24.9-2.94,24.9s8-2.56,14-.13,6.39,8.68-1.53,16.08c0,0,12.89.26,10.85,9.45-2,9-14.76,4.24-15.18,4.09.31.3,7.5,7.39.42,10.85,17.46,30.4,14.7,53.77,12.8,69.53-2,17,18.73,47,17,73.19S767.57,771,726,775.06c-6.94.68-15,.08-23.54-1.43,1.68,10.77,4.48,25,7,37.09,10.71,7.41,22.53,15.52,34.4,23.62,22.8,15.55,45.74,31,61.12,41.41l10.58,7.12a24.51,24.51,0,0,1,10.13,14.48c10.24,41.55,30.55,97.78,30.55,97.78h83.59l149.78,154.05L1038,995.13h41.45a34.73,34.73,0,0,0,34.73-34.73V490.46A34.72,34.72,0,0,0,1079.4,455.74Z"/><path class="cls-13" d="M1586.09,1061.92h0c-13.73,63.06-65.68,95-109.65,105.61a136.61,136.61,0,0,1-36.53,4.11c-28.36-1.07-60.91-16.29-84.17-47a173.84,173.84,0,0,0,35.45,2.32l0,.21a7.16,7.16,0,0,0,7.19,6,49.64,49.64,0,0,0,22.45-5.34,8.7,8.7,0,0,0,4.63-8.76l-.37-3.19a8.75,8.75,0,0,0-6.56-7.45c-10.11-2.54-16.48-3.4-20.25-3.63a6.47,6.47,0,0,0-6.62,4.74,29.74,29.74,0,0,0-.84,4.2c-9-.94-27.86-3.33-43.14-8.16a11.73,11.73,0,0,1-7.11-6.19q-3.19-6.83-5.84-14.34a173.86,173.86,0,0,1-7.63-30.8,220.86,220.86,0,0,1-2.09-45.22,39.88,39.88,0,0,0-1.77-13.94,152.12,152.12,0,0,1-4.9-21.25c-3.73-23.51-4.11-59.22,15.13-96,29.15,77.44,121,101.54,175.6,55.63a167.44,167.44,0,0,0,49.61,21.57c.49,19.84,2.39,39.57,2.39,39.57,2.29,15.33,12.54,22.93,24.48,25.45,1.27.27,2.54.47,3.81.61A161,161,0,0,1,1586.09,1061.92Z"/><path class="cls-14" d="M1558.68,939.35c-.14,5-.1,10.35,0,15.71a167.44,167.44,0,0,1-49.61-21.57c-54.58,45.91-146.45,21.81-175.6-55.63-19.24,36.82-18.86,72.53-15.13,96A140.84,140.84,0,0,1,1302,957.63c-40-47.13-20.87-96.58,14.36-114.49-.35-91.57,78.29-111,152.84-111.66,4,0,7.85.08,11.54.34h0c65.16,4.68,83.7,54.46,85.56,90.21,1.46,28.37,7.59,68.44,10.55,86.66A36.66,36.66,0,0,0,1558.68,939.35Z"/><path class="cls-15" d="M1613.26,905.14a33.1,33.1,0,0,0-20.83-2,88,88,0,0,0-9.15,2.6,35.34,35.34,0,0,0-6.43,2.94c-3-18.22-9.09-58.29-10.55-86.66-1.86-35.75-20.4-85.53-85.56-90.21,31.31-5.14,59.79-.61,79.3,4.62a48.24,48.24,0,0,1,34.25,34.75c.42,1.66.84,3.33,1.24,5C1607.72,826.78,1612.19,887.92,1613.26,905.14Z"/><path class="cls-14" d="M1646.37,914.69q-.84,5.55-2,10.93a203.2,203.2,0,0,1-7.23,26.06,107.1,107.1,0,0,0-6.44-28.12,32.94,32.94,0,0,0-17.47-18.42c-1.07-17.22-5.54-78.36-17.73-128.94C1645.2,810.3,1653.65,867.09,1646.37,914.69Z"/><path class="cls-16" d="M1634.64,988.62a42.55,42.55,0,0,1-36.28,32.09l-.22,0a39.41,39.41,0,0,1-8.75,0c-1.27-.14-2.54-.34-3.81-.61-11.94-2.52-22.19-10.12-24.48-25.45,0,0-1.9-19.73-2.39-39.57-.13-5.36-.17-10.72,0-15.71a36.66,36.66,0,0,1,18.17-30.66,35.34,35.34,0,0,1,6.43-2.94,88,88,0,0,1,9.15-2.6,33,33,0,0,1,38.3,20.41,107.1,107.1,0,0,1,6.44,28.12h0A111.64,111.64,0,0,1,1634.64,988.62Z"/><path class="cls-17" d="M1598.36,1020.71a42.55,42.55,0,0,0,36.28-32.09,111.64,111.64,0,0,0,2.53-36.93h0a203.2,203.2,0,0,0,7.23-26.06C1664.87,973.49,1646.68,1017.65,1598.36,1020.71Z"/><path class="cls-14" d="M1689.1,1054.55c-27.86,25.35-70.56,29.5-103,7.38h0a161,161,0,0,0,3.3-41.23,39.41,39.41,0,0,0,8.75,0l.22,0c48.32-3.06,66.51-47.22,46-95.09q1.13-5.37,2-10.93C1737.23,929.14,1722.52,1024.15,1689.1,1054.55Z"/><path class="cls-18" d="M1391.19,1127a173.84,173.84,0,0,1-35.45-2.32,86,86,0,0,1-16.59-4.63,15.83,15.83,0,0,1-9.77-16.58,59.86,59.86,0,0,1,5.38-18.34q2.64,7.5,5.84,14.34a11.73,11.73,0,0,0,7.11,6.19c15.28,4.83,34.12,7.22,43.14,8.16A48.82,48.82,0,0,0,1391.19,1127Z"/><path class="cls-19" d="M1420.86,1127.89a49.64,49.64,0,0,1-22.45,5.34,7.16,7.16,0,0,1-7.19-6l0-.21a48.82,48.82,0,0,1-.34-13.18,29.74,29.74,0,0,1,.84-4.2,6.47,6.47,0,0,1,6.62-4.74c3.77.23,10.14,1.09,20.25,3.63a8.75,8.75,0,0,1,6.56,7.45l.37,3.19A8.7,8.7,0,0,1,1420.86,1127.89Z"/><path class="cls-20" d="M1327.13,1054.31a83.66,83.66,0,0,1-16.55-8.11,19.47,19.47,0,0,1-7-7.5c-6.33-12-19.9-44.85-1.6-81.07a140.84,140.84,0,0,0,16.38,16.27,152.12,152.12,0,0,0,4.9,21.25,39.88,39.88,0,0,1,1.77,13.94A220.86,220.86,0,0,0,1327.13,1054.31Z"/><path class="cls-21" d="M1611.49,1221c-11.74,47.67-62.12,67.77-93.49,75.78a192.9,192.9,0,0,1-25.66,4.9,23.74,23.74,0,0,1-7-7.47c-13.87-22.93,7-68.78,7-68.78a64.9,64.9,0,0,0-.82-11.18c-2.35-15.57-9.3-33.63-15.08-46.72,44-10.66,95.92-42.55,109.65-105.61,5.49,57.78,10.83,95,15.18,118.86C1607.33,1214,1611.49,1221,1611.49,1221Z"/><path class="cls-22" d="M1649.1,1235.42c-6,19.74-18.26,52-43.4,99a66.23,66.23,0,0,1-7.2.34c-15.74.09-53.92-3.58-80.5-37.93,31.37-8,81.75-28.11,93.49-75.78,0,0-4.16-7-10.22-40.22a193.12,193.12,0,0,1,30.37,12.65,35.84,35.84,0,0,1,17.46,42Z"/><path class="cls-23" d="M1485.29,1294.22c-22.3,11.29-39.15,16.08-47.4,18a11.58,11.58,0,0,1-7.06-.62,11.43,11.43,0,0,1-2.75-1.62l-6.91-5.51a11.6,11.6,0,0,1-3-14.5c13.92-26.23,24.71-43.6,34.83-55.26,7.8-9,15.2-14.61,23.33-18.25a82.14,82.14,0,0,1,15.18-2.16,64.9,64.9,0,0,1,.82,11.18S1471.42,1271.29,1485.29,1294.22Z"/><path class="cls-24" d="M1373.7,1699.62a0,0,0,0,1,0,0,399.08,399.08,0,0,0-33.1,43.87c-17.78,8.33-55.71,25-79.06,27.12H1154l-27.88-66.56,120.3-64.16,98-342.9,28.25-16.21-19.91,70.26s-15.13,60-43,154.17a68,68,0,0,0,11.88,61.5l44.06,55.65S1383.56,1647.15,1373.7,1699.62Z"/><path class="cls-25" d="M1746.3,1448.42s60.91,67.65,45.53,208.23c-53,5.51-126.1,16.73-224.26,26.66,1.34,1.29,2.64,2.58,3.88,3.88-13.41.08-27.37-.13-27.37-.13a165.89,165.89,0,0,1,8.92,17.12c-63.49-16.11-106.06-30.15-125-36.76a25.24,25.24,0,0,0-22.85,3.08c-11,7.69-21.64,18-31.5,29.12,9.86-52.47-8-77.24-8-77.24l-44.06-55.65a68,68,0,0,1-11.88-61.5c27.87-94.21,43-154.17,43-154.17l19.91-70.26c21.49-12.33,52.09-29.89,80.34-46.13-10.12,11.66-20.91,29-34.83,55.26a11.6,11.6,0,0,0-.72,9.24c-15.57,25.23-39.85,93.76-39.85,93.76l36.06,36c-31.72,44.66-36.06,54.88-36.06,54.88l85.65,147.41c63.46-112.34,165.59-166.47,165.59-166.47l-31.14-58.13c39.83-23.85,76.07-43,76.07-43l8.91-138.56c28.32,12.19,70.2,30.42,129.71,56.76a131.56,131.56,0,0,1,50,38.83C1779.76,1278.78,1733.2,1414.15,1746.3,1448.42Z"/><path class="cls-26" d="M1970.18,1764.19l-23.76,24.55a44.73,44.73,0,0,1-23.82,12.84c-29,5.5-99.32,17-179.68,17-49,0-101.76-4.27-151.18-16.79a64.59,64.59,0,0,0,2.53-6c6.24-16.62,19-65.08-22.82-108.62-1.24-1.3-2.54-2.59-3.88-3.88,98.16-9.93,171.26-21.15,224.26-26.66,15.38-140.58-45.53-208.23-45.53-208.23-13.1-34.27,33.46-169.64,116.14-127.74a131.52,131.52,0,0,1,16.8,27.73c34.35,76.72,97.23,235.6,103.5,382.77A44.71,44.71,0,0,1,1970.18,1764.19Z"/><path class="cls-27" d="M1682.69,1225.08h0l-8.91,138.56s-36.24,19.13-76.07,43c-29.33,17.55-60.59,37.64-80.79,54.54,46.29-62.24,71.95-108.07,81.58-126.45a66.23,66.23,0,0,0,7.2-.34c25.14-47,37.42-79.22,43.4-99a35.62,35.62,0,0,0-1.8-25.43C1655.37,1213.39,1666.94,1218.3,1682.69,1225.08Z"/><path class="cls-28" d="M1594.27,1795.81c-7.76.9-18.68,2.15-27.87,3.14a5.74,5.74,0,0,1-5.84-8.06,64.82,64.82,0,0,0,4.47-15.47h0c3.44-20.82-1-46.69-12-71.23a165.89,165.89,0,0,0-8.92-17.12s14,.21,27.37.13C1613.26,1730.73,1600.51,1779.19,1594.27,1795.81Z"/><path class="cls-29" d="M1431.74,1770.63v47.94H553.67a35,35,0,0,1-34.95-35v-13Z"/><path class="cls-30" d="M1565,1775.41h0a198.72,198.72,0,0,1-27.76,13.76c-43.57-13.35-68.69-24.88-81.07-31.4a17.75,17.75,0,0,0-19,1.56c-4.8,3.66-10.4,7.85-15,11.29H1324c2.86-5.05,8.7-15.06,16.64-27.12a399.08,399.08,0,0,1,33.1-43.87,0,0,0,0,0,0,0c9.86-11.14,20.52-21.43,31.5-29.12a25.24,25.24,0,0,1,22.85-3.08c18.89,6.61,61.46,20.65,125,36.76C1564,1728.72,1568.47,1754.59,1565,1775.41Z"/><path class="cls-31" d="M1598.5,1334.72c-9.63,18.38-35.29,64.21-81.58,126.45h0l0,0c-14.68,19.74-31.44,41.12-50.42,63.81,0,0-5.54-23.31-12.26-55.59-10.09-48.56-22.85-117.44-23.38-157.86a11.58,11.58,0,0,0,7.06.62c8.25-1.88,25.1-6.67,47.4-18a23.74,23.74,0,0,0,7,7.47,192.9,192.9,0,0,0,25.66-4.9C1544.58,1331.14,1582.76,1334.81,1598.5,1334.72Z"/><path class="cls-32" d="M1628.85,1464.76s-102.13,54.13-165.59,166.47l-85.65-147.41s4.34-10.22,36.06-54.88l40.54,40.48c6.72,32.28,12.26,55.59,12.26,55.59,19-22.69,35.74-44.07,50.42-63.81l0,0h0c20.2-16.9,51.46-37,80.79-54.54Z"/><path class="cls-33" d="M1454.21,1469.42l-40.54-40.48-36.06-36s24.28-68.53,39.85-93.76a11.54,11.54,0,0,0,3.71,5.26l6.91,5.51a11.43,11.43,0,0,0,2.75,1.62C1431.36,1352,1444.12,1420.86,1454.21,1469.42Z"/><polygon class="cls-34" points="1153.96 1770.63 1127.4 1770.63 1103.69 1716.01 981.36 1434.12 1013.02 1434.12 1126.08 1704.07 1153.96 1770.63"/><polygon class="cls-35" points="1127.4 1770.63 518.72 1770.63 389.02 1434.12 981.36 1434.12 1103.69 1716.01 1127.4 1770.63"/><path class="cls-36" d="M558.72,953.66A53.05,53.05,0,0,0,542.88,900c-17.36-15.62-41.76-29.82-67.38-20.17a44.68,44.68,0,0,1,12.8-9.4c24.81-12.15,68.7-34.76,100.43-57.41,82.36,78.82,160.32,62.8,155.14,21.29,22.8,15.55,45.74,31,61.12,41.41l15.42,119.38H552.27A194.76,194.76,0,0,1,558.72,953.66Z"/><path class="cls-37" d="M558.72,953.66a194.76,194.76,0,0,0-6.45,41.47H447.48c3.08-21,9.07-59,16.6-93.68a45.2,45.2,0,0,1,11.42-21.59c25.62-9.65,50,4.55,67.38,20.17A53.05,53.05,0,0,1,558.72,953.66Z"/><path class="cls-14" d="M754.89,540.12c-2,9-14.76,4.24-15.18,4.09.31.3,7.5,7.39.42,10.85a11.3,11.3,0,0,1-1.58.63c-9.83,3.2-22.47-4-22.47-4s6.77,10.85-4.21,16.59a26,26,0,0,1-21.45.9s.77,8.68-7,12.63-28.47-9.7-28.47-9.7,3.83,14.3-4.21,19.41S628.13,589,628.13,589s7.14,14.56,2.29,18.51-16.73-4.52-17.34-4.95c.44.53,8.95,11,.49,15.81a8.15,8.15,0,0,1-3.55,1c-8.57.62-19.55-10-19.55-10s2.8,14.17-3.45,18.51-12.51,4.72-18.38-4.85c1.16,7.72-4.91,21.58-12.74,21.64-2.53,0-5.23-1.4-7.94-4.92,0,0-11.75,24-18.64,25.15s-14.17-.38-3.71-37.53c-6.12-4.21-13.27-9.32-5.25-19,0,0-7-2.17-9.17-12.64s.13-18.64,21.57-23c-6.76-14.42-8.42-22,11.49-15.57,0,0-5.74-10.47-1.78-25.54s20.17-20.42,25.78-6.25c0,0,1.66-11.75,9.83-19.28s16.22-5.1,19.28,9.7c0,0,1.53-6.51,7.28-16.08s24.76-20.17,30.76-.64c7.92-16.85,40.34-18.38,38.81-6.13,2.55-12.38,23.11-12.51,23.62-5.36a24.8,24.8,0,0,1,14-11.74c10.09-3.32,12.89,4.21,6.78,15,.21-.15,4.84-3.5,15.82-1.14,11.23,2.43-2.94,24.9-2.94,24.9s8-2.56,14-.13,6.39,8.68-1.53,16.08C744,530.67,756.93,530.93,754.89,540.12Z"/><path class="cls-38" d="M770,697.78C768.25,724,767.57,771,726,775.06c-6.94.68-15,.08-23.54-1.43-38.89-6.84-88.86-32.32-98.69-40.86-1.15-8.74-1.68-13.2-1.68-13.2-28.9,2.69-33.14-25.28-30.06-45.12,1.19-7.73,3.5-14.22,5.89-17.18,8.51-10.55,30.29,6.13,32,19.4,6.25-23.08,5-45.14.06-57.25a8.15,8.15,0,0,0,3.55-1c8.46-4.85-.05-15.28-.49-15.81.61.43,12.61,8.81,17.34,4.95S628.13,589,628.13,589s14.55,7.66,22.59,2.56,4.21-19.41,4.21-19.41,20.68,13.66,28.47,9.7,7-12.63,7-12.63a26,26,0,0,0,21.45-.9c11-5.74,4.21-16.59,4.21-16.59s12.64,7.15,22.47,4a11.3,11.3,0,0,0,1.58-.63c17.46,30.4,14.7,53.77,12.8,69.53C750.89,641.61,771.66,671.57,770,697.78Z"/><path class="cls-14" d="M610,676.67c-1.71-13.27-23.49-29.95-32-19.4-2.39,3-4.7,9.45-5.89,17.18-5.87-6.74-13.38-17.31-16.17-29.71,7.83-.06,13.9-13.92,12.74-21.64,5.87,9.57,12.12,9.19,18.38,4.85s3.45-18.51,3.45-18.51,11,10.6,19.55,10C615,631.53,616.21,653.59,610,676.67Z"/><path class="cls-39" d="M856.25,995.13H820.41L805,875.75l10.58,7.12a24.51,24.51,0,0,1,10.13,14.48C835.94,938.9,856.25,995.13,856.25,995.13Z"/><path class="cls-40" d="M588.73,813.05a199,199,0,0,0,23.61-19.27,119.63,119.63,0,0,0,88.58,42.48A11.05,11.05,0,0,0,712,822.92c-.77-3.6-1.65-7.76-2.57-12.2,10.71,7.41,22.53,15.52,34.4,23.62C749.05,875.85,671.09,891.87,588.73,813.05Z"/><path class="cls-41" d="M700.92,836.26a119.63,119.63,0,0,1-88.58-42.48c-4.16-28.34-6.94-48.83-8.53-61,9.83,8.54,59.8,34,98.69,40.86,1.68,10.77,4.48,25,7,37.09.92,4.44,1.8,8.6,2.57,12.2A11.05,11.05,0,0,1,700.92,836.26Z"/><path class="cls-42" d="M1431.74,1818.57v-47.94h-9.62c4.63-3.44,10.23-7.63,15-11.29a17.75,17.75,0,0,1,19-1.56c12.38,6.52,37.5,18,81.07,31.4a198.72,198.72,0,0,0,27.76-13.76,64.82,64.82,0,0,1-4.47,15.47,5.74,5.74,0,0,0,5.84,8.06c9.19-1,20.11-2.24,27.87-3.14a64.59,64.59,0,0,1-2.53,6c49.42,12.52,102.17,16.79,151.18,16.79Z"/><rect class="cls-43" x="377.27" y="1818.57" width="1711.15" height="73.59"/><rect class="cls-44" x="456.93" y="1892.16" width="1542.64" height="212.94"/><path class="cls-45" d="M1605.07,919.74c-3.47.41-6.77,1-9.74,1.52a17.43,17.43,0,0,0-14.09,16.62,318.8,318.8,0,0,0,.89,37.52,22.32,22.32,0,0,0,20.65,20.39l.63,0a23.62,23.62,0,0,0,24.9-23.86,192.83,192.83,0,0,0-4.84-39.11A16.85,16.85,0,0,0,1605.07,919.74Z"/><path class="cls-46" d="M1586.09,1061.93c-13.73,63.06-65.68,95-109.65,105.61,2.48,5.6,5.16,12.11,7.61,19,18,16.13,24,17.84,24,17.84,10.21-20.17,14.29-43.92,14.29-43.92,40-16.16,57.86-56.7,65.34-82Q1586.91,1070.48,1586.09,1061.93Z"/><path class="cls-46" d="M1494,1298.12c-18-15-10.73-45.62-10.54-46.39-3.42,14.22-5.06,31.15,1.79,42.49a23.74,23.74,0,0,0,7,7.47,192.9,192.9,0,0,0,25.66-4.9c31.37-8,81.75-28.11,93.49-75.78C1594.64,1283.48,1494,1298.12,1494,1298.12Z"/><path class="cls-47" d="M1612.34,1344.41,1652,1241.1a40.82,40.82,0,0,0,.16-29l0-.11-4.8-2a35.62,35.62,0,0,1,1.8,25.43c-6,19.74-18.26,52-43.4,99a66.23,66.23,0,0,1-7.2.34c-15.74.09-53.92-3.58-80.5-37.93C1534.72,1338.8,1612.34,1344.41,1612.34,1344.41Z"/><path class="cls-47" d="M1453,1234.67l-15.35,8.82c-15.53,24.17-25.23,42-30,51.15a10.88,10.88,0,0,0,1.85,12.58l7.19,7.42a19.84,19.84,0,0,0,22.16,4.37l48.93-21.34a24.24,24.24,0,0,1-2.53-3.45c-22.3,11.29-39.15,16.08-47.4,18a11.58,11.58,0,0,1-7.06-.62,11.43,11.43,0,0,1-2.75-1.62l-6.91-5.51a11.6,11.6,0,0,1-3-14.5C1432.1,1263.7,1442.89,1246.33,1453,1234.67Z"/><path class="cls-6" d="M1490.75,1300.49a2,2,0,0,0-.39.94c-17.92,138.39-23.78,199-25.37,217.22.94,4.09,1.48,6.36,1.48,6.36l2.22-2.67c1.06-12.82,6.38-71.68,25.64-220.4a2,2,0,0,0,0-.49c-1.28.17-2,.24-2,.24Q1491.52,1301.12,1490.75,1300.49Z"/><path class="cls-47" d="M1589,1334.33c-29.48,54.35-119,168.72-119,168.72s-19-62.61-38.63-191.28c-.19-.07-.39-.13-.58-.21.53,40.42,13.29,109.3,23.38,157.86,6.72,32.28,12.26,55.59,12.26,55.59,19-22.69,35.74-44.07,50.42-63.81l0,0h0c46.29-62.24,71.95-108.07,81.58-126.45C1595.91,1334.73,1592.69,1334.64,1589,1334.33Z"/><circle class="cls-48" cx="1488.5" cy="1329.61" r="9.87"/><circle class="cls-49" cx="1478.63" cy="1406.63" r="9.87"/><path class="cls-50" d="M1876.34,1656.08l2.21-6a530,530,0,0,0-84.82-16.81q-.6,11.31-1.9,23.34h0C1829.63,1652.72,1857.21,1651.68,1876.34,1656.08Z"/><path class="cls-50" d="M1373.7,1699.62c9.86-52.47-8-77.24-8-77.24l-44.06-55.65a68,68,0,0,1-11.88-61.5c27.87-94.21,43-154.17,43-154.17l19.91-70.26-3.21,1.84-74.17,243a53.1,53.1,0,0,0,8.91,48.16l28.62,36.72a106.9,106.9,0,0,1,21.93,53.82,534.59,534.59,0,0,1,3.55,54.09c4.82-6.33,10-12.71,15.39-18.83A0,0,0,0,0,1373.7,1699.62Z"/><path class="cls-50" d="M1154,1770.63h107.57c23.35-2.15,61.28-18.79,79.06-27.12a399.08,399.08,0,0,1,33.1-43.87,0,0,0,0,0,0,0c3.27-17.36,3.48-31.67,2.33-43.08-48.07,26.67-134.22,70.37-228.44,98.88Z"/><path class="cls-50" d="M1246.38,1639.91l-14.71,7.84c40.77-3,90.29,5.09,90.29,5.09l2-2.87c-30.21-5.26-58.1-16.44-73.72-23.51Z"/><path class="cls-47" d="M1685.5,1226.29l-2.81-1.2-8.91,138.56s-36.24,19.13-76.07,43c-29.33,17.55-60.59,37.64-80.79,54.54,0,0,82.29-56.79,164.25-81.49C1681.17,1379.68,1684.85,1309.17,1685.5,1226.29Z"/><path class="cls-47" d="M1457,1482.64c-.89-4.2-1.83-8.62-2.79-13.22l-40.54-40.48-36.06-36s24.28-68.53,39.85-93.76c-42.57,69.59-52.78,99.2-52.78,99.2Z"/><path class="cls-47" d="M1609.07,1399.89c-3.73,2.2-7.53,4.44-11.36,6.74l31.14,58.13s-102.13,54.13-165.59,166.47l-85.65-147.41s4.34-10.22,36.06-54.88l-5-5-42.34,56.08c60.94,114.39,98.61,168.86,98.61,168.86,44.37-93.62,180.2-178,180.2-178Z"/><path class="cls-50" d="M1569,1687.2c16.88,27.32,33.56,68.81,23.88,90.83,0,0-6.68,3.34-29.23,3.89a59.87,59.87,0,0,1-3.06,9,5.74,5.74,0,0,0,5.84,8.06c9.19-1,20.11-2.24,27.87-3.14,6.24-16.62,19-65.08-22.82-108.62Z"/><path class="cls-47" d="M1431.74,1770.63v16.82c33.68,11.61,68.9,22,103,31.12h208.15c-49,0-101.76-4.27-151.18-16.79a64.59,64.59,0,0,0,2.53-6c-7.76.9-18.68,2.15-27.87,3.14a5.74,5.74,0,0,1-5.84-8.06,64.82,64.82,0,0,0,4.47-15.47,198.72,198.72,0,0,1-27.76,13.76c-43.57-13.35-68.69-24.88-81.07-31.4a17.75,17.75,0,0,0-19,1.56c-4.8,3.66-10.4,7.85-15,11.29Z"/><path class="cls-46" d="M1565,1775.42h0c3.44-20.82-1-46.69-12-71.23l-8-2c16.61,48.55,15,68.5,15,68.5l-16,6.89a109.32,109.32,0,0,1-10.21-32.68,148,148,0,0,0,3.7,44.22A199.37,199.37,0,0,0,1565,1775.42Z"/><path class="cls-46" d="M1346,1770.63c6-15.69,23.62-39.74,36.81-54.14a1.45,1.45,0,0,0,.31-1.45h0a1.47,1.47,0,0,0-2.43-.57c-6.49,6.57-30.14,31.37-42.13,56.16Z"/><path class="cls-46" d="M1369.56,1770.63c3.33-10.09,10.73-27,19.85-37a1.27,1.27,0,0,0-.45-2h0a1.26,1.26,0,0,0-1.35.24c-3.21,3-18.3,17.77-24.4,38.72Z"/><path class="cls-46" d="M1393.33,1770.63c4-9.81,11.39-25.11,21.37-31.39a1.41,1.41,0,0,0-.08-2.41h0a1.43,1.43,0,0,0-1.16-.12c-6.59,2-19.68,17.68-24.89,33.92Z"/><path class="cls-51" d="M1227.51,1794.6h-707a35,35,0,0,0,33.18,24h878.07v-47.94H1246.89v4.58A19.39,19.39,0,0,1,1227.51,1794.6Z"/><path class="cls-52" d="M2088.42,1892.16v-73.59H1904.6a36.8,36.8,0,0,1-36.8,36.79H377.27v36.8Z"/><path class="cls-53" d="M456.93,1919.22H1628.7a114.22,114.22,0,0,1,114.22,114.23v71.65h256.65V1892.16H456.93Z"/><path class="cls-46" d="M1420.86,1127.89a49.64,49.64,0,0,1-22.45,5.34,7.16,7.16,0,0,1-7.19-6l0-.21a173.84,173.84,0,0,1-35.45-2.32q1.85,2.43,3.77,4.72a256.8,256.8,0,0,0,26.45,1.42l2,2.65a8.34,8.34,0,0,0,7,3.34,117.69,117.69,0,0,0,21.77-3,11.55,11.55,0,0,0,8.73-12.56v-.07A8.68,8.68,0,0,1,1420.86,1127.89Z"/><path class="cls-54" d="M1411,1083.48c73.53,5.1,101.11-28.51,101.11-28.51-11.56,26-24.41,41-33.8,49.23a31,31,0,0,1-27.51,6.91C1417,1103.25,1411,1083.48,1411,1083.48Z"/><g class="cls-55"><path class="cls-56" d="M1410.7,1065a8.63,8.63,0,0,1-8.54-9.68l6.34-51.5a2.5,2.5,0,0,1,5,.61l-6.33,51.5a3.62,3.62,0,0,0,4.12,4l21.15-3.15a2.5,2.5,0,0,1,.74,4.94l-21.15,3.15A8.1,8.1,0,0,1,1410.7,1065Z"/></g><ellipse class="cls-57" cx="1371.1" cy="1005.66" rx="10.09" ry="19.12"/><ellipse class="cls-57" cx="1469.89" cy="998.51" rx="10.09" ry="19.12"/><path class="cls-57" d="M1346.09,984.19a2.5,2.5,0,0,1-1.81-4.23c14.84-15.49,35.47-14.46,47.34-5.64a2.5,2.5,0,0,1-3,4c-8.1-6-26.33-10-40.75,5.08A2.5,2.5,0,0,1,1346.09,984.19Z"/><path class="cls-57" d="M1448.6,967.6a2.5,2.5,0,0,1-1.45-4.54c17.51-12.44,37.38-6.45,47.67-1.77a2.5,2.5,0,1,1-2.07,4.55c-9.31-4.23-27.24-9.69-42.71,1.29A2.43,2.43,0,0,1,1448.6,967.6Z"/><circle class="cls-6" cx="1379.36" cy="996.4" r="4.43"/><circle class="cls-6" cx="1478.38" cy="988.62" r="4.43"/><path class="cls-58" d="M1325.32,1038.35a232.19,232.19,0,0,1-.28-29.26,39.88,39.88,0,0,0-1.77-13.94,152.12,152.12,0,0,1-4.9-21.25c-1.83-1.56-3.58-3.13-5.27-4.7l-.22.19a20.93,20.93,0,0,0-7.19,16.61,325.51,325.51,0,0,0,3.91,35.86,20.06,20.06,0,0,0,15.72,16.49Z"/><path class="cls-6" d="M1411,1083.48s1.52,5,7.31,11c43.46,1.15,70.71-12,84.94-21.94a193.93,193.93,0,0,0,8.86-17.53S1484.51,1088.58,1411,1083.48Z"/><path class="cls-59" d="M1438,1107.1a85.69,85.69,0,0,0,12.82,4,31,31,0,0,0,27.51-6.91,104,104,0,0,0,12.7-13.51C1479,1091.28,1452.38,1094.07,1438,1107.1Z"/><rect class="cls-60" x="499.32" y="1054.31" width="397.28" height="89.77" rx="11.74"/><polygon class="cls-61" points="548.43 1067.99 557.38 1086.12 577.39 1089.03 562.91 1103.15 566.33 1123.08 548.43 1113.67 530.53 1123.08 533.94 1103.15 519.46 1089.03 539.48 1086.12 548.43 1067.99"/><polygon class="cls-62" points="623.19 1067.99 632.14 1086.12 652.16 1089.03 637.67 1103.15 641.09 1123.08 623.19 1113.67 605.29 1123.08 608.71 1103.15 594.23 1089.03 614.24 1086.12 623.19 1067.99"/><polygon class="cls-63" points="697.96 1067.99 706.91 1086.12 726.92 1089.03 712.44 1103.15 715.86 1123.08 697.96 1113.67 680.06 1123.08 683.48 1103.15 668.99 1089.03 689.01 1086.12 697.96 1067.99"/><polygon class="cls-64" points="772.72 1067.99 781.67 1086.12 801.69 1089.03 787.21 1103.15 790.63 1123.08 772.72 1113.67 754.82 1123.08 758.24 1103.15 743.76 1089.03 763.77 1086.12 772.72 1067.99"/><polygon class="cls-65" points="847.49 1067.99 856.44 1086.12 876.45 1089.03 861.97 1103.15 865.39 1123.08 847.49 1113.67 829.59 1123.08 833.01 1103.15 818.53 1089.03 838.54 1086.12 847.49 1067.99"/><path class="cls-66" d="M884.85,1054.31H873.62v61.93a11.49,11.49,0,0,1-11.49,11.49H499.32v4.6a11.74,11.74,0,0,0,11.74,11.74H884.85a11.74,11.74,0,0,0,11.75-11.74v-66.28A11.75,11.75,0,0,0,884.85,1054.31Z"/><path class="cls-46" d="M702.5,773.63c-38.89-6.84-88.86-32.32-98.69-40.86.37,2.77.79,6,1.28,9.64A365,365,0,0,0,674,774.12s4.85,14,11.74,34.21c0,0,5.1-4.15,20.3-15C704.65,786.32,703.41,779.46,702.5,773.63Z"/><path class="cls-67" d="M687.66,716.24c16.86,2.47,30.26,3.48,36.05,3.84a16,16,0,0,0,5.94-.77l15.2-5c-5.72,12.86-14.4,19.11-18.31,21.4a6,6,0,0,1-4.22.7C706.26,733.05,687.66,716.24,687.66,716.24Z"/><path class="cls-6" d="M741.43,720.74a51.84,51.84,0,0,0,3.42-6.45l-15.2,5a16,16,0,0,1-5.94.77c-5.79-.36-19.19-1.37-36.05-3.84,0,0,.49.45,1.37,1.2,6.91,1.82,19.44,5.06,34.21,8.49a10.57,10.57,0,0,0,6.52-.57C732.82,724.05,737.59,722.08,741.43,720.74Z"/><path class="cls-68" d="M732.65,731.2c-4.11-1-16-3.63-27.65-2.23,5.45,3.28,11.55,6.22,17.32,7.42a6,6,0,0,0,4.22-.7A39.16,39.16,0,0,0,732.65,731.2Z"/><ellipse class="cls-69" cx="684.43" cy="649.02" rx="8.09" ry="12.33"/><ellipse class="cls-69" cx="740.73" cy="634.05" rx="8.09" ry="12.33"/><path class="cls-70" d="M721.28,615.69a2,2,0,0,1-1.63-3.15c.38-.54,9.54-13.22,23.84-11.39a2,2,0,1,1-.51,4c-11.89-1.52-20,9.62-20.07,9.73A2,2,0,0,1,721.28,615.69Z"/><path class="cls-70" d="M660.34,626.84a2,2,0,0,1-1.13-3.65c.61-.42,15-10.11,32.56-4.42a2,2,0,0,1-1.24,3.8c-15.58-5.06-28.93,3.83-29.06,3.92A2,2,0,0,1,660.34,626.84Z"/><circle class="cls-6" cx="690.3" cy="643.1" r="3.92"/><circle class="cls-6" cx="748" cy="626.84" r="2.89"/><g class="cls-71"><path class="cls-56" d="M718.83,702.59a2,2,0,0,1-.59-3.92l9.44-2.87a7.1,7.1,0,0,0,4.29-9.95l-11.42-22.93a2,2,0,0,1,3.58-1.78l11.42,22.92a11.1,11.1,0,0,1-6.71,15.57l-9.43,2.87A2,2,0,0,1,718.83,702.59Z"/></g><polygon class="cls-72" points="830.19 995.13 804.99 875.75 820.41 995.13 830.19 995.13"/><path class="cls-46" d="M613,794.33l-.63-.55a119.63,119.63,0,0,0,88.58,42.48A11.05,11.05,0,0,0,712,822.92c-.19-.9-.39-1.84-.59-2.8C710.89,843,654.9,833.1,613,794.33Z"/><path class="cls-73" d="M844.56,995.13h11.69s-20.31-56.23-30.55-97.78a24.39,24.39,0,0,0-7.17-12.11Z"/><path class="cls-6" d="M813.6,942.35l-3.21-24.81-252.66,4.84a52.47,52.47,0,0,1,1.51,29.28Z"/><path class="cls-6" d="M815.14,954.28,556.08,964.62c-1.08,5.24-1.88,10.35-2.47,15.16l264-6.4Z"/><path class="cls-73" d="M522.81,937.27C517.32,952,509,975.61,502.1,995.13h50.17a194.76,194.76,0,0,1,6.45-41.47A53.05,53.05,0,0,0,542.88,900c-17.36-15.62-41.76-29.82-67.38-20.17C506.72,872.93,533.53,908.41,522.81,937.27Z"/><path class="cls-72" d="M525,886.63A115.08,115.08,0,0,1,542.88,900a53.05,53.05,0,0,1,15.84,53.63,194.76,194.76,0,0,0-6.45,41.47h9.07c2-18.67,6.75-54.3,6.75-61.1C568.09,926,561,905.1,525,886.63Z"/><path class="cls-73" d="M820.41,995.13,805,875.75c-15.38-10.36-38.32-25.86-61.12-41.41-11.51-7.86-23-15.73-33.43-23l-.66.8,30.68,31.26a90.12,90.12,0,0,1,25.75,60.94l.71,29.8a46.29,46.29,0,0,1-40.58,47L614.09,995.13Z"/><circle class="cls-74" cx="979.38" cy="582.4" r="88.88"/><path class="cls-75" d="M932.55,560.37l10.76,9.75a7.08,7.08,0,0,0,10.18-.7l9.83-11.72s31.4,21.45,39.32,45.45l-7.88,5.77a8.07,8.07,0,0,0-1.82,11.18l5.65,8a8.08,8.08,0,0,0,10.28,2.52l13.37-6.88a11.49,11.49,0,0,0,5.69-13.87c-10.48-30.83-43.31-64.16-68.49-75.4a12.77,12.77,0,0,0-14.29,2.68l-12.88,13A7.08,7.08,0,0,0,932.55,560.37Z"/><path class="cls-76" d="M1793.31,1584.85a1.94,1.94,0,0,0,0-.24c-.12-1.67-.26-3.32-.41-5h0c-8-88.37-46.58-131.23-46.58-131.23-8.34-21.82,7.51-84.63,41.47-116.57-32.48,25.54-50.41,61.19-57.26,97.51a54.35,54.35,0,0,0,8.28,40.17c13.27,20,21.38,49.16,26.33,77.81a40.51,40.51,0,0,1-31.3,46.43c-74.84,16.39-173.68,32.25-265.5,28.78q-2.57,4.28-5.06,8.68l-5.32-9.16c-37.6-2-73.81-7.48-106.45-17.65l14.21,18a38.69,38.69,0,0,1,3.38,6.3c55.7,12.2,217,26.2,402.7-21.63a36.73,36.73,0,0,1-31.45,38.07l-215.75,31.2a100.67,100.67,0,0,1-48.3-4.82l-39.31-14a35.09,35.09,0,0,0-39.53,11.55l-23.74,30.6c9.86-11.14,20.52-21.43,31.5-29.12a25.24,25.24,0,0,1,22.85-3.08c18.89,6.61,61.46,20.65,125,36.76a165.89,165.89,0,0,0-8.92-17.12s14,.21,27.37.13c-1.24-1.3-2.54-2.59-3.88-3.88,98.16-9.93,171.26-21.15,224.26-26.66A390.12,390.12,0,0,0,1793.31,1584.85Z"/><path class="cls-77" d="M1862.44,1320.68a131.56,131.56,0,0,0-50-38.83c-59.51-26.34-101.39-44.57-129.71-56.76l-.8,12.43c43,17,60.83,32.55,60.83,32.55-12.88,35.21-18.46,64.26-20.72,85.4-1.33,12.45,13.36,20.15,22.76,11.88a188.16,188.16,0,0,1,30.77-21.74C1796,1318.52,1825.61,1302,1862.44,1320.68Z"/><path class="cls-78" d="M1332.91,1495.83,1379.74,1311a61.34,61.34,0,0,1,21-32.69l48.73-39.28c.65-.83,1.3-1.63,1.94-2.41l.73-1.41c-28,16.09-58.17,33.41-79.43,45.61l-19.91,70.26s-15.13,60-43,154.17a68,68,0,0,0,11.88,61.5l28.11,35.5c-2.89-9.34-9.14-30.21-16.71-59.47A94.64,94.64,0,0,1,1332.91,1495.83Z"/><path class="cls-6" d="M1671,1235h-.17a2,2,0,0,1-1.82-2.16l.52-6a2,2,0,1,1,4,.35l-.52,6A2,2,0,0,1,1671,1235Z"/><path class="cls-6" d="M1662.14,1336.75H1662a2,2,0,0,1-1.82-2.17l1.11-12.71a2,2,0,1,1,4,.34l-1.1,12.72A2,2,0,0,1,1662.14,1336.75Zm2.21-25.43h-.18a2,2,0,0,1-1.82-2.17l1.11-12.71a2,2,0,0,1,4,.34l-1.1,12.72A2,2,0,0,1,1664.35,1311.32Zm2.2-25.43h-.17a2,2,0,0,1-1.82-2.17l1.1-12.71a2,2,0,1,1,4,.35l-1.11,12.71A2,2,0,0,1,1666.55,1285.89Zm2.21-25.43h-.17a2,2,0,0,1-1.82-2.16l1.1-12.72a2,2,0,1,1,4,.35l-1.11,12.71A2,2,0,0,1,1668.76,1260.46Z"/><path class="cls-6" d="M1655.41,1358.6a2,2,0,0,1-1.05-3.7l4.25-2.64.43-5a2,2,0,1,1,4,.34l-.6,7-6,3.69A2,2,0,0,1,1655.41,1358.6Z"/><path class="cls-6" d="M1566.93,1413.4a2,2,0,0,1-1.06-3.7l11.06-6.85a2,2,0,1,1,2.11,3.4L1568,1413.1A1.93,1.93,0,0,1,1566.93,1413.4Zm22.12-13.7a2,2,0,0,1-1.7-1,2,2,0,0,1,.64-2.75l11.06-6.85a2,2,0,1,1,2.11,3.4l-11.06,6.85A2,2,0,0,1,1589.05,1399.7Zm22.12-13.7a2,2,0,0,1-1.05-3.7l11.06-6.85a2,2,0,1,1,2.1,3.4l-11.06,6.85A2,2,0,0,1,1611.17,1386Zm22.12-13.7a2,2,0,0,1-1-3.7l11.06-6.85a2,2,0,1,1,2.1,3.4l-11.06,6.85A2,2,0,0,1,1633.29,1372.3Z"/><path class="cls-6" d="M1550.77,1423.41a2,2,0,0,1-1.06-3.7l5.1-3.16a2,2,0,0,1,2.11,3.41l-5.1,3.15A2,2,0,0,1,1550.77,1423.41Z"/><path class="cls-6" d="M1445.37,1441a2,2,0,0,1-1.48-.65l-4.69-5.16a2,2,0,0,1,3-2.69l4.7,5.15a2,2,0,0,1-1.48,3.35Zm-12.78-14a2,2,0,0,1-1.48-.65l-8.08-8.87a2,2,0,1,1,3-2.7l8.09,8.87a2,2,0,0,1-1.48,3.35Zm-16.17-17.74a2,2,0,0,1-1.48-.65l-8.08-8.87a2,2,0,1,1,3-2.69l8.09,8.87a2,2,0,0,1-1.48,3.34Zm-16.17-17.73a2,2,0,0,1-1.48-.65l-5.59-6.13,2.21-5.77a2,2,0,0,1,3.74,1.44l-1.33,3.46,3.93,4.3a2,2,0,0,1-1.48,3.35Zm1.31-21a2,2,0,0,1-1.87-2.72l4.3-11.2a2,2,0,0,1,3.74,1.43l-4.3,11.21A2,2,0,0,1,1401.56,1370.48Zm8.6-22.41a1.94,1.94,0,0,1-.71-.13,2,2,0,0,1-1.16-2.58l4.31-11.21a2,2,0,1,1,3.73,1.44l-4.3,11.2A2,2,0,0,1,1410.16,1348.07Zm8.6-22.4a2,2,0,0,1-1.86-2.72l4.3-11.2a2,2,0,1,1,3.73,1.43l-4.3,11.2A2,2,0,0,1,1418.76,1325.67Z"/><path class="cls-6" d="M1465.63,1609.18a1.85,1.85,0,0,1-.76-.16,2,2,0,0,1-1.09-2.61c1.5-3.6,3.23-7.31,5.16-11a2,2,0,1,1,3.55,1.85c-1.88,3.61-3.56,7.22-5,10.71A2,2,0,0,1,1465.63,1609.18Zm-5.67-7.41a2,2,0,0,1-1.75-1l-5.86-10.47a2,2,0,0,1,3.49-2l5.86,10.46a2,2,0,0,1-.76,2.73A2,2,0,0,1,1460,1601.77Zm16.68-13.91a2,2,0,0,1-1-.29,2,2,0,0,1-.66-2.75c2-3.32,4.26-6.73,6.64-10.15a2,2,0,1,1,3.28,2.29c-2.33,3.35-4.52,6.7-6.51,10A2,2,0,0,1,1476.64,1587.86Zm-28.41-7a2,2,0,0,1-1.74-1l-5.87-10.47a2,2,0,1,1,3.49-1.95l5.87,10.47a2,2,0,0,1-.77,2.72A2,2,0,0,1,1448.23,1580.83Zm42.09-12.7a2,2,0,0,1-1.59-3.22c2.39-3.1,4.93-6.27,7.58-9.43a2,2,0,1,1,3.06,2.56c-2.6,3.12-5.12,6.25-7.47,9.31A2,2,0,0,1,1490.32,1568.13Zm-53.82-8.24a2,2,0,0,1-1.74-1l-5.87-10.47a2,2,0,0,1,3.49-2l5.87,10.47a2,2,0,0,1-1.75,3Zm69.21-10.19a2,2,0,0,1-1.34-.52,2,2,0,0,1-.15-2.82c2.61-2.91,5.38-5.89,8.21-8.86a2,2,0,0,1,2.9,2.77c-2.81,2.93-5.55,5.88-8.14,8.76A2,2,0,0,1,1505.71,1549.7ZM1424.78,1539a2,2,0,0,1-1.75-1l-5.86-10.47a2,2,0,1,1,3.49-2l5.86,10.47a2,2,0,0,1-.77,2.72A2,2,0,0,1,1424.78,1539Zm97.53-6.64a2,2,0,0,1-1.41-3.43c2.8-2.77,5.72-5.59,8.68-8.38a2,2,0,1,1,2.74,2.91c-2.93,2.77-5.83,5.56-8.61,8.32A2,2,0,0,1,1522.31,1532.32ZM1413.05,1518a2,2,0,0,1-1.75-1l-5.86-10.47a2,2,0,0,1,3.49-2l5.86,10.47a2,2,0,0,1-.77,2.72A2,2,0,0,1,1413.05,1518Zm126.74-2.2a2,2,0,0,1-1.34-3.48c2.92-2.63,6-5.32,9-8a2,2,0,1,1,2.62,3c-3.06,2.65-6.08,5.32-9,7.93A2,2,0,0,1,1539.79,1515.82ZM1558,1500.1a2,2,0,0,1-1.28-3.54c3.06-2.54,6.21-5.1,9.35-7.62a2,2,0,0,1,2.5,3.12c-3.13,2.5-6.25,5-9.29,7.58A2,2,0,0,1,1558,1500.1Zm-156.65-3a2,2,0,0,1-1.75-1l-6.41-11.44.64-1a2,2,0,0,1,2.78-.65,2.05,2.05,0,0,1,.85,1.09l5.63,10.06a2,2,0,0,1-.76,2.72A2.05,2.05,0,0,1,1401.32,1497.08Zm175.42-12a2,2,0,0,1-1.23-3.59c3.19-2.45,6.42-4.91,9.61-7.28a2,2,0,1,1,2.39,3.21c-3.17,2.36-6.38,4.8-9.55,7.24A2,2,0,0,1,1576.74,1485.07ZM1402,1476.48a2,2,0,0,1-1.07-.31,2,2,0,0,1-.61-2.76l6.43-10.13a2,2,0,0,1,3.38,2.15l-6.44,10.12A2,2,0,0,1,1402,1476.48Zm194.08-5.77a2,2,0,0,1-1.17-3.63c4.81-3.44,8.29-5.81,9.93-6.92a2,2,0,1,1,2.24,3.32c-1.63,1.09-5.07,3.45-9.84,6.86A2,2,0,0,1,1596,1470.71Zm-181.2-14.48a2,2,0,0,1-1.69-3.08l6.44-10.12a2,2,0,1,1,3.37,2.14l-6.43,10.13A2,2,0,0,1,1414.84,1456.23Zm186.69-2.49a2,2,0,0,1-1.74-1l-5.93-10.43a2,2,0,1,1,3.47-2l5.94,10.43a2,2,0,0,1-.75,2.73A2,2,0,0,1,1601.53,1453.74Zm-11.87-20.86a2,2,0,0,1-1.74-1l-5.94-10.43a2,2,0,0,1,3.48-2l5.94,10.42a2,2,0,0,1-1.74,3Z"/><rect class="cls-79" x="856.25" y="702.34" width="226.98" height="18.16" rx="9.08"/><rect class="cls-80" x="856.25" y="741.91" width="226.98" height="18.16" rx="9.08"/><rect class="cls-81" x="856.25" y="781.49" width="226.98" height="18.16" rx="9.08"/><rect class="cls-82" x="856.25" y="850.68" width="226.98" height="18.16" rx="9.08"/><rect class="cls-83" x="983.4" y="885.24" width="99.83" height="18.16" rx="9.08"/><path class="cls-84" d="M338,490.46V960.4a34.72,34.72,0,0,0,34.72,34.73h74.8c3.08-21,9.07-59,16.6-93.68.15-.69.34-1.36.52-2V455.74H372.68A34.71,34.71,0,0,0,338,490.46Z"/><path class="cls-85" d="M839.36,944.93c8.64,27.34,16.89,50.2,16.89,50.2h83.59l149.78,154.05L990.75,995.13h88.65a34.73,34.73,0,0,0,34.73-34.73V944.93Z"/><ellipse class="cls-6" cx="737.88" cy="1610.76" rx="40.34" ry="49.32" transform="translate(-527.4 370.56) rotate(-20.96)"/><path class="cls-77" d="M981.36,1434.12H389l129.7,336.51h35.4l-11.16-35c-36.55-114.83,49.15-232,169.65-232h298.88Z"/></svg>