<?xml version="1.0" encoding="UTF-8"?>
<!DOCTYPE svg PUBLIC "-//W3C//DTD SVG 1.1//EN" "http://www.w3.org/Graphics/SVG/1.1/DTD/svg11.dtd">
<!-- Creator: CorelDRAW Home & Student X7 -->
<svg xmlns="http://www.w3.org/2000/svg" xml:space="preserve" width="635.593mm" height="423.333mm" version="1.1" style="shape-rendering:geometricPrecision; text-rendering:geometricPrecision; image-rendering:optimizeQuality; fill-rule:evenodd; clip-rule:evenodd"
viewBox="0 0 63559 42333"
 xmlns:xlink="http://www.w3.org/1999/xlink">
 <defs>
  <style type="text/css">
   <![CDATA[
    .str14 {stroke:white;stroke-width:69.99}
    .str1 {stroke:#B4CCE6;stroke-width:150}
    .str3 {stroke:white;stroke-width:100;stroke-linecap:round;stroke-linejoin:round}
    .str4 {stroke:#1E4864;stroke-width:75;stroke-linecap:round;stroke-linejoin:round}
    .str2 {stroke:#282737;stroke-width:75;stroke-linecap:round;stroke-linejoin:round}
    .str12 {stroke:#3F96D1;stroke-width:75;stroke-linecap:round;stroke-linejoin:round}
    .str17 {stroke:#6359CC;stroke-width:75;stroke-linecap:round;stroke-linejoin:round}
    .str5 {stroke:#CD665F;stroke-width:75;stroke-linecap:round;stroke-linejoin:round}
    .str18 {stroke:#CE685F;stroke-width:75;stroke-linecap:round;stroke-linejoin:round}
    .str15 {stroke:white;stroke-width:75;stroke-linecap:round;stroke-linejoin:round}
    .str16 {stroke:white;stroke-width:69.99;stroke-linecap:round;stroke-linejoin:round}
    .str8 {stroke:#CD665F;stroke-width:50;stroke-linecap:round;stroke-linejoin:round}
    .str9 {stroke:#EA8A79;stroke-width:50;stroke-linecap:round;stroke-linejoin:round}
    .str13 {stroke:white;stroke-width:50;stroke-linecap:round;stroke-linejoin:round}
    .str19 {stroke:#1E4864;stroke-width:150;stroke-linecap:round;stroke-linejoin:round}
    .str7 {stroke:#282737;stroke-width:150;stroke-linecap:round;stroke-linejoin:round}
    .str10 {stroke:#5F5E7C;stroke-width:150;stroke-linecap:round;stroke-linejoin:round}
    .str0 {stroke:#B4CCE6;stroke-width:150;stroke-linecap:round;stroke-linejoin:round}
    .str11 {stroke:#BDC9D7;stroke-width:150;stroke-linecap:round;stroke-linejoin:round}
    .str6 {stroke:#282737;stroke-width:30;stroke-linecap:round;stroke-linejoin:round}
    .fil3 {fill:none}
    .fil19 {fill:#1E4864}
    .fil6 {fill:#282737}
    .fil7 {fill:#3F96D1}
    .fil18 {fill:#467B6C}
    .fil5 {fill:#5F5E7C}
    .fil11 {fill:#6E454C}
    .fil17 {fill:#70E0BF}
    .fil20 {fill:#A0A1FE}
    .fil2 {fill:#B4CCE6}
    .fil13 {fill:#BDC9D7}
    .fil1 {fill:#C8E3FF}
    .fil9 {fill:#CD665F}
    .fil14 {fill:#E8A253}
    .fil10 {fill:#EA8A79}
    .fil0 {fill:#EAF4FF}
    .fil8 {fill:#F16063}
    .fil15 {fill:#FEB45C}
    .fil16 {fill:#FEC866}
    .fil4 {fill:#FFA58D}
    .fil12 {fill:white}
   ]]>
  </style>
 </defs>
 <g id="Layer_x0020_1">
  <metadata id="CorelCorpID_0Corel-Layer"/>
  <rect class="fil0" width="63559" height="42333"/>
  <path class="fil1" d="M35716 12688c0,0 -8432,-2646 -14782,529 -6350,3175 -8607,6844 -7937,10477 670,3634 4127,7726 11006,8079 6880,353 13089,776 17216,-4092 4128,-4869 -212,-13406 -5503,-14993zm11324 13652c0,0 -2170,-1199 -3986,318 -1817,1516 -2241,3862 -1447,4903 794,1041 2064,1976 4004,353 1940,-1623 2664,-3898 1429,-5574zm141 -13511c0,0 -1623,-1782 -3863,-1165 -2240,618 -2963,2346 -2452,3775 512,1429 2258,4375 5662,3987 3405,-388 2276,-5504 653,-6597z"/>
  <path class="fil2" d="M32053 38397c5102,0 9881,31 13985,84 -13,-208 -26,-754 175,-859 249,-129 376,64 381,273 4,183 11,515 13,594l9 0c80,-143 650,-1150 1033,-1322 413,-185 524,156 445,408 -61,194 -582,702 -816,923 7495,110 12440,297 12440,510 0,338 -12386,611 -27665,611 -15279,0 -27665,-273 -27665,-611 0,-223 5440,-419 13555,-525 -216,-205 -941,-902 -1008,-1115 -80,-252 32,-593 444,-408 413,185 1043,1339 1043,1339 0,0 8,-402 13,-611 5,-209 132,-402 381,-273 215,112 177,856 163,1055 3893,-46 8345,-73 13074,-73z"/>
  <g id="_176213704">
   <path class="fil3 str0" d="M9439 7627l-1953 0c-70,0 -128,57 -128,128l0 1278c0,71 58,128 128,128l1609 0 675 437 -203 -565 0 -1278c0,-71 -57,-128 -128,-128z"/>
   <path class="fil2" d="M8454 8276c-72,0 -130,58 -130,130 0,72 58,130 130,130 72,0 130,-58 130,-130 0,-72 -58,-130 -130,-130zm541 0c-72,0 -130,58 -130,130 0,72 58,130 130,130 72,0 130,-58 130,-130 0,-72 -58,-130 -130,-130zm-1082 0c-72,0 -131,58 -131,130 0,72 59,130 131,130 71,0 130,-58 130,-130 0,-72 -59,-130 -130,-130z"/>
  </g>
  <path class="fil3 str1" d="M5659 19962l-234 234c-60,60 -60,158 0,218l148 148c-37,68 -67,141 -90,217l-209 0c-85,0 -154,69 -154,154l0 331c0,85 69,154 154,154l209 0c23,76 53,149 90,217l-148 148c-60,60 -60,158 0,218l234 234c60,60 159,60 219,0l147 -147c69,37 141,67 217,89l0 209c0,85 70,155 155,155l330 0c85,0 155,-70 155,-155l0 -209c76,-22 148,-52 217,-89l147 147c60,60 159,60 219,0l234 -234c60,-60 60,-158 0,-218l-148 -148c37,-68 67,-141 90,-217l209 0c85,0 154,-69 154,-154l0 -331c0,-85 -69,-154 -154,-154l-209 0c-23,-76 -53,-149 -90,-217l148 -148c60,-60 60,-158 0,-218l-234 -234c-60,-60 -159,-60 -219,0l-147 148c-69,-37 -141,-68 -217,-90l0 -209c0,-85 -70,-154 -155,-154l-330 0c-85,0 -155,69 -155,154l0 209c-76,22 -148,53 -217,90l-147 -148c-60,-60 -159,-60 -219,0zm903 424c-393,0 -712,319 -712,713 0,393 319,712 712,712 393,0 712,-319 712,-712 0,-394 -319,-713 -712,-713z"/>
  <g id="_176214328">
   <path class="fil1" d="M12968 32310l1817 0 0 798 -1817 0 0 -798zm988 926l1817 0 0 798 -1817 0 0 -798zm1005 -926l1817 0 0 798 -1817 0 0 -798z"/>
   <polygon class="fil4" points="15473,36368 15481,37426 14428,37426 14375,36397 "/>
   <path class="fil5" d="M14202 39069l3852 0c0,0 66,-333 -156,-518 -222,-186 -1659,-847 -1910,-1045 -252,-199 -308,-323 -509,-268 -201,54 -384,186 -640,121 -257,-64 -371,-131 -471,-31 -101,99 -96,583 -135,919 -40,336 -31,822 -31,822z"/>
   <path class="fil6" d="M14202 39069l3852 0c0,0 19,-96 2,-213l-3855 0c-1,126 1,213 1,213z"/>
   <path class="fil3 str2" d="M14701 38927c0,0 101,-498 -32,-820 -132,-323 -390,-424 -390,-424"/>
   <line class="fil3 str3" x1="16987" y1="38298" x2="17217" y2= "38168" />
   <line class="fil3 str3" x1="16739" y1="38172" x2="16970" y2= "38041" />
   <line class="fil3 str3" x1="16496" y1="38047" x2="16726" y2= "37917" />
   <line class="fil3 str3" x1="16248" y1="37919" x2="16478" y2= "37789" />
   <line class="fil3 str3" x1="15987" y1="37779" x2="16217" y2= "37648" />
   <line class="fil3 str3" x1="15787" y1="37658" x2="16017" y2= "37527" />
   <polygon class="fil4" points="10648,36427 10532,37479 9486,37354 9555,36326 "/>
   <path class="fil7" d="M12216 20331c0,0 31,159 69,454 135,-63 287,-102 454,-100 79,1 154,11 225,29l0 -698 2025 -222 140 379c0,0 352,1085 532,2884 180,1799 423,5101 402,5863 -21,762 -402,7578 -402,7578l-1508 0c0,0 -291,-3091 -307,-4213 -16,-1121 -58,-2995 -58,-2995l-767 -6196 -616 69c0,31 -1,63 -1,94 -33,1808 -181,5116 -292,5870 -111,754 -1292,7477 -1292,7477l-1498 -178c0,0 75,-3103 192,-4219 116,-1115 295,-2981 295,-2981l-28 -5623 0 0 0 0 -3 -568 0 0 0 0 -1 -52 1 -11c2,-104 7,-330 20,-617l31 -2209 255 -226 2037 18 95 393z"/>
   <path class="fil5" d="M9174 39069l3853 0c0,0 66,-333 -156,-518 -223,-186 -1659,-847 -1911,-1045 -251,-199 -307,-323 -508,-268 -201,54 -384,186 -640,121 -257,-64 -371,-131 -471,-31 -101,99 -96,583 -135,919 -40,336 -32,822 -32,822z"/>
   <path class="fil6" d="M9174 39069l3853 0c0,0 19,-96 2,-213l-3855 0c-1,126 0,213 0,213z"/>
   <path class="fil3 str2" d="M9674 38927c0,0 101,-498 -32,-820 -132,-323 -390,-424 -390,-424"/>
   <line class="fil3 str3" x1="11960" y1="38298" x2="12190" y2= "38168" />
   <line class="fil3 str3" x1="11712" y1="38172" x2="11942" y2= "38041" />
   <line class="fil3 str3" x1="11468" y1="38047" x2="11699" y2= "37917" />
   <line class="fil3 str3" x1="11221" y1="37919" x2="11451" y2= "37789" />
   <line class="fil3 str3" x1="10960" y1="37779" x2="11190" y2= "37648" />
   <line class="fil3 str3" x1="10760" y1="37658" x2="10990" y2= "37527" />
   <path class="fil3 str4" d="M15051 28839c0,0 230,47 523,67 292,20 490,-12 490,-12"/>
   <line class="fil3 str4" x1="15689" y1="36000" x2="14108" y2= "36000" />
   <path class="fil3 str4" d="M13309 23158l889 6625c0,0 -21,418 -58,1265 -37,846 84,3021 127,3598 42,577 95,1354 95,1354"/>
   <path class="fil3 str4" d="M14388 20853c0,0 122,757 471,1133 349,375 728,432 728,432"/>
   <path class="fil3 str4" d="M11117 28900c0,0 223,75 511,129 288,54 488,46 488,46"/>
   <line class="fil3 str4" x1="10906" y1="36087" x2="9336" y2= "35901" />
   <path class="fil3 str4" d="M10056 23054l102 6684c0,0 -70,412 -207,1249 -136,836 -272,3010 -298,3588 -26,578 -65,1356 -65,1356"/>
   <path class="fil3 str4" d="M12951 20814c0,0 69,656 85,1037 16,381 58,1079 58,1079"/>
   <path class="fil3 str4" d="M13284 22166c0,0 -423,243 -598,37 -174,-207 -174,-1286 -174,-1286"/>
   <path class="fil3 str4" d="M11212 20853c0,0 -122,757 -471,1133 -349,375 -728,432 -728,432"/>
   <path class="fil4" d="M18293 8331c0,0 -373,-757 -206,-978 167,-220 516,-112 516,-112 0,0 346,-954 543,-1040 197,-85 121,219 35,465 -87,246 -170,406 -142,435 74,-44 398,-882 570,-876 172,7 59,234 -25,455 -77,203 -142,428 -210,638l0 0 0 1 0 0 0 0 0 0 0 0c0,0 179,-91 275,26 96,118 -19,276 -19,276 0,0 243,-34 293,126 49,160 -301,325 -301,325 0,0 -58,241 -239,458 -144,174 -200,272 -217,304 -615,61 -942,-359 -942,-359l0 0c25,-52 49,-100 69,-144z"/>
   <path class="fil3 str5" d="M18227 7630c0,0 289,49 415,46 126,-2 218,-181 143,-288 -74,-107 -182,-147 -182,-147"/>
   <path class="fil3 str5" d="M19622 8072c0,0 -211,124 -368,33 -157,-90 207,-355 178,-371 -28,-16 -225,155 -402,97 -177,-59 26,-211 109,-322"/>
   <path class="fil3 str5" d="M18803 8446c0,0 -185,-119 -115,-421 70,-301 410,-467 410,-467"/>
   <path class="fil5" d="M14447 13149c377,2442 463,4862 837,7312 0,0 -807,613 -2101,850l-34 -223 -851 102 0 212c-9,0 -17,0 -25,0 -1815,32 -2581,-459 -2581,-459l-18 -502c0,0 -26,-1203 -132,-2676 -15,-200 -29,-452 -44,-738 -484,-58 -878,-145 -1060,-276 -901,-651 -249,-3201 660,-4705 163,-247 713,-907 2019,-1111 21,-3 42,-6 64,-9 301,15 1721,96 3238,326 1574,240 2244,-75 2341,-127 6,-1 10,-3 13,-7 383,-538 1107,-1932 1451,-2643l0 0c0,0 327,420 942,359 -49,149 -96,299 -142,448 -1,5 -540,2681 -1633,3280 -876,481 -2380,570 -2944,587zm4577 -3867l-13 44c8,-27 13,-42 13,-44z"/>
   <path class="fil6" d="M15221 20035c20,142 41,284 63,426 0,0 -807,613 -2101,850l-34 -223 -10 -205c1188,-199 1745,-578 2082,-848zm-2923 1155l0 212c-9,0 -17,0 -25,0 -1815,32 -2581,-459 -2581,-459l-14 -394c409,163 1384,484 2612,428 5,122 8,196 8,213z"/>
   <path class="fil6" d="M18013 11945c-183,269 -390,490 -622,617 -131,72 -276,135 -430,191 39,-179 161,-589 478,-753 200,-103 410,-93 574,-55z"/>
   <path class="fil6" d="M8977 16944c-240,-50 -429,-114 -539,-193 -243,-176 -373,-491 -416,-886 636,85 1051,555 955,1079z"/>
   <path class="fil8" d="M13149 21088l-851 102c0,-95 -82,-1988 -172,-4054l199 10 389 -20c-32,-225 -96,-500 -203,-703l-162 -250 -268 -77c-97,-2234 -191,-4357 -191,-4357l-164 -228c2,-197 234,-210 496,-292 263,-81 664,5 664,5 0,0 -189,400 -193,482 -5,81 456,9382 456,9382z"/>
   <path class="fil6" d="M18078 8771c54,-107 103,-207 146,-296l0 0c0,0 327,420 942,359 -41,125 -80,250 -119,376 -72,-3 -158,-11 -263,-28 -382,-62 -615,-299 -706,-411z"/>
   <path class="fil9" d="M13558 9651c0,0 254,-65 307,-487 53,-422 -220,-438 -220,-438l-87 925z"/>
   <path class="fil4" d="M11419 7638c0,0 355,-554 1274,-423 918,131 1070,711 1036,1083 -35,372 -76,1057 -94,1328 -19,272 -164,668 -312,773 -147,105 -347,123 -347,123l-25 231 0 0c0,0 -30,310 -34,352 -4,41 -216,458 -864,366 -648,-92 -639,-789 -639,-789l243 -1201c0,0 -489,-94 -596,-434 -107,-340 143,-494 143,-494 0,0 -85,-437 215,-915z"/>
   <path class="fil3 str6" d="M12660 8755c24,-18 77,-48 147,-46 95,4 137,47 137,47"/>
   <ellipse class="fil6" transform="matrix(0.923361 0.126318 -0.153719 1.12366 12797.9 8839.99)" rx="76" ry="116"/>
   <path class="fil3 str6" d="M13526 8859c-21,-22 -68,-61 -137,-71 -95,-13 -143,23 -143,23"/>
   <ellipse class="fil6" transform="matrix(-0.923361 -0.126318 -0.153719 1.12366 13371.5 8918.46)" rx="76" ry="116"/>
   <ellipse class="fil10" transform="matrix(0.990772 0.135539 -0.135539 0.990772 12469.7 9169.74)" rx="229" ry="67"/>
   <path class="fil3 str7" d="M12544 8438c33,-18 116,-58 215,-70 94,-11 171,-4 205,1"/>
   <path class="fil3 str7" d="M13247 8386c131,9 252,27 344,130"/>
   <path class="fil3 str8" d="M11251 8750c0,0 118,65 230,203 112,139 123,235 123,235"/>
   <path class="fil3 str8" d="M11248 9012c0,0 93,-44 140,-59 47,-16 76,-20 76,-20"/>
   <path class="fil3 str8" d="M11884 9386c-55,44 -154,105 -227,95"/>
   <path class="fil11" d="M11578 8746c0,0 49,55 115,100l0 0c0,0 81,100 79,344 0,32 2,62 5,91l0 0c0,0 44,544 211,637 168,92 -57,-274 150,-600 208,-326 220,-428 168,-679 -52,-251 234,-214 273,-644 40,-430 387,-387 449,-358 62,28 75,90 105,88 29,-2 76,-92 221,-46 204,69 305,156 310,160 65,160 77,323 65,459 -25,266 -53,693 -74,1013 -7,105 -13,210 -20,315 -5,73 -19,155 -40,237 68,-22 265,-91 223,-302 -20,-101 -12,-180 7,-246l0 0 0 0c17,-58 43,-106 69,-151 10,-44 15,-99 11,-165 -13,-221 22,-449 104,-671 41,-172 80,-362 48,-586 -71,-486 -715,-677 -715,-677l0 0c-46,-16 -97,-30 -154,-42 -241,-51 -473,-75 -687,-73l0 0c0,0 -883,-86 -1376,390 -494,477 -464,1500 -283,1932 181,432 -132,436 58,763 189,326 4,467 101,511 97,44 181,40 313,-66 85,-67 -35,74 150,-47l193 -952c0,0 -489,-94 -596,-434 -107,-340 143,-494 143,-494 0,0 -6,-44 -10,-117 2,74 10,117 10,117l0 0c0,0 174,-94 374,193z"/>
   <path class="fil10" d="M13661 9220l-9 135c-117,-19 -207,-60 -202,-96 5,-34 97,-51 211,-39z"/>
   <path class="fil3 str8" d="M13097 8629c0,0 90,373 148,422 57,50 187,83 184,110 -4,26 -226,184 -226,184"/>
   <path class="fil6" d="M12976 10522l-25 231c-111,9 -365,9 -580,-132 -284,-187 -348,-482 -315,-479 33,3 182,160 390,273 207,112 530,107 530,107z"/>
   <path class="fil3 str9" d="M12879 9797c69,26 135,33 199,29"/>
   <line class="fil3 str2" x1="16963" y1="11533" x2="16766" y2= "11124" />
   <g>
    <rect class="fil12" transform="matrix(-1.17534 -0.000626832 -0.000838617 1.57244 14419.5 14089.3)" width="1407" height="1618" rx="128" ry="128"/>
    <path class="fil6" d="M12953 14089l-37 -1c-82,0 -150,68 -150,151l-1 2244c0,83 67,150 150,150l37 0 1 -2544z"/>
    <circle class="fil6" transform="matrix(-1 -0.00053332 -0.00053332 1 14139.9 14367.5)" r="108"/>
   </g>
   <path class="fil4" d="M13184 16910c2,-2 4,-4 6,-6 28,-24 57,-48 86,-72l0 0c9,-8 16,-14 24,-19 108,-87 222,-168 328,-224 231,-120 349,-154 465,-213 117,-59 150,-145 -27,-159 -177,-14 -380,43 -428,43 -48,0 -64,-56 107,-164 171,-108 359,-125 519,-171 161,-45 233,-190 -123,-210 -356,-20 -687,240 -692,153 -5,-88 223,-261 479,-329 256,-68 374,-25 411,-100 38,-76 -15,-161 -356,-166 -341,-5 -710,251 -735,251 -25,0 30,-168 224,-326 193,-158 434,-231 499,-324 65,-92 -88,-180 -449,-22 -361,158 -756,652 -756,652l0 -221c0,0 -79,23 -258,326 -120,206 -141,430 -159,564l162 250c107,203 171,478 203,703 0,0 100,-11 217,-55 0,0 112,-49 253,-161z"/>
   <line class="fil3 str2" x1="9122" y1="15768" x2="9505" y2= "15348" />
   <path class="fil12" d="M12835 9443c77,57 215,87 310,93 0,0 7,147 -191,140 -199,-7 -119,-233 -119,-233z"/>
   <path class="fil3 str2" d="M11825 17131c-627,1 -1411,-15 -2078,-78 -27,-2 -54,-5 -80,-8m512 -3854c-270,738 -633,1785 -674,2157l2059 597"/>
   <path class="fil6" d="M12046 10993c0,0 -143,738 -156,746 -123,74 -826,-321 -773,-804 0,0 207,-519 274,-563 68,-43 103,-50 103,-50 0,0 48,373 552,671z"/>
   <path class="fil6" d="M12732 10973l-39 733c0,0 270,-64 389,-257 119,-193 101,-282 101,-282 0,0 -96,-472 -128,-506 -31,-35 -87,-65 -87,-65 0,0 -27,256 -236,377z"/>
   <path class="fil6" d="M12714 17126l-389 20c0,0 -53,-410 -128,-619 -75,-210 -248,-470 -248,-470l400 116 162 250c107,203 171,478 203,703z"/>
   <line class="fil3 str2" x1="14359" y1="12547" x2="14395" y2= "12860" />
   <line class="fil3 str2" x1="10145" y1="20308" x2="9994" y2= "17074" />
  </g>
  <g id="_176203624">
   <circle class="fil3 str1" cx="53946" cy="11812" r="848"/>
   <polyline class="fil3 str0" points="53495,11952 53720,12175 54414,11459 "/>
  </g>
  <g id="_176204800">
   <path class="fil3 str0" d="M47000 7627l-1954 0c-70,0 -128,57 -128,128l0 1278c0,71 58,128 128,128l1610 0 674 437 -202 -565 0 -1278c0,-71 -58,-128 -128,-128z"/>
   <path class="fil2" d="M46014 8276c-72,0 -130,58 -130,130 0,72 58,130 130,130 72,0 130,-58 130,-130 0,-72 -58,-130 -130,-130zm541 0c-71,0 -130,58 -130,130 0,72 59,130 130,130 72,0 131,-58 131,-130 0,-72 -59,-130 -131,-130zm-1082 0c-72,0 -130,58 -130,130 0,72 58,130 130,130 72,0 130,-58 130,-130 0,-72 -58,-130 -130,-130z"/>
  </g>
  <g id="_176205088">
   <path class="fil6" d="M21947 7534c1866,0 3730,0 5596,0 1864,0 3730,0 5597,0 508,0 1014,419 1119,928 677,3286 1355,6573 2032,9857 677,3284 1354,6571 2030,9855 105,509 -227,925 -736,925 -1866,0 -3732,0 -5598,0 -1864,0 -3730,0 -5596,0 -509,0 -1011,-416 -1116,-925 -677,-3284 -1354,-6571 -2031,-9855 -676,-3284 -1353,-6571 -2030,-9857 -105,-509 224,-928 733,-928z"/>
   <path class="fil5" d="M22150 7252c1866,0 3730,0 5596,0 1864,0 3730,0 5596,0 509,0 1015,419 1120,928 677,3286 1355,6573 2032,9857 677,3284 1353,6571 2030,9855 105,509 -227,925 -736,925 -1866,0 -3732,0 -5598,0 -1864,0 -3731,0 -5597,0 -508,0 -1010,-416 -1115,-925 -677,-3284 -1354,-6571 -2031,-9855 -677,-3284 -1353,-6571 -2030,-9857 -105,-509 224,-928 733,-928z"/>
   <path class="fil12" d="M22237 7677c1866,0 3732,0 5596,0 1866,0 3733,0 5599,0 276,0 548,226 605,503 677,3286 1355,6573 2032,9857 677,3284 1353,6571 2030,9855 57,276 -120,503 -397,503 -1867,0 -3732,0 -5598,0 -1866,0 -3732,0 -5598,0 -276,0 -550,-227 -607,-503 -677,-3284 -1354,-6571 -2030,-9855 -677,-3284 -1353,-6571 -2031,-9857 -57,-277 123,-503 399,-503z"/>
   <path class="fil7" d="M22237 7677c1866,0 3732,0 5596,0 1866,0 3733,0 5599,0 276,0 548,226 605,503l283 1373 -5147 0 -7052 0 -283 -1373c-57,-277 123,-503 399,-503z"/>
   <path class="fil0" d="M25915 11140c876,0 1756,0 2632,0 876,0 1756,0 2634,0 276,0 548,227 605,503 263,1281 528,2562 792,3841 264,1278 526,2557 791,3836 57,276 -123,502 -399,502 -878,0 -1758,0 -2634,0 -876,0 -1756,0 -2632,0 -276,0 -550,-226 -607,-502 -263,-1279 -527,-2557 -790,-3836 -264,-1279 -526,-2560 -791,-3841 -57,-276 123,-503 399,-503z"/>
   <g>
    <g>
     <path class="fil13" d="M28229 10733c550,0 1102,0 1651,0 549,0 1102,0 1653,0 118,0 200,98 182,217 -56,360 -115,721 -171,1081 -56,359 -113,721 -169,1080 -18,119 -131,216 -249,216 -386,0 -771,0 -1157,0 -27,0 -52,0 -78,0 -76,101 -150,203 -224,304 -102,139 -203,277 -304,415 -60,-138 -118,-276 -177,-415 -42,-101 -84,-203 -126,-304 -27,0 -54,0 -80,0 -188,0 -375,0 -561,0 -200,0 -397,0 -596,0 -118,0 -199,-97 -181,-216 56,-359 113,-721 169,-1080 56,-360 115,-721 171,-1081 18,-119 129,-217 247,-217z"/>
     <path class="fil12" d="M28925 11819c117,0 197,94 179,211 -18,117 -129,213 -246,213 -117,0 -197,-96 -179,-213 19,-117 129,-211 246,-211zm1573 0c117,0 198,94 180,211 -19,117 -130,213 -247,213 -118,0 -196,-96 -178,-213 18,-117 127,-211 245,-211zm-786 0c117,0 197,94 179,211 -19,117 -129,213 -246,213 -117,0 -197,-96 -179,-213 18,-117 129,-211 246,-211z"/>
    </g>
    <g>
     <path class="fil14" d="M31435 12713c1082,0 2164,0 3246,0 1082,0 2164,0 3246,0 235,0 398,191 361,424 -111,709 -223,1419 -334,2126 -111,709 -222,1417 -334,2125 -37,234 -257,425 -493,425 -757,0 -1515,0 -2272,0 -649,0 -1298,0 -1946,0 -370,0 -738,0 -1105,0 -390,0 -780,0 -1170,0 -233,0 -394,-191 -358,-425 112,-708 222,-1417 333,-2125 111,-708 223,-1417 334,-2126 37,-233 259,-424 492,-424z"/>
     <path class="fil15" d="M30634 17813c1082,0 2164,0 3246,0 1082,0 2164,0 3247,0 132,0 257,-60 350,-153 -490,-507 -980,-1014 -1471,-1521 -533,-558 -1066,-1116 -1599,-1673 -709,557 -1417,1115 -2125,1673 -651,507 -1300,1014 -1949,1521 1,2 1,3 3,5 27,27 53,54 79,81 61,42 135,67 219,67z"/>
     <path class="fil16" d="M31435 12713c1082,0 2164,0 3246,0 1082,0 2164,0 3246,0 132,0 239,59 302,153 -649,507 -1298,1013 -1947,1520 -709,558 -1416,1116 -2126,1674 -532,-558 -1066,-1116 -1599,-1674 -492,-507 -982,-1013 -1473,-1520 2,-2 4,-3 6,-5 34,-27 71,-54 105,-81 73,-43 156,-67 240,-67z"/>
    </g>
   </g>
   <line class="fil3 str10" x1="28028" y1="16420" x2="29801" y2= "16420" />
   <line class="fil3 str10" x1="27429" y1="15036" x2="29977" y2= "15036" />
   <line class="fil3 str10" x1="28919" y1="13602" x2="30117" y2= "13602" />
   <g>
    <path class="fil17" d="M28296 23033c911,0 1824,0 2737,0 911,0 1824,0 2739,0 581,0 1156,477 1277,1059 0,0 0,0 0,0 119,582 -261,1057 -842,1057 -914,0 -1827,0 -2738,0 -913,0 -1826,0 -2737,0 -583,0 -1156,-475 -1275,-1057 0,0 0,0 0,0 -121,-582 257,-1059 839,-1059z"/>
    <polygon class="fil12" points="31102,23480 31591,23480 31225,23913 31798,23913 31120,24702 31197,24276 30568,24276 "/>
   </g>
  </g>
  <g id="_567618392">
   <path class="fil3 str11" d="M55344 23248c-230,269 -573,440 -957,441 -695,2 -1253,-561 -1253,-1253 0,-692 561,-1253 1253,-1253 399,0 753,186 983,476"/>
   <path class="fil3 str11" d="M54614 22411c254,92 435,336 435,622 0,43 -4,85 -12,126l-1299 0c-8,-41 -13,-83 -13,-126 0,-286 182,-530 436,-622 -96,-70 -159,-184 -159,-312 0,-213 172,-386 385,-386 213,0 386,173 386,386 0,128 -63,242 -159,312z"/>
   <line class="fil3 str11" x1="55640" y1="22035" x2="55640" y2= "22838" />
   <line class="fil3 str11" x1="56041" y1="22436" x2="55239" y2= "22436" />
  </g>
  <path class="fil1" d="M50733 28950l1817 0 0 798 -1817 0 0 -798zm988 926l1816 0 0 798 -1816 0 0 -798zm1005 -926l1817 0 0 798 -1817 0 0 -798z"/>
  <g id="_567619016">
   <polygon class="fil11" points="23661,33685 24398,38642 25849,38642 25999,38642 27449,38642 28186,33685 25924,33762 "/>
   <polygon class="fil6" points="23661,33685 23765,34386 28110,34196 28186,33685 25924,33762 "/>
   <path class="fil11" d="M23319 33384l5255 0 0 482c-1890,166 -3383,175 -5255,0l0 -482z"/>
   <ellipse class="fil6" cx="25946" cy="33384" rx="2628" ry="148"/>
   <g>
    <path class="fil18" d="M27451 33394l-3009 0c0,0 66,-539 -278,-797 -344,-258 -741,-391 -529,-761 211,-371 72,-645 -93,-857 -165,-211 -648,-324 -453,-741 195,-416 245,-674 -3,-935 -248,-262 -457,-592 -162,-1241 294,-648 -47,-1263 -47,-1263 0,0 549,185 787,820 239,635 37,928 298,1242 261,314 559,337 648,721 90,384 -79,698 33,979 113,281 318,393 318,393 0,0 341,-191 264,-598 -76,-407 -578,-675 -429,-1045 148,-371 492,-455 464,-847 -28,-392 -393,-721 -99,-1273 294,-553 589,-840 650,-1181 61,-341 -15,-582 -15,-582 0,0 438,273 534,984 96,711 -109,949 -63,1376 47,426 67,311 285,625 218,314 261,675 159,939 -103,265 -248,251 -265,595 -17,344 450,1050 450,1050 0,0 383,-256 377,-649 -7,-394 -182,-579 155,-1049 338,-469 529,-106 632,-893 102,-787 241,-936 476,-1240 235,-304 488,-405 488,-405 0,0 -266,400 -167,883 99,483 370,1009 142,1425 -228,417 -446,344 -377,774 70,430 430,529 40,883 -390,354 -589,397 -539,777 49,381 393,473 -156,900 -549,427 -525,473 -516,991z"/>
    <line class="fil3 str2" x1="25847" y1="27502" x2="25922" y2= "33423" />
    <line class="fil3 str2" x1="23475" y1="28662" x2="25066" y2= "33430" />
    <line class="fil3 str2" x1="28407" y1="28619" x2="26971" y2= "33017" />
   </g>
  </g>
  <path class="fil7" d="M15909 13747l2612 0c94,0 170,77 170,171l0 1709c0,94 -76,171 -170,171l-2152 0 -902 584 271 -755 0 -1709c0,-94 77,-171 171,-171z"/>
  <g id="_567620696">
   <polygon class="fil12" points="17799,14790 16586,14168 16941,14790 16586,15412 "/>
   <polygon class="fil0" points="17799,14790 16586,14168 16941,14790 "/>
  </g>
  <g id="_567621320">
   <path class="fil7" d="M42833 9414l-2611 0c-94,0 -171,77 -171,171l0 1710c0,94 77,171 171,171l2152 0 902 583 -272 -754 0 -1710c0,-94 -77,-171 -171,-171z"/>
   <g>
    <polygon class="fil12" points="40943,10457 42157,9835 41801,10457 42157,11079 "/>
    <polygon class="fil0" points="40943,10457 42157,9835 41801,10457 "/>
   </g>
  </g>
  <g id="_567622112">
   <g>
    <rect class="fil12" transform="matrix(1.17534 -0.000626832 0.000838617 1.57244 43937.7 10873.6)" width="1407" height="1618" rx="128" ry="128"/>
    <path class="fil6" d="M45404 10873l37 0c82,0 150,67 150,150l1 2244c0,83 -67,151 -150,151l-36 0 -2 -2545z"/>
    <circle class="fil6" transform="matrix(1 -0.00053332 0.00053332 1 44217.3 11151.9)" r="108"/>
   </g>
   <path class="fil4" d="M46861 13881c-179,635 -367,1361 -478,1797l-1481 -1943c-13,-98 -38,-265 -74,-427 -56,-251 -149,-301 -149,-301 0,0 288,-263 400,-383 112,-120 18,-218 -125,-182 -143,37 -580,392 -580,392 0,0 199,-255 294,-354 94,-98 303,-176 328,-259 25,-83 -48,-141 -272,-64 -224,78 -624,530 -624,530 0,0 48,-160 145,-302 96,-141 321,-354 455,-456 133,-103 173,-203 42,-250 -131,-46 -292,93 -292,93 0,0 -58,-87 -181,-73 -124,13 -474,336 -628,685 -155,350 -18,677 91,905 108,228 479,830 479,830 0,0 907,2622 1913,3028 1005,406 1154,-564 1154,-564 177,-399 487,-1524 711,-2381l-1128 -321z"/>
   <path class="fil19" d="M49301 12100c0,0 -675,383 -1103,419 -1037,85 -1374,669 -1624,1740l174 27 347 98c-188,241 -403,495 -427,851 -35,529 379,891 379,891 0,0 39,414 47,917 -68,615 -232,1328 -347,1783 392,193 658,351 1774,496 1133,147 2303,-112 2694,-257 11,102 26,205 44,308 12,-27 17,-54 12,-82 -23,-135 -64,-279 -114,-435l0 0c0,0 -337,-1837 291,-3308 116,-200 260,-445 398,-699 23,35 46,70 69,106 223,-221 824,-718 1320,-1026 -143,-194 -282,-382 -409,-561l-1 -1c-61,-86 -126,-163 -195,-232 -303,-277 -759,-318 -1175,-409 -383,-83 -732,-209 -898,-601 -88,-206 -970,-153 -1256,-25z"/>
   <path class="fil7" d="M49301 12100c0,0 -629,357 -1057,414 14,213 83,572 376,817l0 0 0 0c39,32 82,63 129,90 107,103 235,305 181,663 -88,587 344,80 529,-211 131,-205 361,-287 486,-318 28,-5 57,-10 85,-16l0 0 0 0c714,-151 1152,-577 1329,-835 -345,-84 -650,-220 -802,-579 -9,-20 -25,-38 -47,-53 -215,-45 -459,-73 -722,-74 -197,18 -382,55 -487,102z"/>
   <path class="fil4" d="M49160 8512c-846,450 -701,962 -688,1539 14,578 -33,1151 115,1361 148,209 324,273 324,273 0,0 32,358 -1,611 -106,48 -225,97 -344,137 -37,295 11,899 1047,862 851,-30 1210,-432 1359,-732 -169,-76 -314,-200 -415,-438l0 0c-46,-153 -104,-364 -104,-697 0,-471 34,-560 34,-560 0,0 564,5 745,-449 181,-455 -170,-502 -170,-502 402,-1389 -953,-1909 -1902,-1405z"/>
   <path class="fil6" d="M48911 11685c0,0 18,194 14,398 681,-108 933,-530 914,-549 -20,-20 -108,62 -386,132 -277,71 -542,19 -542,19z"/>
   <path class="fil3 str8" d="M50596 10530c0,0 51,-141 205,-263 154,-121 221,-145 221,-145"/>
   <line class="fil3 str8" x1="50953" y1="10475" x2="50791" y2= "10276" />
   <ellipse class="fil10" cx="49716" cy="10484" rx="229" ry="67"/>
   <path class="fil10" d="M48475 10380l0 134c8,0 17,1 25,1 127,0 229,-31 229,-68 0,-37 -102,-67 -229,-67 -8,0 -17,0 -25,0z"/>
   <path class="fil3 str12" d="M49981 16274c0,0 -522,337 -1283,39 -761,-297 -1125,-152 -1125,-152"/>
   <path class="fil3 str6" d="M49588 9954c-22,-21 -70,-58 -139,-65 -96,-9 -143,27 -143,27"/>
   <ellipse class="fil6" cx="49440" cy="10056" rx="71" ry="131"/>
   <path class="fil3 str6" d="M48716 9939c23,-18 75,-51 145,-51 95,0 139,42 139,42"/>
   <ellipse class="fil6" cx="48861" cy="10056" rx="71" ry="131"/>
   <path class="fil3 str12" d="M51147 15232c-381,975 -439,2163 -408,3165"/>
   <path class="fil9" d="M48467 9911c-65,35 -169,127 -167,349 3,207 104,311 175,359 -1,-180 2,-373 -3,-568 -1,-47 -3,-94 -5,-140z"/>
   <path class="fil12" d="M48475 10564c-97,0 -175,79 -175,176 0,97 79,176 176,176l5 0c-5,-108 -6,-227 -6,-352z"/>
   <path class="fil6" d="M49315 9620c0,0 -36,-130 114,-141 150,-11 288,89 358,162 71,73 74,108 48,108 -27,0 -195,-120 -319,-118 -123,2 -203,7 -201,-11zm-352 0c0,0 36,-130 -114,-141 -150,-11 -288,89 -359,162 -70,73 -73,108 -47,108 26,0 195,-120 319,-118 123,2 202,7 201,-11z"/>
   <path class="fil3 str8" d="M49315 10875c-67,30 -132,41 -196,42"/>
   <path class="fil3 str13" d="M50596 12238c-119,545 -408,964 -884,1361 -984,820 -1456,-238 -839,-1323"/>
   <path class="fil3 str12" d="M47701 13145c0,0 -110,318 -216,587 -106,269 -233,432 -233,432"/>
   <path class="fil3 str8" d="M49312 10616c-15,113 -212,171 -311,104"/>
   <path class="fil16" d="M49340 8723c0,0 143,534 571,693 429,159 217,561 339,651 122,90 106,307 169,285 64,-21 180,-463 643,-435 0,0 351,47 170,502 -181,454 -745,449 -745,449 0,0 -34,89 -34,560 0,59 2,113 5,164l1 11 0 1c1,7 1,15 2,22l0 0c0,8 1,15 1,22l1 1c0,7 1,14 1,21l1 10c1,8 2,14 3,21l0 0c1,11 2,21 3,31l1 10c3,17 5,33 7,49l2 9 0 0 1 9 1 9 1 1 0 3 1 6 0 1 3 17 2 8 0 1 1 8c2,9 4,18 5,26l2 6 0 2c1,6 2,11 4,17l0 1 1 7 1 3 1 5 4 16 1 7 0 1 2 8 0 1 2 6 1 3 1 5 1 4 1 3 1 6 1 2 1 6 0 1 2 7 0 1 2 6 1 3 1 5 1 3 1 4 1 4 1 3 1 6 1 1 2 6 0 1 1 6 1 2 1 5 1 3 1 3 1 5 1 2 2 5 0 1 2 7 0 0 2 8 1 4 1 3 1 4 1 3 3 8 0 1 2 6 0 0 0 0c77,183 181,298 301,376 53,-21 83,-37 83,-37 595,-259 989,-816 964,-1605 -18,-560 -265,-1928 -914,-2581 -561,-563 -2143,-344 -2651,318 -181,234 -250,440 -261,613l0 1c-34,386 291,707 32,1374 -210,538 -4,1298 760,1729 14,-6 26,-11 39,-17l0 1c34,-252 1,-612 1,-612 0,0 -176,-64 -324,-273 -148,-210 -101,-783 -115,-1361 -1,-54 -3,-108 -6,-162 0,-3 20,-398 255,-722 235,-325 619,-444 619,-444z"/>
   <circle class="fil12" cx="50674" cy="10898" r="176"/>
   <path class="fil3 str5" d="M43820 12531c0,0 52,-144 208,-343 157,-199 197,-228 197,-228"/>
   <circle class="fil3 str14" transform="matrix(8.06028 -0.0823126 0.0823126 8.06028 49672.7 10105.3)" r="49"/>
   <path class="fil3 str15" d="M50804 9910c-254,-95 -562,-98 -819,-45"/>
   <path class="fil3 str16" d="M48868 10469c-52,26 -110,40 -172,41 -218,2 -396,-173 -398,-391 -2,-218 172,-396 390,-398 206,-2 377,154 397,355"/>
   <line class="fil3 str13" x1="49078" y1="9966" x2="49283" y2= "9964" />
   <path class="fil3 str8" d="M49112 10142c0,0 -90,181 -152,227 -62,46 -104,73 -104,73l117 101"/>
   <line class="fil3 str12" x1="51525" y1="14298" x2="51684" y2= "14603" />
   <line class="fil3 str5" x1="46640" y1="15984" x2="46449" y2= "15765" />
   <path class="fil4" d="M43427 36666l-1106 -368 988 -5903c0,0 1769,493 1760,567 -9,75 -314,1190 -619,2130 -383,1182 -721,2371 -1023,3574z"/>
   <path class="fil4" d="M49148 31751l1764 26c0,0 132,547 79,1535 -76,1417 -88,2847 -93,4268l-1229 -204 -521 -5625z"/>
   <g>
    <path class="fil7" d="M43228 38234l-3714 -1024c0,0 25,-339 288,-458 264,-120 1825,-376 2120,-500 295,-125 382,-229 561,-123 180,105 321,281 585,287 265,6 392,-28 463,95 70,122 -64,587 -115,922 -51,334 -188,801 -188,801z"/>
    <path class="fil19" d="M43228 38234l-3714 -1024c0,0 7,-97 55,-206l3716 1024c-32,122 -57,206 -57,206z"/>
    <path class="fil3 str4" d="M42784 37964c0,0 35,-506 249,-782 213,-276 489,-305 489,-305"/>
    <line class="fil3 str3" x1="40747" y1="36751" x2="40560" y2= "36564" />
    <line class="fil3 str3" x1="41020" y1="36694" x2="40833" y2= "36507" />
    <line class="fil3 str3" x1="41288" y1="36639" x2="41101" y2= "36452" />
    <line class="fil3 str3" x1="41561" y1="36581" x2="41373" y2= "36394" />
    <line class="fil3 str3" x1="41849" y1="36515" x2="41662" y2= "36328" />
    <line class="fil3 str3" x1="42075" y1="36452" x2="41888" y2= "36265" />
   </g>
   <g>
    <path class="fil7" d="M51123 39162l-2356 0c0,0 -19,-96 -2,-214 0,0 13,-465 374,-813 362,-349 344,-322 494,-719 150,-397 719,-344 935,-278 216,66 347,393 347,393 134,508 189,1275 208,1631z"/>
    <path class="fil19" d="M51123 39162l-2356 0c0,0 -19,-96 -2,-214l2345 0c5,81 10,153 13,214z"/>
    <path class="fil3 str3" d="M49415 38221c140,-59 555,-46 683,17"/>
    <path class="fil3 str3" d="M49542 37967c141,-59 556,-45 684,18"/>
    <path class="fil3 str3" d="M49657 37718c141,-59 555,-46 683,18"/>
    <path class="fil3 str3" d="M49738 37480c141,-58 555,-45 683,18"/>
   </g>
   <path class="fil20" d="M51469 21031l0 0c0,0 -582,6253 -626,6941 -2,33 -3,67 -4,103l878 3793c-2223,511 -3385,-53 -3385,-53l-34 -3586c-9,-139 -16,-283 -22,-429 -33,-897 219,-5041 249,-5524 -27,-2 -53,-4 -80,-7 0,0 -91,15 -273,8l-1885 4108c0,0 -254,589 -308,1100 -17,164 -21,341 -33,547l0 1c35,723 -481,3050 -481,3050 -915,33 -1985,-423 -2858,-715l1118 -3380 0 0c361,-1635 1146,-3467 2002,-5210l1 -1c196,-405 895,-2486 895,-2486l0 0c36,-161 71,-319 105,-474 403,197 659,358 1793,505 1133,147 2303,-112 2694,-257 69,651 315,1316 254,1966z"/>
   <path class="fil7" d="M46623 19291c36,-161 71,-319 105,-474l19 9c18,-71 37,-148 57,-229 159,13 417,62 551,238 202,266 406,291 873,106 468,-185 635,300 1063,220 428,-79 604,-374 957,-172 353,203 494,199 670,-70 64,-97 146,-134 226,-141 8,51 13,78 13,78l0 0c50,156 91,300 114,435 5,28 0,55 -12,82 8,49 17,98 27,148 -278,126 -986,364 -2320,308 -1348,-56 -2067,-379 -2343,-538zm4618 -27c1,9 3,18 4,27l-4 -27z"/>
   <path class="fil3 str17" d="M50495 19735c-110,514 360,1480 950,1469"/>
   <path class="fil3 str17" d="M47310 19599c0,0 -158,604 -520,869 -362,265 -539,236 -539,236"/>
   <path class="fil3 str17" d="M48599 21987c0,0 -80,-499 -40,-975 40,-476 163,-983 163,-983"/>
   <path class="fil3 str17" d="M48237 19975c0,0 -238,834 -57,1134 180,300 608,269 608,269"/>
   <path class="fil3 str17" d="M51201 21389c0,0 -744,6184 -703,6676 122,1426 325,1676 633,3354"/>
   <path class="fil3 str17" d="M48028 22009c0,0 -1141,2512 -1486,3167 -346,655 -677,1360 -740,1589 -64,230 -87,602 -261,1676 -100,617 -235,1221 -408,2093"/>
   <path class="fil3 str17" d="M49398 28114c0,0 -370,24 -613,33 -242,9 -492,9 -492,9"/>
   <path class="fil3 str17" d="M44776 26933c0,0 -298,-46 -576,-124 -278,-79 -384,-114 -384,-114"/>
   <path class="fil3 str17" d="M51587 31307c0,0 -684,236 -1699,210 -1014,-27 -1561,-216 -1561,-216"/>
   <path class="fil3 str17" d="M45567 30604c0,0 -1064,-145 -1772,-396 -709,-250 -1023,-338 -1023,-338"/>
   <path class="fil4" d="M51190 18333c-310,0 -692,37 -988,125 -260,77 -414,114 -432,185 -17,70 69,145 201,108 51,-15 176,-25 277,-41 -17,37 -356,210 -510,423 -212,293 -175,545 -80,539 94,-6 113,-269 294,-419 181,-150 319,-179 319,-179 0,0 -294,439 -317,702 -24,263 90,332 151,236 61,-95 74,-222 207,-456 132,-234 201,-266 201,-266 0,0 -203,429 -193,622 10,193 133,286 185,186 51,-100 60,-189 154,-379 95,-189 230,-308 230,-308 0,0 -40,296 -94,410 -53,114 66,215 185,70 119,-145 249,-452 320,-557 71,-105 371,-303 371,-303 16,-8 50,-27 98,-54l1168 -673c148,-90 471,-282 774,-537 357,-299 607,-645 590,-1055 -40,-926 -644,-1884 -1210,-2690 -375,249 -783,577 -1032,798 397,594 895,1280 973,1942l-504 426 -1282 1097 -56 48z"/>
   <path class="fil3 str18" d="M53449 16859c0,0 -175,-69 -268,-84 -92,-14 -173,2 -173,2"/>
   <line class="fil3 str18" x1="53355" y1="16601" x2="53137" y2= "16771" />
   <path class="fil3 str19" d="M48077 9264c38,0 3502,0 3502,0"/>
  </g>
 </g>
</svg>
