<?xml version="1.0" encoding="utf-8"?>
<!-- Generator: Adobe Illustrator 27.7.0, SVG Export Plug-In . SVG Version: 6.00 Build 0)  -->
<svg version="1.1" id="Layer_1" xmlns="http://www.w3.org/2000/svg" xmlns:xlink="http://www.w3.org/1999/xlink" x="0px" y="0px"
	 viewBox="0 0 500 500" enable-background="new 0 0 500 500" xml:space="preserve">
<g>
	<g>
		<g>
			<path fill="#D3D4D9" d="M43.9,426.9h389.4c0,0,80.5-7.3,64.6-65.4c-15.9-58.1-51.1-57-51.1-57s32.1-70.6-3-128.9
				c-28.9-48-122.7-90.7-283.7-34.1S-42.1,421.6,43.9,426.9z"/>
		</g>
		<g>
			<g>
				<g>
					<g>
						<path fill="#2E2E50" d="M279,93.7c0-4.3-3-7.8-7.3-7.8H36.8c-4.2,0-7.8,3.4-7.8,7.8v325.9c0,4.3,3.6,8.3,7.8,8.3h234.9
							c4.2,0,7.3-4,7.3-8.3V93.7z"/>
					</g>
				</g>
				<g>
					<g>
						<rect x="49" y="107" fill="#FFFFFF" width="209" height="301"/>
					</g>
				</g>
				<g>
					<g>
						<path fill="#2E2E50" d="M200,94.5c0-4.7-3.8-8.5-8.5-8.5h-66.9c-4.7,0-8.5,3.8-8.5,8.5v18.9c0,4.7,3.8,8.5,8.5,8.5h66.9
							c4.7,0,8.5-3.8,8.5-8.5V94.5z"/>
					</g>
				</g>
				<g>
					<g>
						<g>
							<path fill="#D3D4D9" d="M115,184.4c0,1.4-1.1,2.6-2.6,2.6H73.6c-1.4,0-2.6-1.2-2.6-2.6v-38.9c0-1.4,1.1-2.5,2.6-2.5h38.9
								c1.4,0,2.6,1.1,2.6,2.5V184.4z M77,183h33v-35H77V183z"/>
						</g>
					</g>
					<g>
						<g>
							<path fill="#D3D4D9" d="M115,252.4c0,1.4-1.1,2.6-2.6,2.6H73.6c-1.4,0-2.6-1.2-2.6-2.6v-38.9c0-1.4,1.1-2.5,2.6-2.5h38.9
								c1.4,0,2.6,1.1,2.6,2.5V252.4z M77,249h33v-33H77V249z"/>
						</g>
					</g>
					<g>
						<g>
							<path fill="#D3D4D9" d="M115,318.4c0,1.4-1.1,2.6-2.6,2.6H73.6c-1.4,0-2.6-1.2-2.6-2.6v-37.9c0-1.4,1.1-2.5,2.6-2.5h38.9
								c1.4,0,2.6,1.1,2.6,2.5V318.4z M77,316h33v-33H77V316z"/>
						</g>
					</g>
					<g>
						<g>
							<path fill="#D3D4D9" d="M115,387.4c0,1.4-1.1,2.6-2.6,2.6H73.6c-1.4,0-2.6-1.2-2.6-2.6v-38.9c0-1.4,1.1-2.5,2.6-2.5h38.9
								c1.4,0,2.6,1.1,2.6,2.5V387.4z M77,384h33v-33H77V384z"/>
						</g>
					</g>
					<g>
						<g>
							<g>
								<path fill="#424D9A" d="M92.5,174.2c-0.1,0-0.1,0-0.2,0c-0.9-0.1-1.8-0.5-2.4-1.2l-9.6-10.9c-1.2-1.4-1.1-3.6,0.3-4.8
									c1.4-1.2,3.6-1.1,4.8,0.3l7.3,8.3l25.8-23.4c1.4-1.3,3.6-1.2,4.8,0.2c1.3,1.4,1.2,3.6-0.2,4.8l-28.4,25.7
									C94.2,173.9,93.4,174.2,92.5,174.2z"/>
							</g>
						</g>
						<g>
							<g>
								<path fill="#424D9A" d="M92.5,240.6c-0.1,0-0.1,0-0.2,0c-0.9-0.1-1.8-0.5-2.4-1.2l-9.6-10.9c-1.2-1.4-1.1-3.6,0.3-4.8
									c1.4-1.2,3.6-1.1,4.8,0.3l7.3,8.3l25.8-23.4c1.4-1.3,3.6-1.2,4.8,0.2c1.3,1.4,1.2,3.6-0.2,4.8l-28.4,25.7
									C94.2,240.3,93.4,240.6,92.5,240.6z"/>
							</g>
						</g>
						<g>
							<g>
								<path fill="#424D9A" d="M92.5,307.7c-0.1,0-0.1,0-0.2,0c-0.9-0.1-1.8-0.5-2.4-1.2l-9.6-10.9c-1.2-1.4-1.1-3.6,0.3-4.8
									c1.4-1.2,3.6-1.1,4.8,0.3l7.3,8.3l25.8-23.4c1.4-1.3,3.6-1.2,4.8,0.2c1.3,1.4,1.2,3.6-0.2,4.8l-28.4,25.7
									C94.2,307.4,93.4,307.7,92.5,307.7z"/>
							</g>
						</g>
						<g>
							<g>
								<path fill="#424D9A" d="M92.5,374.9c-0.1,0-0.1,0-0.2,0c-0.9-0.1-1.8-0.5-2.4-1.2l-9.6-10.9c-1.2-1.4-1.1-3.6,0.3-4.8
									c1.4-1.2,3.6-1.1,4.8,0.3l7.3,8.3l25.8-23.4c1.4-1.3,3.6-1.2,4.8,0.2c1.3,1.4,1.2,3.6-0.2,4.8L94.8,374
									C94.2,374.6,93.4,374.9,92.5,374.9z"/>
							</g>
						</g>
					</g>
					<g>
						<g>
							<g>
								<path fill="#D3D4D9" d="M218.5,156h-88c-1.4,0-2.6-1.1-2.6-2.5c0-1.4,1.1-2.5,2.6-2.5h88c1.4,0,2.6,1.1,2.6,2.5
									C221,154.9,219.9,156,218.5,156z"/>
							</g>
						</g>
						<g>
							<g>
								<path fill="#D3D4D9" d="M232.1,169H130.5c-1.4,0-2.6-1.1-2.6-2.5s1.1-2.5,2.6-2.5h101.6c1.4,0,2.6,1.1,2.6,2.5
									S233.5,169,232.1,169z"/>
							</g>
						</g>
						<g>
							<g>
								<path fill="#D3D4D9" d="M201.4,180h-70.9c-1.4,0-2.6-1.1-2.6-2.5s1.1-2.5,2.6-2.5h70.9c1.4,0,2.6,1.1,2.6,2.5
									S202.8,180,201.4,180z"/>
							</g>
						</g>
					</g>
					<g>
						<g>
							<g>
								<path fill="#D3D4D9" d="M217.6,223h-87.1c-1.4,0-2.6-1.1-2.6-2.5s1.1-2.5,2.6-2.5h87.1c1.4,0,2.6,1.1,2.6,2.5
									S219,223,217.6,223z"/>
							</g>
						</g>
						<g>
							<g>
								<path fill="#D3D4D9" d="M232.1,234H130.5c-1.4,0-2.6-1.1-2.6-2.5s1.1-2.5,2.6-2.5h101.6c1.4,0,2.6,1.1,2.6,2.5
									S233.5,234,232.1,234z"/>
							</g>
						</g>
						<g>
							<g>
								<path fill="#D3D4D9" d="M200.5,245h-70c-1.4,0-2.6-1.1-2.6-2.5s1.1-2.5,2.6-2.5h70c1.4,0,2.6,1.1,2.6,2.5
									S201.9,245,200.5,245z"/>
							</g>
						</g>
					</g>
					<g>
						<g>
							<g>
								<path fill="#D3D4D9" d="M217.6,290h-87.1c-1.4,0-2.6-1.1-2.6-2.5c0-1.4,1.1-2.5,2.6-2.5h87.1c1.4,0,2.6,1.1,2.6,2.5
									C220.2,288.9,219,290,217.6,290z"/>
							</g>
						</g>
						<g>
							<g>
								<path fill="#D3D4D9" d="M232.1,301H130.5c-1.4,0-2.6-1.1-2.6-2.5c0-1.4,1.1-2.5,2.6-2.5h101.6c1.4,0,2.6,1.1,2.6,2.5
									C234.7,299.9,233.5,301,232.1,301z"/>
							</g>
						</g>
						<g>
							<g>
								<path fill="#D3D4D9" d="M200.5,313h-70c-1.4,0-2.6-1.1-2.6-2.5c0-1.4,1.1-2.5,2.6-2.5h70c1.4,0,2.6,1.1,2.6,2.5
									C203.1,311.9,201.9,313,200.5,313z"/>
							</g>
						</g>
					</g>
					<g>
						<g>
							<g>
								<path fill="#D3D4D9" d="M217.6,358h-87.1c-1.4,0-2.6-1.1-2.6-2.5c0-1.4,1.1-2.5,2.6-2.5h87.1c1.4,0,2.6,1.1,2.6,2.5
									C220.2,356.9,219,358,217.6,358z"/>
							</g>
						</g>
						<g>
							<g>
								<path fill="#D3D4D9" d="M232.1,370H130.5c-1.4,0-2.6-1.1-2.6-2.5c0-1.4,1.1-2.5,2.6-2.5h101.6c1.4,0,2.6,1.1,2.6,2.5
									C234.7,368.9,233.5,370,232.1,370z"/>
							</g>
						</g>
						<g>
							<g>
								<path fill="#D3D4D9" d="M200.5,382h-70c-1.4,0-2.6-1.1-2.6-2.5c0-1.4,1.1-2.5,2.6-2.5h70c1.4,0,2.6,1.1,2.6,2.5
									C203.1,380.9,201.9,382,200.5,382z"/>
							</g>
						</g>
					</g>
				</g>
			</g>
			<g>
				<g>
					<g>
						<g>
							<g>
								<path fill="#2E2E50" d="M307.3,425.2c-1.7,1.1-3.4,1.7-3.4,1.7L281.8,388c1.4-0.6,2.7-1.2,4-1.7l0.1,0
									c12.4-4.7,17.5-3.1,17.5-3.1l9.3,14.6c0,0-0.2,22.3-2.3,24.8C309.5,423.7,308.4,424.5,307.3,425.2z"/>
							</g>
						</g>
						<g>
							<g>
								<path fill="#F49E80" d="M319.2,373.5l-15.9,9.8c0,0,1,11.1,9.3,14.6l15.6-7.4L319.2,373.5z"/>
							</g>
						</g>
					</g>
					<g>
						<g>
							<g>
								<path fill="#2E2E50" d="M360.6,423.1c0.1,2-0.2,3.8-0.2,3.8l-44.7,0c0.2-1.5,0.3-3,0.5-4.3l0-0.1c2-13.1,6-16.7,6-16.7
									l17.3-0.8c0,0,19.2,11.2,20.4,14.3C360.4,420.4,360.6,421.8,360.6,423.1z"/>
							</g>
						</g>
						<g>
							<g>
								<path fill="#F49E80" d="M341.8,387.1l-1,18.6c0,0-11.1,5.5-18.6,0l0.3-18.1L341.8,387.1z"/>
							</g>
						</g>
					</g>
					<g>
						<g>
							<g>
								<g>
									<g>
										<g>
											<path fill="#2E2E50" d="M317.6,247.8c0,0,2.1,141.9,4,155.2c0,0,18.9,0.9,22.8-1.4l5.3-146.7
												C349.6,254.9,327.5,256.5,317.6,247.8z"/>
										</g>
									</g>
								</g>
								<g>
									<g>
										<g>
											<path fill="#2E2E50" d="M317.6,247.8c0,0-2.4,32.6,26.4,32.6c28.8,0,34-10.8,34-32.6H317.6z"/>
										</g>
									</g>
								</g>
							</g>
							<g>
								<g>
									<g>
										<path fill="#FFFFFF" d="M377.8,247.9c-4.4,5.5-25.9,4.8-30.2,4.8c-4.3,0-25.8,0.7-30.2-4.8c-4.4-5.5-6.7-71.3-4.1-76.2
											c0.9-1.8,4.9-3.5,9.6-5.8c7.9-3.9,17.8-6.9,17.8-6.9h13.9c0,0,7.1,1.9,14,5.1c6.1,2.8,12.2,5.7,13.3,8
											C384.5,176.9,382.2,242.4,377.8,247.9z"/>
									</g>
								</g>
							</g>
							<g>
								<g>
									<g>
										<g>
											<g>
												<path fill="#F49E80" d="M326.8,121.7c0,0-5.3-1.4-6.7,4.8c-1.4,6.2,2.8,11.7,9.4,9.7L326.8,121.7z"/>
											</g>
										</g>
									</g>
									<g>
										<g>
											<g>
												<path fill="#F49E80" d="M368.7,121.7c0,0,5.3-1.4,6.7,4.8c1.4,6.2-2.8,11.7-9.4,9.7L368.7,121.7z"/>
											</g>
										</g>
									</g>
								</g>
								<g>
									<g>
										<g>
											<g>
												<path fill="#F49E80" d="M356.5,164.1c0,4.1-3.9,7.5-8.8,7.5l0,0c-4.9,0-8.8-3.4-8.8-7.5v-13.3c0-4.1,3.9-7.5,8.8-7.5
													l0,0c4.9,0,8.8,3.4,8.8,7.5V164.1z"/>
											</g>
										</g>
									</g>
									<g>
										<g>
											<g>
												<path fill="#2E2E50" d="M337.8,150.6c0,0,2.4,7.9,10.6,8.2c8.2,0.2,12.2-15.5,12.2-15.5L337.8,150.6z"/>
											</g>
										</g>
									</g>
								</g>
								<g>
									<g>
										<g>
											<path fill="#F49E80" d="M369.9,121.4c0,1.3,0,2.7-0.2,4c-0.8,18.8-9.5,29.8-22,29.5c-12.5,0.4-21.2-10.7-22-29.5
												c-0.1-1.5-0.2-3-0.1-4.4c0-1.2,0.1-2.4,0.2-3.5c1.3-14,9.4-22,22-21.7c12.5-0.3,20.7,7.7,22,21.7
												C369.8,118.8,369.9,120.1,369.9,121.4z"/>
										</g>
									</g>
								</g>
							</g>
						</g>
						<g>
							<g>
								<path fill="#424D9A" d="M379.6,169.2c0,0,6.8,3.7,14.1,18.3c7.3,14.6,11.9,29.2,11.9,29.2s-10.9,5.6-30,8.1
									c0,0-5.7-21.3-7.1-31.6C367.1,182.8,371.4,172.1,379.6,169.2z"/>
							</g>
						</g>
						<g>
							<g>
								<path fill="#424D9A" d="M321.6,166.3c0,0-12.5,5.1-24.9,15.7c-12.4,10.6-35.4,35.8-35.4,35.8s7.7,0.1,24.3,9.9
									c0,0,26.8-21.8,32.1-30.7C322.9,188,327.9,172.1,321.6,166.3z"/>
							</g>
						</g>
					</g>
				</g>
				<g>
					<g>
						<g>
							<g>
								<g>
									<path fill="#F49E80" d="M392,233.2c0.1,1,0.4,2,0.9,2.9c0,0,0.1,0.1,0.1,0.2c0.1,0.3,0.3,0.5,0.4,0.8
										c0.2,0.3,0.5,0.7,0.7,1c2.2,1.4,4,2.5,4.2,2.7c0,0,0,0,0,0c0,0,0,0,0.1,0c2.2,0.6,4.8,0.5,7.1-0.6c2.2-1.1,4.3-2.1,6.5-3.2
										c1.8-0.9,3.5-1.8,5.2-2.7c6.8-3.6,13.6-7.3,20.3-11.1c0.4-0.3,0.9-0.5,1.3-0.8c0.6-0.4,1.2-0.8,1.7-1.3
										c1.2-1.1,2.2-2.4,2.8-3.7c0.2-0.5,0.5-1.1,0.6-1.6c0.2-0.6,0.3-1.3,0.3-1.9c0.1-0.9-0.1-1.9-0.4-2.7
										c-0.1-0.3-0.2-0.6-0.3-0.8c-0.1-0.2-0.3-0.5-0.4-0.7c-0.9-1.3-2.2-2.3-3.8-2.9c-2.4-0.9-5.4-0.9-8.2,0.2c0,0-0.6,0-0.6,0.1
										c-0.1,0-0.8,0-0.8,0.1c0,0,0,0,0,0c-2,0.9-3.6,1.9-5.6,2.8c-5.2,2.4-10,4.9-15.1,7.5c-0.9,0.4-1.7,0.9-2.5,1.3
										c-1.2,0.6-2.4,1.2-3.5,1.9c-0.9,0.5-1.8,0.9-2.7,1.4c-1,0.5-2.1,0.9-3.1,1.4c-0.4,0.2-1,0.4-1.4,0.7l0,0
										C393.2,226.5,391.7,229.9,392,233.2z"/>
								</g>
							</g>
						</g>
					</g>
					<g>
						<g>
							<g>
								<g>
									<g>
										<g>
											<g>
												<g>
													<g>
														<g>
															<g>
																<g>
																	<path fill="#F49E80" d="M454.2,207c0,0.1,0,0.1,0,0.2c0,0.1,0,0.3,0,0.4c0,0.1,0,0.1,0,0.2c0,0,0,0.1,0,0.1
																		c0,0.1,0,0.1,0,0.2c0,0.1,0,0.1,0,0.1c0,0.1-0.1,0.2-0.1,0.3c0,0,0,0.1,0,0.1c0,0,0,0.1,0,0.1c0,0,0,0.1,0,0.1
																		c0,0-0.1,0.1-0.1,0.1c-0.1,0.1-0.1,0.2-0.2,0.3c-0.1,0.1-0.1,0.2-0.2,0.2c0,0.1-0.1,0.1-0.1,0.1
																		c-0.1,0.1-0.2,0.2-0.3,0.2c0,0,0,0-0.1,0c-0.1,0-0.1,0.1-0.2,0.1c0,0-0.1,0-0.1,0c-0.1,0.1-0.2,0.1-0.2,0.1
																		c-0.1,0-0.3,0.1-0.5,0.1c-0.3,0.1-0.6,0.1-0.9,0.2c-0.1,0-0.2,0.1-0.3,0.1c-0.1,0-0.3,0.1-0.4,0.1
																		c-0.2,0-0.5,0.1-0.7,0.1c0.3,0,0.6-0.1,0.9-0.1c0.2,0,0.3,0,0.5-0.1c0.3,0,0.7-0.1,1-0.1l0,0c0.1,0,0.2,0,0.3,0
																		c0.1,0,0.3,0,0.4,0c0.1,0.1,0.1,0.2,0.2,0.3c0.1,0.2,0.2,0.4,0.3,0.7l0,0c0,0,0,0.1,0.1,0.1c0,0.1,0.1,0.3,0.1,0.4
																		c0,0.1,0,0.1,0,0.2c0,0.1,0,0.2,0,0.2c0,0,0,0,0,0c0,0.1,0,0.1,0,0.2c0,0,0,0.1,0,0.1c0,0,0,0,0,0c0,0,0,0,0,0.1
																		c0,0,0,0,0,0c0,0,0,0.1,0,0.1c0,0.1,0,0.2,0,0.3c0,0,0,0,0,0.1c0,0,0,0,0,0c0,0,0,0,0,0c0,0,0,0,0,0.1
																		c0,0.2-0.1,0.3-0.2,0.5c0,0,0,0,0,0.1c0,0,0,0,0,0.1c0,0,0,0,0,0c0,0,0,0.1-0.1,0.1c0,0,0,0,0,0
																		c0,0-0.1,0.1-0.1,0.1c0,0,0,0-0.1,0.1c0,0,0,0,0,0c0,0,0,0-0.1,0.1c0,0-0.1,0.1-0.1,0.1c0,0,0,0-0.1,0.1
																		c0,0-0.1,0-0.1,0.1c0,0-0.1,0.1-0.1,0.1c0,0,0,0-0.1,0.1c-0.1,0-0.1,0.1-0.2,0.1c-0.1,0.1-0.2,0.1-0.3,0.2
																		c-0.1,0-0.1,0.1-0.2,0.1c0,0,0,0,0,0c-0.1,0-0.1,0.1-0.2,0.1c-0.1,0-0.1,0.1-0.2,0.1c0,0-0.1,0.1-0.1,0.1
																		c0,0,0,0-0.1,0c-0.1,0-0.1,0.1-0.2,0.1c0,0,0,0,0,0c0,0-0.1,0-0.1,0c-0.1,0-0.1,0.1-0.2,0.1c0,0,0,0,0,0s0,0,0,0
																		c0,0,0,0,0,0c-0.2,0.1-0.4,0.1-0.7,0.2c-0.2,0.1-0.5,0.1-0.8,0.2c-0.1,0-0.1,0-0.2,0c0,0,0.1,0,0.2,0
																		c0.2,0,0.5,0,0.8-0.1l0,0c0,0,0,0,0,0c0.2,0,0.3,0,0.5,0c-0.2,0-0.3,0-0.5,0h0c0,0,0,0,0,0c0,0,0,0,0,0
																		c0,0,0,0,0,0c0,0,0.1,0.1,0.2,0.2c0.1,0.1,0.2,0.3,0.3,0.5c0,0,0,0,0,0.1c0,0,0,0.1,0,0.1c0,0,0,0.1,0,0.1
																		c0,0.2,0.1,0.4,0,0.7c0,0,0,0.1,0,0.1c0,0.1,0,0.1,0,0.1c0,0.2-0.1,0.4-0.3,0.6c0,0.1-0.1,0.1-0.1,0.2
																		c-0.1,0.1-0.2,0.2-0.3,0.3c0,0.1-0.1,0.1-0.1,0.2c0,0,0,0,0,0.1c0,0,0,0,0,0l0,0c-0.5,0.2-1,0.4-1.6,0.6
																		c-0.2,0.1-0.5,0.1-0.7,0.2c-0.1,0-0.2,0.1-0.3,0.1c0,0-0.1,0-0.1,0c-0.2,0.1-0.4,0.1-0.6,0.2
																		c-0.4,0.1-0.7,0.2-1.1,0.3l0,0c-2.1,0.4-4.4,0.7-6.7,0.8c0,0,0,0,0,0c-0.1,0-0.3,0-0.4,0c0,0,0,0,0,0
																		c-2.8-0.8-5-2.9-6.4-7.4c-0.1-0.4-0.2-0.8-0.3-1.2c-0.5-1.8-0.5-3.4-0.3-4.6c0.2-0.9,0.8-2.9,1.6-3.9c0,0,0,0,0,0
																		c2.7-1.4,5.8-2.2,5.8-2.2c0.1,0,1.7-0.7,3.8-1.5c0.6-0.2,1.3-0.5,2-0.7c1.4-0.5,2.9-1,4.2-1.4c0,0,0,0,0,0
																		c0.3-0.1,2.2-0.5,3.1,1c1,1.7,1,3.4-0.4,4c0.1,0,0.2-0.1,0.3-0.1c-0.2,0.1-0.4,0.2-0.6,0.3
																		c-0.2,0.1-0.5,0.2-0.7,0.3c-0.1,0-0.1,0.1-0.2,0.1l0,0c-0.1,0.1-0.2,0.1-0.4,0.2c-0.6,0.2-1.3,0.5-2.1,0.7
																		c0.1,0,0.2,0,0.2-0.1c0,0,0,0,0.1,0c0.1,0,0.3-0.1,0.4-0.1c0.2,0,0.3-0.1,0.5-0.1c0.1,0,0.3-0.1,0.4-0.1
																		c0.3-0.1,0.5-0.1,0.8-0.2c0.1,0,0.2,0,0.3-0.1c0.2,0,0.3-0.1,0.5-0.1c0.1,0,0.1,0,0.2,0c0.2,0,0.4-0.1,0.6-0.1
																		c0.2,0,0.4-0.1,0.7-0.1c0,0,0,0,0.1,0c0.1,0,0.3,0,0.4-0.1l0,0c0,0,0,0,0,0c0,0,0.1,0,0.1,0c0,0-0.1,0-0.1,0v0
																		c0,0,0,0,0.1,0.1c0,0,0,0,0,0c0,0,0.1,0,0.1,0.1c0.1,0.1,0.2,0.2,0.3,0.3c0.1,0.1,0.2,0.2,0.2,0.3c0,0,0,0,0,0.1
																		c0,0,0,0,0,0.1c0,0.1,0.1,0.1,0.1,0.2c0,0,0,0.1,0.1,0.1c0,0,0,0.1,0,0.1l0,0c0,0,0.1,0.1,0.1,0.2c0,0,0,0.1,0,0.1
																		c0,0.1,0.1,0.1,0.1,0.2c0,0.1,0,0.1,0,0.2c0,0.1,0,0.1,0,0.2c0,0.1,0.1,0.2,0.1,0.4c0,0,0,0.1,0,0.1
																		c0,0,0,0.1,0,0.1c0,0,0,0.1,0,0.1c0,0,0,0.1,0,0.1c0,0,0,0,0,0.1c0,0,0,0,0,0c0,0,0,0,0,0
																		C454.2,206.9,454.2,207,454.2,207z"/>
																</g>
															</g>
														</g>
													</g>
												</g>
											</g>
										</g>
									</g>
								</g>
							</g>
						</g>
						<g>
							<g>
								<g>
									<path fill="#F49E80" d="M454.5,205.7c0-0.1,0-0.2-0.1-0.3c0,0,0,0,0,0c0,0,0,0,0,0c0,0,0,0,0-0.1c0,0,0-0.1,0-0.1
										c0,0,0-0.1,0-0.1c0,0,0-0.1,0-0.1c0,0,0-0.1,0-0.1c-0.1-0.1-0.1-0.2-0.2-0.3c0,0-0.1-0.1-0.1-0.1c0,0-0.1-0.1-0.1-0.1
										c0-0.1-0.1-0.1-0.1-0.2c-0.1-0.1-0.1-0.2-0.2-0.2c0,0-0.1-0.1-0.1-0.1c0,0-0.1-0.1-0.1-0.1c0,0-0.1-0.1-0.1-0.1
										c0,0,0,0-0.1-0.1c0,0,0,0-0.1,0c0,0,0,0-0.1,0c0,0-0.1,0-0.1-0.1c-0.1,0-0.1-0.1-0.2-0.1c-0.1-0.1-0.2-0.1-0.3-0.2
										c0,0-0.1,0-0.1,0c0,0,0,0,0,0c0,0,0,0-0.1,0l0,0l0,0c0,0,0,0,0,0c0,0,0,0,0,0h0c-0.2-0.1-0.4-0.2-0.6-0.2
										c-0.2-0.1-0.4-0.1-0.4-0.1s-0.1,0-0.2,0.1l0,0c-0.1,0-0.2,0.1-0.3,0.2c-0.6,0.4-1.7,1.1-2.8,1.9l0,0c0,0-4,2.1-4,3.4
										c0,1,1.1,2.7,3.1,2.8c-0.7,0.6-1.3,1.1-1.3,1.6c0,0.9,1,2.6,2.8,2.7c-0.9,0.7-1.8,1.4-1.8,2.1c0,1,1.1,2.7,3.1,2.8
										c0.4,0,0.8-0.1,1.2-0.2c0.1,0,0.1-0.1,0.1-0.1c0,0,0.1-0.1,0.1-0.1c0.1,0,0.1-0.1,0.2-0.1c0.1,0,0.1-0.1,0.1-0.1
										c0.1-0.1,0.2-0.1,0.3-0.2c0.5-0.3,1-0.6,1.4-0.9l0,0v0c0,0,0,0,0-0.1c0-0.1,0.1-0.1,0.1-0.2c0.1-0.2,0.2-0.4,0.2-0.6
										c0.1-0.2,0.1-0.5,0.1-0.7c0,0,0-0.1,0-0.1c0,0,0-0.1,0-0.1c0-0.2-0.1-0.4-0.2-0.6c0,0,0-0.1-0.1-0.1c0,0,0-0.1-0.1-0.1
										c0,0,0,0,0-0.1c-0.1-0.2-0.3-0.3-0.4-0.4c-0.1-0.1-0.2-0.1-0.3-0.2c0,0,0,0,0,0c0,0,0,0,0,0l0,0c0,0,0,0,0,0c0,0,0,0,0,0
										c0,0,0,0,0,0s0.2-0.2,0.5-0.4l0,0c0,0,0,0,0,0c0,0,0.1-0.1,0.1-0.1c0,0,0,0,0.1-0.1c0,0,0,0,0,0c0,0,0.1-0.1,0.1-0.1
										c0,0,0,0,0,0c0,0,0.1-0.1,0.1-0.1c0.1-0.1,0.1-0.1,0.2-0.2c0.1-0.1,0.1-0.1,0.2-0.2c0,0,0,0,0,0c0.1-0.1,0.1-0.1,0.1-0.2
										c0.1-0.1,0.2-0.2,0.2-0.3c0,0,0.1-0.1,0.1-0.1c0,0,0,0,0-0.1c0,0,0.1-0.1,0.1-0.1c0,0,0-0.1,0.1-0.1c0,0,0-0.1,0.1-0.1
										c0,0,0.1-0.1,0.1-0.1c0,0,0-0.1,0.1-0.1c0,0,0-0.1,0-0.1c0,0,0-0.1,0.1-0.2c0,0,0,0,0,0c0,0,0-0.1,0-0.1c0,0,0,0,0,0
										c0,0,0-0.1,0-0.1c0-0.2,0.1-0.3,0.1-0.5c0,0,0,0,0-0.1c0,0,0,0,0,0c0,0,0-0.1,0-0.1c0-0.1,0-0.2,0-0.3c0,0,0-0.1,0-0.1
										c0,0,0,0,0,0c0,0,0,0,0-0.1c0,0,0,0,0,0c0,0,0-0.1,0-0.1c0-0.1-0.1-0.2-0.1-0.2c0-0.1-0.1-0.1-0.1-0.2
										c0-0.1-0.1-0.1-0.1-0.2c-0.1-0.1-0.1-0.2-0.2-0.4c0,0-0.1-0.1-0.1-0.1c0,0,0,0,0,0c-0.1-0.1-0.2-0.2-0.2-0.3
										c-0.1-0.1-0.2-0.2-0.2-0.2c-0.1-0.1-0.2-0.2-0.3-0.2c-0.3-0.2-0.4-0.2-0.4-0.2s0.1-0.1,0.2-0.2c0,0,0,0,0.1-0.1
										c0,0,0.1-0.1,0.1-0.1c0,0,0,0,0.1-0.1c0.1-0.1,0.2-0.2,0.2-0.3c0-0.1,0.1-0.1,0.1-0.2c0-0.1,0.1-0.2,0.1-0.3
										c0-0.1,0.1-0.2,0.1-0.3c0-0.1,0-0.1,0-0.2c0,0,0-0.1,0-0.1c0,0,0-0.1,0-0.1c0,0,0-0.1,0-0.1c0-0.1,0-0.2,0-0.3
										c0-0.1,0-0.1,0-0.2c0,0,0-0.1,0-0.2c0,0,0-0.1,0-0.1c0-0.1,0-0.1,0-0.2c0-0.1,0-0.3-0.1-0.4
										C454.6,205.8,454.5,205.7,454.5,205.7z"/>
								</g>
							</g>
						</g>
						<g>
							<g>
								<g>
									<path fill="#F49E80" d="M449.9,198.3c0,0-5.2,1.2-5.5,3.3c-0.2,2.1,1.2,3.7,5.2,2.5C454.6,202.7,451.8,198.7,449.9,198.3z"
										/>
								</g>
							</g>
						</g>
						<g>
							<g>
								<g>
									<path fill="#F49E80" d="M454.5,205.7c0-0.1,0-0.2-0.1-0.3c0,0,0,0,0,0c0,0,0,0,0,0c0,0,0,0,0-0.1c0,0,0-0.1,0-0.1
										c0,0,0-0.1,0-0.1c0,0,0-0.1,0-0.1c0,0,0-0.1,0-0.1c-0.1-0.1-0.1-0.2-0.2-0.3c0,0-0.1-0.1-0.1-0.1c0,0-0.1-0.1-0.1-0.1
										c0-0.1-0.1-0.1-0.1-0.2c-0.1-0.1-0.1-0.2-0.2-0.2c0,0-0.1-0.1-0.1-0.1c0,0-0.1-0.1-0.1-0.1c0,0-0.1-0.1-0.1-0.1
										c0,0,0,0-0.1-0.1c0,0,0,0-0.1,0c0,0,0,0-0.1,0c0,0-0.1,0-0.1-0.1c-0.1,0-0.1-0.1-0.2-0.1c-0.1-0.1-0.2-0.1-0.3-0.2
										c0,0-0.1,0-0.1,0c0,0,0,0,0,0c0,0,0,0-0.1,0l0,0l0,0c0,0,0,0,0,0c0,0,0,0,0,0h0c-0.2-0.1-0.4-0.2-0.6-0.2
										c-0.2-0.1-0.4-0.1-0.4-0.1s-0.1,0-0.2,0.1l0,0c-0.1,0-0.2,0.1-0.3,0.2c-0.6,0.4-1.7,1.1-2.8,1.9l0,0c0,0-4,2.1-4,3.4
										c0,1,1.1,2.7,3.1,2.8c-0.7,0.6-1.3,1.1-1.3,1.6c0,0.9,1,2.6,2.8,2.7c-0.9,0.7-1.8,1.4-1.8,2.1c0,1,1.1,2.7,3.1,2.8
										c0.4,0,0.8-0.1,1.2-0.2c0.1,0,0.1-0.1,0.1-0.1c0,0,0.1-0.1,0.1-0.1c0.1,0,0.1-0.1,0.2-0.1c0.1,0,0.1-0.1,0.1-0.1
										c0.1-0.1,0.2-0.1,0.3-0.2c0.5-0.3,1-0.6,1.4-0.9l0,0v0c0,0,0,0,0-0.1c0-0.1,0.1-0.1,0.1-0.2c0.1-0.2,0.2-0.4,0.2-0.6
										c0.1-0.2,0.1-0.5,0.1-0.7c0,0,0-0.1,0-0.1c0,0,0-0.1,0-0.1c0-0.2-0.1-0.4-0.2-0.6c0,0,0-0.1-0.1-0.1c0,0,0-0.1-0.1-0.1
										c0,0,0,0,0-0.1c-0.1-0.2-0.3-0.3-0.4-0.4c-0.1-0.1-0.2-0.1-0.3-0.2c0,0,0,0,0,0c0,0,0,0,0,0l0,0c0,0,0,0,0,0c0,0,0,0,0,0
										c0,0,0,0,0,0s0.2-0.2,0.5-0.4l0,0c0,0,0,0,0,0c0,0,0.1-0.1,0.1-0.1c0,0,0,0,0.1-0.1c0,0,0,0,0,0c0,0,0.1-0.1,0.1-0.1
										c0,0,0,0,0,0c0,0,0.1-0.1,0.1-0.1c0.1-0.1,0.1-0.1,0.2-0.2c0.1-0.1,0.1-0.1,0.2-0.2c0,0,0,0,0,0c0.1-0.1,0.1-0.1,0.1-0.2
										c0.1-0.1,0.2-0.2,0.2-0.3c0,0,0.1-0.1,0.1-0.1c0,0,0,0,0-0.1c0,0,0.1-0.1,0.1-0.1c0,0,0-0.1,0.1-0.1c0,0,0-0.1,0.1-0.1
										c0,0,0.1-0.1,0.1-0.1c0,0,0-0.1,0.1-0.1c0,0,0-0.1,0-0.1c0,0,0-0.1,0.1-0.2c0,0,0,0,0,0c0,0,0-0.1,0-0.1c0,0,0,0,0,0
										c0,0,0-0.1,0-0.1c0-0.2,0.1-0.3,0.1-0.5c0,0,0,0,0-0.1c0,0,0,0,0,0c0,0,0-0.1,0-0.1c0-0.1,0-0.2,0-0.3c0,0,0-0.1,0-0.1
										c0,0,0,0,0,0c0,0,0,0,0-0.1c0,0,0,0,0,0c0,0,0-0.1,0-0.1c0-0.1-0.1-0.2-0.1-0.2c0-0.1-0.1-0.1-0.1-0.2
										c0-0.1-0.1-0.1-0.1-0.2c-0.1-0.1-0.1-0.2-0.2-0.4c0,0-0.1-0.1-0.1-0.1c0,0,0,0,0,0c-0.1-0.1-0.2-0.2-0.2-0.3
										c-0.1-0.1-0.2-0.2-0.2-0.2c-0.1-0.1-0.2-0.2-0.3-0.2c-0.3-0.2-0.4-0.2-0.4-0.2s0.1-0.1,0.2-0.2c0,0,0,0,0.1-0.1
										c0,0,0.1-0.1,0.1-0.1c0,0,0,0,0.1-0.1c0.1-0.1,0.2-0.2,0.2-0.3c0-0.1,0.1-0.1,0.1-0.2c0-0.1,0.1-0.2,0.1-0.3
										c0-0.1,0.1-0.2,0.1-0.3c0-0.1,0-0.1,0-0.2c0,0,0-0.1,0-0.1c0,0,0-0.1,0-0.1c0,0,0-0.1,0-0.1c0-0.1,0-0.2,0-0.3
										c0-0.1,0-0.1,0-0.2c0,0,0-0.1,0-0.2c0,0,0-0.1,0-0.1c0-0.1,0-0.1,0-0.2c0-0.1,0-0.3-0.1-0.4
										C454.6,205.8,454.5,205.7,454.5,205.7z"/>
								</g>
							</g>
						</g>
						<g>
							<g>
								<g>
									<path fill="#F49E80" d="M449.9,198.3c0,0-5.2,1.2-5.5,3.3c-0.2,2.1,1.2,3.7,5.2,2.5C454.6,202.7,451.8,198.7,449.9,198.3z"
										/>
								</g>
							</g>
						</g>
						<g>
							<g>
								<g>
									<path fill="#F49E80" d="M432.9,203.5c-0.9,1.1-1.5,3.2-1.7,4.1c-0.1,0.3-0.1,0.4-0.1,0.4l0,0c-0.9,3.2,0.8,5.7,0.8,5.7h0
										c10.1-0.1,7.6-9.8,7.6-9.8s7.5-5.5,2.5-8.2C438.8,194.2,432.9,203.5,432.9,203.5z"/>
								</g>
							</g>
						</g>
					</g>
				</g>
				<g>
					<g>
						<path fill="#2E2E50" d="M347.5,253.8l30.3-6c0,0,29.4,57.9,16.7,82.2c-12.7,24.3-74.3,66.3-74.3,66.3s-12.7-7.9-13.2-20.2
							c0,0,52.4-46.8,55.6-64.5C365.9,294,347.5,253.8,347.5,253.8z"/>
					</g>
				</g>
				<g>
					<g>
						<path fill="#2E2E50" d="M345.1,181.4c0-0.2-0.1-0.3-0.1-0.3l-3.9-5.6l6.6-3.7l5.3,2.2l-2.4,7.2c0,0,5.6,29.1,4.5,52.3l-6,8.6
							l-6.9-8.3C342.2,233.7,345.5,191.5,345.1,181.4z"/>
					</g>
				</g>
				<g>
					<g>
						<path fill="#424D9A" d="M379.7,221.8c0,0-19.8,24.2,9.8,24.1c18.2-0.1,46.8-21.1,46.8-21.1s1.9-9.5-8.2-17.9l-28.6,6.7
							L379.7,221.8z"/>
					</g>
				</g>
				<g>
					<g>
						<path fill="#424D9A" d="M382.4,223.8L382.4,223.8c1.6-21.2,1.1-49-0.5-52.1c-1.2-2.3-12.4-7.8-18.5-10.6
							c-0.9,21.7-14.8,62.3-14.8,62.3c-3.1-12.2-15.8-54-19.4-61.2c-4.7,2.3-15.1,7.6-16,9.4c-2.1,4.1-0.8,51.4,2.2,69.5
							c0.4,23.6-2.9,41.9-2.9,41.9c19.1,6.1,41.3,6.1,41.3,6.1v-6.4l2.3,5.4c16.9-1.6,35.3-14.5,35.3-14.5
							C384.9,249,382.4,223.8,382.4,223.8z"/>
					</g>
				</g>
				<g>
					<g>
						<path fill="#2E2E50" d="M325.4,121.6l0.2,3.1c0,0,1.5-1.3,1.7-3.8c0,0,7.7-2.4,7.9-13.4c0,0,19.3,10.1,31.6,2.9
							c0,0,2.5,6.5,2.3,11.8c0,0,11.4-13.7,1.3-25.5c-10.1-11.8-36.2-10.3-39.6,1.4c0,0-4.9-1.9-9.7,4.9c-4.8,6.8,0,20.9,0,20.9
							S322.4,121.6,325.4,121.6z"/>
					</g>
				</g>
				<g>
					<g>
						<g>
							<path fill="#FFFFFF" d="M337.1,138.6c-5.8,0-10.6-4.8-10.6-10.6c0-5.8,4.8-10.6,10.6-10.6c5.8,0,10.6,4.8,10.6,10.6
								C347.7,133.9,342.9,138.6,337.1,138.6z M337.1,119.1c-4.9,0-8.9,4-8.9,8.9c0,4.9,4,8.9,8.9,8.9c4.9,0,8.9-4,8.9-8.9
								C346,123.1,342,119.1,337.1,119.1z"/>
						</g>
					</g>
					<g>
						<g>
							<path fill="#FFFFFF" d="M360.7,138.6c-5.8,0-10.6-4.8-10.6-10.6c0-5.8,4.8-10.6,10.6-10.6c5.8,0,10.6,4.8,10.6,10.6
								C371.3,133.9,366.5,138.6,360.7,138.6z M360.7,119.1c-4.9,0-8.9,4-8.9,8.9c0,4.9,4,8.9,8.9,8.9c4.9,0,8.9-4,8.9-8.9
								C369.6,123.1,365.6,119.1,360.7,119.1z"/>
						</g>
					</g>
					<g>
						<g>
							<rect x="345" y="127" fill="#FFFFFF" width="7" height="2"/>
						</g>
					</g>
				</g>
				<g>
					<g>
						<path fill="#FFFFFF" d="M365,161.6c-1.7-1.7-8.4-5.2-8.4-5.2c0.4,10.8-6.9,14.4-8.9,15.1c-2-0.8-9.3-4.3-8.9-15.1
							c0,0-6.7,3.5-8.4,5.2c-1.7,1.7,6.5,22,6.5,22s0.5-6.3,10.8-11.6c10.4,5.3,12.7,11.4,12.7,11.4S366.6,163.3,365,161.6z"/>
					</g>
				</g>
				<g>
					<g>
						<g>
							<g>
								<g>
									<g>
										<path fill="#F49E80" d="M269.3,222.5c-0.1,0.1-0.2,0.3-0.3,0.4c-2.7,4-1.7,9.8,2.4,13.2c0.9,0.7,1.8,1.5,2.7,2.2
											c1,0.8,2,1.6,3,2.4c5,4,10,7.8,15.2,11.6c1,0.8,2.1,1.5,3.2,2.3c0.9,0.6,1.7,1.3,2.6,1.9c1.4,1,2.9,2.1,4.3,3.1
											c4.2,2.9,9.7,2.7,12.5-0.3c0.2-0.2,0.3-0.4,0.5-0.6c2.3-3,1.8-7.7-0.9-11.3c0,0-0.1-0.1-0.1-0.1c-0.4-0.6-0.9-1.1-1.5-1.6
											c-1.4-1.2-2.8-2.5-4.2-3.8c-0.8-0.7-1.5-1.4-2.3-2.1c-0.8-0.8-1.7-1.5-2.5-2.2c-3.4-3.1-6.9-6.1-10.4-8.9
											c-0.2-0.1-0.3-0.2-0.5-0.4c-3.4-2.7-6.8-5.3-10.2-7.9c-3.1-2.3-6.9-2.3-10-0.7c-1,0.5-1.9,1.2-2.7,2
											C269.7,222,269.5,222.2,269.3,222.5z"/>
									</g>
								</g>
							</g>
						</g>
						<g>
							<g>
								<g>
									<g>
										<g>
											<g>
												<g>
													<path fill="#F49E80" d="M314.4,247.3c0,0,3.2-1.2,3.3-3.7c0.1-2.8-2.7-4-7.1-1.9L314.4,247.3z"/>
												</g>
											</g>
										</g>
									</g>
								</g>
							</g>
							<g>
								<g>
									<g>
										<g>
											<g>
												<g>
													<g>
														<g>
															<g>
																<g>
																	<g>
																		<g>
																			<path fill="#F49E80" d="M298.3,257.4C298.3,257.4,298.3,257.4,298.3,257.4c0.1,0.1,0.2,0.3,0.3,0.4c0,0,0,0,0,0
																				c1.5,2.2,3.2,4.2,4.9,5.9l0,0c0.3,0.3,0.6,0.6,1,0.9c0.2,0.2,0.4,0.3,0.5,0.5c0.1,0.1,0.3,0.2,0.4,0.4
																				c0.8,0.7,1.5,1.3,2.2,1.8l0,0l0,0c0,0,0.1,0,0.1,0c0.1,0,0.2,0,0.2,0c0.2,0,0.3,0,0.5,0c0.1,0,0.1,0,0.2,0
																				c0.3,0,0.6-0.1,0.8-0.2c0.1,0,0.1,0,0.2-0.1c0,0,0.1,0,0.1-0.1c0.2-0.1,0.4-0.3,0.6-0.5c0,0,0.1-0.1,0.1-0.1
																				c0,0,0.1-0.1,0.1-0.1c0,0,0,0,0-0.1c0.1-0.2,0.2-0.4,0.3-0.5c0.1-0.1,0.1-0.3,0.1-0.3c0,0,0,0,0,0c0,0,0,0,0,0
																				c0,0,0,0,0,0l0,0c0.1,0.1,0.2,0.3,0.3,0.4c-0.1-0.2-0.2-0.3-0.3-0.5c0,0,0,0,0,0l0,0c-0.3-0.4-0.6-0.8-0.7-0.9
																				c0.3,0.3,0.5,0.5,0.8,0.8c0.2,0.2,0.4,0.4,0.6,0.5c0,0,0,0,0,0c0,0,0,0,0,0s0,0,0,0c0.1,0,0.1,0.1,0.2,0.1
																				c0,0,0.1,0,0.1,0.1c0,0,0,0,0,0c0.1,0,0.1,0.1,0.2,0.1c0,0,0,0,0.1,0c0,0,0.1,0.1,0.2,0.1c0.1,0,0.2,0.1,0.2,0.1
																				c0.1,0,0.2,0.1,0.3,0.1c0,0,0,0,0,0c0.1,0,0.2,0.1,0.2,0.1c0.1,0.1,0.3,0.1,0.4,0.2c0.1,0,0.1,0,0.2,0.1
																				c0,0,0.1,0,0.1,0c0.1,0,0.1,0,0.2,0.1c0,0,0.1,0,0.1,0c0,0,0.1,0,0.1,0c0.1,0,0.1,0,0.2,0c0,0,0.1,0,0.1,0
																				c0,0,0,0,0.1,0c0,0,0.1,0,0.1,0c0.1,0,0.1,0,0.2,0c0,0,0,0,0.1,0c0,0,0.1,0,0.1,0c0,0,0,0,0,0c0,0,0.1,0,0.1,0
																				c0,0,0,0,0.1,0c0.2,0,0.4,0,0.6-0.1c0,0,0.1,0,0.1,0c0,0,0,0,0,0c0,0,0,0,0,0c0,0,0.1,0,0.1,0
																				c0.1,0,0.2-0.1,0.3-0.1c0,0,0.1,0,0.1-0.1c0,0,0,0,0,0c0,0,0,0,0.1,0c0,0,0,0,0,0c0,0,0.1,0,0.1-0.1
																				c0.1-0.1,0.1-0.1,0.2-0.2c0,0,0,0,0,0c0.1-0.1,0.1-0.1,0.2-0.2c0.1-0.1,0.1-0.1,0.2-0.2c0.1-0.1,0.2-0.2,0.3-0.4
																				c0,0,0.1-0.1,0.1-0.1l0,0c0.2-0.3,0.3-0.5,0.4-0.7c0.1-0.1,0.1-0.3,0.1-0.4c-0.1-0.1-0.2-0.3-0.3-0.4
																				c-0.1-0.1-0.2-0.2-0.2-0.3l0,0c-0.2-0.3-0.5-0.6-0.7-0.9c-0.1-0.1-0.2-0.3-0.3-0.4c-0.2-0.3-0.5-0.5-0.7-0.8
																				c0.2,0.2,0.4,0.4,0.6,0.6c0.1,0.1,0.2,0.2,0.3,0.4c0.1,0.1,0.2,0.2,0.3,0.3c0.2,0.2,0.5,0.5,0.7,0.7
																				c0.1,0.1,0.3,0.3,0.4,0.4c0,0,0.1,0.1,0.2,0.2c0,0,0.1,0,0.1,0.1c0.1,0,0.1,0.1,0.2,0.1c0,0,0.1,0,0.1,0
																				c0.1,0.1,0.3,0.1,0.4,0.1c0.1,0,0.1,0,0.2,0.1c0.1,0,0.2,0,0.3,0c0.1,0,0.2,0,0.4,0c0.1,0,0.1,0,0.2,0
																				c0,0,0.1,0,0.1,0c0,0,0.1,0,0.1,0c0,0,0.1,0,0.1,0c0.1,0,0.2,0,0.3-0.1c0.1,0,0.1,0,0.2-0.1c0.1,0,0.1,0,0.2-0.1
																				c0,0,0.1,0,0.1,0c0.1,0,0.1,0,0.2-0.1c0.1-0.1,0.3-0.1,0.4-0.2c0,0,0.1-0.1,0.1-0.1c0.1-0.1,0.2-0.1,0.3-0.2
																				c0,0,0,0,0,0c0,0,0,0,0,0c0,0,0,0,0,0c0,0,0.1-0.1,0.1-0.1c0,0,0.1,0,0.1-0.1c0,0,0.1-0.1,0.1-0.1
																				c0,0,0.1-0.1,0.1-0.1c0.1-0.1,0.2-0.2,0.3-0.3c0,0,0.1-0.1,0.1-0.1c0,0,0.1-0.1,0.1-0.1c0-0.1,0.1-0.1,0.1-0.2
																				c0,0,0.1-0.1,0.1-0.1c0-0.1,0.1-0.1,0.1-0.2l0,0c0,0,0-0.1,0-0.1c0,0,0-0.1,0.1-0.1c0-0.1,0.1-0.1,0.1-0.2
																				c0,0,0-0.1,0-0.1c0,0,0-0.1,0-0.1c0.1-0.1,0.1-0.3,0.1-0.4c0-0.1,0.1-0.3,0.1-0.4c0,0,0-0.1,0-0.1c0,0,0,0,0,0
																				c0,0,0-0.1,0-0.1h0c0,0,0.1,0.1,0.1,0.1c0,0-0.1-0.1-0.1-0.1c0,0,0,0,0,0l0,0c-0.1-0.1-0.2-0.2-0.3-0.3
																				c0,0,0,0-0.1-0.1c-0.2-0.2-0.3-0.4-0.5-0.5c-0.2-0.2-0.3-0.3-0.5-0.5c-0.1-0.1-0.1-0.1-0.2-0.2
																				c-0.1-0.1-0.3-0.3-0.4-0.4c-0.1-0.1-0.2-0.2-0.2-0.2c-0.2-0.2-0.5-0.5-0.7-0.7c-0.1-0.1-0.2-0.2-0.3-0.3
																				c-0.2-0.1-0.3-0.3-0.4-0.4c-0.1-0.1-0.3-0.2-0.4-0.4c0,0,0,0-0.1-0.1c-0.1-0.1-0.1-0.1-0.2-0.2
																				c0.7,0.6,1.3,1.1,2,1.6c0.1,0.1,0.2,0.2,0.4,0.3l0,0c0.1,0,0.1,0.1,0.2,0.1c0.3,0.2,0.5,0.3,0.7,0.5
																				c0.2,0.1,0.4,0.3,0.7,0.4c-0.1-0.1-0.2-0.1-0.3-0.2c1.5,1,3.1-0.1,4.1-2.1c0.9-1.8-0.6-3.4-0.9-3.6c0,0,0,0,0,0
																				c-1.2-1-2.7-2.2-4-3.2c-2.9-2.2-5.6-4.1-5.7-4.2c0,0-2.8-2.6-5.9-4.3c0,0-4.5-0.5-8.8,4.1
																				C298.1,250.3,297.2,253.9,298.3,257.4z"/>
																		</g>
																	</g>
																</g>
															</g>
														</g>
													</g>
												</g>
											</g>
										</g>
									</g>
								</g>
							</g>
						</g>
					</g>
				</g>
				<g>
					<g>
						<g>
							<g>
								<path fill="#2E2E50" d="M453.9,148.1l-19.8,243.7l-2,24.8c-0.5,6.7-8.1,11.6-16.8,10.9c-8.7-0.7-15.4-6.7-14.8-13.4l2-24.4
									l19.8-244.1L453.9,148.1z"/>
							</g>
						</g>
					</g>
					<g>
						<g>
							<g>
								<path fill="#2E2E50" d="M434.1,391.8l-2,24.8c-0.5,6.7-8.1,11.6-16.8,10.9c-8.7-0.7-15.4-6.7-14.8-13.4l2-24.4L434.1,391.8z
									"/>
							</g>
						</g>
						<g>
							<g>
								<path fill="#424D9A" d="M412.2,380.8c0,0-0.1,0-0.1,0c-0.7-0.1-1.2-0.7-1.2-1.4l19-233.4c0.1-0.7,0.7-1.2,1.4-1.2
									c0.7,0.1,1.2,0.7,1.2,1.4l-19,233.4C413.4,380.3,412.8,380.8,412.2,380.8z"/>
							</g>
						</g>
						<g>
							<g>
								<path fill="#424D9A" d="M426.3,381.9c0,0-0.1,0-0.1,0c-0.7-0.1-1.2-0.7-1.2-1.4l19-233.3c0.1-0.7,0.7-1.2,1.4-1.2
									c0.7,0.1,1.2,0.7,1.2,1.4l-19,233.3C427.5,381.3,427,381.9,426.3,381.9z"/>
							</g>
						</g>
					</g>
					<g>
						<g>
							<g>
								
									<rect x="407.4" y="371.9" transform="matrix(8.096244e-02 -0.9967 0.9967 8.096244e-02 -1.7603 773.6017)" fill="#424D9A" width="22.5" height="31.7"/>
							</g>
						</g>
					</g>
					<g>
						<g>
							<g>
								<path fill="#424D9A" d="M422.4,145.5l13.9-25.8c2-3.8,6.7-3.4,8.1,0.7L454,148L422.4,145.5z"/>
							</g>
						</g>
					</g>
				</g>
				<g>
					<g>
						<path fill="#424D9A" d="M304.8,175.7c0,0-53,37.9-45,52.4c8,14.5,35.7,29,35.7,29s12.6-2.3,11.8-16.3l-25.1-28.1L304.8,175.7z
							"/>
					</g>
				</g>
				<g>
					<g>
						<path fill="#2E2E50" d="M385.6,246.6c-0.4,0-0.8-0.3-0.8-0.7c0-0.2-2.6-20.6-2.4-37c0.2-16.4,0-25.9,0-26
							c0-0.5,0.4-0.9,0.8-0.9c0.5,0,0.9,0.4,0.9,0.8c0,0.1,0.2,9.7,0,26.1c-0.2,16.3,2.3,36.6,2.4,36.8c0.1,0.5-0.3,0.9-0.7,1
							C385.7,246.6,385.6,246.6,385.6,246.6z"/>
					</g>
				</g>
				<g>
					<g>
						<path fill="#2E2E50" d="M313,202.9c-0.5,0-1-0.4-1-0.9v-9.4c0-0.5,0.5-0.9,1-0.9c0.5,0,1,0.4,1,0.9v9.4
							C314,202.5,313.5,202.9,313,202.9z"/>
					</g>
				</g>
				<g>
					<g>
						<path fill="#2E2E50" d="M355.1,281.4c-0.4,0-0.8-0.3-0.9-0.8c-1-13.4-2.6-44.8-2.7-47l-2.8-8.5c-0.1-0.4,0.1-0.9,0.5-1.1
							c0.5-0.1,0.9,0.1,1.1,0.5l2.9,8.9c0,0.3,1.7,33.3,2.7,47C356,280.9,355.7,281.3,355.1,281.4
							C355.2,281.4,355.2,281.4,355.1,281.4z"/>
					</g>
				</g>
				<g>
					<g>
						<rect x="364" y="193" fill="#2E2E50" width="14" height="3"/>
					</g>
				</g>
				<g>
					<g>
						<g>
							<path fill="#F49E80" d="M454.7,203.8c0-0.1-0.1-0.2-0.1-0.3c0,0,0,0,0,0c0,0,0,0,0,0c0,0,0,0,0-0.1c0,0,0-0.1,0-0.1
								c0,0,0-0.1,0-0.1c0,0,0-0.1,0-0.1c0,0,0-0.1,0-0.1c-0.1-0.1-0.1-0.2-0.2-0.4c0-0.1-0.1-0.1-0.1-0.2c0-0.1-0.1-0.1-0.1-0.2
								c0-0.1-0.1-0.1-0.1-0.2c-0.1-0.1-0.1-0.2-0.2-0.3c0,0-0.1-0.1-0.1-0.1c0,0-0.1-0.1-0.1-0.1c-0.1-0.1-0.1-0.1-0.2-0.1
								c0,0,0,0-0.1-0.1c0,0,0,0-0.1-0.1c0,0,0,0-0.1-0.1c0,0-0.1-0.1-0.1-0.1c-0.1,0-0.1-0.1-0.2-0.1c-0.1-0.1-0.2-0.1-0.4-0.2
								c0,0-0.1,0-0.1-0.1c0,0,0,0,0,0c0,0-0.1,0-0.1,0l0,0l0,0c0,0,0,0,0,0c0,0,0,0,0,0l0,0c-0.3-0.1-0.5-0.2-0.7-0.2
								c-0.3-0.1-0.4-0.1-0.4-0.1s-0.1,0-0.2,0.1l0,0c-0.1,0.1-0.2,0.1-0.3,0.2c-0.7,0.5-2,1.3-3.2,2.2l0,0c0,0-4.6,2.4-4.6,3.9
								c0,1.1,1.3,3.1,3.5,3.2c-0.8,0.6-1.5,1.3-1.5,1.9c0,1.1,1.2,2.9,3.2,3.2c-1.1,0.8-2.1,1.7-2.1,2.4c0,1.1,1.3,3.2,3.5,3.2
								c0.4,0,0.9-0.1,1.4-0.2c0.1,0,0.1-0.1,0.2-0.1c0.1,0,0.1-0.1,0.2-0.1c0.1,0,0.1-0.1,0.2-0.1c0.1,0,0.1-0.1,0.2-0.1
								c0.1-0.1,0.2-0.1,0.4-0.2c0.6-0.4,1.1-0.7,1.6-1.1l0,0c0,0,0,0,0,0c0,0,0,0,0-0.1c0-0.1,0.1-0.1,0.1-0.2
								c0.1-0.2,0.2-0.4,0.2-0.7c0.1-0.3,0.1-0.5,0.1-0.8c0-0.1,0-0.1,0-0.2c0-0.1,0-0.1,0-0.2c0-0.3-0.1-0.5-0.2-0.7
								c0,0-0.1-0.1-0.1-0.1c0,0-0.1-0.1-0.1-0.1c0,0,0,0,0-0.1c-0.1-0.2-0.3-0.3-0.4-0.4c-0.1-0.1-0.2-0.2-0.3-0.2c0,0,0,0,0,0
								c0,0,0,0,0,0l0,0c0,0,0,0,0,0c0,0,0,0,0,0c0,0,0,0,0,0s0.3-0.2,0.6-0.5l0,0c0,0,0,0,0,0c0,0,0.1-0.1,0.1-0.1c0,0,0,0,0.1-0.1
								c0,0,0,0,0,0c0,0,0.1-0.1,0.2-0.1c0,0,0,0,0.1,0c0,0,0.1-0.1,0.1-0.1c0.1-0.1,0.1-0.1,0.2-0.2c0.1-0.1,0.1-0.1,0.2-0.2
								c0,0,0,0,0,0c0.1-0.1,0.1-0.1,0.2-0.2c0.1-0.1,0.2-0.2,0.3-0.3c0-0.1,0.1-0.1,0.1-0.2c0,0,0,0,0.1-0.1c0,0,0.1-0.1,0.1-0.2
								c0,0,0-0.1,0.1-0.1c0,0,0-0.1,0.1-0.1c0-0.1,0.1-0.1,0.1-0.2c0,0,0.1-0.1,0.1-0.1c0,0,0-0.1,0-0.1c0-0.1,0.1-0.1,0.1-0.2
								c0,0,0,0,0-0.1c0,0,0-0.1,0.1-0.1c0,0,0,0,0,0c0,0,0-0.1,0-0.1c0.1-0.2,0.1-0.4,0.1-0.6c0,0,0-0.1,0-0.1c0,0,0,0,0,0
								c0,0,0-0.1,0-0.1c0-0.1,0-0.2,0-0.3c0,0,0-0.1,0-0.1c0,0,0,0,0,0c0,0,0,0,0-0.1c0,0,0,0,0,0c0,0,0-0.1,0-0.1
								c0-0.1-0.1-0.2-0.1-0.3c0-0.1-0.1-0.2-0.1-0.2c0-0.1-0.1-0.1-0.1-0.2c-0.1-0.2-0.2-0.3-0.2-0.4c0,0-0.1-0.1-0.1-0.1
								c0,0,0,0,0,0c-0.1-0.1-0.2-0.3-0.3-0.4c-0.1-0.1-0.2-0.2-0.3-0.3c-0.1-0.1-0.2-0.2-0.3-0.2c-0.3-0.2-0.5-0.2-0.5-0.2
								s0.1-0.1,0.2-0.2c0,0,0.1,0,0.1-0.1c0,0,0.1-0.1,0.1-0.1c0,0,0,0,0.1-0.1c0.1-0.1,0.2-0.2,0.3-0.4c0-0.1,0.1-0.1,0.1-0.2
								c0.1-0.1,0.1-0.2,0.1-0.3c0-0.1,0.1-0.2,0.1-0.3c0-0.1,0-0.1,0-0.2c0,0,0-0.1,0-0.1c0,0,0-0.1,0-0.1c0,0,0-0.1,0-0.1
								c0-0.1,0-0.2,0-0.3c0-0.1,0-0.1,0-0.2c0-0.1,0-0.1,0-0.2c0,0,0-0.1,0-0.1c0-0.1,0-0.1,0-0.2c0-0.2,0-0.3-0.1-0.5
								C454.7,203.9,454.7,203.8,454.7,203.8z"/>
						</g>
					</g>
				</g>
				<g>
					<g>
						<g>
							<path fill="#F49E80" d="M449.3,195.3c0,0-6,1.4-6.3,3.8c-0.3,2.5,1.3,4.2,6,2.9C454.8,200.4,451.6,195.7,449.3,195.3z"/>
						</g>
					</g>
				</g>
			</g>
		</g>
	</g>
	<g>
		<g>
			<path fill="#D3D4D9" d="M429.9,103.1c0,3.8-3.1,7-7,7h-24c-3.9,0-7-3.2-7-7V79c0-3.8,3.1-7,7-7h24c3.9,0,7,3.2,7,7V103.1z"/>
		</g>
		<g>
			<path fill="#D3D4D9" d="M393.4,89.6c0,0-10.8,3.8-10.4,6.8c0.4,3,11.1,2.6,11.1,2.6L393.4,89.6z"/>
		</g>
		<g>
			<g>
				<path fill="#FFFFFF" d="M409,101C409,101,409,101,409,101c-1,0-2-0.5-2.6-1.2l-6.3-7.4c-1.2-1.4-1-3.6,0.4-4.8
					c1.4-1.2,3.6-1,4.8,0.4l3.7,4.4l8-9.2c1.2-1.4,3.4-1.6,4.8-0.4c1.4,1.2,1.6,3.4,0.4,4.8l-10.6,12.2C410.9,100.6,410,101,409,101
					z"/>
			</g>
		</g>
	</g>
</g>
</svg>
