<?xml version="1.0" encoding="UTF-8"?>
<svg id="Vectors" xmlns="http://www.w3.org/2000/svg" viewBox="0 0 6000 4000">
  <defs>
    <style>
      .Graphic_Style_38 {
        fill: #fff;
      }

      .cls-1 {
        fill: #fcc528;
      }

      .Graphic_Style_19 {
        fill: #eff0f1;
      }

      .cls-2 {
        fill: #1a1a1a;
      }

      .Graphic_Style_18 {
        fill: #d0d5d8;
      }
    </style>
  </defs>
  <circle class="cls-1" cx="3453.37" cy="1518.07" r="193.9"/>
  <path class="cls-2" d="m3947.08,812.54c-2.05,0-3.71-1.66-3.71-3.71v-308.82c0-2.05,1.66-3.71,3.71-3.71s3.71,1.66,3.71,3.71v308.82c0,2.05-1.66,3.71-3.71,3.71Z"/>
  <path class="cls-2" d="m4281.94,969.15c-2.05,0-3.71-1.66-3.71-3.71v-375.8c0-2.05,1.66-3.71,3.71-3.71s3.71,1.66,3.71,3.71v375.8c0,2.05-1.66,3.71-3.71,3.71Z"/>
  <g>
    <rect class="Graphic_Style_18" x="1192.41" y="999" width="2147.68" height="1419.27" rx="74.54" ry="74.54" transform="translate(-349.44 607.04) rotate(-14.18)"/>
    <g>
      <rect class="Graphic_Style_19" x="1225.88" y="954.83" width="2147.68" height="1419.27" rx="74.54" ry="74.54" transform="translate(-337.6 613.9) rotate(-14.18)"/>
      <path class="Graphic_Style_18" d="m1486.26,2603.24c-13.94,0-27.68-3.76-39.96-11.09-17.95-10.71-30.66-27.77-35.77-48.04l-311.07-1231.51c-5.12-20.27-2.04-41.31,8.67-59.26,10.71-17.95,27.77-30.66,48.04-35.77l1937.74-489.46c20.27-5.12,41.31-2.04,59.26,8.67,17.95,10.71,30.66,27.77,35.77,48.04l311.07,1231.51c5.12,20.27,2.04,41.31-8.67,59.26-10.71,17.95-27.77,30.66-48.04,35.77l-.91-3.6.91,3.6-1937.74,489.46c-6.4,1.62-12.87,2.42-19.3,2.42Zm1626.93-1870.12c-5.82,0-11.68.72-17.47,2.19l-1937.74,489.46c-18.34,4.63-33.78,16.13-43.48,32.38s-12.48,35.3-7.85,53.64l311.07,1231.51c4.63,18.34,16.13,33.78,32.38,43.48,16.25,9.69,35.29,12.48,53.64,7.85l1937.74-489.46c18.34-4.63,33.78-16.13,43.48-32.38,9.69-16.25,12.48-35.3,7.85-53.64l-311.07-1231.51c-4.63-18.34-16.13-33.78-32.38-43.48-11.12-6.63-23.55-10.03-36.17-10.03Z"/>
    </g>
    <g>
      <rect class="Graphic_Style_38" x="1655.93" y="656.46" width="1287.6" height="2016.01" rx="36.54" ry="36.54" transform="translate(3350.3 -972.86) rotate(75.82)"/>
      <path class="Graphic_Style_18" d="m1506.57,2531.41c-18,0-34.43-12.18-39.04-30.4l-297.44-1177.52c-2.63-10.43-1.05-21.25,4.46-30.49,5.51-9.23,14.29-15.77,24.71-18.4l1883.75-475.83c21.53-5.44,43.46,7.65,48.89,29.17l297.44,1177.52c2.63,10.43,1.05,21.25-4.46,30.49-5.51,9.23-14.29,15.77-24.71,18.4l-1883.75,475.83c-3.29.83-6.6,1.23-9.86,1.23Zm-31.83-32.22c4.43,17.55,22.32,28.23,39.87,23.79l1883.75-475.83c8.5-2.15,15.66-7.48,20.15-15.01,4.49-7.53,5.78-16.36,3.64-24.86l-297.44-1177.52c-4.43-17.55-22.32-28.22-39.87-23.79l-1883.75,475.83c-8.5,2.15-15.66,7.48-20.15,15.01-4.49,7.53-5.79,16.36-3.64,24.86l297.44,1177.52Z"/>
    </g>
    <g>
      <path class="Graphic_Style_19" d="m1318.6,1398.49l-3.32-13.16c-4.91-19.45,6.87-39.2,26.32-44.12l1460.74-371.88c19.45-4.91,39.2,6.87,44.12,26.32l3.32,13.16c4.91,19.45-6.87,39.2-26.32,44.12l-1460.74,371.88c-19.45,4.91-39.2-6.87-44.12-26.32Z"/>
      <path class="Graphic_Style_18" d="m1353.83,1429.64c-17.9,0-34.25-12.11-38.83-30.24l-3.32-13.16c-5.41-21.41,7.61-43.22,29.02-48.63l1460.74-371.88c21.41-5.41,43.23,7.61,48.63,29.01l3.32,13.16c2.62,10.37,1.04,21.14-4.44,30.32-5.48,9.19-14.21,15.69-24.58,18.3l-1460.74,371.88c-3.28.83-6.57,1.22-9.81,1.22Zm1457.41-457.71c-2.64,0-5.31.32-7.98,1l-1460.74,371.88c-17.44,4.41-28.04,22.17-23.64,39.61l3.32,13.16c4.4,17.43,22.17,28.04,39.61,23.63l1460.74-371.88c8.45-2.14,15.56-7.43,20.03-14.91s5.75-16.25,3.61-24.7l-3.32-13.16c-3.73-14.76-17.04-24.63-31.62-24.63Z"/>
    </g>
    <g>
      <rect class="Graphic_Style_19" x="1190.74" y="1744.81" width="931.03" height="371.71" rx="36.33" ry="36.33" transform="translate(3122.51 -147.97) rotate(75.82)"/>
      <path class="Graphic_Style_18" d="m1616.32,2423.47c-7.13,0-14.16-1.92-20.45-5.67-9.18-5.48-15.69-14.21-18.3-24.58l-210.22-832.24c-5.41-21.41,7.61-43.22,29.02-48.63l289.95-73.24c10.37-2.62,21.14-1.04,30.32,4.44s15.69,14.21,18.3,24.58l210.22,832.24c5.41,21.41-7.61,43.22-29.02,48.63l-289.95,73.24c-3.27.83-6.59,1.24-9.88,1.24Zm-31.55-32.07c2.13,8.45,7.43,15.56,14.91,20.02s16.25,5.75,24.7,3.61l289.95-73.24c17.43-4.4,28.04-22.17,23.63-39.61l-210.22-832.24c-2.13-8.45-7.43-15.56-14.91-20.02-7.48-4.46-16.25-5.75-24.7-3.61l-289.95,73.24c-17.43,4.4-28.04,22.17-23.63,39.61l210.22,832.24Z"/>
    </g>
    <g>
      <rect class="Graphic_Style_19" x="2327.68" y="743.27" width="328.4" height="1325.28" rx="36.33" ry="36.33" transform="translate(3244.71 -1354.4) rotate(75.82)"/>
      <path class="Graphic_Style_18" d="m1915.89,1723.33c-7.13,0-14.16-1.92-20.45-5.67-9.18-5.48-15.69-14.21-18.31-24.58l-62.63-247.96c-2.62-10.37-1.04-21.14,4.44-30.32s14.21-15.69,24.58-18.3l1214.48-306.77c21.41-5.41,43.22,7.61,48.63,29.02l62.63,247.96c5.41,21.41-7.61,43.22-29.01,48.63l-1214.48,306.77c-3.27.83-6.59,1.24-9.88,1.24Zm-31.55-32.07c4.4,17.43,22.17,28.04,39.61,23.63l1214.48-306.77c17.43-4.4,28.04-22.17,23.63-39.61l-62.63-247.96c-4.4-17.44-22.18-28.04-39.61-23.63l-1214.48,306.77c-8.45,2.13-15.56,7.43-20.02,14.91-4.46,7.48-5.75,16.25-3.61,24.7l62.63,247.96Z"/>
    </g>
    <path class="Graphic_Style_38" d="m1936.86,1690.11l1168.99-313.14-43.84-167.58s-62.02,27.8-114.06,96.95c-52.04,69.15-148.28,80.55-208.87,82.69-60.59,2.14-200.32-50.61-239.52-2.14-39.21,48.48-153.27,168.24-198.89,181.78-45.62,13.54-145.97-14.86-191.76,2.85-60.83,23.52-172.04,118.57-172.04,118.57Z"/>
    <g>
      <rect class="Graphic_Style_38" x="1921.18" y="1786.22" width="536.79" height="426.09" rx="36.33" ry="36.33" transform="translate(3591.73 -613.26) rotate(75.82)"/>
      <path class="Graphic_Style_18" d="m2075,2307.61c-7.13,0-14.16-1.92-20.45-5.67-9.18-5.48-15.69-14.21-18.3-24.58l-113.67-450c-5.41-21.41,7.61-43.22,29.02-48.63l342.68-86.56c10.37-2.62,21.14-1.04,30.32,4.44,9.18,5.48,15.69,14.21,18.3,24.58l113.67,450c5.41,21.41-7.61,43.22-29.02,48.63l-342.68,86.56c-3.27.83-6.59,1.24-9.88,1.24Zm229.14-609.24c-2.68,0-5.38.33-8.04,1.01l-342.68,86.56c-8.45,2.13-15.56,7.43-20.02,14.91s-5.75,16.25-3.61,24.7l113.67,450h0c2.13,8.45,7.43,15.56,14.91,20.02,7.48,4.46,16.25,5.75,24.7,3.61l342.68-86.56c17.43-4.4,28.04-22.17,23.63-39.61l-113.67-450c-2.13-8.45-7.43-15.56-14.91-20.02-5.12-3.05-10.84-4.62-16.65-4.62Z"/>
    </g>
    <g>
      <path class="Graphic_Style_19" d="m2376.71,2177.26l-267.3,67.52c-13.49,3.41-27.19-4.77-30.6-18.26l-26.56-105.14-68.07-269.49c-3.41-13.49,4.77-27.19,18.26-30.6l267.3-67.52c13.49-3.41,27.19,4.77,30.6,18.26l24.14,95.55,70.49,279.08c3.41,13.49-4.77,27.19-18.26,30.6Z"/>
      <path class="Graphic_Style_18" d="m2103.25,2249.26c-12.92,0-24.72-8.74-28.03-21.84l-94.63-374.63c-1.89-7.49-.75-15.26,3.2-21.89,3.96-6.63,10.26-11.33,17.75-13.22l267.3-67.52c7.49-1.89,15.26-.75,21.89,3.2,6.63,3.96,11.33,10.26,13.22,17.75l24.14,95.55,70.49,279.08c3.91,15.45-5.49,31.2-20.95,35.11t0,0l-267.3,67.52c-2.37.6-4.74.88-7.08.88Zm172.71-492.56c-1.77,0-3.54.22-5.3.66l-267.3,67.52c-11.49,2.9-18.47,14.61-15.57,26.09l94.63,374.63c2.9,11.49,14.61,18.47,26.09,15.57l267.3-67.52c11.49-2.9,18.47-14.61,15.57-26.09l-70.49-279.08-24.14-95.55c-1.41-5.56-4.89-10.25-9.82-13.19-3.37-2.01-7.14-3.04-10.97-3.04Zm100.76,420.55h.01-.01Z"/>
    </g>
    <circle class="Graphic_Style_38" cx="2116.47" cy="1903.11" r="46.78"/>
    <path class="cls-1" d="m2376.71,2177.26l-267.3,67.52c-13.49,3.41-27.19-4.77-30.6-18.26l-26.56-105.14c14.28-26.72,41.4-58.45,91.22-66.16,89.82-13.9,78.06-44.91,90.89-111.2,12.83-66.3,68.55-81.27,78.72-81.27,1.91,0,6,1.84,11.4,4.83l70.49,279.08c3.41,13.49-4.77,27.19-18.26,30.6Z"/>
    <g>
      <path class="Graphic_Style_38" d="m3304.52,1991.56l-698.2,176.35c-25.82,6.52-52.04-9.12-58.56-34.95l-38.74-153.4c32.21-10.82,55.31-41.53,54.69-77.52-.76-44.12-37.75-79.69-81.87-78.83-4.09.08-8.11.47-12.03,1.14l-35.35-139.99c-3.5-13.86,4.9-27.93,18.75-31.43l301.54-76.17c6.04,39.96,41.52,70.25,83.65,68.06,41.18-2.14,74.37-35.85,75.91-77.06.4-10.61-1.26-20.77-4.62-30.13l248.02-62.65c18.2-4.6,36.68,6.43,41.28,24.63l118.69,469.87c2.46,9.73-3.44,19.61-13.17,22.07Z"/>
      <path class="Graphic_Style_18" d="m2594.43,2173.12c-9.25,0-18.37-2.49-26.52-7.36-11.91-7.11-20.35-18.43-23.74-31.88l-38.74-153.4c-.48-1.88.58-3.81,2.42-4.43,31.77-10.68,52.73-40.39,52.16-73.94-.35-20.32-8.7-39.37-23.5-53.64-14.83-14.29-34.22-21.94-54.58-21.54-3.86.08-7.72.44-11.48,1.09-1.91.33-3.76-.87-4.23-2.75l-35.35-139.99c-4-15.82,5.62-31.94,21.44-35.94l301.54-76.17c1.02-.26,2.09-.07,2.97.51.87.58,1.46,1.5,1.62,2.54,5.9,39.06,40.21,66.95,79.78,64.9,39.13-2.03,70.92-34.31,72.39-73.49.37-9.89-1.11-19.56-4.4-28.74-.35-.99-.27-2.08.22-3,.49-.92,1.35-1.6,2.37-1.85l248.02-62.65c20.16-5.09,40.7,7.17,45.79,27.32l118.69,469.87c1.43,5.67.57,11.55-2.42,16.57s-7.77,8.57-13.43,10l-.91-3.6.91,3.6-698.2,176.35c-4.25,1.07-8.54,1.6-12.81,1.6Zm-80.98-191.19l37.92,150.14c2.91,11.53,10.14,21.23,20.35,27.32s22.18,7.84,33.71,4.93l698.2-176.35c3.74-.95,6.9-3.29,8.87-6.61,1.98-3.32,2.55-7.2,1.6-10.95l-118.69-469.87c-4.09-16.19-20.58-26.03-36.77-21.94l-244.15,61.67c2.71,8.91,3.9,18.19,3.55,27.65-1.61,42.98-36.5,78.4-79.43,80.63-1.5.08-3.01.12-4.5.12-40.13,0-74.45-28.03-82.31-67.3l-297.67,75.19c-11.85,2.99-19.05,15.07-16.06,26.92l34.53,136.73c3.04-.39,6.11-.62,9.18-.68,22.37-.43,43.62,7.95,59.88,23.62,16.23,15.65,25.39,36.55,25.77,58.86.61,35.65-20.94,67.35-53.97,79.94Z"/>
    </g>
    <circle class="Graphic_Style_18" cx="1934.8" cy="1381.41" r="39.19"/>
    <circle class="cls-1" cx="1370.21" cy="1292.3" r="22.97"/>
    <circle cx="1462.17" cy="1269.49" r="22.97"/>
    <circle class="Graphic_Style_18" cx="1548.43" cy="1248.11" r="22.97"/>
    <g>
      <rect class="Graphic_Style_38" x="1524.4" y="1467.35" width="41" height="238.4" rx="19.97" ry="19.97" transform="translate(2704.79 -299.85) rotate(75.82)"/>
      <path class="Graphic_Style_18" d="m1448.78,1635.07c-4.22,0-8.38-1.14-12.09-3.35-5.43-3.24-9.28-8.4-10.83-14.54l-.26-1.03c-3.2-12.66,4.5-25.56,17.16-28.76l192.42-48.6c6.13-1.55,12.5-.62,17.94,2.62,5.43,3.24,9.28,8.4,10.83,14.54l.26,1.03c1.55,6.13.62,12.5-2.62,17.94s-8.4,9.28-14.54,10.83l-192.42,48.6c-1.94.49-3.9.73-5.84.73Zm-15.72-19.71c1.06,4.21,3.7,7.75,7.43,9.98,3.73,2.22,8.1,2.86,12.31,1.8l192.42-48.6c4.21-1.06,7.75-3.7,9.98-7.43,2.22-3.73,2.86-8.1,1.8-12.31l-.26-1.03c-1.06-4.21-3.7-7.75-7.43-9.98-3.73-2.23-8.1-2.87-12.31-1.8l-192.42,48.6c-8.69,2.19-13.97,11.05-11.78,19.74l.26,1.03Z"/>
    </g>
    <path class="cls-1" d="m1447.64,1695.39l-.26-1.03c-2.7-10.69,3.78-21.55,14.47-24.25l79.75-21.74c10.69-2.7,21.55,3.78,24.25,14.47l.26,1.03c2.7,10.69-3.78,21.55-14.47,24.25l-79.75,21.74c-10.69,2.7-21.55-3.78-24.25-14.47Z"/>
    <g>
      <path class="Graphic_Style_38" d="m1470.45,1778.8l-.26-1.03c-2.7-10.69,3.78-21.55,14.47-24.25l150.83-41.93c10.69-2.7,21.55,3.78,24.25,14.47l.26,1.03c2.7,10.69-3.78,21.55-14.47,24.25l-150.83,41.93c-10.69,2.7-21.55-3.78-24.25-14.47Z"/>
      <path class="Graphic_Style_18" d="m1489.83,1797.58c-10.63,0-20.28-7.16-22.99-17.87h0l-.26-1.03c-3.2-12.66,4.5-25.56,17.16-28.76l150.75-41.91c6.22-1.57,12.59-.64,18.02,2.6,5.43,3.24,9.28,8.4,10.83,14.54l.26,1.03c3.2,12.66-4.5,25.56-17.16,28.76l-150.74,41.91c-1.96.5-3.93.73-5.86.73Zm-15.78-19.69c2.2,8.69,11.05,13.98,19.74,11.78l150.74-41.91c8.77-2.22,14.06-11.07,11.86-19.76l-.26-1.03c-1.06-4.21-3.7-7.75-7.43-9.98-3.73-2.23-8.1-2.86-12.31-1.8l-150.75,41.91c-8.77,2.22-14.06,11.07-11.86,19.76l.26,1.03Z"/>
    </g>
  </g>
  <path class="Graphic_Style_19" d="m3131.94,3500h-1532.6c-1.65-72.95,24.9-183.11,210.19-146.44,115.45-228.1,447.75-408.32,681.47-70.39,128.29-74.08,290.05-14.09,329.48,101.38,81.4-141.09,317.01-54.75,311.46,115.45Z"/>
  <path class="Graphic_Style_19" d="m4860.65,3272.84s-93.87-75.09-214.02,0c-13.14-133.29-279.72-424.28-589.49-290.99-38.58-24.4-206.25-124.46-413.02-76.97-29.14,6.69-327.49,79.97-362.33,321.03-16.44,113.75,33.64,210.63,81.15,274.09h1558.42c18.94-55.89,23.23-139.98-60.72-227.16Z"/>
  <g>
    <g>
      <path class="Graphic_Style_38" d="m2353.92,2531.91c0-11.26,80.26-202.75,150.66-202.75s0,221.84,0,221.84l-179.29,244.05-17.83-92.93,46.46-170.21Z"/>
      <path class="cls-2" d="m2325.29,2798.77c-.27,0-.55-.03-.82-.09-1.44-.33-2.55-1.47-2.83-2.92l-17.83-92.93c-.11-.56-.08-1.13.06-1.68l46.38-169.91c1.11-9.07,21.62-59.39,49.39-106.81,26.45-45.16,66.13-98.99,104.93-98.99,10.05,0,18.1,4.04,23.93,12,32.92,44.98-18.2,207.77-20.39,214.68-.12.39-.31.75-.55,1.08l-179.29,244.05c-.71.96-1.83,1.52-2.99,1.52Zm-14.02-96.5l16.07,83.73,173.88-236.7c3.36-10.8,51.09-166.76,21.3-207.47-4.41-6.03-10.28-8.96-17.94-8.96-35.14,0-72.74,51.44-98.1,94.59-29.6,50.36-48.55,99.56-48.85,104.49,0,.33-.04.61-.13.93l-46.24,169.38Zm42.65-170.36h0,0Z"/>
    </g>
    <g>
      <g>
        <path class="Graphic_Style_38" d="m2441.69,2795.05s36.61-67.58,86.36-71.34c49.75-3.75,73.22,55.38,137.98,64.77,64.77,9.39,119.21-37.55,124.84-72.28,5.63-34.73-45.06-89.17-118.27-101.38-73.22-12.2-180.23,12.2-208.39,45.99-28.16,33.79-61.01,132.35-61.01,132.35l38.49,1.88Z"/>
        <path class="cls-2" d="m2441.69,2798.77c-.06,0-.12,0-.18,0l-38.49-1.88c-1.16-.06-2.23-.65-2.88-1.61s-.83-2.17-.46-3.27c1.35-4.05,33.4-99.62,61.68-133.56,29.37-35.24,138.26-59.55,211.85-47.28,34.47,5.75,66.65,21.08,90.61,43.17,22.25,20.52,33.73,43.87,30.72,62.46-5.47,33.75-53.23,76.6-111.81,76.6-5.65,0-11.4-.4-17.23-1.24-33.03-4.79-55.73-22.21-75.76-37.58-20.23-15.53-37.71-28.95-61.41-27.16-47.13,3.56-83.02,68.75-83.37,69.41-.65,1.2-1.91,1.94-3.27,1.94Zm-33.37-9.06l31.26,1.52c6.76-11.73,41.39-67.69,88.19-71.22,26.54-2,45.95,12.9,66.5,28.67,20.25,15.54,41.19,31.62,72.3,36.13,28.28,4.1,57.41-2.65,82.01-19.01,20.77-13.81,35.93-33.51,38.64-50.18,2.58-15.88-8.31-37.27-28.42-55.81-22.91-21.13-53.73-35.8-86.8-41.31-34.23-5.71-77.85-3.62-119.67,5.71-40.58,9.06-72.45,23.64-85.25,39-23.93,28.72-51.87,106.65-58.75,126.5Z"/>
      </g>
      <path class="cls-2" d="m2421.5,2784.85c-.57,0-1.14-.13-1.68-.4-1.83-.93-2.56-3.16-1.63-4.99,15.35-30.27,38.98-53.56,70.22-69.22,24.84-12.45,54.5-20.11,88.16-22.76,57.07-4.49,106.73,7.17,107.22,7.29,2,.48,3.23,2.48,2.75,4.48-.48,2-2.48,3.22-4.48,2.75-.49-.12-49.17-11.53-105.1-7.09-74.35,5.9-125.54,35.48-152.15,87.92-.66,1.29-1.96,2.03-3.32,2.04Z"/>
      <path class="cls-2" d="m2365.66,2705.84c-.28,0-.57-.03-.86-.1-2-.47-3.23-2.48-2.76-4.47,26.09-109.95,100.03-250.1,100.77-251.51.96-1.81,3.21-2.5,5.02-1.54,1.81.96,2.5,3.21,1.54,5.02-.74,1.4-74.24,140.72-100.11,249.74-.41,1.71-1.93,2.86-3.61,2.86Z"/>
      <g>
        <path class="Graphic_Style_38" d="m2118.86,2784.6s-53.58-60.88-144.63-11.13c-91.05,49.75-179.29,107.01-217.77,48.81-38.49-58.2,81.66-182.1,196.18-172.72,114.52,9.39,179.29,70.4,203.69,136.11-9.39,17.83-37.47-1.07-37.47-1.07Z"/>
        <path class="cls-2" d="m1803.01,2850.54c-20.28,0-37.29-7.52-49.65-26.21-12.65-19.13-10.17-45.64,6.99-74.65,16.66-28.16,45.4-55.47,78.85-74.93,26.28-15.28,67.34-32.69,113.75-28.89,54.26,4.45,100.54,20.48,137.53,47.64,32.01,23.5,55.99,54.93,69.34,90.88.37.99.3,2.09-.19,3.02-2.49,4.73-6.27,7.77-11.23,9.02-13.4,3.38-30.87-8.24-31.61-8.73-.26-.18-.5-.39-.71-.62h0c-.13-.15-13.29-14.79-37-23.32-31.75-11.41-66.42-7.04-103.06,12.98-8.52,4.65-17.13,9.44-25.45,14.06-54.76,30.43-107.52,59.75-147.55,59.75Zm137.02-197.77c-71.47,0-143.02,49.53-173.29,100.7-15.63,26.43-18.19,50.14-7.19,66.77,32.98,49.88,107.99,8.2,187.4-35.93,8.34-4.63,16.96-9.42,25.5-14.09,48.25-26.37,86.18-21.8,109.51-13.32,23.47,8.53,36.98,22.33,39.34,24.87,4.6,2.99,17.07,9.54,25.29,7.45,2.37-.6,4.22-1.88,5.63-3.91-14.29-37.25-61.55-120.7-199.89-132.04-4.09-.33-8.2-.5-12.3-.5Z"/>
      </g>
      <path class="cls-2" d="m1891.94,2745.42c-1.28,0-2.52-.66-3.21-1.84-1.03-1.77-.44-4.05,1.33-5.08.33-.19,33.12-19.23,75.54-32.15,56.6-17.25,104.7-15.87,139.09,3.98,1.78,1.03,2.39,3.3,1.36,5.07-1.03,1.78-3.3,2.38-5.07,1.36-41.1-23.73-95.05-14.92-133.06-3.35-41.61,12.66-73.78,31.32-74.1,31.5-.59.34-1.23.51-1.87.51Z"/>
      <g>
        <path class="Graphic_Style_38" d="m2135.68,2780.04s-178.35-81.66-224.34-205.57c-45.99-123.9-6.57-159.57,79.79-169.9s212.14,79.79,251.56,207.45c39.42,127.66,20.65,183.98,20.65,183.98l-127.66-15.96Z"/>
        <path class="cls-2" d="m2263.34,2799.71c-.15,0-.31,0-.46-.03l-127.66-15.96c-.38-.05-.74-.15-1.09-.31-.45-.21-45.49-20.98-95.53-56.67-46.35-33.06-106.66-86.09-130.75-150.98-23.03-62.05-25.8-103.98-8.71-131.97,14.56-23.85,42.79-37.08,91.54-42.91,43.72-5.22,96.98,14,146.12,52.75,51.88,40.91,90.74,96.77,109.43,157.29,39.32,127.34,21.41,183.91,20.63,186.25-.51,1.53-1.94,2.54-3.52,2.54Zm-126.62-23.29l123.85,15.48c2.99-13.01,12.2-69.9-21.43-178.79-18.25-59.1-56.23-113.66-106.93-153.65-46.9-36.99-99.48-56.13-140.64-51.21-46.27,5.53-72.82,17.69-86.08,39.41-15.59,25.53-12.54,66.59,9.34,125.51,23.43,63.12,82.59,115.06,128.09,147.52,46.62,33.25,88.73,53.35,93.8,55.73Z"/>
      </g>
      <g>
        <path class="Graphic_Style_38" d="m2276.48,2792.24s-59.14-109.82-75.09-215.89c-15.96-106.07-12.2-291.93,83.54-275.03,95.74,16.9,120.15,123.9,107.95,241.24-12.2,117.33-43.18,235.61-43.18,235.61l-73.22,14.08Z"/>
        <path class="cls-2" d="m2276.48,2795.95c-1.35,0-2.61-.74-3.27-1.95-.59-1.1-59.63-111.61-75.5-217.1-7.17-47.67-9.13-100.6-5.37-145.2,3.33-39.45,12.96-92,39.94-118.31,14.49-14.12,32.42-19.42,53.29-15.73,46.14,8.14,78.87,36.84,97.28,85.29,15.59,41.02,20.33,96.35,13.72,159.99-12.09,116.27-42.97,234.98-43.28,236.16-.36,1.38-1.49,2.44-2.89,2.71l-73.22,14.08c-.23.05-.47.07-.7.07Zm-3.25-491.99c-13.71,0-25.7,4.93-35.76,14.74-20.06,19.56-33.1,58.84-37.72,113.61-3.71,44.05-1.78,96.34,5.31,143.47,14.39,95.64,64.77,195.62,73.43,212.28l68.2-13.12c4.31-16.95,31.38-125.93,42.5-232.79,6.5-62.49,1.91-116.64-13.27-156.58-17.42-45.84-48.25-72.96-91.63-80.62-3.8-.67-7.48-1-11.05-1Z"/>
      </g>
      <g>
        <path class="Graphic_Style_38" d="m2439.81,2776.28s55.38-88.24,107.95-148.31c52.57-60.08,95.74-119.21,52.57-150.19-43.18-30.98-150.19,76.03-182.1,115.46s-92.93,201.81-92.93,201.81l50.69,3.75,63.83-22.53Z"/>
        <path class="cls-2" d="m2375.98,2802.52c-.09,0-.18,0-.27-.01l-50.69-3.75c-1.17-.09-2.23-.72-2.86-1.7-.63-.99-.76-2.21-.35-3.31,2.5-6.65,61.59-163.41,93.52-202.85,25.44-31.43,138.72-150.89,187.15-116.14,11.13,7.98,17.49,18.24,18.9,30.5,3.96,34.32-31.71,80.43-70.83,125.15-51.76,59.16-107.04,146.96-107.6,147.84-.45.71-1.12,1.25-1.91,1.53l-63.83,22.53c-.4.14-.82.21-1.24.21Zm-45.45-10.81l44.94,3.33,61.88-21.84c6.59-10.39,58.61-91.69,107.6-147.68,38-43.43,72.67-87.96,69.05-119.41-1.18-10.23-6.36-18.51-15.85-25.32-21.49-15.41-61.26,8.49-90.84,31.25-33.88,26.07-68.43,61.57-86.21,83.52-28.17,34.8-80.34,169.35-90.57,196.14Zm109.28-15.44h.01-.01Z"/>
      </g>
      <path class="cls-2" d="m2377.86,2793.14c-.29,0-.58-.03-.88-.11-1.99-.48-3.22-2.49-2.74-4.48,17.64-73.02,63.55-134.54,98.96-173.29,38.3-41.92,72.98-67.02,73.32-67.27,1.67-1.2,3.99-.82,5.18.85,1.2,1.67.82,3.99-.85,5.18-.34.25-34.49,24.99-72.29,66.38-34.77,38.08-79.85,98.48-97.11,169.9-.41,1.7-1.93,2.84-3.61,2.84Z"/>
      <path class="cls-2" d="m2313.09,2813.79c-1.42,0-2.77-.82-3.39-2.2-32.81-73.11-31.38-384.44-31.3-397.66.01-2.05,1.7-3.7,3.74-3.69,2.05.01,3.71,1.68,3.69,3.74-.02,3.22-1.5,322.93,30.65,394.58.84,1.87,0,4.07-1.87,4.91-.49.22-1.01.33-1.52.33Z"/>
      <path class="cls-2" d="m2200.44,2814.73c-1.74,0-3.29-1.23-3.64-3-17.5-89.34-148.38-300.76-149.7-302.88-1.08-1.74-.55-4.03,1.2-5.12,1.74-1.08,4.03-.55,5.12,1.2,5.42,8.72,132.92,214.7,150.68,305.38.39,2.01-.92,3.96-2.93,4.36-.24.05-.48.07-.72.07Z"/>
      <g>
        <polygon class="Graphic_Style_38" points="2495.19 2775.34 2102.82 2775.34 2193.54 3418.59 2404.48 3418.59 2495.19 2775.34"/>
        <path class="cls-2" d="m2404.48,3422.3h-210.94c-1.85,0-3.42-1.36-3.68-3.2l-90.71-643.24c-.15-1.06.17-2.14.87-2.96.71-.81,1.73-1.28,2.8-1.28h392.37c1.08,0,2.1.47,2.8,1.28.71.81,1.02,1.89.87,2.96l-90.71,643.24c-.26,1.83-1.83,3.2-3.68,3.2Zm-207.71-7.43h204.48l89.67-635.81h-383.81l89.67,635.81Z"/>
      </g>
      <g>
        <rect class="cls-1" x="2076.49" y="2768.45" width="446.2" height="69.15" rx="34.57" ry="34.57"/>
        <path class="cls-2" d="m2488.12,2841.31h-377.06c-21.11,0-38.29-17.18-38.29-38.29s17.18-38.29,38.29-38.29h377.06c21.11,0,38.29,17.18,38.29,38.29s-17.18,38.29-38.29,38.29Zm-377.06-69.15c-17.02,0-30.86,13.84-30.86,30.86s13.84,30.86,30.86,30.86h377.06c17.02,0,30.86-13.84,30.86-30.86s-13.84-30.86-30.86-30.86h-377.06Z"/>
      </g>
      <path class="cls-2" d="m2254.68,3369.91h-65.23c-2.05,0-3.71-1.66-3.71-3.71s1.66-3.71,3.71-3.71h65.23c2.05,0,3.71,1.66,3.71,3.71s-1.66,3.71-3.71,3.71Z"/>
      <g>
        <polygon class="Graphic_Style_38" points="2193.54 3418.59 2204.49 3496.24 2393.52 3496.24 2404.48 3418.59 2193.54 3418.59"/>
        <path class="cls-2" d="m2393.52,3499.96h-189.03c-1.85,0-3.42-1.36-3.68-3.2l-10.95-77.66c-.15-1.07.17-2.14.87-2.96.71-.81,1.73-1.28,2.8-1.28h210.94c1.08,0,2.1.47,2.8,1.28.71.81,1.02,1.89.87,2.96l-10.95,77.66c-.26,1.83-1.83,3.2-3.68,3.2Zm-185.81-7.43h182.58l9.9-70.23h-202.39l9.9,70.23Z"/>
      </g>
    </g>
  </g>
  <g>
    <g>
      <path class="Graphic_Style_38" d="m4298.38,3230.6c-50.01,13.68-163.33,15.96-163.33,15.96-.94,61.95,10.33,118.27,10.33,118.27,0,0,116.45-17.1,194.31,18.77-1.14-18.33-22.19-123.28-41.3-153Z"/>
      <path class="cls-2" d="m4339.68,3387.32c-.53,0-1.06-.11-1.55-.34-75.94-34.99-191.06-18.64-192.21-18.47-1.94.29-3.79-1.01-4.18-2.95-.11-.57-11.33-57.42-10.4-119.06.03-2,1.64-3.62,3.64-3.66,1.13-.02,113.43-2.43,162.42-15.83,1.57-.43,3.23.21,4.1,1.57,19.67,30.59,40.67,135.33,41.88,154.78.08,1.3-.53,2.56-1.61,3.29-.63.43-1.36.65-2.1.65Zm-129.07-30.28c.91,0,1.82,0,2.74,0,34.09.18,82.19,3.98,121.95,20.58-3.8-28.06-21.9-113.58-38.66-142.73-46.43,11.83-138.28,14.78-157.92,15.29-.39,50.87,7.35,97.72,9.66,110.5,8.7-1.08,32.58-3.65,62.23-3.65Z"/>
    </g>
    <g>
      <path class="Graphic_Style_38" d="m3570.44,2030.04s129.54,236.55,277.38,266.11c78.85-85.89,76.03-109.82,76.03-109.82,0,0-173.19-40.83-254.85-198.53-73.22-49.28-98.56,42.24-98.56,42.24Z"/>
      <path class="cls-2" d="m3847.82,2299.86c-.24,0-.49-.02-.73-.07-34.31-6.86-70.41-25.3-107.3-54.8-29.35-23.47-59.29-53.97-88.99-90.65-50.49-62.37-83.29-121.93-83.62-122.52-.46-.85-.58-1.84-.32-2.78.5-1.82,12.69-44.63,44.9-56.54,17.63-6.52,37.59-2.41,59.31,12.21.52.35.94.82,1.22,1.37,41.76,80.64,108.19,129.82,156.56,156.87,52.44,29.33,95.41,39.65,95.84,39.75,1.52.36,2.65,1.63,2.84,3.18.31,2.62.77,28.07-76.99,112.77-.71.77-1.71,1.2-2.74,1.2Zm-273.36-270.25c5.17,9.19,36.32,63.5,82.19,120.15,45.59,56.3,115.36,126.42,189.85,142.32,60.94-66.64,71.46-95.01,73.27-102.98-11.1-3.01-49.48-14.47-94.54-39.66-31.33-17.52-59.76-38.17-84.5-61.39-30.72-28.82-55.81-61.69-74.59-97.7-19.31-12.78-36.72-16.45-51.78-10.89-25.58,9.44-37.56,42.83-39.91,50.15Z"/>
    </g>
    <g>
      <path class="Graphic_Style_19" d="m3651.9,2043.02l-655.01,237.83c-23.27,8.45-48.99-3.57-57.44-26.84l-48.9-134.69c30.55-11.34,52.31-40.75,52.31-75.25,0-44.32-35.92-80.26-80.26-80.26-9.41,0-18.45,1.62-26.85,4.61l-48.9-134.69c-8.45-23.27,3.57-48.99,26.84-57.44l249.84-90.71c12.58,27.93,40.63,47.36,73.24,47.36,44.34,0,80.26-35.93,80.26-80.26,0-7.54-1.04-14.84-2.99-21.77l254.67-92.46c23.27-8.45,48.99,3.57,57.44,26.84l152.6,420.28c8.45,23.27-3.57,48.99-26.84,57.44Z"/>
      <path d="m2981.64,2287.26c-19.85,0-38.52-12.27-45.68-31.98l-48.9-134.69c-.7-1.92.29-4.04,2.2-4.75,29.84-11.07,49.89-39.92,49.89-71.77,0-42.21-34.34-76.54-76.54-76.54-8.8,0-17.41,1.48-25.6,4.39-1.92.68-4.04-.31-4.74-2.23l-48.9-134.69c-4.43-12.19-3.84-25.37,1.65-37.12,5.49-11.75,15.22-20.65,27.41-25.08l249.84-90.71c1.83-.66,3.86.19,4.65,1.97,12.36,27.44,39.77,45.17,69.85,45.17,42.21,0,76.54-34.34,76.54-76.54,0-7.05-.96-14.04-2.85-20.76-.53-1.87.48-3.83,2.31-4.5l254.67-92.46c25.16-9.13,53.06,3.9,62.2,29.06l152.6,420.27c4.43,12.19,3.84,25.37-1.65,37.12-5.49,11.75-15.22,20.65-27.41,25.08l-655.01,237.83c-5.45,1.98-11.03,2.92-16.52,2.92Zm-86.37-165.81l47.67,131.3c3.75,10.32,11.29,18.57,21.24,23.22s21.11,5.15,31.44,1.4l655.01-237.83,1.27,3.49-1.27-3.49c10.32-3.75,18.57-11.29,23.22-21.24s5.15-21.11,1.4-31.44l-152.6-420.27c-7.74-21.31-31.37-32.35-52.68-24.62l-251.5,91.31c1.5,6.34,2.26,12.86,2.26,19.43,0,46.3-37.67,83.97-83.97,83.97-31.84,0-60.96-18.11-75.14-46.43l-246.66,89.56c-10.32,3.75-18.57,11.29-23.22,21.24-4.65,9.95-5.15,21.12-1.4,31.44l47.67,131.29c7.93-2.43,16.19-3.66,24.59-3.66,46.3,0,83.97,37.67,83.97,83.97,0,33.71-20.47,64.34-51.31,77.37Z"/>
    </g>
    <path class="Graphic_Style_38" d="m3144.91,1913.02c-1.82,1.87-3.54,3.49-5.16,4.85-1.62,1.37-3.24,2.67-4.84,3.91-6.13,4.73-11.55,7.05-16.27,6.97-4.72-.08-9.11-2.75-13.16-8.01-2.59-3.36-5.08-7.49-7.47-12.4l-1.42-2.75-19.7,15.2,15.49,32.75c-1.82,1.87-3.54,3.48-5.16,4.85-1.62,1.37-3.24,2.67-4.84,3.91-6.13,4.73-11.55,7.05-16.27,6.97-4.72-.08-9.11-2.75-13.16-8.01-2.59-3.36-5.08-7.49-7.47-12.4l-1.42-2.75-16.42,12.67c-1.97-1.04-4.32-2.43-7.05-4.16-2.73-1.73-5.06-3.84-6.97-6.32-3.94-5.11-5.58-9.72-4.92-13.84.66-4.12,2.75-7.53,6.25-10.23l13.79-10.64-12.24-25.83-21.45,16.55c-1.97-1.04-4.32-2.43-7.05-4.16-2.73-1.73-5.06-3.84-6.97-6.32-3.94-5.11-5.58-9.72-4.92-13.84.66-4.12,2.75-7.53,6.25-10.23l18.83-14.52-15.44-33.14c1.82-1.87,3.6-3.48,5.35-4.83s3.43-2.64,5.03-3.88c6.13-4.73,11.56-7.11,16.3-7.16,4.74-.04,9.13,2.56,13.18,7.81,1.24,1.61,2.5,3.54,3.78,5.81,1.28,2.27,2.5,4.59,3.63,6.97l1.2,2.91,19.48-15.03-15.44-33.14c1.82-1.87,3.6-3.48,5.35-4.83,1.75-1.35,3.43-2.64,5.03-3.88,6.13-4.73,11.56-7.11,16.3-7.16,4.74-.04,9.13,2.56,13.18,7.81,1.24,1.61,2.5,3.54,3.78,5.81,1.28,2.27,2.5,4.59,3.63,6.97l1.2,2.91,16.42-12.67c2.15.67,4.58,1.94,7.3,3.8,2.72,1.87,5.09,4.11,7.11,6.73,3.94,5.11,5.55,9.69,4.83,13.73-.72,4.05-2.76,7.37-6.11,9.95l-14.23,10.98,12.24,25.83,21.45-16.55c2.15.67,4.58,1.94,7.3,3.8,2.72,1.87,5.09,4.11,7.11,6.73,3.94,5.11,5.55,9.69,4.83,13.73-.72,4.05-2.76,7.37-6.11,9.95l-19.48,15.03,15.49,32.75Zm-83.12-24.92l19.48-15.03-12.24-25.83-19.48,15.03,12.24,25.83Z"/>
    <path d="m3978.6,1663.96l-28.63.43s-60.63,61.4,2.17,130.01c64.77-4.61,68.65-93.78,68.65-93.78l-42.19-36.66Z"/>
    <g>
      <path class="Graphic_Style_38" d="m4020.61,2075.47l-2.39-86.36s-74.51,13.67-87.26-94.98c-6.41-54.61,65.14-204.79,83.92-211.65,18.78-6.86,164.67-65.17,200.16,67.23,12.12,62.91-33.03,133.25-45.32,194.24-12.28,61-4.86,126.71-4.86,126.71l-144.25,4.81Z"/>
      <path class="cls-2" d="m4020.61,2079.18c-.94,0-1.86-.36-2.54-1.01-.72-.68-1.14-1.61-1.17-2.6l-2.28-82.33c-8.51.59-28.3.08-47.3-13.95-21.87-16.16-35.35-44.67-40.05-84.74-4.1-34.96,21.56-99.5,32.79-125.63,17.28-40.21,41.4-85.51,53.54-89.94.51-.19,1.12-.41,1.82-.67,75.88-28.18,122.08-18.47,147.46-5.37,27.28,14.08,46.03,39.58,55.73,75.79.02.09.04.17.06.26,8.07,41.88-8.41,86.37-24.34,129.4-8.61,23.24-16.74,45.19-20.98,66.28-12.02,59.69-4.89,124.91-4.81,125.56.12,1.03-.2,2.06-.88,2.84-.68.78-1.65,1.25-2.69,1.28l-144.25,4.81s-.08,0-.12,0Zm-2.39-93.79c.85,0,1.68.29,2.35.83.84.68,1.34,1.7,1.37,2.78l2.29,82.63,136.56-4.56c-1.35-15.26-5.23-71.58,5.3-123.87,4.36-21.66,12.59-43.88,21.3-67.4,15.56-42.02,31.65-85.47,24.04-125.28-9.15-34.03-26.62-57.92-51.93-70.99-24.05-12.42-68.12-21.51-141.47,5.73-.71.27-1.34.5-1.86.69-7.08,2.59-28.57,37.72-49.27,85.9-22.89,53.27-34.94,98.81-32.24,121.83,4.44,37.87,16.88,64.63,36.97,79.54,21.94,16.28,45.7,12.26,45.94,12.22.22-.04.44-.06.66-.06Z"/>
    </g>
    <path class="cls-2" d="m4018.22,1992.82c-1.83,0-3.42-1.35-3.68-3.21-.28-2.03,1.15-3.91,3.18-4.18.39-.05,39.57-5.45,59.15-12.71,1.92-.71,4.06.27,4.77,2.19.71,1.92-.27,4.06-2.19,4.77-20.34,7.54-59.08,12.88-60.72,13.1-.17.02-.34.03-.51.03Z"/>
    <g>
      <path class="Graphic_Style_38" d="m3110.02,2242.18s370.78,317.27,612.95,240.3c-24.41-150.19-26.28-168.96-26.28-168.96,0,0-64.77,33.79-179.29-.94-114.52-34.73-205.57-50.69-229.04-78.85-35.67-45.06-30.51-34.73-35.2-69.93-4.69-35.2,0-38.49-17.83-38.49s-28.16,44.12-26.75,69.93l-.47,12.2-98.09,34.73Z"/>
      <path class="cls-2" d="m3640.51,2498.2c-35.82,0-74.74-5.74-116.46-17.21-61.18-16.82-128.54-45.94-200.2-86.56-121.87-69.07-215.31-148.63-216.24-149.42-1.01-.86-1.48-2.2-1.24-3.5s1.16-2.38,2.41-2.82l95.72-33.89.37-9.51c-1.01-19.41,4.6-53.56,17.83-67.53,3.86-4.08,8.12-6.14,12.64-6.14,6.8,0,12.26.35,15.48,4.72,2.61,3.54,3.1,8.78,3.99,18.3.46,4.92,1.03,11.05,2.05,18.69.54,4.07.95,7.51,1.31,10.54q2.25,18.98,22.2,43.89c3.14,3.92,6.75,8.43,10.92,13.69,15.9,19.07,68.45,33.37,134.98,51.48,27.73,7.55,59.16,16.1,92.22,26.12,58.29,17.68,103.18,17.06,130.57,13.43,29.66-3.93,45.76-12.15,45.92-12.23,1.1-.57,2.4-.55,3.48.03,1.08.59,1.81,1.67,1.93,2.9.02.19,2.24,20.94,26.25,168.73.29,1.82-.79,3.58-2.54,4.14-25.55,8.12-53.47,12.18-83.59,12.18Zm-523.11-254.69c20.82,17.21,104.84,84.8,210.21,144.51,110.6,62.67,267.83,129.16,391.17,91.87-18.08-111.37-23.55-149.03-25.15-160.93-6.99,2.86-21.53,7.89-43.15,10.8-28.2,3.8-74.37,4.52-134.16-13.62-32.96-10-64.33-18.53-92.01-26.06-70.45-19.17-121.34-33.02-138.8-53.96-4.22-5.33-7.82-9.83-10.95-13.73-20.88-26.07-21.28-26.57-23.78-47.65-.36-3.01-.76-6.41-1.3-10.43-1.04-7.78-1.62-13.99-2.08-18.98-.72-7.65-1.19-12.71-2.57-14.59-.92-1.25-3.41-1.7-9.5-1.7-2.41,0-4.85,1.29-7.25,3.82-10.38,10.96-16.9,41.88-15.79,62.19,0,.11,0,.23,0,.35l-.47,12.2c-.06,1.52-1.04,2.85-2.47,3.36l-91.95,32.56Z"/>
    </g>
    <g>
      <path class="Graphic_Style_38" d="m3691.06,3190.24c41.3-9.39,347.31-11.26,491.86,48.81,11.26,41.3-13.14,146.43-13.14,146.43,0,0-411.14,52.57-610.14,76.97-199,24.41-230.91-20.65-262.83-114.52-127.66-296.62,414.89-476.85,422.4-482.48l279.72,300.38-41.3,16.9-266.58,7.51Z"/>
      <path class="cls-2" d="m3467.4,3472.7c-45.66,0-78.95-6.55-103.6-19.89-39.86-21.58-56.08-61.29-70.46-103.54-25.43-59.16-26.17-118.14-2.21-175.32,30.94-73.83,102.32-144.55,212.17-210.2,86.78-51.87,171.04-84.62,202.76-96.95,5.44-2.11,10.15-3.94,11.1-4.45,1.5-1,3.52-.77,4.77.57l279.72,300.38c.83.89,1.17,2.14.91,3.33-.26,1.19-1.09,2.18-2.22,2.64l-41.3,16.9c-1.9.77-4.07-.13-4.84-2.03-.78-1.9.13-4.07,2.03-4.84l36.33-14.86-274.23-294.47c-1.81.75-4.71,1.88-9.57,3.77-31.56,12.27-115.4,44.85-201.64,96.4-108.45,64.82-178.81,134.36-209.13,206.7-23.17,55.29-22.42,112.36,2.24,169.64.04.09.07.18.1.27,29.97,88.15,56.76,136.81,258.86,112.03,188.51-23.12,572.25-72.13,607.54-76.64,3.52-15.91,21.96-102.89,13.06-140.36-77.65-31.74-195.9-44.42-281.73-49.47-101.95-6-186.62-2.89-206.17,1.56-2,.46-3.99-.8-4.45-2.8-.46-2,.8-3.99,2.8-4.45,40.43-9.19,347.11-12.09,494.11,49,1.06.44,1.86,1.35,2.16,2.45,11.38,41.73-12.1,143.92-13.11,148.25-.35,1.51-1.61,2.65-3.15,2.84-4.11.53-413.42,52.85-610.16,76.97-35.54,4.36-66.2,6.56-92.7,6.56Zm249.72-610.31c-.05.04-.1.07-.13.1.04-.03.09-.06.13-.1Z"/>
    </g>
    <g>
      <path class="Graphic_Style_38" d="m3423.54,3277.53l-2.82,80.73,118.27-1.88s-3.75-73.22-.94-116.4c-58.2-9.39-114.52,37.55-114.52,37.55Z"/>
      <path class="cls-2" d="m3420.72,3361.97c-1,0-1.95-.4-2.65-1.11-.71-.73-1.1-1.71-1.06-2.73l2.82-80.73c.04-1.06.52-2.05,1.33-2.72,2.35-1.96,58.3-47.9,117.49-38.36,1.89.3,3.24,2,3.12,3.91-2.77,42.47.9,115.23.94,115.96.05,1.01-.31,1.99-1,2.73s-1.65,1.16-2.65,1.18l-118.27,1.88s-.04,0-.06,0Zm6.47-82.6l-2.62,75.11,110.53-1.75c-.7-15.21-3.03-72.16-.96-109.55-49.95-6.17-98.54,29.63-106.95,36.19Z"/>
    </g>
    <path d="m4089.16,1823.68s73.69-5.06,73.18,28.73c-.51,33.79-47.93,43.11-50.78,68.46-2.85,25.34,13.07,49.77,54.86,39.03,41.79-10.74,98.13-29.44,96.31-69.8-1.82-40.37-20.11-55.88,1.53-92.46,21.64-36.58,5.75-87.76-55.69-121.16-26.27-11.77-37.5-34.78-50.14-57.8-12.64-23.01-26.23-36.17-61.44-31.53-35.21,4.65-38.06,29.52-56.37,37-43.64-4.75-74.63,4.12-90.64,40.24-16.01,36.12,50.17,35.27,50.17,35.27,0,0,1.74,101.38,89.01,124.02Z"/>
    <path d="m3980.17,2760.79l-21.12,33.79s126.25,42.71,209.79,22.06c83.54-20.65,90.86-43.78,90.86-43.78l3.01-29.43-226.22-1.88-56.32,19.24Z"/>
    <g>
      <path class="cls-1" d="m3991.43,2313.52c-15.02,20.65-170.84,127.66-274.09,188.67-61.95-49.75-53.5-186.8-53.5-186.8,0,0,244.99-202.75,352.94-229.04,107.95-26.28,275.03-14.08,287.23,137.98,12.2,152.06-41.3,519.09-41.3,519.09,0,0-157.7,54.44-290.05,41.3-100.44-61.01-129.54-79.79-129.54-79.79,0,0-19.8-152.12-28.06-259.92l176.37-131.51Z"/>
      <path class="cls-2" d="m4015.68,2790.46c-14.57,0-29.12-.62-43.38-2.04-.55-.05-1.09-.23-1.56-.52-99.33-60.34-129.33-79.65-129.62-79.84-.92-.59-1.53-1.56-1.67-2.64-.2-1.51-19.6-151.08-27.89-257.6-32.75,21.25-65.07,41.46-92.32,57.57-1.33.79-3.01.67-4.22-.3-26.46-21.25-43.73-59.75-51.34-114.44-5.62-40.38-3.57-75.14-3.55-75.48.06-1.03.55-1.98,1.34-2.63.61-.51,62.2-51.38,136.18-104.81,99.58-71.91,173.01-113.96,218.25-124.97,38.73-9.43,80.91-12.97,118.76-9.97,45.67,3.62,83.49,16.06,112.41,36.97,36.25,26.21,56.66,64.67,60.64,114.3,12.1,150.74-40.79,516.24-41.33,519.92-.2,1.37-1.15,2.52-2.46,2.97-.4.14-40.28,13.82-95.83,25.7-40.69,8.7-96.67,17.83-152.42,17.83Zm-41.81-9.35c121.56,11.8,266.26-34.14,285.49-40.48,4.45-31.14,52.48-372.27,40.95-515.99-3.8-47.37-23.18-84-57.59-108.87-61.49-44.45-156.58-42.47-225.06-25.8-101.93,24.82-331.04,211.53-350.19,227.25-.65,15.2-3.91,134.1,50.23,180.44,102.91-61.02,256.39-166.6,270.73-186.33,1.21-1.66,3.53-2.03,5.19-.82,1.66,1.21,2.03,3.53.82,5.19-11.44,15.73-94.13,74.27-176.05,127.67.21.42.34.88.38,1.37,7.69,100.35,25.62,240.9,27.82,258,6.99,4.45,40.49,25.64,127.28,78.37Z"/>
    </g>
    <g>
      <path class="Graphic_Style_38" d="m3972.66,2784.73c-183.98-153.94-478.72-236.55-606.38-182.1-127.66,54.44-73.22,319.15,45.06,685.23,84.48,20.65,152.06-28.16,152.06-28.16l-13.14-319.15s202.75,264.71,459.95,251.56c257.2-13.14,215.89-163.33,229.04-227.16,13.14-63.83,20.46-192.09,20.46-192.09,0,0-179.1,69.13-287.04,11.87Z"/>
      <path class="cls-2" d="m3453.6,3296.62c-13.6,0-28.1-1.48-43.15-5.16-1.25-.31-2.26-1.24-2.65-2.47-68.26-211.3-103.71-353.24-114.91-460.24-13.42-128.1,10.11-203.19,71.93-229.55,62.5-26.65,166.23-22,284.58,12.76,119.91,35.22,238.47,97.05,325.35,169.66,54.76,28.87,128.71,24.1,181.15,15,57.27-9.94,102.03-27.06,102.48-27.24,1.18-.46,2.51-.28,3.52.46,1.02.74,1.59,1.95,1.52,3.21-.07,1.29-7.49,129.27-20.53,192.63-2.08,10.08-2.78,22.85-3.53,36.36-2.03,36.52-4.54,81.98-34.18,120.08-34.73,44.66-98.44,68.75-194.77,73.68-59.21,3.02-120.45-8.43-181.99-34.04-49.12-20.45-98.55-49.92-146.91-87.59-64.66-50.37-110.26-102.32-127.07-122.57l12.68,307.92c.05,1.25-.53,2.43-1.54,3.16-.71.51-17.65,12.63-45.3,22.32-16.9,5.92-40.04,11.6-66.68,11.6Zm-39.37-11.89c41.84,9.7,79.21,1.8,103.35-6.63,21.96-7.67,37.21-17.12,42.03-20.31l-13.06-317.09c-.07-1.62.92-3.09,2.45-3.65,1.52-.55,3.23-.05,4.21,1.23.51.66,51.45,66.65,133.01,130.15,75.05,58.44,192.15,126.69,323.8,119.96,94.04-4.8,155.96-27.97,189.29-70.82,28.21-36.27,30.66-80.44,32.63-115.93.76-13.8,1.49-26.83,3.67-37.45,11.38-55.25,18.46-160.45,20.05-185.91-13.68,4.85-51.98,17.58-98.35,25.63-34.1,5.93-65.87,8.22-94.43,6.81-35.91-1.76-66.84-9.41-91.95-22.73-.23-.12-.44-.27-.64-.43-86.15-72.08-203.87-133.49-322.97-168.48-116.72-34.29-218.62-39.05-279.57-13.05-58.43,24.92-80.49,97.52-67.46,221.95,11.12,106.12,46.27,247.06,113.95,456.74Z"/>
    </g>
    <path d="m3557.77,3443.68c0,35.67-42.24,52.56-42.24,52.56h-321.04s-7.51-11.27-12.19-28.17c-4.7-16.89-14.09-34.74,25.35-45.06.61-.16,1.22-.33,1.88-.53,29.46-8.66,112.19-52.39,159.66-78.11,20.66-11.21,34.64-18.99,34.64-18.99,53.5,34.74,146.42,12.21,146.42,12.21,0,0,7.52,70.41,7.52,106.08Z"/>
    <g>
      <path class="cls-1" d="m3369.19,3344.39c-15.05,8.15-33.64,18.11-52.95,28.2l61.65,38.32,43.88-28.44c-16.65-12.03-36-26.03-52.58-38.07Z"/>
      <path class="cls-2" d="m3377.89,3414.61c-.68,0-1.36-.19-1.96-.56l-61.65-38.32c-1.13-.7-1.8-1.96-1.75-3.29.05-1.33.81-2.54,1.99-3.15,16.44-8.58,34.24-18.06,52.9-28.17,1.26-.68,2.79-.58,3.95.26,13.84,10.05,31.53,22.86,52.57,38.06.99.72,1.57,1.88,1.54,3.1-.03,1.23-.66,2.36-1.69,3.02l-43.88,28.44c-.61.4-1.32.6-2.02.6Zm-54.17-41.75l54.13,33.64,37.35-24.21c-18.2-13.15-33.74-24.41-46.3-33.52-15.8,8.55-30.96,16.63-45.18,24.09Z"/>
    </g>
    <path d="m4577.17,3444.62c-4.69-15.02-209.32-235.61-217.77-244.05-8.45-8.45-29.1-7.51-59.14,8.45-6.04,3.21-16.34,6.65-28.92,10.09,19.11,29.72,37.84,67.44,42.12,105.68,2.86,25.55,4.67,47.59,5.81,65.92,4.69,2.16,9.32,4.48,13.85,6.99,79.79,44.12,164.27,95.74,164.27,95.74l51.63,2.82s32.85-36.61,28.16-51.63Z"/>
    <g>
      <path class="cls-1" d="m4339.68,3415.64c13.23,10.85,29.48,24.3,46.11,38.38l12.19-71.56-42.91-29.89c-4.85,19.97-10.5,43.16-15.39,63.06Z"/>
      <path class="cls-2" d="m4385.79,3457.73c-.87,0-1.72-.3-2.4-.88-14.16-11.98-29.66-24.88-46.07-38.34-1.11-.91-1.59-2.37-1.25-3.76,4.16-16.92,9.33-38.14,15.38-63.06.29-1.19,1.15-2.16,2.29-2.6,1.14-.43,2.43-.28,3.44.43l42.91,29.88c1.18.82,1.78,2.25,1.54,3.67l-12.19,71.56c-.22,1.31-1.14,2.41-2.39,2.87-.41.15-.85.23-1.27.23Zm-41.94-43.48c13.88,11.39,27.09,22.38,39.37,32.73l10.7-62.82-36.52-25.44c-5.24,21.57-9.79,40.22-13.55,55.53Z"/>
    </g>
    <g>
      <path class="Graphic_Style_38" d="m4006.86,2060.43l-1.19,29.09,199.89,2.26c-26.84-50.1-24.06-68.04-24.06-68.04,0,0-159.6,19.19-174.64,36.69Z"/>
      <path class="cls-2" d="m4205.56,2095.49h-.04l-199.89-2.26c-1-.01-1.96-.43-2.65-1.16-.69-.73-1.06-1.71-1.02-2.71l1.19-29.09c.03-.84.35-1.64.89-2.27,2.54-2.96,10.28-11.96,95.17-26.15,41.39-6.92,81.45-11.76,81.85-11.81,1.15-.14,2.31.27,3.11,1.11.81.84,1.18,2,1,3.15-.01.12-1.89,18.02,23.66,65.71.62,1.16.58,2.56-.1,3.68-.67,1.11-1.88,1.79-3.18,1.79Zm-196.02-9.64l189.83,2.14c-17.36-33.6-20.94-52.1-21.54-60.06-60.03,7.39-153.65,22.51-167.31,34.1l-.97,23.82Z"/>
    </g>
  </g>
  <polygon class="Graphic_Style_18" points="3991.67 864.67 3902.49 864.67 3911.84 760.48 3982.32 760.48 3991.67 864.67"/>
  <polygon class="Graphic_Style_18" points="4336.19 1033.4 4227.68 1033.4 4239.05 906.61 4324.82 906.61 4336.19 1033.4"/>
  <path class="cls-2" d="m4921.37,3503.71H1515.79c-2.05,0-3.71-1.66-3.71-3.71s1.66-3.71,3.71-3.71h3405.58c2.05,0,3.71,1.66,3.71,3.71s-1.66,3.71-3.71,3.71Z"/>
  <ellipse class="cls-1" cx="4281.94" cy="1099.65" rx="110.51" ry="106.23"/>
  <ellipse class="Graphic_Style_19" cx="3947.08" cy="919.12" rx="90.82" ry="87.3"/>
  <circle class="Graphic_Style_19" cx="2851.84" cy="3128.03" r="110.71"/>
  <g>
    <path class="Graphic_Style_38" d="m3644.08,2313.71s8.19,185.98,58.09,219.49c58.21-33.61,58.21-38.68,58.21-38.68,0,0-59.12-195.2-59.12-210.88-40.5,6.37-64.8,16.59-57.17,30.08Z"/>
    <path class="cls-2" d="m3702.17,2536.91c-.72,0-1.45-.21-2.07-.63-49.67-33.35-58.96-206.24-59.69-221.57-1.84-3.74-1.92-7.56-.2-11.12,4.9-10.14,25.24-18.09,60.46-23.62,1.07-.17,2.17.14,2.99.85s1.3,1.74,1.3,2.82c0,11.1,35.26,131.55,58.96,209.8.11.35.16.71.16,1.08,0,1.65-.67,3.63-8.76,9.71-9.77,7.35-27.04,18.18-51.3,32.19-.58.33-1.22.5-1.86.5Zm-4.12-249c-41.17,6.89-49.49,15.46-51.15,18.9-.53,1.09-.95,2.65.41,5.06.29.51.45,1.08.48,1.67.08,1.82,8.44,179.75,54.59,215.23,40.91-23.71,51.33-32.38,53.89-34.97-7.66-25.31-52.89-175.39-58.23-205.9Zm59,205.02h0Z"/>
  </g>
  <path class="Graphic_Style_18" d="m1927.47,1632.28c-1.04,0-2.07-.43-2.81-1.28-1.35-1.55-1.18-3.89.37-5.24.21-.18,21-18.21,49.8-39.68,1.65-1.23,3.97-.89,5.2.76s.89,3.97-.76,5.2c-28.56,21.29-49.16,39.15-49.36,39.33-.7.61-1.57.91-2.44.91Zm101.71-75.39c-1.24,0-2.45-.62-3.15-1.75-1.09-1.74-.56-4.03,1.18-5.12,20.98-13.1,39.99-23.11,56.49-29.76,1.9-.77,4.07.16,4.83,2.06.77,1.9-.16,4.07-2.06,4.83-16.1,6.49-34.72,16.3-55.33,29.17-.61.38-1.29.56-1.96.56Zm242.64-21.49c-1.86,0-3.46-1.39-3.68-3.28-.24-2.04,1.21-3.88,3.25-4.13,17.88-2.12,33.43-10.78,52-28.96,1.47-1.44,3.82-1.41,5.25.06,1.44,1.47,1.41,3.82-.06,5.25-19.83,19.42-36.68,28.7-56.32,31.03-.15.02-.3.03-.44.03Zm-62.61-6.19c-.22,0-.44-.02-.66-.06-16.54-2.99-37.13-6.71-62.18-9.68-2.04-.24-3.49-2.09-3.25-4.13.24-2.04,2.09-3.5,4.13-3.25,25.27,3,45.98,6.74,62.62,9.74,2.02.36,3.36,2.3,3,4.32-.32,1.8-1.89,3.06-3.65,3.06Zm158.45-71.29c-.82,0-1.65-.27-2.33-.83-1.6-1.29-1.84-3.63-.55-5.22,6.44-7.96,12.81-16.01,18.96-23.8,7.04-8.91,13.7-17.32,20.45-25.62,1.29-1.59,3.63-1.83,5.23-.53,1.59,1.3,1.83,3.64.53,5.23-6.72,8.25-13.36,16.65-20.39,25.54-6.17,7.8-12.55,15.87-19.01,23.87-.73.91-1.81,1.38-2.89,1.38Zm367.37-95.13c-14.53,0-29.65-1.15-46.22-3.52-2.03-.29-3.44-2.17-3.15-4.2.29-2.03,2.18-3.44,4.2-3.15,16.22,2.32,30.99,3.44,45.17,3.44,5.76,0,11.49-.19,17.04-.57,2.05-.14,3.82,1.41,3.96,3.45.14,2.05-1.41,3.82-3.45,3.96-5.72.39-11.63.59-17.55.59Zm-285.38-.9c-1.01,0-2.01-.41-2.74-1.21-1.38-1.52-1.28-3.86.24-5.25,18.99-17.33,37.08-28.06,55.29-32.8,1.99-.52,4.01.67,4.53,2.66s-.67,4.01-2.66,4.53c-17.01,4.43-34.07,14.6-52.15,31.1-.71.65-1.61.97-2.5.97Zm363.97-13.54c-1.44,0-2.8-.84-3.41-2.24-.82-1.88.05-4.07,1.93-4.89,17.52-7.6,34.5-18.58,51.9-33.56,1.56-1.34,3.9-1.16,5.24.39,1.34,1.55,1.16,3.9-.39,5.24-17.98,15.48-35.58,26.85-53.8,34.75-.48.21-.98.31-1.48.31Zm-186.21-1.43c-.28,0-.57-.03-.86-.1-4.64-1.1-9.27-2.21-13.89-3.32-15.66-3.76-31.85-7.65-47.56-10.76-2.01-.4-3.32-2.35-2.92-4.36.4-2.01,2.35-3.32,4.36-2.92,15.86,3.14,32.12,7.04,47.85,10.82,4.61,1.11,9.23,2.22,13.86,3.31,2,.47,3.23,2.47,2.76,4.47-.4,1.71-1.93,2.86-3.61,2.86Zm283.18-77.9c-.86,0-1.72-.3-2.42-.9-1.56-1.34-1.73-3.68-.4-5.24,7.95-9.24,15.48-18.46,22.76-27.37,6.13-7.5,11.92-14.58,17.61-21.26,1.33-1.56,3.67-1.75,5.24-.42,1.56,1.33,1.75,3.67.42,5.24-5.64,6.62-11.41,13.68-17.51,21.15-7.31,8.94-14.87,18.19-22.88,27.51-.73.85-1.77,1.29-2.82,1.29Zm87.71-89.8c-1.35,0-2.65-.74-3.31-2.02-.93-1.83-.21-4.06,1.61-5,20.6-10.54,40.22-12.75,53.04-12.75,3.51,0,6.95.16,10.23.48,2.04.2,3.53,2.02,3.33,4.06s-2.02,3.54-4.06,3.33c-3.04-.3-6.23-.45-9.5-.45-12.01,0-30.38,2.07-49.66,11.94-.54.28-1.12.41-1.69.41Z"/>
  <rect class="Graphic_Style_38" x="3219.2" y="1719.72" width="285.5" height="39.3" rx="19.65" ry="19.65" transform="translate(-369.5 1103.46) rotate(-17.68)"/>
  <path class="Graphic_Style_38" d="m3585.7,1974.76l-404.89,149.62c-10.34,3.3-21.39-2.41-24.69-12.75h0c-3.3-10.34,2.41-21.39,12.75-24.69l404.89-149.62c10.34-3.3,21.39,2.41,24.69,12.75h0c3.3,10.34-2.41,21.39-12.75,24.69Z"/>
  <path class="Graphic_Style_18" d="m3557.55,1905.87l-226.49,81.67c-10.34,3.3-21.39-2.41-24.69-12.75h0c-3.3-10.34,2.41-21.39,12.75-24.69l226.49-81.67c10.34-3.3,21.39,2.41,24.69,12.75h0c3.3,10.34-2.41,21.39-12.75,24.69Z"/>
  <path class="Graphic_Style_38" d="m3516.42,1791.89l-141.66,46.88c-10.34,3.3-21.39-2.41-24.69-12.75h0c-3.3-10.34,2.41-21.39,12.75-24.69l141.66-46.88c10.34-3.3,21.39,2.41,24.69,12.75h0c3.3,10.34-2.41,21.39-12.75,24.69Z"/>
</svg>