<svg width="3000" height="3000" viewBox="0 0 3000 3000" fill="none" xmlns="http://www.w3.org/2000/svg">
<path d="M2028.24 864.391H1640.17V735.7C1640.22 690.866 1658.05 647.883 1689.76 616.18C1721.46 584.478 1764.44 566.644 1809.28 566.593H1859.12C1903.96 566.641 1946.95 584.472 1978.65 616.175C2010.36 647.878 2028.19 690.863 2028.24 735.7V864.391ZM1642.95 861.613H2025.47V735.7C2025.41 691.6 2007.87 649.321 1976.69 618.139C1945.5 586.957 1903.22 569.419 1859.12 569.371H1809.28C1765.18 569.422 1722.9 586.963 1691.72 618.144C1660.54 649.326 1643 691.602 1642.95 735.7V861.613Z" fill="#10103D"/>
<path d="M1835.6 184.547H1832.82V567.982H1835.6V184.547Z" fill="#10103D"/>
<path d="M1897.61 863.002C1897.36 879.656 1890.57 895.545 1878.71 907.235C1866.84 918.926 1850.86 925.479 1834.2 925.479C1817.54 925.479 1801.56 918.926 1789.69 907.235C1777.83 895.545 1771.04 879.656 1770.79 863.002H1897.61Z" fill="#EF5039"/>
<path d="M2736.71 2812.67H263.288V2815.45H2736.71V2812.67Z" fill="#10103D"/>
<path d="M2381.6 2815.45H1677.36V1179.77H2381.6V2815.45ZM1680.1 2812.68H2378.82V1182.55H1680.14L1680.1 2812.68Z" fill="#10103D"/>
<path d="M2543.66 2815.45H2378.82V1179.77H2543.62L2543.66 2815.45ZM2381.64 2812.68H2540.88V1182.55H2381.6L2381.64 2812.68Z" fill="#10103D"/>
<path d="M536.684 818.975C503.951 818.978 471.953 809.274 444.735 791.091C417.518 772.908 396.304 747.062 383.776 716.822C371.247 686.582 367.968 653.305 374.352 621.201C380.736 589.097 396.497 559.608 419.642 536.461C442.786 513.315 472.275 497.552 504.378 491.165C536.481 484.778 569.758 488.054 599.999 500.58C630.24 513.106 656.088 534.318 674.274 561.534C692.459 588.75 702.166 620.747 702.166 653.48C702.118 697.355 684.668 739.419 653.645 770.445C622.622 801.471 580.559 818.924 536.684 818.975ZM536.684 490.775C504.5 490.773 473.038 500.314 446.277 518.192C419.516 536.071 398.658 561.484 386.34 591.217C374.023 620.951 370.799 653.669 377.078 685.235C383.356 716.8 398.853 745.795 421.611 768.553C444.368 791.31 473.363 806.808 504.928 813.086C536.494 819.364 569.212 816.14 598.946 803.823C628.679 791.505 654.092 770.647 671.971 743.886C689.849 717.125 699.391 685.663 699.388 653.48C699.34 610.342 682.183 568.986 651.68 538.483C621.178 507.98 579.821 490.823 536.684 490.775Z" fill="#10103D"/>
<path d="M638.473 654.869H535.295V579.065H538.073V652.091H638.473V654.869Z" fill="#10103D"/>
<path d="M422.563 652.091H383.813V654.869H422.563V652.091Z" fill="#10103D"/>
<path d="M538.073 769.838H535.295V808.587H538.073V769.838Z" fill="#10103D"/>
<path d="M538.073 499.706H535.295V538.455H538.073V499.706Z" fill="#10103D"/>
<path d="M694.402 652.091H655.653V654.869H694.402V652.091Z" fill="#10103D"/>
<path d="M2380.21 2443.96C2143.06 2441.18 1691.43 2437.63 1679.6 2443.56C1679.76 2443.45 1679.89 2443.31 1679.98 2443.13C1680.07 2442.96 1680.12 2442.77 1680.11 2442.57H1677.33C1677.33 2442.36 1677.38 2442.15 1677.46 2441.96C1677.55 2441.77 1677.67 2441.59 1677.82 2441.45C1679.21 2440.06 1683.2 2436.14 2032.49 2438.17C2204.88 2439.18 2378.51 2441.17 2380.25 2441.18L2380.21 2443.96Z" fill="#10103D"/>
<path d="M2275.72 2058.62H2092.4V1640.86H2275.72V2058.62ZM2095.17 2055.85H2272.95V1643.64H2095.17V2055.85Z" fill="#10103D"/>
<path d="M2093.78 1642.25H1392.27V2057.24H2093.78V1642.25Z" fill="white"/>
<path d="M2095.17 2058.62H1390.88V1640.86H2095.17V2058.62ZM1393.66 2055.85H2092.39V1643.64H1393.66V2055.85Z" fill="#10103D"/>
<path d="M2126.7 2536.18H1932.26V2486.41H2126.7V2536.18ZM1935.04 2533.4H2123.92V2489.18H1935.04V2533.4Z" fill="#10103D"/>
<path d="M2126.7 2149.33H1932.26V2099.55H2126.7V2149.33ZM1935.04 2146.55H2123.92V2102.33H1935.04V2146.55Z" fill="#10103D"/>
<path d="M1838.83 1703.3H1647.21V1750.3H1838.83V1703.3Z" fill="#EF5039"/>
<path d="M2126.7 1279.1H1932.26V1229.33H2126.7V1279.1ZM1935.04 1276.32H2123.92V1232.1H1935.04V1276.32Z" fill="#10103D"/>
<path d="M2319.86 1182.55C2295.76 1182.52 2272.66 1172.94 2255.61 1155.9C2238.57 1138.86 2228.99 1115.75 2228.96 1091.65V977.305H2410.76V1091.65C2410.74 1115.75 2401.15 1138.86 2384.11 1155.9C2367.07 1172.94 2343.96 1182.52 2319.86 1182.55ZM2231.74 980.082V1091.65C2231.74 1115.02 2241.02 1137.44 2257.55 1153.96C2274.08 1170.49 2296.49 1179.77 2319.86 1179.77C2343.23 1179.77 2365.65 1170.49 2382.17 1153.96C2398.7 1137.44 2407.98 1115.02 2407.98 1091.65V980.082H2231.74Z" fill="#10103D"/>
<path d="M2319.81 852.766C2334.72 852.773 2349.03 858.704 2359.57 869.255C2370.12 879.805 2376.04 894.112 2376.04 909.029V978.693H2263.54V909.029C2263.54 894.107 2269.47 879.796 2280.02 869.245C2290.57 858.694 2304.88 852.766 2319.81 852.766Z" fill="#3333D9"/>
<path d="M2209.59 1547.17H1782.67V1642.23H2209.59V1547.17Z" fill="#ABBAFD"/>
<path d="M2013.74 1573.4H1551.6V1642.25H2013.74V1573.4Z" fill="#EF5039"/>
<path d="M1933.69 1537.12H1659.31V1573.4H1933.69V1537.12Z" fill="#3333D9"/>
<path d="M927.757 2795.26H957.965V2705.76H927.757V2795.26Z" fill="#10103D"/>
<path d="M992.075 2777.63V2812.66H972.103L956.84 2799.83V2812.66H927.743V2777.63H992.075Z" fill="#10103D"/>
<path d="M1035.56 2812.66H982.062V2795.29C982.062 2788.19 984.88 2781.39 989.897 2776.37C994.913 2771.36 1001.72 2768.54 1008.81 2768.54C1015.91 2768.54 1022.71 2771.36 1027.73 2776.37C1032.74 2781.39 1035.56 2788.19 1035.56 2795.29V2812.72V2812.66Z" fill="#10103D"/>
<path d="M311.315 2723.57L332.786 2744.82L395.738 2681.2L374.267 2659.96L311.315 2723.57Z" fill="#10103D"/>
<path d="M369.313 2756.2L344.674 2781.11L330.48 2767.05L328.647 2747.19L319.619 2756.32L298.939 2735.86L323.578 2710.96L369.313 2756.2Z" fill="#10103D"/>
<path d="M375.709 2811.79L337.682 2774.16L349.942 2761.77C354.933 2756.73 361.722 2753.87 368.816 2753.84C375.91 2753.8 382.729 2756.58 387.771 2761.57C392.814 2766.56 395.668 2773.35 395.705 2780.45C395.742 2787.54 392.959 2794.36 387.969 2799.4L375.709 2811.79Z" fill="#10103D"/>
<path d="M1189.98 1593.87L677.366 1467.11C647.373 1459.69 617.046 1477.99 609.629 1507.99L540.584 1787.19C533.167 1817.19 551.468 1847.51 581.461 1854.93L1094.08 1981.69C1124.07 1989.11 1154.4 1970.81 1161.81 1940.82L1230.86 1661.61C1238.28 1631.62 1219.97 1601.29 1189.98 1593.87Z" fill="#ABBAFD"/>
<path d="M793.705 1872.34L902.966 2728.44H1004.8L929.077 1823.38L793.705 1872.34Z" fill="#131383"/>
<path d="M660.806 1797.99L604.085 2280.69C600.945 2307.51 590.533 2332.96 573.975 2354.3L343.8 2650.83L400.409 2707.34L696.916 2366.62C715.16 2345.65 727.144 2319.97 731.498 2292.52L801.719 1849.32L660.806 1797.99Z" fill="#131383"/>
<path d="M1215.65 660.049C1215.65 660.049 1103 577.481 994.131 663.924C885.259 750.366 863.579 916.098 796.164 976.069C728.749 1036.04 487.519 1250.28 639.876 1410.78C792.234 1571.28 1135.77 1715.81 1199.97 1431.61C1264.18 1147.41 1266.21 1106.98 1333.58 1044.25C1400.95 981.513 1430.8 877.071 1383.22 781.365C1316.87 648.035 1215.65 660.049 1215.65 660.049Z" fill="#EE5F72"/>
<path d="M997.354 808.503C991.048 820.667 985.455 833.188 980.604 846.002C979.567 848.78 978.553 851.535 977.563 854.266C931.369 985.096 967.743 1117.25 1058.78 1149.38C1149.82 1181.52 1261.1 1101.5 1307.29 970.638C1312.71 955.327 1317.08 939.667 1320.39 923.764C1321.88 916.57 1323.12 909.413 1324.12 902.293C1333.18 838.197 1322.83 778.226 1296.55 735.019C1293.62 730.2 1290.49 725.603 1287.18 721.214C1271.14 700.048 1250.58 684.131 1226.07 675.493C1212.6 670.758 1198.43 668.358 1184.15 668.396C1174.46 668.417 1164.8 669.446 1155.32 671.465C1095.23 684.076 1035.55 734.797 997.354 808.503Z" fill="#FAB59D"/>
<path opacity="0.3" d="M997.826 807.614C998.34 806.614 998.868 805.628 999.395 804.642L1001.65 800.476L1003.33 797.49C1004.09 796.101 1004.84 794.823 1005.62 793.504L1007.37 790.531C1008.15 789.226 1008.92 787.934 1009.71 786.656C1010.31 785.684 1010.92 784.712 1011.53 783.754C1012.33 782.476 1013.14 781.212 1013.95 779.962C1014.56 779.018 1015.17 778.073 1015.8 777.184C1016.63 775.921 1017.48 774.671 1018.33 773.435C1018.94 772.532 1019.55 771.643 1020.17 770.754C1021.06 769.476 1021.95 768.226 1022.85 766.976C1023.45 766.143 1024.05 765.31 1024.66 764.49C1025.63 763.102 1026.6 761.879 1027.59 760.588C1028.14 759.865 1028.69 759.115 1029.26 758.393C1030.38 757.004 1031.52 755.504 1032.67 754.074L1033.94 752.477C1037.15 748.532 1040.42 744.718 1043.76 741.033C1044.05 740.699 1044.35 740.38 1044.66 740.047C1046.02 738.547 1047.41 737.07 1048.82 735.616C1049.31 735.102 1049.8 734.616 1050.21 734.116C1051.44 732.852 1052.64 731.602 1053.87 730.38L1055.53 728.741C1056.71 727.588 1057.88 726.45 1059.06 725.325L1060.84 723.672C1062.01 722.589 1063.17 721.519 1064.35 720.464L1066.17 718.839C1067.35 717.797 1068.55 716.769 1069.74 715.755L1071.55 714.242C1072.77 713.228 1073.99 712.228 1075.23 711.242L1076.98 709.853C1078.25 708.839 1079.55 707.867 1080.82 706.895L1082.46 705.658C1083.85 704.645 1085.24 703.659 1086.63 702.686L1088.02 701.686C1089.53 700.631 1091.06 699.603 1092.6 698.589C1092.93 698.367 1093.27 698.131 1093.62 697.923C1095.47 696.7 1097.32 695.52 1099.17 694.381C1104.89 690.887 1110.79 687.684 1116.84 684.784L1117.5 684.478C1119.21 683.659 1120.93 682.867 1122.66 682.117L1123.85 681.604C1125.41 680.937 1126.95 680.298 1128.5 679.673L1129.99 679.104C1131.38 678.534 1132.91 677.993 1134.36 677.465L1136.04 676.895C1137.43 676.409 1138.82 675.937 1140.21 675.506L1141.07 675.229H1140.96C1145.71 673.757 1150.46 672.451 1155.22 671.493C1182.49 671.77 1209.2 676.895 1232.54 688.437C1251.37 698.314 1269.61 709.262 1287.18 721.228C1290.49 725.616 1293.62 730.213 1296.55 735.033C1322.83 778.24 1333.18 838.211 1324.12 902.306C1323.1 909.417 1321.86 916.574 1320.39 923.778C1318.15 922.741 1315.83 921.574 1313.44 920.278C1220.51 870.085 1221.5 740.394 1221.5 740.394C1221.5 740.394 1098.42 846.113 1012.08 815.309C1008.79 822.475 1005.71 829.831 1002.83 837.377C1001.79 840.155 1000.78 842.933 999.784 845.711C953.591 976.568 989.951 1108.7 1081 1140.86C1108.25 1150.47 1137.31 1150.04 1165.89 1141.22C1130.36 1157.72 1093.13 1161.56 1058.78 1149.44C967.743 1117.25 931.369 985.096 977.563 854.252C978.549 851.474 979.563 848.697 980.604 845.919C985.465 833.107 991.062 820.586 997.368 808.42C997.507 808.142 997.659 807.906 997.826 807.614Z" fill="#EF5039"/>
<path d="M1232.15 722.422C1232.15 722.422 1231.17 852.099 1324.11 902.306C1417.05 952.514 1387.45 821.309 1366.55 772.032C1345.65 722.755 1243.31 670.451 1243.31 670.451L1232.15 722.422Z" fill="#EE5F72"/>
<path d="M896.411 830.225C900.744 819.04 908.854 809.723 919.335 803.888C929.816 798.054 942.008 796.071 953.798 798.281C956.47 798.749 959.096 799.451 961.645 800.379H961.77C964.36 801.448 966.855 802.735 969.228 804.226L932.646 898.487L924.688 896.334C924.605 896.351 924.52 896.351 924.438 896.334C921.928 895.303 919.515 894.048 917.23 892.585C907.019 886.261 899.346 876.561 895.543 865.17C891.74 853.778 892.047 841.414 896.411 830.225Z" fill="#FAB59D"/>
<path d="M932.16 856.836C927.882 855.169 926.34 848.878 928.715 842.753C931.09 836.628 936.479 833.031 940.757 834.697C944.77 836.253 946.312 841.892 944.604 847.628C948.534 836.281 945.52 824.864 937.59 821.781C929.382 818.601 919.049 825.517 914.493 837.239C909.938 848.961 912.91 861.044 921.118 864.224C929.049 867.308 938.965 860.919 943.729 849.891C941.159 855.363 936.173 858.391 932.16 856.836Z" fill="#EE5F72"/>
<path opacity="0.3" d="M917.216 892.515L953.854 798.268C956.526 798.735 959.152 799.437 961.701 800.365H961.826C964.416 801.435 966.911 802.722 969.284 804.212L932.702 898.473C929.979 897.97 927.299 897.255 924.688 896.335C924.605 896.351 924.52 896.351 924.438 896.335C921.921 895.281 919.503 894.003 917.216 892.515Z" fill="#EF5039"/>
<path opacity="0.3" d="M1187.45 979.818C1187.45 979.818 1165.91 1002.04 1169.77 1022.72C1173.63 1043.4 1192.61 1052.18 1200.58 1037.03C1208.56 1021.87 1177.38 1010.18 1187.45 979.818Z" fill="#EF5039"/>
<path d="M1192.51 978.36C1192.51 978.36 1170.97 1000.58 1174.83 1021.26C1178.7 1041.94 1197.68 1050.72 1205.65 1035.57C1213.63 1020.41 1182.43 1008.71 1192.51 978.36Z" fill="#EE5F72"/>
<path opacity="0.15" d="M1179.15 1020.78C1176.64 1007.32 1184.85 993.263 1190.9 985.041C1191.25 982.773 1191.79 980.538 1192.51 978.36C1192.51 978.36 1170.97 1000.58 1174.83 1021.26C1177.71 1036.71 1189 1045.48 1197.86 1042.68C1189.96 1042.08 1181.63 1033.79 1179.15 1020.78Z" fill="#131383"/>
<path d="M1205.9 1025.43C1206.11 1022.78 1204.94 1020.52 1203.28 1020.39C1201.63 1020.26 1200.11 1022.3 1199.9 1024.95C1199.69 1027.61 1200.86 1029.87 1202.51 1030C1204.17 1030.13 1205.69 1028.09 1205.9 1025.43Z" fill="white"/>
<path opacity="0.3" d="M1115.93 914.653C1120.89 902.32 1130.93 894.737 1138.35 897.723C1145.77 900.709 1147.78 913.126 1142.82 925.5C1137.86 937.875 1127.82 945.403 1120.41 942.43C1112.99 939.458 1110.98 926.986 1115.93 914.653Z" fill="#EF5039"/>
<path d="M1149.61 918.063C1154.57 905.729 1151.92 893.05 1143.69 889.742C1135.47 886.435 1124.78 893.752 1119.82 906.086C1114.86 918.42 1117.51 931.099 1125.74 934.406C1133.97 937.714 1144.65 930.396 1149.61 918.063Z" fill="#10103D"/>
<path d="M1148.25 922.222C1153.21 909.888 1151.21 897.471 1143.79 894.487C1136.36 891.503 1126.33 899.082 1121.37 911.416C1116.41 923.749 1118.41 936.167 1125.83 939.151C1133.25 942.135 1143.29 934.555 1148.25 922.222Z" fill="white"/>
<path d="M1142.96 929.194C1145.97 921.714 1143.97 913.867 1138.49 911.667C1133.02 909.467 1126.15 913.747 1123.14 921.227C1120.13 928.706 1122.13 936.554 1127.61 938.754C1133.08 940.954 1139.95 936.674 1142.96 929.194Z" fill="#10103D"/>
<path d="M1120.84 908.723C1112.5 908.723 1109.21 898.668 1108.66 893.168L1111.43 892.876C1111.43 893.015 1112.97 906.598 1121.49 905.918L1121.7 908.695L1120.84 908.723Z" fill="#10103D"/>
<path d="M1126.71 900.543C1118.38 900.543 1115.09 890.474 1114.52 884.988L1117.3 884.696C1117.3 884.835 1118.82 898.418 1127.35 897.737L1127.57 900.515L1126.71 900.543Z" fill="#10103D"/>
<path opacity="0.3" d="M1243.42 968.694C1251.05 957.819 1262.55 952.722 1269.11 957.319C1275.67 961.916 1274.78 974.458 1267.14 985.346C1259.5 996.235 1248 1001.32 1241.46 996.721C1234.92 992.124 1235.79 979.582 1243.42 968.694Z" fill="#EF5039"/>
<path d="M1275.37 979.544C1283.01 968.663 1283.32 955.713 1276.06 950.62C1268.8 945.526 1256.73 950.218 1249.09 961.099C1241.45 971.98 1241.15 984.929 1248.41 990.023C1255.66 995.116 1267.74 990.425 1275.37 979.544Z" fill="#10103D"/>
<path d="M1273.09 983.259C1280.72 972.378 1281.6 959.832 1275.06 955.236C1268.51 950.641 1257.01 955.736 1249.37 966.617C1241.74 977.498 1240.85 990.044 1247.4 994.639C1253.95 999.235 1265.45 994.14 1273.09 983.259Z" fill="white"/>
<path d="M1265.85 989.102C1270.48 982.504 1270.32 974.407 1265.5 971.019C1260.67 967.631 1253 970.233 1248.37 976.832C1243.74 983.431 1243.9 991.527 1248.73 994.916C1253.55 998.304 1261.22 995.701 1265.85 989.102Z" fill="#10103D"/>
<path d="M1250.37 964.208C1241.49 962.819 1240.5 951.708 1241.22 946.153L1244 946.5C1244 946.639 1242.37 960.194 1250.82 961.486L1250.37 964.208Z" fill="#10103D"/>
<path d="M1258.01 957.569C1249.11 956.18 1248.14 945.153 1248.86 939.514L1251.64 939.861C1251.64 940 1250.01 953.569 1258.46 954.861L1258.01 957.569Z" fill="#10103D"/>
<path opacity="0.3" d="M1145.46 853.136C1156.15 852.865 1164.73 848.761 1164.6 843.968C1164.48 839.176 1155.71 835.51 1145.02 835.781C1134.32 836.051 1125.75 840.156 1125.87 844.949C1125.99 849.741 1134.76 853.407 1145.46 853.136Z" fill="#EF5039"/>
<path d="M1144.78 849.696C1155.48 849.425 1164.05 845.32 1163.93 840.528C1163.81 835.735 1155.04 832.07 1144.34 832.341C1133.65 832.611 1125.07 836.716 1125.2 841.508C1125.32 846.301 1134.09 849.966 1144.78 849.696Z" fill="#10103D"/>
<path opacity="0.3" d="M1304.91 930.871C1308.38 927.571 1305.23 918.603 1297.87 910.842C1290.5 903.08 1281.71 899.463 1278.23 902.763C1274.75 906.063 1277.91 915.03 1285.27 922.792C1292.64 930.554 1301.43 934.171 1304.91 930.871Z" fill="#EF5039"/>
<path d="M1307.02 928.077C1310.5 924.777 1307.34 915.81 1299.98 908.048C1292.61 900.286 1283.82 896.669 1280.35 899.969C1276.87 903.269 1280.02 912.237 1287.39 919.998C1294.75 927.76 1303.54 931.377 1307.02 928.077Z" fill="#10103D"/>
<path opacity="0.3" d="M1297.25 1052.98L1296.51 1052.48L1297.6 1050.96L1297.78 1052.12L1298.01 1052.58L1297.85 1052.66H1297.73L1297.25 1052.98ZM1297.25 1051.36L1296.64 1050.12L1296.89 1050H1297.37L1297.53 1051L1297.25 1051.36Z" fill="#EF5039"/>
<path opacity="0.3" d="M1268.19 1049.8C1255.26 1046.2 1243.39 1039.53 1233.6 1030.36C1219.6 1017.25 1210.46 999.785 1207.67 980.814C1204.88 961.843 1208.61 942.486 1218.24 925.903C1219.35 924.015 1220.56 922.14 1221.83 920.348C1229.61 909.219 1239.96 900.127 1252 893.841C1264.03 887.556 1277.41 884.262 1290.98 884.238H1291.19C1303.17 884.243 1315.01 886.814 1325.91 891.779L1324.76 894.307C1314.26 889.57 1302.87 887.122 1291.35 887.127H1291.05C1279.85 887.144 1268.76 889.464 1258.49 893.944C1248.22 898.424 1238.97 904.967 1231.33 913.168C1228.76 915.942 1226.38 918.888 1224.21 921.987C1222.97 923.751 1221.81 925.57 1220.74 927.389C1211.42 943.422 1207.81 962.142 1210.51 980.49C1213.2 998.838 1222.04 1015.73 1235.58 1028.4C1245.06 1037.26 1256.54 1043.71 1269.04 1047.18L1268.19 1049.8Z" fill="#EF5039"/>
<path opacity="0.3" d="M1111.59 976.93C1092.22 976.91 1073.44 970.222 1058.42 957.989C1043.4 945.756 1033.05 928.725 1029.12 909.759C1025.18 890.794 1027.89 871.05 1036.79 853.848C1045.7 836.646 1060.25 823.035 1078.02 815.303C1095.78 807.571 1115.66 806.19 1134.32 811.393C1152.97 816.595 1169.27 828.063 1180.47 843.869C1191.67 859.674 1197.08 878.854 1195.8 898.182C1194.52 917.51 1186.63 935.808 1173.45 950C1165.93 958.135 1156.87 964.699 1146.8 969.312C1136.72 973.925 1125.84 976.495 1114.77 976.874C1113.7 976.916 1112.64 976.93 1111.59 976.93ZM1111.7 811.1C1092.71 811.104 1074.32 817.736 1059.71 829.85C1045.09 841.965 1035.16 858.802 1031.63 877.456C1028.11 896.11 1031.2 915.41 1040.39 932.026C1049.57 948.641 1064.27 961.528 1081.94 968.464C1099.61 975.399 1119.15 975.947 1137.19 970.013C1155.22 964.079 1170.62 952.036 1180.72 935.962C1190.82 919.887 1194.99 900.791 1192.51 881.968C1190.04 863.146 1181.07 845.779 1167.15 832.864C1152.09 818.854 1132.27 811.077 1111.7 811.1Z" fill="#EF5039"/>
<path opacity="0.3" d="M1218.13 927.195C1217.86 926.473 1211.46 909.793 1192.29 914.834L1191.58 912.14C1208.9 907.598 1218.22 919.376 1220.75 926.237L1218.13 927.195Z" fill="#EF5039"/>
<path d="M1297.48 1052.72C1278.12 1052.7 1259.36 1046.02 1244.34 1033.79C1229.33 1021.57 1218.98 1004.54 1215.04 985.586C1211.11 966.629 1213.82 946.893 1222.72 929.699C1231.62 912.504 1246.17 898.899 1263.92 891.171C1281.68 883.444 1301.55 882.065 1320.2 887.267C1338.85 892.468 1355.14 903.934 1366.33 919.734C1377.52 935.535 1382.93 954.707 1381.65 974.026C1380.37 993.346 1372.47 1011.63 1359.29 1025.82C1351.4 1034.33 1341.84 1041.11 1331.2 1045.74C1320.57 1050.37 1309.09 1052.75 1297.48 1052.72ZM1297.58 886.89C1296.55 886.89 1295.53 886.89 1294.5 886.89C1281.1 887.385 1268.03 891.177 1256.44 897.93C1244.86 904.683 1235.12 914.189 1228.09 925.605C1221.05 937.021 1216.94 949.995 1216.12 963.379C1215.3 976.762 1217.79 990.142 1223.38 1002.33C1228.96 1014.52 1237.47 1025.15 1248.14 1033.27C1258.81 1041.39 1271.32 1046.75 1284.56 1048.88C1297.79 1051.01 1311.35 1049.84 1324.03 1045.48C1336.71 1041.12 1348.12 1033.7 1357.25 1023.87L1358.27 1024.82L1357.25 1023.87C1368.05 1012.25 1375.22 997.72 1377.89 982.075C1380.56 966.43 1378.6 950.348 1372.26 935.799C1365.92 921.25 1355.47 908.868 1342.2 900.17C1328.92 891.473 1313.4 886.838 1297.53 886.835L1297.58 886.89Z" fill="white"/>
<path d="M1118.16 976.652C1098.8 976.617 1080.05 969.919 1065.05 957.684C1050.05 945.449 1039.73 928.422 1035.8 909.468C1031.88 890.514 1034.61 870.788 1043.52 853.608C1052.44 836.427 1066.99 822.839 1084.75 815.129C1102.5 807.419 1122.37 806.057 1141.01 811.272C1159.65 816.487 1175.92 827.961 1187.1 843.765C1198.27 859.569 1203.66 878.738 1202.37 898.05C1201.07 917.362 1193.16 935.638 1179.97 949.805C1172.08 958.299 1162.51 965.069 1151.87 969.689C1141.23 974.309 1129.75 976.679 1118.16 976.652ZM1118.16 810.864C1104.62 810.86 1091.3 814.227 1079.39 820.66C1067.48 827.093 1057.36 836.39 1049.94 847.712C1042.52 859.034 1038.04 872.025 1036.9 885.513C1035.75 899.001 1037.99 912.56 1043.4 924.969C1048.81 937.377 1057.22 948.243 1067.88 956.586C1078.54 964.93 1091.11 970.488 1104.45 972.76C1117.79 975.031 1131.49 973.945 1144.31 969.598C1157.13 965.251 1168.67 957.78 1177.88 947.861C1188.68 936.239 1195.86 921.715 1198.53 906.071C1201.2 890.426 1199.25 874.343 1192.9 859.795C1186.56 845.247 1176.11 832.867 1162.83 824.175C1149.55 815.483 1134.03 810.857 1118.16 810.864Z" fill="white"/>
<path d="M1224.68 926.945C1224.42 926.237 1218.01 909.543 1198.85 914.584L1198.14 911.904C1215.46 907.348 1224.78 919.126 1227.31 926.001L1224.68 926.945Z" fill="white"/>
<path d="M1232.15 722.422C1232.15 722.422 1085.27 848.627 999.839 785.129C914.411 721.631 1123.38 611.106 1243.31 670.437L1232.15 722.422Z" fill="#EE5F72"/>
<path d="M1216.83 660.785L1214.4 659.396L1214.51 659.215C1215.12 657.285 1215.07 655.205 1214.35 653.313C1212 645.313 1200.26 627.772 1148.13 600.161L1149.42 597.717C1200.32 624.661 1214.33 642.605 1217.12 652.924C1217.29 653.549 1217.42 654.132 1217.51 654.674C1220.84 650.409 1224.78 646.665 1229.21 643.563C1238.8 636.744 1255.75 629.272 1281.98 632.452L1281.65 635.23C1256.37 632.175 1240.12 639.272 1230.94 645.757C1225.27 649.638 1220.5 654.703 1216.97 660.604L1216.83 660.785Z" fill="#EE5F72"/>
<path d="M1218.64 628.049C1223.63 625.611 1223.75 615.612 1218.92 605.715C1214.08 595.819 1206.12 589.772 1201.13 592.21C1196.14 594.648 1196.01 604.647 1200.85 614.544C1205.68 624.44 1213.65 630.487 1218.64 628.049Z" fill="#EE5F72"/>
<path d="M695 1030.07L694.014 1027.47C758.609 1003.08 811.608 947.014 832.33 881.154L834.968 881.988C824.137 915.535 805.95 946.24 781.734 971.859C757.518 997.479 727.885 1017.37 695 1030.07Z" fill="#EE5F72"/>
<path opacity="0.4" d="M793.331 1076.19L791.15 1074.47C801.664 1061.14 815.678 1051.04 829.247 1041.29C833.205 1038.43 837.316 1035.48 841.246 1032.5C855.232 1021.91 874.44 1005.25 879.829 982.735L882.537 983.388C876.982 1006.76 857.246 1023.87 842.927 1034.78C838.955 1037.76 834.844 1040.73 830.858 1043.59C817.455 1053.21 803.595 1063.18 793.331 1076.19Z" fill="white"/>
<path opacity="0.4" d="M1154.71 1287.92C1153.87 1267.95 1156.98 1248.01 1163.86 1229.24C1170.74 1210.47 1181.26 1193.24 1194.82 1178.55L1196.85 1180.45C1183.54 1194.87 1173.21 1211.77 1166.46 1230.19C1159.7 1248.61 1156.65 1268.18 1157.47 1287.78L1154.71 1287.92Z" fill="white"/>
<path opacity="0.4" d="M680.417 1233.83L677.806 1232.84C683.639 1217.31 694.652 1202.8 710.527 1189.69C724.554 1178.11 740.568 1169.01 756.054 1160.22L800.997 1134.7L802.386 1137.12L757.443 1162.63C742.054 1171.37 726.152 1180.4 712.305 1191.8C696.791 1204.62 686.069 1218.76 680.417 1233.83Z" fill="white"/>
<path opacity="0.4" d="M1318.76 834.322C1300.53 823.416 1287.04 806.075 1280.96 785.717C1274.87 765.359 1276.64 743.461 1285.9 724.339L1288.4 725.547C1279.44 744.043 1277.73 765.228 1283.61 784.921C1289.5 804.615 1302.55 821.389 1320.19 831.933L1318.76 834.322Z" fill="white"/>
<path opacity="0.4" d="M1369.54 868.794L1367.07 867.53C1372.96 855.934 1376.33 843.225 1376.97 830.235C1377.61 817.245 1375.51 804.266 1370.79 792.146C1366.07 780.027 1358.84 769.04 1349.59 759.904C1340.33 750.768 1329.25 743.689 1317.07 739.13L1318.04 736.519C1330.58 741.23 1341.98 748.533 1351.5 757.95C1361.02 767.367 1368.45 778.687 1373.3 791.17C1378.15 803.654 1380.31 817.019 1379.64 830.395C1378.98 843.77 1375.49 856.855 1369.43 868.794H1369.54Z" fill="white"/>
<path opacity="0.4" d="M1096.56 744.394C1081.82 744.409 1067.31 740.651 1054.43 733.477L1055.82 731.047C1065.5 736.464 1076.17 739.891 1087.19 741.129C1098.21 742.367 1109.37 741.39 1120.01 738.255C1130.65 735.12 1140.55 729.89 1149.14 722.874C1157.73 715.857 1164.83 707.194 1170.03 697.395L1172.49 698.687C1165.19 712.491 1154.27 724.043 1140.89 732.097C1127.52 740.151 1112.2 744.403 1096.59 744.394H1096.56Z" fill="white"/>
<path opacity="0.4" d="M971.117 746.713L968.659 745.422C982.379 718.958 1004.44 697.752 1031.42 685.083C1058.4 672.415 1088.81 668.991 1117.93 675.34L1117.34 678.048C1088.81 671.833 1059.02 675.191 1032.59 687.603C1006.16 700.015 984.555 720.789 971.117 746.713Z" fill="white"/>
<path opacity="0.4" d="M876.078 1124.8L874.62 1122.44C905.751 1103.11 930.319 1074.82 945.104 1041.29L947.646 1042.4C932.641 1076.45 907.695 1105.18 876.078 1124.8Z" fill="white"/>
<path d="M1092.02 1079.68C1089.24 1079.68 1070.39 1079.19 1062.35 1066.48C1056.8 1057.66 1057.85 1045.36 1065.56 1029.9C1065.89 1029.24 1066.47 1028.74 1067.17 1028.51C1067.87 1028.27 1068.63 1028.33 1069.29 1028.66C1069.95 1028.99 1070.45 1029.57 1070.68 1030.26C1070.92 1030.96 1070.86 1031.73 1070.53 1032.39C1063.77 1045.97 1062.59 1056.43 1067.05 1063.5C1073.87 1074.3 1092.05 1074.11 1092.23 1074.12C1092.96 1074.11 1093.68 1074.39 1094.21 1074.9C1094.74 1075.41 1095.04 1076.11 1095.06 1076.84C1095.07 1077.58 1094.8 1078.29 1094.28 1078.82C1093.77 1079.36 1093.07 1079.66 1092.34 1079.68H1092.02Z" fill="#EE5F72"/>
<path opacity="0.7" d="M811.011 2007.93C858.935 2006.6 904.78 1988.08 940.175 1955.74L929.064 1823.38L793.692 1872.35L811.011 2007.93Z" fill="#10103D"/>
<path opacity="0.7" d="M660.806 1797.99L645.626 1927.16C668.223 1957.82 699.18 1981.32 734.79 1994.85C748.374 2000.04 762.486 2003.72 776.873 2005.83L801.678 1849.27L660.806 1797.99Z" fill="#10103D"/>
<path d="M1131.55 1429.53C1170.72 1326.84 1119.23 1211.83 1016.55 1172.66C913.857 1133.49 798.856 1184.98 759.683 1287.68L619.671 1654.71C580.498 1757.41 631.987 1872.41 734.675 1911.58C837.363 1950.75 952.365 1899.26 991.538 1796.57L1131.55 1429.53Z" fill="#3333D9"/>
<path d="M1144.77 1358.61C1144.75 1382.83 1140.3 1406.83 1131.64 1429.45L991.658 1796.55C982.478 1821.14 968.522 1843.68 950.593 1862.86C932.665 1882.04 911.119 1897.48 887.197 1908.3C863.274 1919.11 837.448 1925.09 811.206 1925.88C784.965 1926.67 758.826 1922.26 734.295 1912.9C709.765 1903.55 687.328 1889.43 668.278 1871.37C649.227 1853.3 633.939 1831.65 623.295 1807.65C612.65 1783.65 606.859 1757.78 606.256 1731.53C605.652 1705.29 610.248 1679.18 619.778 1654.72L759.761 1287.66C773.091 1252.68 796.016 1222.17 825.905 1199.63C855.794 1177.1 891.433 1163.45 928.729 1160.26C940.709 1159.21 952.76 1159.27 964.728 1160.44C1013.99 1165.21 1059.71 1188.15 1093 1224.78C1126.28 1261.41 1144.73 1309.12 1144.77 1358.61Z" fill="#3333D9"/>
<path opacity="0.3" d="M946.313 1197.87C946.29 1189.78 947.827 1181.76 950.841 1174.26C949.452 1174.12 948.063 1174.01 946.674 1173.9C948.549 1173.67 950.424 1173.48 952.313 1173.31C964.293 1172.26 976.344 1172.32 988.312 1173.49C1006.08 1175.21 1023.53 1179.31 1040.2 1185.69C1045.06 1187.54 1049.8 1189.58 1054.42 1191.76C1027.49 1174.26 996.739 1163.49 964.771 1160.37C952.803 1159.2 940.752 1159.14 928.772 1160.19C891.476 1163.38 855.837 1177.03 825.948 1199.56C796.06 1222.1 773.134 1252.61 759.804 1287.59L619.78 1654.72C601.912 1701.56 602.381 1753.41 621.093 1799.92C639.805 1846.43 675.38 1884.16 720.708 1905.57C682.587 1880.75 654.116 1843.63 640.035 1800.37C625.955 1757.12 627.115 1710.35 643.321 1667.84L783.304 1300.78C793.92 1272.88 810.691 1247.72 832.371 1227.19C854.05 1206.66 880.08 1191.28 908.523 1182.2C898.72 1196.77 894.989 1214.59 898.123 1231.87C901.256 1249.15 911.008 1264.52 925.303 1274.72C939.597 1284.92 957.307 1289.13 974.664 1286.47C992.021 1283.81 1007.66 1274.49 1018.24 1260.48C1015.36 1260.87 1012.46 1261.07 1009.55 1261.08C1001.25 1261.08 993.024 1259.44 985.353 1256.27C977.682 1253.09 970.712 1248.44 964.84 1242.57C958.968 1236.7 954.31 1229.73 951.131 1222.06C947.952 1214.39 946.315 1206.17 946.313 1197.87Z" fill="#131383"/>
<path opacity="0.3" d="M1080.39 1211.81C1070.11 1232.76 1054.93 1249.02 1026.63 1247.19C1039.48 1269.77 1063.75 1290.24 1091.61 1290.24C1106.14 1290.24 1117.6 1288.51 1129.11 1281.32C1117.49 1254.81 1101.42 1231.08 1080.39 1211.81Z" fill="#131383"/>
<path d="M1263.65 1295.99L1260.87 1295.89C1264.9 1175.86 1323.51 1082.91 1324.11 1082.01L1326.44 1083.51C1325.86 1084.4 1267.65 1176.74 1263.65 1295.99Z" fill="#EE5F72"/>
<path d="M1330.79 1540.22C1342.52 1540.69 1351.91 1531.89 1351.77 1520.43L1351.29 1482.49C1351.15 1471.08 1341.57 1461.47 1329.79 1461.01C1318.05 1460.54 1308.66 1469.35 1308.8 1480.81L1309.29 1518.75C1309.4 1530.15 1319.12 1539.76 1330.79 1540.22Z" fill="#FAB59D"/>
<path opacity="0.3" d="M1309.29 1518.75L1308.83 1482.78L1309.18 1510.14C1309.33 1521.54 1318.9 1531.15 1330.68 1531.61C1342.46 1532.07 1351.8 1523.28 1351.66 1511.82L1351.78 1520.43C1351.91 1531.83 1342.53 1540.69 1330.79 1540.22C1319.12 1539.76 1309.4 1530.15 1309.29 1518.75Z" fill="#EF5039"/>
<path d="M1431.86 1564.03C1434.33 1570.14 1439.09 1575.04 1445.13 1577.7C1451.16 1580.36 1458 1580.55 1464.17 1578.25L1506.47 1562.1C1509.48 1560.94 1512.23 1559.2 1514.55 1556.96C1516.88 1554.73 1518.74 1552.05 1520.01 1549.08C1521.28 1546.12 1521.95 1542.93 1521.97 1539.71C1521.98 1536.48 1521.36 1533.28 1520.12 1530.3C1517.64 1524.2 1512.88 1519.3 1506.84 1516.64C1500.81 1513.99 1493.98 1513.79 1487.8 1516.08L1445.51 1532.24C1442.5 1533.39 1439.75 1535.13 1437.42 1537.37C1435.09 1539.6 1433.24 1542.28 1431.97 1545.25C1430.69 1548.21 1430.03 1551.4 1430.01 1554.63C1429.99 1557.85 1430.62 1561.05 1431.86 1564.03Z" fill="#FAB59D"/>
<path opacity="0.3" d="M1521.8 1537.12C1520.94 1541.01 1519.13 1544.61 1516.53 1547.62C1513.93 1550.63 1510.63 1552.94 1506.91 1554.35L1464.62 1570.5C1458.44 1572.8 1451.61 1572.6 1445.57 1569.95C1439.54 1567.29 1434.78 1562.39 1432.3 1556.28C1431.43 1554.09 1430.86 1551.8 1430.62 1549.46C1429.54 1554.33 1429.97 1559.41 1431.86 1564.03C1434.33 1570.14 1439.09 1575.04 1445.13 1577.7C1451.16 1580.36 1458 1580.55 1464.17 1578.25L1506.46 1562.1C1511.42 1560.21 1515.61 1556.74 1518.38 1552.22C1521.16 1547.7 1522.36 1542.4 1521.8 1537.12Z" fill="#EF5039"/>
<path d="M1345.31 1690.58L1268.42 1719.71C1257.74 1723.76 1245.9 1723.4 1235.48 1718.71C1225.07 1714.02 1216.95 1705.38 1212.91 1694.71L1204.11 1671.48C1200.06 1660.81 1200.42 1648.96 1205.11 1638.55C1209.8 1628.14 1218.44 1620.01 1229.12 1615.97L1306 1586.84L1345.3 1690.57L1345.31 1690.58Z" fill="#131383"/>
<path opacity="0.1" d="M1345.26 1690.66L1301.28 1707.33L1299.8 1705.94C1297.9 1704.15 1296.09 1702.25 1294.39 1700.27C1277.17 1680.29 1268.65 1649.83 1273.89 1617.69C1275.04 1610.63 1276.85 1603.7 1279.28 1596.97L1305.96 1586.86L1345.26 1690.66Z" fill="#131383"/>
<path d="M1454.27 1619.36C1452.66 1631.97 1460.66 1643.27 1472.12 1644.62L1493.67 1647.13C1505.15 1648.52 1515.74 1639.36 1517.29 1626.75C1518.9 1614.14 1510.9 1602.83 1499.42 1601.48L1477.88 1598.97C1466.48 1597.62 1455.88 1606.73 1454.27 1619.36Z" fill="#FAB59D"/>
<path opacity="0.3" d="M1517.23 1627.47C1513.45 1636.55 1504.66 1642.47 1495.27 1641.36L1473.73 1638.84C1462.26 1637.45 1454.29 1626.19 1455.87 1613.58C1455.87 1613.33 1455.97 1613.11 1455.99 1612.86C1455.14 1614.94 1454.56 1617.12 1454.27 1619.34C1452.66 1631.96 1460.66 1643.26 1472.12 1644.61L1493.67 1647.12C1504.92 1648.4 1515.31 1639.69 1517.23 1627.47Z" fill="#EF5039"/>
<path d="M1445.37 1669.73C1441.74 1681.91 1446.83 1693.97 1456.72 1696.66L1475.31 1701.73C1485.2 1704.43 1496.15 1696.73 1499.78 1684.56C1503.41 1672.38 1498.4 1660.33 1488.44 1657.63L1469.84 1652.57C1459.95 1649.87 1448.99 1657.55 1445.37 1669.73Z" fill="#FAB59D"/>
<path opacity="0.3" d="M1499.55 1685.25C1494.63 1693.72 1485.83 1698.47 1477.73 1696.26L1459.15 1691.2C1449.24 1688.51 1444.16 1676.44 1447.79 1664.27C1447.85 1664.04 1447.95 1663.82 1448.02 1663.58C1446.9 1665.52 1446.01 1667.58 1445.37 1669.73C1441.74 1681.91 1446.83 1693.97 1456.72 1696.66L1475.31 1701.73C1485.01 1704.37 1495.71 1697.01 1499.55 1685.25Z" fill="#EF5039"/>
<path d="M1362.98 1707.97C1407.86 1707.97 1444.24 1671.58 1444.24 1626.71C1444.24 1581.83 1407.86 1545.44 1362.98 1545.44C1318.1 1545.44 1281.72 1581.83 1281.72 1626.71C1281.72 1671.58 1318.1 1707.97 1362.98 1707.97Z" fill="#FAB59D"/>
<path opacity="0.3" d="M1440.4 1602C1442.44 1621.99 1437 1642.03 1425.12 1658.25C1413.25 1674.46 1395.79 1685.7 1376.11 1689.8C1356.43 1693.89 1335.93 1690.54 1318.58 1680.4C1301.23 1670.26 1288.25 1654.05 1282.15 1634.9C1283.31 1646.22 1286.82 1657.17 1292.48 1667.04C1298.13 1676.91 1305.8 1685.48 1314.98 1692.2C1324.16 1698.92 1334.64 1703.64 1345.76 1706.05C1356.88 1708.46 1368.38 1708.51 1379.52 1706.2C1390.66 1703.88 1401.18 1699.25 1410.42 1692.61C1419.65 1685.97 1427.39 1677.46 1433.13 1667.64C1438.87 1657.81 1442.48 1646.9 1443.73 1635.59C1444.98 1624.28 1443.85 1612.84 1440.4 1602Z" fill="#EF5039"/>
<path d="M2395.69 898.833L2375.52 907.687L2376.63 910.23L2396.8 901.376L2395.69 898.833Z" fill="#10103D"/>
<path d="M2263.53 934.083H2238.5V936.861H2263.53V934.083Z" fill="#10103D"/>
<path d="M2328.54 828.191L2324.68 852.482L2327.42 852.919L2331.29 828.628L2328.54 828.191Z" fill="#10103D"/>
<path d="M2376.29 955.03L2375.76 957.755L2400.89 962.719L2401.43 959.994L2376.29 955.03Z" fill="#10103D"/>
<path d="M2259.81 856.107L2258.12 858.317L2277.04 872.725L2278.72 870.516L2259.81 856.107Z" fill="#10103D"/>
<path d="M1080.24 1211.81C1075.88 1220.71 1069.48 1228.45 1061.58 1234.42C1053.67 1240.39 1044.48 1244.42 1034.73 1246.19L1032.19 1246.59C1029.3 1246.98 1026.4 1247.18 1023.49 1247.19C1013.16 1247.18 1002.98 1244.65 993.853 1239.8C984.726 1234.95 976.926 1227.94 971.134 1219.38C965.343 1210.82 961.737 1200.97 960.633 1190.7C959.528 1180.42 960.958 1170.03 964.798 1160.44C1007.82 1164.63 1048.33 1182.66 1080.24 1211.83V1211.81Z" fill="#FAB59D"/>
<path d="M1032.12 1246.59C1026.6 1253.84 1019.67 1259.9 1011.75 1264.39C1003.83 1268.89 995.074 1271.74 986.021 1272.76C976.968 1273.78 967.802 1272.96 959.077 1270.34C950.351 1267.72 942.248 1263.35 935.255 1257.51C928.262 1251.68 922.525 1244.48 918.391 1236.36C914.257 1228.24 911.811 1219.37 911.201 1210.28C910.591 1201.19 911.83 1192.07 914.843 1183.48C917.855 1174.88 922.579 1166.98 928.729 1160.26C940.709 1159.21 952.76 1159.27 964.729 1160.44C960.889 1170.03 959.459 1180.42 960.563 1190.7C961.668 1200.97 965.274 1210.82 971.065 1219.38C976.856 1227.94 984.656 1234.95 993.784 1239.8C1002.91 1244.65 1013.09 1247.18 1023.42 1247.19C1026.33 1247.18 1029.23 1246.98 1032.12 1246.59Z" fill="white"/>
<path d="M1123.2 1268.59C1115.96 1273.11 1107.89 1276.12 1099.46 1277.44C1091.03 1278.76 1082.42 1278.36 1074.15 1276.27C1065.88 1274.17 1058.12 1270.43 1051.33 1265.26C1044.54 1260.09 1038.87 1253.6 1034.66 1246.19C1044.42 1244.43 1053.63 1240.41 1061.55 1234.44C1069.47 1228.47 1075.87 1220.72 1080.24 1211.81C1097.86 1228 1112.41 1247.23 1123.2 1268.59Z" fill="white"/>
<path d="M992.159 1795.24L991.659 1796.55C973.112 1845.02 936.364 1884.33 889.25 1906.09C842.136 1927.85 788.383 1930.35 739.454 1913.05C690.524 1895.75 650.288 1860.02 627.325 1813.48C604.362 1766.94 600.488 1713.27 616.53 1663.91L992.159 1795.24Z" fill="#131383"/>
<path opacity="0.7" d="M616.529 1663.91C613.485 1673.17 611.136 1682.65 609.501 1692.26C609.495 1692.35 609.495 1692.44 609.501 1692.54C609.251 1694.01 609.015 1695.49 608.807 1696.97L608.724 1697.54C608.529 1698.93 608.335 1700.31 608.168 1701.7L608.085 1702.49C607.932 1703.8 607.779 1705.11 607.654 1706.41L607.571 1707.37C607.46 1708.61 607.349 1709.86 607.252 1711.11C607.252 1711.48 607.252 1711.86 607.252 1712.23C607.168 1713.41 607.099 1714.61 607.029 1715.8C607.029 1716.22 607.029 1716.63 607.029 1717.05L606.904 1720.48C606.904 1720.94 606.904 1721.38 606.904 1721.87C606.904 1722.98 606.904 1724.08 606.904 1725.19V1726.58C606.904 1727.65 606.904 1728.73 606.904 1729.8V1731.31C606.904 1732.37 606.974 1733.41 607.015 1734.47L607.099 1736.04C607.099 1737.06 607.21 1738.08 607.279 1739.1L607.404 1740.73C607.469 1741.73 607.552 1742.73 607.654 1743.73C607.654 1744.29 607.765 1744.84 607.821 1745.41C607.918 1746.38 608.015 1747.35 608.126 1748.34L608.335 1750.06L608.71 1752.92C608.793 1753.51 608.89 1754.1 608.974 1754.69C609.113 1755.62 609.251 1756.56 609.404 1757.47C609.501 1758.06 609.613 1758.66 609.71 1759.26C609.863 1760.17 610.029 1761.09 610.196 1762.03C610.307 1762.65 610.432 1763.26 610.557 1763.85C610.738 1764.76 610.904 1765.66 611.099 1766.55C611.224 1767.17 611.363 1767.78 611.501 1768.41C611.696 1769.28 611.89 1770.16 612.099 1771.05L612.557 1772.91C612.765 1773.78 612.987 1774.65 613.21 1775.51L613.71 1777.4C613.946 1778.24 614.168 1779.09 614.418 1779.94C614.599 1780.58 614.779 1781.21 614.974 1781.85C615.168 1782.49 615.46 1783.52 615.724 1784.34C615.987 1785.16 616.126 1785.62 616.321 1786.26C616.515 1786.9 616.862 1787.9 617.126 1788.71C617.39 1789.53 617.571 1789.99 617.779 1790.65C617.987 1791.3 618.348 1792.24 618.64 1793.05C618.932 1793.85 619.098 1794.34 619.348 1794.98C619.598 1795.62 619.932 1796.56 620.237 1797.34C620.543 1798.12 620.737 1798.63 621.001 1799.28L621.946 1801.6L622.751 1803.53C623.084 1804.3 623.404 1805.06 623.737 1805.81C624.071 1806.56 624.307 1807.1 624.612 1807.76C624.918 1808.41 625.293 1809.24 625.64 1809.99L626.557 1811.92C626.904 1812.66 627.265 1813.31 627.626 1814.12C627.987 1814.92 628.265 1815.41 628.598 1816.05C628.932 1816.69 629.334 1817.44 629.709 1818.2L630.737 1820.13L631.89 1822.24C632.251 1822.88 632.598 1823.52 632.959 1824.14L634.168 1826.23C634.529 1826.87 634.904 1827.49 635.279 1828.12L636.529 1830.16L637.695 1832.05C638.126 1832.71 638.542 1833.44 638.973 1834.03L640.209 1835.92L641.515 1837.87L642.806 1839.73L644.195 1841.63L645.584 1843.48L646.973 1845.34L648.362 1847.17C648.834 1847.78 649.306 1848.39 649.75 1848.99C650.195 1849.59 650.695 1850.2 651.139 1850.8C651.584 1851.39 652.111 1851.99 652.598 1852.59C653.084 1853.19 653.584 1853.78 654.084 1854.37L655.584 1856.12L657.111 1857.87L658.653 1859.57L660.236 1861.3C660.75 1861.87 661.278 1862.41 661.806 1862.96L663.431 1864.67L665.056 1866.3L666.722 1867.96L668.375 1869.55L670.097 1871.18L671.778 1872.73L673.542 1874.32C674.111 1874.84 674.694 1875.32 675.264 1875.82L677.083 1877.41L678.833 1878.8L680.694 1880.32L682.486 1881.71L684.388 1883.2L686.222 1884.59L688.152 1885.98L690.027 1887.36C690.68 1887.84 691.347 1888.32 692.013 1888.75L693.944 1890.07L695.93 1891.46C696.68 1891.96 697.444 1892.43 698.194 1892.92C699.388 1893.68 700.596 1894.45 701.819 1895.18L703.985 1896.57L705.957 1897.71L708.152 1898.98L710.166 1900.07L712.374 1901.28L714.457 1902.35C715.193 1902.74 715.929 1903.13 716.679 1903.5L718.79 1904.52L720.846 1905.52C683.465 1881.18 655.341 1844.99 640.986 1802.76C626.631 1760.53 626.875 1714.7 641.681 1672.62L616.529 1663.91Z" fill="#10103D"/>
<path d="M882.647 1809.06C890.279 1809.06 896.466 1802.87 896.466 1795.24C896.466 1787.61 890.279 1781.42 882.647 1781.42C875.015 1781.42 868.828 1787.61 868.828 1795.24C868.828 1802.87 875.015 1809.06 882.647 1809.06Z" fill="#10103D"/>
<path d="M889.522 1808.26C897.154 1808.26 903.341 1802.07 903.341 1794.44C903.341 1786.8 897.154 1780.62 889.522 1780.62C881.89 1780.62 875.703 1786.8 875.703 1794.44C875.703 1802.07 881.89 1808.26 889.522 1808.26Z" fill="#ABBAFD"/>
<path d="M1184.61 1722.5C1187.04 1712.67 1181.05 1702.73 1171.22 1700.3C1161.39 1697.87 1151.45 1703.87 1149.02 1713.69L1096.95 1924.26C1094.52 1934.09 1100.51 1944.03 1110.34 1946.46C1120.17 1948.89 1130.11 1942.89 1132.54 1933.07L1184.61 1722.5Z" fill="#EE5F72"/>
<path d="M1182.07 1671.25C1191.05 1671.25 1198.33 1663.96 1198.33 1654.98C1198.33 1646 1191.05 1638.72 1182.07 1638.72C1173.09 1638.72 1165.81 1646 1165.81 1654.98C1165.81 1663.96 1173.09 1671.25 1182.07 1671.25Z" fill="#EE5F72"/>
</svg>
