<?xml version="1.0" encoding="UTF-8"?><svg version="1.1" xmlns="http://www.w3.org/2000/svg" xmlns:xlink="http://www.w3.org/1999/xlink" viewBox="0 0 1280 720" width="1280" height="720" x="0px" y="0px">
    
    
    <!-- ITEM 0 -->
    <g>
        <defs>
            <clipPath id="clip-path-id-crop-item-0">
                
          <rect transform="scale(1.5081218274111674 1.5048706240487064)" x="0.0" y="0.0" width="591.0" height="651.0"/>
        
            </clipPath>
            
            <clipPath id="clip-path-id-viewbox-item-0">
                <rect x="0.0" y="0.0" width="891.3" height="988.7"/>
            </clipPath>
        </defs>
        <g clip-path="url(#clip-path-id-crop-item-0)" transform="translate(582.0 33.0) rotate(0.0 295.5 328.5) scale(0.6630764052507574 0.664508951147972)">
            <g clip-path="url(#clip-path-id-viewbox-item-0)" transform="translate(-0.0 -0.0)">
                

<g>
	<path d="M313.7,817.4l162-0.4l-97.9-228.6l44.3-96.5l78.1,108.6l66,216.5h160.6l-77.5-276.6   c-2.9-9.5-7.5-18.5-13.6-26.3L467.1,298.3l-0.2,0.1c-0.6-1.7-1.3-3.4-2-5l-173.2,71L224.2,566c-4.2,12.5-3.7,26.1,1.3,38.3   L313.7,817.4z" style="fill:#FFFFFF;"/>
	<path d="M589.3,454.6c-16.3,12.7-39.8,9.8-52.5-6.4c-12.7-16.3-9.8-39.8,6.4-52.5l0,0" style="fill:#82B1FF;"/>
	<path d="M651.8,551.1c-0.6,0-1.2,0-1.8,0c-20.7,0-37.4,16.7-37.4,37.4c0,20.7,16.7,37.4,37.4,37.4   c7.4,0,14.6-2.2,20.8-6.3C669.1,615.9,655.5,563.8,651.8,551.1z" style="fill:#82B1FF;"/>
	<path d="M544.1,702.6c-4.5,0-9,0.8-13.2,2.4c5.1,12.8,22,69.6,22.5,71.2c20-5.1,32.1-25.5,27-45.5   C576.2,714.2,561.2,702.6,544.1,702.6z" style="fill:#82B1FF;"/>
	<path d="M280.2,440.3c-3.7-2.6-7.9-4.4-12.2-5.5c-3.1,13.4-21.5,69.7-22,71.4c19.4,7.2,40.9-2.7,48.1-22.1   C300,468,294.3,450,280.2,440.3z" style="fill:#82B1FF;"/>
	<path d="M490.2,501.1c-19.3,0-35.4,14.7-37.2,33.9c1.9,0.1,3.4,1.7,3.6,3.6c1.1,7.6,7.7,13.9,12.4,19.7   c4.7,5.8,9.6,11.2,14.4,16.9c20.3,3.8,39.9-9.5,43.7-29.8s-9.5-39.9-29.8-43.7C494.9,501.3,492.6,501.1,490.2,501.1L490.2,501.1z" style="fill:#82B1FF;"/>
	<circle cx="418.1" cy="425.1" r="37.4" style="fill:#82B1FF;"/>
	<circle cx="276.1" cy="617.1" r="37.4" style="fill:#82B1FF;"/>
	<path d="M496.2,337c0-0.1,0-0.1-0.1-0.2c-2.2-2.3-25.5-35.4-31.9-42.5c0,0-0.1-0.1-0.1-0.2c-2.9,1-30.9,12.7-35.1,15.1   c-3.4,20.4,10.4,39.6,30.8,43c14,2.3,28.2-3.5,36.5-15.1C496.3,337.1,496.2,337,496.2,337z" style="fill:#82B1FF;"/>
	<path d="M433.8,720.2c-8.5,18.8-30.6,27.2-49.4,18.7c-18.8-8.5-27.2-30.6-18.7-49.4c8.1-17.9,28.6-26.5,47-19.7" style="fill:#82B1FF;"/>
	<path d="M693.7,705.2c-1.4-0.2-2.9-0.3-4.3-0.3c-20.7,0-37.4,16.7-37.4,37.4c0,20.7,16.7,37.4,37.4,37.4   c9.1,0,17.9-3.3,24.8-9.4C708.9,761.4,695.1,711.1,693.7,705.2z" style="fill:#82B1FF;"/>
	<path d="M303.6,47.4c18.3,0,22.1,24.4,8.8,34.5c-0.4,0.3-0.8,0.5-1.3,0.7c-0.9,6.3-3.1,12.4-6.4,17.9   c3.6,1,4.7,5.3,6.6,9.6c2.1,4.6-1.7,11.3,5,11.2c6-0.1,111.9-10.6,119-10.5c4.7,0.1,12.9-1.2,17.5-0.6   c-18.7-10.9-39.9-16.7-61.5-16.7c-5.3-24.8-22.1-48.2-47.5-66C319,10.1,291.1,0,260.6,0C244.6,0,289.1,20.2,303.6,47.4z" style="fill:#5A38FD;"/>
	<path d="M212.6,240.5c4.6-13.1,12.9-24.8,19.1-37.1c7.2-14.3,13.4-28.9,21.7-42.6c2-3.3,4.1-6.5,6.5-9.6   c1.6-2,3.5-3.8,4.7-6c2.5-4.6-2.5-9-2.5-13.9c-0.1-2.6,0.6-5.3,2.1-7.5c-3.4,0.2-6.7,0.3-10.1,0.1c-5.4-0.2-30.4-7.1-38.8-29.4   c-1.5,1.3-3.4,2.1-5.3,2.5c-0.6,0.1-1.2,0.1-1.8,0l0.7,143.2c0,1.7,1.3,3,3,3h0.7C212.3,242.4,212.3,241.4,212.6,240.5z" style="fill:#5A38FD;"/>
	<g>
		<path d="M888.3,984.7L888.3,984.7c0-15.5-10.9-28.9-26.1-32.1l-78.4-16.2c-11.5-2.4-20.8-10.7-24.5-21.8l-32.4-97.5    H566.3v167.6l62.5,1V924l62.5,61.7L888.3,984.7z" style="fill:#FFFFFF;"/>
		<path d="M691.3,988.7c-0.8,0-1.5-0.3-2.1-0.9l-57.4-56.7v54.5c0,0.8-0.3,1.6-0.9,2.1c-0.6,0.5-1.4,0.9-2.2,0.9    l-62.5-1c-1.6,0-3-1.4-3-3V817.1c0-1.7,1.3-3,3-3h160.6c1.3,0,2.4,0.8,2.8,2.1l32.4,97.5c3.4,10.1,11.9,17.6,22.3,19.8l78.4,16.2    c16.6,3.5,28.4,18.1,28.5,35c0,1.7-1.3,3-3,3L691.3,988.7L691.3,988.7z M888.3,984.7L888.3,984.7z M628.8,921    c0.8,0,1.5,0.3,2.1,0.9l61.6,60.8l192.6-1c-1.4-12.9-10.9-23.5-23.6-26.2l-78.4-16.2c-12.5-2.6-22.7-11.7-26.7-23.8l-31.7-95.4    H569.3v161.6l56.5,0.9V924C625.8,922.3,627.2,921,628.8,921L628.8,921z" style="fill:#222433;"/>
	</g>
	<path d="M533.6,631.3c-0.7,0-1.4-0.2-1.9-0.7L498.4,603c-1.3-1.1-1.5-2.9-0.4-4.2c1.1-1.3,2.9-1.5,4.2-0.4l33.3,27.6   c1.3,1.1,1.5,2.9,0.4,4.2C535.4,630.9,534.5,631.3,533.6,631.3L533.6,631.3z" style="fill:#222433;"/>
	<path d="M732.5,839c-1.7,0-3-1.3-3-3c0-0.8,0.3-1.6,0.9-2.1l97.3-97.3c7.7-7.7,20.1-7.7,27.8,0s7.7,20.1,0,27.8   c-1.1,1.1-2.4,2.1-3.8,3l-117.7,71.2C733.6,838.9,733.1,839,732.5,839z M841.6,736.8c-3.6,0-7.1,1.4-9.7,4l-79.8,79.8l96.5-58.4   c6.5-3.9,8.6-12.3,4.7-18.8C850.9,739.3,846.4,736.8,841.6,736.8L841.6,736.8z" style="fill:#222433;"/>
	<path d="M732.5,839c-1.7,0-3-1.3-3-3c0-1.2,0.7-2.2,1.7-2.7l124.4-58.6c9.9-4.6,21.6-0.4,26.2,9.5   c2.6,5.5,2.5,11.9-0.3,17.3c-2.7,5.4-7.7,9.2-13.7,10.4l-134.8,27.1C732.9,839,732.7,839,732.5,839z M864,778.8c-2,0-4,0.4-5.8,1.3   l-102,48.1L866.7,806c4.1-0.8,7.6-3.5,9.5-7.2c3.4-6.7,0.8-15-6-18.4C868.3,779.3,866.2,778.8,864,778.8L864,778.8z" style="fill:#222433;"/>
	<g>
		<path d="M152.3,985c0,0,10.9-28.9,26.1-32.1l78.4-16.2c11.5-2.4,20.8-10.7,24.5-21.8l32.4-97.5h160.6V985l-61.1-0.7    V924l-20.5,60.7L152.3,985z" style="fill:#FFFFFF;"/>
		<path d="M474.3,988L474.3,988l-61.1-0.7c-1.6,0-3-1.4-3-3v-42l-14.7,43.4c-0.4,1.2-1.6,2-2.8,2L152.3,988l0,0    c-1.7,0-3-1.3-3-3c0-0.4,0.1-0.7,0.2-1.1c0.5-1.2,11.7-30.5,28.3-34l78.4-16.2c10.4-2.2,18.9-9.7,22.3-19.8l32.4-97.5    c0.4-1.2,1.6-2.1,2.8-2.1h160.6c1.7,0,3,1.3,3,3V985C477.3,986.7,476,988,474.3,988L474.3,988z M315.9,820.4l-31.7,95.4    c-4.1,12.1-14.2,21.2-26.7,23.8L179,955.9c-9.5,2-18.1,17.1-22.2,26.2l233.7-0.3l19.8-58.7c0.5-1.6,2.2-2.4,3.8-1.9    c1.2,0.4,2,1.6,2,2.8v57.3l55.1,0.6V820.4L315.9,820.4z" style="fill:#222433;"/>
	</g>
	<g>
		<path d="M590.7,456.4l53-295.2c5.3-29.9-14.7-58.4-44.7-63.7c-5.2-0.9-10.5-1.1-15.7-0.5l-265.6,25.4l-47,20    c-1.8,0.8-2,0-4.3,3.9l-75.7,116.1l-57-10l-100,67l153.4,59.2c0.7,0.3,1.4,0.6,2,0.9c26.5,12.6,58.3,1.4,70.9-25.1    c0.9-1.9,1.7-3.8,2.4-5.8l24.3-61.2c2.4,9.2,3.6,7.1,1.9,16l0,0c-6,19.8-5.4,41,1.7,60.4l175-69.3c-7.9-19.1-21.8-35.2-39.6-45.7    l0,0c-7.3-5.4-17.1-21.2-17.1-21.2l114-13.1L500.4,341L590.7,456.4z" style="fill:#FFFFFF;"/>
		<path d="M590.7,459.4c-0.9,0-1.8-0.4-2.4-1.2l-90.3-115.5c-0.5-0.7-0.7-1.5-0.6-2.4L519,218l-105.2,12.1    c3.3,4.8,9.1,12.8,13.6,16.2c18.3,10.9,32.6,27.4,40.7,47c0.6,1.5-0.1,3.3-1.6,3.9c0,0,0,0-0.1,0l-175,69.3    c-1.5,0.6-3.3-0.1-3.9-1.7c0,0,0-0.1,0-0.1c-7.3-20-8-41.8-1.8-62.2c0.7-3.5,0.9-4.9,0.6-6.3l-21.2,53.2c-10,29.4-42,45-71.3,35    c-2.1-0.7-4.1-1.5-6-2.5c-0.7-0.3-1.3-0.6-1.8-0.8L32.6,322.2c-1.5-0.6-2.3-2.3-1.7-3.9c0.2-0.6,0.6-1.1,1.1-1.4l100-67    c0.6-0.4,1.4-0.6,2.2-0.5l55.1,9.7l74.6-114.4c1.9-3.2,2.9-4.2,5-4.8c0.2-0.1,0.4-0.1,0.7-0.2l47-20c0.3-0.1,0.6-0.2,0.9-0.2    l265.6-25.4c31.8-3.6,60.5,19.4,64.1,51.2c0.6,5.5,0.4,11-0.5,16.5l-53,295.2c-0.2,1.2-1.1,2.1-2.2,2.4    C591.2,459.4,591,459.4,590.7,459.4z M503.6,340.2L589,449.3l51.8-288.6c5-28.3-14-55.2-42.2-60.2c-4.9-0.9-9.9-1-14.8-0.5    l-265.2,25.4l-46.5,19.8c-0.4,0.2-0.9,0.3-1.3,0.5c-0.1,0-0.1,0-0.2,0.1c-0.5,0.7-1,1.4-1.4,2.1c0,0,0,0.1-0.1,0.1l-75.7,116.1    c-0.7,1-1.9,1.5-3,1.3l-55.8-9.8l-94.2,63.1l148,57.1c0.7,0.3,1.4,0.6,2.2,1c25,11.9,55,1.3,66.9-23.7c0.8-1.8,1.6-3.6,2.2-5.4    c0,0,0-0.1,0.1-0.1l24.3-61.2c0.6-1.5,2.4-2.3,3.9-1.7c0.9,0.4,1.5,1.1,1.8,2c0.7,2.5,1.2,4.1,1.7,5.4c1.4,4,1.6,5.4,0.3,12    c0,0.1,0,0.2-0.1,0.3c-5.5,18.2-5.3,37.6,0.7,55.6l169.2-67c-7.8-17.3-20.8-31.8-37.1-41.5c-0.1-0.1-0.2-0.1-0.3-0.2    c-7.7-5.7-17.5-21.3-17.9-22c-0.9-1.4-0.4-3.3,1-4.1c0.4-0.2,0.8-0.4,1.2-0.4l114-13.1c1.6-0.2,3.1,1,3.3,2.6c0,0.3,0,0.6,0,0.9    L503.6,340.2z" style="fill:#222433;"/>
	</g>
	<path d="M307.1,841.8c-0.2,0-0.4,0-0.7-0.1l-134.2-30.1c-10.6-2.4-17.3-12.9-15-23.5c2.4-10.6,12.9-17.3,23.5-15   c1.6,0.3,3.1,0.9,4.5,1.6l123.2,61.3c1.5,0.7,2.1,2.5,1.3,4C309.3,841.2,308.2,841.8,307.1,841.8L307.1,841.8z M176.5,778.7   c-7.6,0-13.7,6.1-13.7,13.6c0,6.4,4.5,12,10.7,13.4l110.1,24.7l-101-50.3C180.7,779.2,178.6,778.7,176.5,778.7L176.5,778.7z" style="fill:#222433;"/>
	<path d="M168.5,859.1c-10.9-0.1-19.7-9-19.6-19.9c0-0.7,0-1.4,0.1-2.2c1.3-10.8,11-18.5,21.8-17.3l136.6,16   c1.6,0.2,2.8,1.7,2.6,3.3c-0.2,1.4-1.2,2.5-2.6,2.6l-136.4,17.1C170.2,859,169.4,859.1,168.5,859.1z M168.6,825.7   c-7.6,0-13.7,6.1-13.7,13.6c0,3.7,1.5,7.2,4.1,9.8c3,3,7.1,4.4,11.3,3.8l111.9-14.1l-112.1-13.1   C169.7,825.7,169.2,825.7,168.6,825.7z" style="fill:#222433;"/>
	<g>
		<path d="M93.1,221.7c-6.1,30-13.8,56.2-25.5,58.8c-10.4,2.3-11.8-13.3-8-52.5c-10.6,37.1-16.7,46.7-27.5,48.4    s-12.3-19.8-3.9-48.4C19.8,250.4,18,254.6,11,256.8c-8.4,2.6-9.5-13.3-6.5-28.7l0.1-1.2c2.1-16.7,12.3-20.5,20.6-20.4    c5,0.1,10-0.9,14.6-2.9c4.9-2.3,10.5-2.8,15.8-1.6c5.8,1.5,11.8,1.5,17.6,0c8.2-2.2,17.6-2.6,24,4.5c8.2,9,5.5,23.9,5.5,23.9    l18.9,1.3l-16.7,9.6l45.7-26.2c6.7-3.9,14.1,4,9.7,10.5l-18,26.8c-9.2,6.7-31.4,28.7-50.7,41.5c-4.1,17-22,29.4-42.9,28.4    c-23.3-1-41.4-18.1-40.6-38.1c0.3-7.8,6.1-24.1,10-32.8" style="fill:#FFFFFF;"/>
		<path d="M50.8,325.4c-0.8,0-1.5,0-2.3-0.1c-24.9-1.1-44.4-19.6-43.4-41.2c0.3-5.9,3.3-15.9,6.4-24.4    c-2.5,0.7-5.1,0.1-7.1-1.6c-5.5-4.9-5.1-19-2.9-30.5l0.1-1c0,0,0-0.1,0-0.1c2.6-21,17.4-23.1,23.6-23c4.6,0.1,9.1-0.8,13.3-2.6    c5.6-2.6,11.8-3.2,17.8-1.8c5.3,1.3,10.9,1.3,16.2,0c11.8-3.2,20.9-1.4,27,5.4c6.7,7.3,7,17.9,6.6,23.2l14.9,1l28.1-16.2    c4.9-2.8,11.3-1.1,14.1,3.8c2,3.4,1.8,7.7-0.4,10.9l-18,26.8c-0.2,0.3-0.4,0.5-0.7,0.7c-3.3,2.4-8.4,6.9-14.4,12.2    c-10.4,9.2-23.3,20.6-35.4,28.8C89.3,313.3,71.5,325.4,50.8,325.4z M20.1,254.5c-3.7,8.7-8.7,23.2-9,29.9    c-0.8,18.3,16.1,34,37.7,35c19.3,0.8,36-10.1,39.8-26.1c0.2-0.7,0.6-1.4,1.3-1.8c12-8,25.2-19.6,35.8-28.9    c5.8-5.1,10.9-9.6,14.4-12.2l17.8-26.4c1.3-2,0.8-4.7-1.2-6c-1.4-0.9-3.1-1-4.6-0.2l-28.9,16.6l0,0l-16.7,9.6    c-1.5,0.8-3.3,0.3-4.1-1.2c-0.8-1.4-0.3-3.2,1.1-4l8.2-4.7l-9.1-0.6c-1.7-0.1-2.9-1.6-2.8-3.2c0-0.1,0-0.2,0-0.3    c0-0.1,2.3-13.6-4.8-21.4c-4.5-5-11.4-6.2-21-3.6c-6.3,1.6-12.8,1.6-19.1,0c-4.6-1.1-9.5-0.6-13.9,1.4c-5.1,2.2-10.6,3.3-16.1,3.2    c-7,0-15.5,3.1-17.3,17.7l-0.1,1.1c0,0.1,0,0.2,0,0.3c-2.5,12.9-1.5,22.9,1,25.1c0.2,0.2,0.6,0.5,1.7,0.2c2.1-0.6,4-1.9,5.3-3.7    c0.1-0.3,0.3-0.5,0.5-0.7c2.3-3.6,4.8-10,9.5-22.5c0.6-1.6,2.3-2.3,3.9-1.8c1.5,0.6,2.3,2.1,1.8,3.7c-7,23.9-6.2,39.3-2.5,43.6    c0.7,0.9,1.9,1.3,3,1c8.6-1.4,14.3-8.4,25.1-46.3c0.5-1.6,2.1-2.5,3.7-2.1c1.4,0.4,2.3,1.7,2.2,3.2c-2,20.4-3.6,44.4,1.4,48.8    c0.5,0.4,1.2,0.8,3,0.5c12.3-2.7,20.5-43.2,23.2-56.5c0.3-1.6,1.9-2.7,3.5-2.3c1.6,0.3,2.7,1.9,2.3,3.5l0,0    c-8.2,40.3-16.5,58.6-27.8,61.1c-2.9,0.8-6,0.1-8.2-1.8c-4.1-3.7-5.8-11.8-5.2-28.5C48,271.6,42,277.9,32.6,279.4    c-3.2,0.6-6.4-0.6-8.4-3C20.3,272,19.4,263.9,20.1,254.5z" style="fill:#222433;"/>
	</g>
	<path d="M522.3,219.1c-1.2,0-2.3-0.8-2.8-1.9l-11.2-28.3c-0.6-1.5,0.1-3.3,1.6-3.9s3.3,0.1,3.9,1.6c0,0,0,0,0,0.1   l7.1,17.9l2.9-19.7c0.2-1.6,1.7-2.8,3.4-2.6c1.6,0.2,2.8,1.7,2.6,3.4c0,0,0,0.1,0,0.1l-4.5,30.8c-0.2,1.3-1.3,2.4-2.6,2.5   C522.5,219.1,522.4,219.1,522.3,219.1z" style="fill:#222433;"/>
	<g>
		<path d="M606.9,477.2c2.6,0.4,5.3,0.7,8.2,1.1c30.6,3.9,116.1-7.6,112-28.2c-2.5-12.5-24.2-5.1-66.1-1.9    c36.6-9.3,57.4-38.6,49.9-49.4s-32.2,15.2-60.4,22.5c15.6-12.9,25.9-40,18.6-47.1c-10.6-10.2-24.4,8.7-34.9,20.3    c-23.1,25.7-39.6-8.1-59.9-16.1c-11.6-4.6-27.3-0.3-36.8,10.1" style="fill:#FFFFFF;"/>
		<path d="M629.2,482c-4.8,0-9.7-0.2-14.5-0.8c-2.9-0.4-5.6-0.7-8.2-1.1c-1.6-0.2-2.8-1.7-2.6-3.4s1.7-2.8,3.4-2.6    c2.6,0.4,5.3,0.7,8.2,1.1c27.6,3.5,93.3-5.2,106.7-19.7c2.4-2.6,2-4.4,1.9-5c-1.2-6.1-11-5.2-33-2.6c-8.6,1-18.4,2.2-30,3.1    c-1.7,0.1-3.1-1.1-3.2-2.8c-0.1-1.5,0.8-2.8,2.3-3.1c25.2-6.4,43.2-22.8,48-35.7c1.5-3.9,1.5-7.1,0.1-9.1    c-2.7-3.8-11.9,1.6-22.7,7.8c-9.7,5.6-21.8,12.6-34.5,15.9c-1.6,0.4-3.2-0.5-3.7-2.2c-0.3-1.1,0.1-2.3,1-3.1    c11.4-9.4,19.5-26.5,19.9-36.6c0.1-2.9-0.4-5-1.5-6.1c-1.3-1.4-3-2.1-4.9-2.1c-6.5,0.3-14.9,9.9-21.7,17.7c-1.4,1.6-2.7,3.1-4,4.5    c-17.9,19.9-32.9,7.5-46-3.6c-5.6-4.7-11.4-9.5-17.2-11.8c-10.4-4.2-24.8-0.2-33.5,9.3c-1.1,1.2-3,1.3-4.2,0.2    c-1.2-1.1-1.3-3-0.2-4.2c10.4-11.4,27.3-15.9,40.1-10.8c6.7,2.6,12.8,7.8,18.8,12.7c14.7,12.3,24.4,19,37.8,4.1    c1.3-1.4,2.6-2.9,3.9-4.5c7.9-9.1,16.9-19.4,26-19.7c3.5-0.1,6.9,1.2,9.3,3.7c2.4,2.3,3.5,5.9,3.3,10.6    c-0.3,8.5-5.3,21.4-13.3,31.8c7.4-3.3,14.6-7.1,21.6-11.3c13.9-8,24.8-14.4,30.6-6c2.6,3.7,2.7,8.7,0.5,14.6    c-3.9,10.4-15.2,22.7-31.5,31.4c2.8-0.3,5.5-0.6,8-0.9c11.3-1.3,20.1-2.4,26.5-1.9c2.8,0.2,11.4,0.8,13.1,9.3    c0.5,2.5,0.3,6.3-3.4,10.2C713.3,474.1,660.8,482,629.2,482z" style="fill:#222433;"/>
	</g>
	<path d="M313.7,820.4c-1.2,0-2.3-0.7-2.8-1.9l-88.2-213.1c-5.3-12.9-5.8-27.2-1.4-40.4l67.5-201.6   c0.3-0.8,0.9-1.5,1.7-1.8l173.2-71c1.5-0.6,3.2,0.1,3.9,1.6c0.6,1.5,1.2,2.8,1.7,4.1c0,0.1,0.1,0.1,0.1,0.2l168.6,215.8   c6.4,8.1,11.1,17.4,14.1,27.3l77.5,276.7c0.4,1.6-0.5,3.3-2.1,3.7c-0.3,0.1-0.5,0.1-0.8,0.1H566.2c-1.3,0-2.5-0.9-2.9-2.1   l-65.9-216l-74.8-104l-41.6,90.6l97.3,227.4c0.7,1.5-0.1,3.3-1.6,3.9c-0.4,0.2-0.8,0.2-1.2,0.2L313.7,820.4L313.7,820.4z    M294.1,366.7L227.1,567c-4,11.8-3.5,24.7,1.3,36.2l87.4,211.2l155.4-0.4l-96.1-224.4c-0.3-0.8-0.3-1.7,0-2.4l44.3-96.5   c0.7-1.5,2.5-2.2,4-1.5c0.5,0.2,0.9,0.6,1.2,1l78.1,108.6c0.2,0.3,0.3,0.6,0.4,0.9L568.4,814h154.4l-76.4-272.8   c-2.8-9.2-7.2-17.7-13.1-25.3L465.4,301c-0.6-0.4-1.1-0.9-1.3-1.6c-0.2-0.7-0.5-1.4-0.8-2.1L294.1,366.7z" style="fill:#222433;"/>
	<g>
		<path d="M214,93.8l-2.3-49.4l24-19l44.4,41.3c0-11,8.9-19.9,19.9-19.9c11,0,19.9,8.9,19.9,19.9c0,0,0,0,0,0    c-0.2,11.7-10.2,17.7-10.2,17.7c-0.5,3.5-1.5,6.8-2.8,10.1c-0.4,1-0.8,1.9-1.3,2.8l8.3,21.9l2.7,7.4c1.3,2.9,1.9,6.1,1.9,9.3    c0,14.3-11.6,25.9-25.9,25.9c-10.6,0-20.2-6.5-24.1-16.5l-1.3-3.6l-6.3-16.2c-0.1,0-0.2,0-0.3,0C240,125.5,221.6,113,214,93.8" style="fill:#FFFFFF;"/>
		<path d="M292.6,164.8c-11.9,0-22.6-7.3-26.9-18.4l-1.3-3.7l-5.6-14.2c-21.2-0.6-39.9-13.8-47.6-33.5    c-0.1-0.3-0.2-0.6-0.2-1l-2.3-49.4c0-1,0.4-1.9,1.1-2.5l24-19c1.2-0.9,2.8-0.9,3.9,0.2l40.2,37.3c3.4-12.2,16.1-19.4,28.3-15.9    c3.9,1.1,7.4,3.2,10.2,6c4.2,4.3,6.6,10.1,6.5,16.1c-0.2,10.8-7.5,17.3-10.5,19.5c-0.6,3.2-1.5,6.4-2.8,9.5    c-0.2,0.6-0.5,1.2-0.8,1.8l7.8,20.7l2.7,7.4c1.4,3.3,2.1,6.8,2.1,10.4C321.5,151.8,308.6,164.8,292.6,164.8L292.6,164.8z     M260.9,122.5c1.2,0,2.4,0.8,2.8,1.9l6.3,16.2l1.3,3.7c4.6,11.8,17.9,17.5,29.7,12.9c8.7-3.4,14.5-11.9,14.5-21.3    c0-2.8-0.5-5.5-1.7-8.1c0-0.1,0-0.1-0.1-0.2l-2.7-7.4l-8.3-21.8c-0.3-0.8-0.3-1.6,0.1-2.4c0.5-1,0.9-1.8,1.2-2.7    c1.3-3,2.1-6.2,2.6-9.4c0.1-0.9,0.7-1.6,1.4-2.1c0.3-0.2,8.6-5.4,8.7-15.2c0.1-4.4-1.6-8.6-4.7-11.8c-6.5-6.7-17.3-6.8-24-0.3    c-3.2,3.2-5.1,7.5-5.1,12.1c0,1.7-1.3,3-3,3c-0.8,0-1.5-0.3-2-0.8l-42.5-39.5l-20.8,16.4l2.2,47.3c7.2,17.8,24.5,29.4,43.6,29.3    H260.9z" style="fill:#222433;"/>
	</g>
	<g>
		<path d="M217.1,91.7c-9,7.4-22.3,6.1-29.7-2.9s-6.1-22.3,2.9-29.7c9-7.4,22.3-6.1,29.7,2.9c2.2,2.7,3.7,5.8,4.4,9.2" style="fill:#FFFFFF;"/>
		<path d="M203.7,99.5c-13.3,0-24.1-10.8-24.1-24.1s10.8-24.1,24.1-24.1c11.4,0,21.3,8,23.6,19.2    c0.4,1.6-0.7,3.2-2.3,3.6c-1.6,0.4-3.2-0.7-3.6-2.3c0,0,0-0.1,0-0.1c-2-9.8-11.6-16.1-21.4-14.1c-9.8,2-16.1,11.6-14.1,21.4    c2,9.8,11.6,16.1,21.4,14.1c2.9-0.6,5.6-1.9,7.9-3.8c1.3-1.1,3.2-0.9,4.2,0.4s0.9,3.2-0.4,4.2C214.7,97.6,209.3,99.5,203.7,99.5z" style="fill:#222433;"/>
	</g>
	<path d="M260.6,128.5c-1.7,0-3-1.3-3-3s1.3-3,3-3c7.2-0.1,14.3-1.7,20.8-4.7c1.5-0.7,3.3,0,4,1.5c0.7,1.5,0,3.3-1.5,4   C276.6,126.6,268.6,128.4,260.6,128.5z" style="fill:#222433;"/>
	<path d="M238.8,113.1h-11c-1.7,0-3-1.3-3-3s1.3-3,3-3h11c1.7,0,3,1.3,3,3S240.5,113.1,238.8,113.1L238.8,113.1z" style="fill:#222433;"/>
	<path d="M228.2,100.2c-0.1,0-0.2,0-0.2,0l-12.7-1c-1.7-0.1-2.9-1.6-2.8-3.2c0-0.3,0.1-0.5,0.2-0.8l10.7-30   c0.6-1.6,2.3-2.4,3.8-1.8c1.6,0.6,2.4,2.3,1.8,3.8l0,0l-9.4,26.3l8.8,0.7c1.7,0.1,2.9,1.6,2.8,3.2   C231.1,99,229.8,100.2,228.2,100.2L228.2,100.2z" style="fill:#222433;"/>
	<path d="M292,73.7c-1.7,0-3-1.3-3-3c0-0.6,0.2-1.2,0.5-1.7l9.4-13.6c0.9-1.4,2.8-1.7,4.2-0.8c1.4,0.9,1.7,2.8,0.8,4.2   c0,0,0,0.1-0.1,0.1l-5.8,8.3l9.5-0.9c1.7-0.1,3.1,1.1,3.3,2.7c0.1,1.7-1.1,3.1-2.7,3.3l-15.9,1.4C292.2,73.7,292.1,73.7,292,73.7z" style="fill:#222433;"/>
	<circle cx="203.7" cy="86.6" r="3.7" style="fill:#222433;"/>
	<path d="M278.7,63.2c3.9-13.4,22.2-23.6,34.2-13.5c0.3,0.2,0.5,0.5,0.7,0.7c0.1-0.3,0.1-0.6,0-0.9l-0.4-2.8v-0.1   c0-0.1,0-0.3,0-0.4c-3.8-29.1-30.5-49.6-59.6-45.8c-23.9,3.1-42.7,22-45.8,45.9c-0.2,1.6,1,3.1,2.6,3.3c0.8,0.1,1.6-0.1,2.2-0.6   l17.4-13.7l19.7,17.3c8,6.9,18.1,11,28.6,11.4C278.6,63.8,278.6,63.5,278.7,63.2z" style="fill:#5A38FD;"/>
	<g>
		<circle cx="247.4" cy="75.4" r="21.1" style="fill:#FFFFFF;"/>
		<path d="M247.4,99.5c-13.3,0-24.1-10.8-24.1-24.1c0-13.3,10.8-24.1,24.1-24.1s24.1,10.8,24.1,24.1v0    C271.5,88.7,260.7,99.5,247.4,99.5z M247.4,57.3c-10,0-18.1,8.1-18.1,18.1c0,10,8.1,18.1,18.1,18.1c10,0,18.1-8.1,18.1-18.1v0    C265.5,65.4,257.4,57.3,247.4,57.3z" style="fill:#222433;"/>
	</g>
	<circle cx="247.4" cy="86.6" r="3.7" style="fill:#222433;"/>
</g>
<g>
	<path d="M300.5,89.6c-1.7,0-3-1.3-3-3s1.3-3,3-3c9.4,0,17-7.6,17-17c0-9.4-7.6-17-17-17c-9.4,0-17,7.6-17,17   c0,1.7-1.3,3-3,3s-3-1.3-3-3c0-12.7,10.3-23,23-23s23,10.3,23,23S313.1,89.6,300.5,89.6z" style="fill:#222433;"/>
</g>

            </g>
        </g>
    </g>
    
    <!-- ITEM 1 -->
    <g>
        <defs>
            <clipPath id="clip-path-id-crop-item-1">
                
          <rect transform="scale(1.5034666666666665 1.5046831955922866)" x="0.0" y="0.0" width="374.0" height="360.0"/>
        
            </clipPath>
            
            <clipPath id="clip-path-id-viewbox-item-1">
                <rect x="0.0" y="0.0" width="563.8" height="546.2"/>
            </clipPath>
        </defs>
        <g clip-path="url(#clip-path-id-crop-item-1)" transform="translate(91.0 325.0) rotate(0.0 187.5 181.5) scale(0.6651294785384889 0.6645917246429879)">
            <g clip-path="url(#clip-path-id-viewbox-item-1)" transform="translate(-0.0 -0.0)">
                
  
  <g>
    <g>
      <circle cx="312.7" cy="152.3" r="38.4" style="         fill: #fff;       "/>
      <path d="M312.7,193.7a41.4,41.4,0,1,1,41.4-41.4A41.447,41.447,0,0,1,312.7,193.7Zm0-76.8a35.4,35.4,0,1,0,35.4,35.4A35.44,35.44,0,0,0,312.7,116.9Z" style="         fill: #222433;       "/>
    </g>
    <g>
      <path d="M203,262.6V250.5a46.062,46.062,0,0,0-10.4-29.1l-4.9-6h99.1l-4.9,6a46.062,46.062,0,0,0-10.4,29.1v12.1a34.185,34.185,0,0,1-34.2,34.2h0A34.206,34.206,0,0,1,203,262.6Z" style="         fill: #fff;       "/>
      <path d="M237.1,299.8A37.208,37.208,0,0,1,200,262.6V250.5a43.118,43.118,0,0,0-9.723-27.2l-4.9-6a3,3,0,0,1,2.324-4.9h99.1a3,3,0,0,1,2.324,4.9l-4.9,6a43.118,43.118,0,0,0-9.724,27.2v12.1a37.243,37.243,0,0,1-37.2,37.2Zm-43.077-81.4.9,1.1A49.135,49.135,0,0,1,206,250.5v12.1a31.207,31.207,0,0,0,31.117,31.2h.167A31.239,31.239,0,0,0,268.5,262.6V250.5a49.137,49.137,0,0,1,11.077-31l.9-1.1Z" style="         fill: #222433;       "/>
    </g>
    <path d="M497.4,358.3a3,3,0,0,1-3-3V168.1a3,3,0,0,1,6,0V355.3A3,3,0,0,1,497.4,358.3Z" style="         fill: #222433;       "/>
    <path d="M538.5,167.3h-82a25.3,25.3,0,0,1,0-50.6h82a25.3,25.3,0,0,1,0,50.6ZM456.4,137a5.1,5.1,0,1,0,0,10.2h82a5.1,5.1,0,1,0,0-10.2Z" style="         fill: #5a38fd;       "/>
    <g>
      <path d="M533.3,235.1c-9.3,0-35.9-16.9-35.9-16.9s26.6-16.9,35.9-16.9a16.9,16.9,0,1,1,0,33.8Z" style="         fill: #fff;       "/>
      <path d="M533.3,238.1c-9.887,0-34.711-15.591-37.509-17.368a3,3,0,0,1,0-5.064c2.8-1.778,27.622-17.368,37.509-17.368a19.9,19.9,0,1,1,0,39.8Zm-30.194-19.9c10.258,6.184,24.826,13.9,30.194,13.9a13.9,13.9,0,1,0,0-27.8C527.932,204.3,513.364,212.015,503.106,218.2Z" style="         fill: #222433;       "/>
    </g>
    <g>
      <path d="M461.6,235.1c9.3,0,35.9-16.9,35.9-16.9s-26.6-16.9-35.9-16.9a16.9,16.9,0,0,0,0,33.8Z" style="         fill: #fff;       "/>
      <path d="M461.6,238.1a19.9,19.9,0,0,1,0-39.8c9.887,0,34.711,15.59,37.509,17.368a3,3,0,0,1,0,5.064C496.311,222.509,471.487,238.1,461.6,238.1Zm0-33.8a13.9,13.9,0,0,0,0,27.8c5.368,0,19.936-7.716,30.195-13.9C481.536,212.015,466.968,204.3,461.6,204.3Z" style="         fill: #222433;       "/>
    </g>
    <g>
      <path d="M198.4,3h0a10.605,10.605,0,0,0-10.6,10.6A10.605,10.605,0,0,0,177.2,3h0a10.605,10.605,0,0,0-10.6,10.6A10.605,10.605,0,0,0,156,3h0a10.605,10.605,0,0,0-10.6,10.6A10.605,10.605,0,0,0,134.8,3h0a10.605,10.605,0,0,0-10.6,10.6A10.605,10.605,0,0,0,113.6,3h0A10.605,10.605,0,0,0,103,13.6V58.1a53.176,53.176,0,0,0,53.2,53.2h0a53.176,53.176,0,0,0,53.2-53.2V13.6A11.231,11.231,0,0,0,198.4,3Z" style="         fill: #fff;       "/>
      <path d="M156.2,114.3A56.263,56.263,0,0,1,100,58.1V13.6a13.595,13.595,0,0,1,24.2-8.511,13.584,13.584,0,0,1,21.2,0,13.584,13.584,0,0,1,21.2,0,13.584,13.584,0,0,1,21.2,0A13.579,13.579,0,0,1,198.4,0a14.24,14.24,0,0,1,13.993,13.394c0,.069.007.138.007.206V58.1A56.263,56.263,0,0,1,156.2,114.3ZM113.6,6a7.608,7.608,0,0,0-7.6,7.6V58.1a50.2,50.2,0,0,0,100.4,0V13.712A8.218,8.218,0,0,0,198.4,6a7.608,7.608,0,0,0-7.6,7.6,3,3,0,0,1-6,0,7.6,7.6,0,0,0-15.2,0,3,3,0,0,1-6,0,7.6,7.6,0,0,0-15.2,0,3,3,0,0,1-6,0,7.6,7.6,0,1,0-15.2,0,3,3,0,0,1-6,0A7.608,7.608,0,0,0,113.6,6Z" style="         fill: #222433;       "/>
    </g>
    <path d="M70.7,358.3a3,3,0,0,1-3-3V150.1a3,3,0,0,1,6,0V355.3A3,3,0,0,1,70.7,358.3Z" style="         fill: #222433;       "/>
    <circle cx="70.7" cy="150.1" r="26.6" style="         fill: #82b1ff;       "/>
    <circle cx="97.3" cy="207.8" r="26.6" style="         fill: #82b1ff;       "/>
    <circle cx="44" cy="207.8" r="26.6" style="         fill: #82b1ff;       "/>
    <circle cx="97.3" cy="266.9" r="26.6" style="         fill: #82b1ff;       "/>
    <circle cx="44" cy="266.9" r="26.6" style="         fill: #82b1ff;       "/>
    <path d="M237.3,358.3a3,3,0,0,1-3-3V280.176a3,3,0,0,1,6,0V355.3A3,3,0,0,1,237.3,358.3Z" style="         fill: #222433;       "/>
    <path d="M237.3,218a2.994,2.994,0,0,1-2.165-.923l-18.8-19.6a3,3,0,1,1,4.33-4.154l18.8,19.6A3,3,0,0,1,237.3,218Z" style="         fill: #222433;       "/>
    <path d="M237.3,218a3,3,0,0,1-3-3V188.9a3,3,0,0,1,6,0v18.639l13.635-14.216a3,3,0,0,1,4.33,4.154l-18.8,19.6A3,3,0,0,1,237.3,218Z" style="         fill: #222433;       "/>
    <path d="M312.7,358.3a3,3,0,0,1-3-3V190.7a3,3,0,0,1,6,0V355.3A3,3,0,0,1,312.7,358.3Z" style="         fill: #222433;       "/>
    <path d="M312.7,161.3a41.573,41.573,0,0,1-37.545-23.932,3,3,0,0,1,5.439-2.535,35.415,35.415,0,0,0,64.212,0,3,3,0,1,1,5.438,2.535A41.569,41.569,0,0,1,312.7,161.3Z" style="         fill: #222433;       "/>
    <path d="M328.7,157.7a3,3,0,0,1-1.256-.277,41.3,41.3,0,0,1-23.605-43.51,3,3,0,0,1,5.936.873,35.3,35.3,0,0,0,20.185,37.189,3,3,0,0,1-1.26,5.725Z" style="         fill: #222433;       "/>
    <path d="M392.8,358.3a3,3,0,0,1-3-3V335.9a3,3,0,0,1,6,0v19.4A3,3,0,0,1,392.8,358.3Z" style="         fill: #222433;       "/>
    <path d="M392.7,184.3h-.01a3,3,0,0,1-2.99-3.011l.1-29a3,3,0,0,1,3-2.989h.01a3,3,0,0,1,2.99,3.01l-.1,29A3,3,0,0,1,392.7,184.3Z" style="         fill: #222433;       "/>
    <path d="M392.7,184.3a3,3,0,0,1-2.742-1.78l-11.8-26.5a3,3,0,0,1,5.482-2.441l11.8,26.5a3,3,0,0,1-2.74,4.221Z" style="         fill: #222433;       "/>
    <path d="M392.7,184.3a3,3,0,0,1-2.735-4.229l11.9-26.5a3,3,0,0,1,5.474,2.457l-11.9,26.5A3,3,0,0,1,392.7,184.3Z" style="         fill: #222433;       "/>
    <g>
      <path d="M418.5,268.1l-25.8,25.8-25.8-25.8a43.215,43.215,0,0,1,0-61l25.8-25.8,25.8,25.8A43.034,43.034,0,0,1,418.5,268.1Z" style="         fill: #fff;       "/>
      <path d="M392.7,296.9a2.988,2.988,0,0,1-2.121-.879l-25.8-25.8a46.276,46.276,0,0,1-.006-65.236l25.806-25.806a3,3,0,0,1,4.242,0l25.8,25.8a46.033,46.033,0,0,1,0,65.242h0l-25.8,25.8A2.989,2.989,0,0,1,392.7,296.9Zm0-111.357-23.679,23.678a40.268,40.268,0,0,0,0,56.758L392.7,289.658l23.679-23.679h0a40.034,40.034,0,0,0,.006-56.751ZM418.5,268.1h0Z" style="         fill: #222433;       "/>
    </g>
    <g>
      <circle cx="392.8" cy="314.9" r="21" style="         fill: #fff;       "/>
      <path d="M392.8,338.9a24,24,0,1,1,24-24A24.027,24.027,0,0,1,392.8,338.9Zm0-42a18,18,0,1,0,18,18A18.021,18.021,0,0,0,392.8,296.9Z" style="         fill: #222433;       "/>
    </g>
    <g>
      <rect x="3" y="355.3" width="542.5" height="187.9" style="         fill: #fff;       "/>
      <path d="M545.5,546.2H3a3,3,0,0,1-3-3V355.3a3,3,0,0,1,3-3H545.5a3,3,0,0,1,3,3V543.2A3,3,0,0,1,545.5,546.2ZM6,540.2H542.5V358.3H6Z" style="         fill: #222433;       "/>
    </g>
    <path d="M545.5,392.8H3a3,3,0,0,1,0-6H545.5a3,3,0,0,1,0,6Z" style="         fill: #222433;       "/>
    <path d="M187.7,57.6a3,3,0,0,1-3-3V12.8a3,3,0,0,1,6,0V54.6A3,3,0,0,1,187.7,57.6Z" style="         fill: #222433;       "/>
    <path d="M166.5,57.6a3,3,0,0,1-3-3V12.8a3,3,0,0,1,6,0V54.6A3,3,0,0,1,166.5,57.6Z" style="         fill: #222433;       "/>
    <path d="M145.2,57.6a3,3,0,0,1-3-3V12.8a3,3,0,0,1,6,0V54.6A3,3,0,0,1,145.2,57.6Z" style="         fill: #222433;       "/>
    <path d="M123.9,57.6a3,3,0,0,1-3-3V12.8a3,3,0,0,1,6,0V54.6A3,3,0,0,1,123.9,57.6Z" style="         fill: #222433;       "/>
    <path d="M155.8,358.3a3,3,0,0,1-3-3V82.2a3,3,0,1,1,6,0V355.3A3,3,0,0,1,155.8,358.3Z" style="         fill: #222433;       "/>
  </g>

            </g>
        </g>
    </g>
    
    <!-- ITEM 2 -->
    <g>
        <defs>
            <clipPath id="clip-path-id-crop-item-2">
                
          <rect transform="scale(1.4936746987951806 1.493625498007968)" x="0.0" y="0.0" width="332.0" height="499.0"/>
        
            </clipPath>
            
            <clipPath id="clip-path-id-viewbox-item-2">
                <rect x="0.0" y="0.0" width="495.9" height="749.8"/>
            </clipPath>
        </defs>
        <g clip-path="url(#clip-path-id-crop-item-2)" transform="translate(508.0 186.0) rotate(0.0 166.0 251.0) scale(0.6694898164952612 0.6695118698319552)">
            <g clip-path="url(#clip-path-id-viewbox-item-2)" transform="translate(-0.0 -0.0)">
                
  
  <g>
    <g>
      <path d="M492.9,300.5,426.5,151.8V3H202.054c-6.914,27.467-14.235,40.446-23.6,42.528a11.535,11.535,0,0,1-2.506.287,8.444,8.444,0,0,1-5.737-2.117c-4.146-3.672-5.8-11.806-5.229-28.5-6.829,18.452-12.8,24.786-22.212,26.269a8.915,8.915,0,0,1-8.445-3.009c-3.866-4.4-4.806-12.789-4.035-22.426a14.945,14.945,0,0,1-8.187,5.733,7.489,7.489,0,0,1-7.492-1.459c-3.479-3.122-4.6-9.859-4.4-17.3H3V151.8L69.4,300.5,3,449.3,69.4,598.1,3,746.8H426.5l66.4-148.7L426.5,449.3Z" style="         fill: #fff;       "/>
      <path d="M426.5,749.8H3a3,3,0,0,1-2.739-4.224L66.115,598.1.26,450.522a3,3,0,0,1,0-2.445L66.115,300.5.261,153.023A3,3,0,0,1,0,151.8V3A3,3,0,0,1,3,0H110.213a3,3,0,0,1,3,3.082c-.2,7.4,1.037,12.867,3.4,14.988a4.49,4.49,0,0,0,4.6.826,11.936,11.936,0,0,0,6.661-4.652,3,3,0,0,1,5.4,2.025c-.777,9.722.394,16.9,3.3,20.207A5.911,5.911,0,0,0,142.3,38.5c7.3-1.149,12.89-5.5,19.863-24.346a3,3,0,0,1,5.812,1.144c-.517,15.046.784,23.111,4.22,26.154A6.066,6.066,0,0,0,177.8,42.6c8.086-1.8,14.868-14.614,21.342-40.332A3,3,0,0,1,202.054,0H426.5a3,3,0,0,1,3,3V151.16l66.139,148.116a3,3,0,0,1,0,2.447L429.785,449.3,495.64,596.877a3,3,0,0,1,0,2.446l-66.4,148.7A3,3,0,0,1,426.5,749.8Zm-418.875-6H424.554l65.061-145.7L423.76,450.522a3,3,0,0,1,0-2.445L489.615,300.5,423.761,153.023a3,3,0,0,1-.261-1.223V6H204.383c-7.116,27.373-14.726,40.11-25.281,42.457a14.657,14.657,0,0,1-3.157.358,11.445,11.445,0,0,1-7.727-2.871c-3.456-3.061-5.391-8.239-6.069-16.842-5.214,9.644-10.921,14.067-18.916,15.326a11.946,11.946,0,0,1-11.165-3.992c-3.211-3.658-4.892-9.536-5.022-17.523A21.224,21.224,0,0,1,123,24.624,10.531,10.531,0,0,1,112.6,22.535c-3.412-3.061-5.224-8.616-5.4-16.535H6V151.16L72.139,299.276a3,3,0,0,1,0,2.447L6.285,449.3,72.14,596.877a3,3,0,0,1,0,2.446Z" style="         fill: #222433;       "/>
    </g>
    <path d="M426.5,153.8H3a3,3,0,0,1,0-6H426.5a3,3,0,0,1,0,6Z" style="         fill: #222433;       "/>
    <path d="M426.5,451.3H3a3,3,0,0,1,0-6H426.5a3,3,0,0,1,0,6Z" style="         fill: #222433;       "/>
    <path d="M492.9,302.6H69.4a3,3,0,1,1,0-6H492.9a3,3,0,0,1,0,6Z" style="         fill: #222433;       "/>
    <path d="M490.9,600.1H69.4a3,3,0,1,1,0-6H490.9a3,3,0,0,1,0,6Z" style="         fill: #222433;       "/>
  </g>

            </g>
        </g>
    </g>
    
    <!-- ITEM 3 -->
    <g>
        <defs>
            <clipPath id="clip-path-id-viewbox-item-3">
                <rect x="0.0" y="0.0" width="1626.4" height="11.4"/>
            </clipPath>
        </defs>
        <g transform="translate(76.0 682.0) rotate(0.0 559.0 4.0) scale(0.6874077717658632 0.7017543859649122)">
            <g clip-path="url(#clip-path-id-viewbox-item-3)" transform="translate(-0.0 -0.0)">
                

<path d="M1623.4,8.8H3c-1.7,0-3-1.3-3-3s1.3-3,3-3h1620.4c1.7,0,3,1.3,3,3S1625.1,8.8,1623.4,8.8z" style="fill:#222433;"/>

            </g>
        </g>
    </g>
    
</svg>