<?xml version="1.0" encoding="UTF-8" standalone="no" ?>
<!DOCTYPE svg PUBLIC "-//W3C//DTD SVG 1.1//EN" "http://www.w3.org/Graphics/SVG/1.1/DTD/svg11.dtd">
<svg xmlns="http://www.w3.org/2000/svg" xmlns:xlink="http://www.w3.org/1999/xlink" version="1.1" width="1280" height="1024" viewBox="0 0 1280 1024" xml:space="preserve">
<desc>Created with Fabric.js 5.3.0</desc>
<defs>
</defs>
<g transform="matrix(1 0 0 1 640 512)" id="background-logo"  >
<rect style="stroke: none; stroke-width: 0; stroke-dasharray: none; stroke-linecap: butt; stroke-dashoffset: 0; stroke-linejoin: miter; stroke-miterlimit: 4; fill: rgb(255,255,255); fill-opacity: 0; fill-rule: nonzero; opacity: 1;"  paint-order="stroke"  x="-640" y="-512" rx="0" ry="0" width="1280" height="1024" />
</g>
<g transform="matrix(1.5334007627024429 0 0 1.5334007627024429 161.1706416414758 512.2275249492732)" id="logo-logo"  >
<g style=""  paint-order="stroke"   >
		<g transform="matrix(0.8960637085803521 0 0 0.8960637085803521 5.684342e-14 -1.858276587452366)"  >
<linearGradient id="SVGID_90_92150" gradientUnits="userSpaceOnUse" gradientTransform="matrix(1 0 0 1 168.6704712 148.0000000749999)"  x1="0" y1="0" x2="0" y2="200">
<stop offset="0%" style="stop-color:rgb(101,121,155);stop-opacity: 1"/>
<stop offset="100%" style="stop-color:rgb(94,37,99);stop-opacity: 1"/>
</linearGradient>
<path style="stroke: none; stroke-width: 1; stroke-dasharray: none; stroke-linecap: butt; stroke-dashoffset: 0; stroke-linejoin: miter; stroke-miterlimit: 4; fill: url(#SVGID_90_92150); fill-rule: nonzero; opacity: 1;"  paint-order="stroke"  transform=" translate(-250.00000000000006, -247.92617808749992)" d="M 168.6704712 197.2176514 C 168.6704712 199.1287079 169.6902466 200.8950653 171.3453064 201.850586 L 244.6489563 244.17291269999998 L 244.6489563 287.80548109999995 L 244.6489563 347.85235609999995 C 248.5330505 347.19705209999995 252.4452515 346.54190079999995 255.34838870000002 346.06701669999995 L 255.34838870000002 287.805481 L 255.34838870000002 241.08428959999998 C 255.34838870000002 239.17321779999997 254.32861330000003 237.40687569999997 252.67355350000003 236.45133979999997 L 184.71960450000003 197.21765139999997 L 199.34667970000004 188.77252199999995 L 272.65087890000007 231.09483339999994 C 273.47842410000004 231.57286069999995 274.40206910000006 231.81161499999993 275.32574460000006 231.81161499999993 C 276.2493896000001 231.81161499999993 277.17306520000005 231.57286069999992 278.0005798000001 231.09483339999994 L 303.3276367000001 216.47192389999995 L 328.6546631000001 201.84954839999995 C 330.3097534000001 200.89401249999995 331.3295288000001 199.12767029999995 331.3295288000001 197.21661379999995 C 331.3295288000001 195.30554199999995 330.3097534000001 193.53919989999994 328.6546631000001 192.58366399999994 L 252.67562870000012 148.71704109999993 C 251.02056890000011 147.76098639999992 248.9809876000001 147.76098639999992 247.32592780000013 148.71704109999993 L 221.99938970000014 163.33995059999992 C 220.34432990000013 164.29547119999992 219.32455450000015 166.06182869999992 219.32455450000015 167.97288519999992 C 219.32455450000015 169.88394169999992 220.34432990000013 171.65029909999993 221.99938970000014 172.60581979999992 L 251.45224000000013 190.10681159999993 C 250.71453860000014 191.58732609999993 250.31423950000013 193.17231759999993 250.31423950000013 194.81028759999992 C 250.31423950000013 198.9965363999999 252.85116580000013 202.86254899999992 257.2746277000001 205.41619889999993 C 260.9865112000001 207.55921949999993 265.6413880000001 208.63073749999992 270.2962647000001 208.63073749999992 C 274.9511414000001 208.63073749999992 279.6060181000001 207.55921959999992 283.3179322000001 205.41619889999993 C 287.74188240000007 202.86254899999992 290.27880870000007 198.99653639999994 290.27880870000007 194.80975359999994 C 290.27935800000006 190.62298599999994 287.74188240000007 186.75645459999993 283.3184510000001 184.20278949999994 C 276.8169556000001 180.44924949999995 267.4230042000001 179.98349019999995 260.2027283000001 182.80436729999994 L 235.3736878000001 167.97288539999994 L 250.00076300000012 159.52722189999994 L 315.28039560000013 197.21661399999994 L 297.9779054000001 207.20605489999994 L 275.3257448000001 220.28465289999994 L 202.0215456000001 177.96232619999995 C 200.3664858000001 177.00627149999994 198.3269045000001 177.00627149999994 196.67184470000012 177.96232619999995 L 171.34530660000013 192.58471689999996 C 169.6902466 193.5402527 168.6704712 195.3065948 168.6704712 197.2176514 z M 261.0444946 194.8097534 C 261.1766662 194.57675170000002 261.6139526 194.05223080000002 262.6253967 193.4686737 C 266.7113342 191.10884090000002 273.8817444 191.10884090000002 277.9687195 193.4686737 C 278.979126 194.05223080000002 279.41690070000004 194.5762329 279.5485535 194.80923460000002 C 279.41690070000004 195.0422363 278.979126 195.5667572 277.9682007 196.15032960000002 C 273.8817444 198.50962830000003 266.7108154 198.50962830000003 262.6243286 196.15032960000002 C 261.6139526 195.5667572 261.1766663 195.0427704 261.0444946 194.8097534 z" stroke-linecap="round" />
</g>
		<g transform="matrix(0.8960637085803521 0 0 0.8960637085803521 35.30007813932053 27.6435161261999)"  >
<linearGradient id="SVGID_91_92151" gradientUnits="userSpaceOnUse" gradientTransform="matrix(1 0 0 1 247.45758060000003 209.69989007499998)"  x1="0" y1="0" x2="0" y2="142">
<stop offset="0%" style="stop-color:rgb(250,217,97);stop-opacity: 1"/>
<stop offset="100%" style="stop-color:rgb(247,107,28);stop-opacity: 1"/>
</linearGradient>
<path style="stroke: none; stroke-width: 1; stroke-dasharray: none; stroke-linecap: butt; stroke-dashoffset: 0; stroke-linejoin: miter; stroke-miterlimit: 4; fill: url(#SVGID_91_92151); fill-rule: nonzero; opacity: 1;"  paint-order="stroke"  transform=" translate(-289.39460755, -280.8499450375)" d="M 247.4575806 345.2250977 C 247.4575806 345.2250977 247.5913086 348.301178 247.7919312 348.434906 C 247.9925537 348.5686646 250 351.999939 250 351.999939 C 250.0004578 351.999939 250.0008545 352 250.0013123 352 C 250.9249573 352 251.84863289999998 351.7607117 252.67614749999998 351.2832336 L 278.0026856 336.6603088 C 279.6577454 335.7042541 280.6775513 333.938446 280.6775513 332.0273742 L 280.6775513 247.383255 L 303.3302613 234.30519099999998 L 320.6322022 224.31575009999997 L 320.6322022 299.69396969999997 L 306.0050965 308.13858029999994 L 306.0050965 278.4752806999999 C 312.0583497 273.6320189999999 316.35241709999997 265.26339719999993 316.35241709999997 257.75723259999995 C 316.35241709999997 252.64938349999994 314.27313239999995 248.51956169999994 310.64746099999996 246.42616269999996 C 307.01968389999996 244.33172609999997 302.40344239999996 244.59712219999997 297.98052979999994 247.15077209999995 C 290.5567626999999 251.43786619999995 284.95837399999994 261.13421629999993 284.95837399999994 269.70526119999994 C 284.95837399999994 274.81256099999996 287.03765869999995 278.94293209999995 290.66333009999994 281.0357970999999 C 292.08148199999994 281.8550414999999 293.6557616999999 282.2908934999999 295.30566409999994 282.3923644999999 L 295.30566409999994 317.40448 C 295.30566409999994 319.3155213 296.32546999999994 321.0813599 297.98052979999994 322.0374146 C 298.8080749999999 322.5149231 299.73171999999994 322.75418099999996 300.65539549999994 322.75418099999996 C 301.57904049999996 322.75418099999996 302.50271609999993 322.51492319999994 303.33026119999994 322.0374146 L 328.65676879999995 307.41555789999995 C 330.31182859999996 306.4595032 331.33163449999995 304.6936646 331.33163449999995 302.7825928 L 331.33163449999995 215.04986569999997 C 331.33163449999995 213.13880919999997 330.31182859999996 211.37246699999997 328.65676879999995 210.41693109999997 C 327.00170899999995 209.46087639999996 324.96212769999994 209.46087639999996 323.30703739999996 210.41693109999997 L 297.98052979999994 225.03932179999998 L 272.65295409999993 239.6616973 C 270.9978942999999 240.6172332 269.9781188999999 242.38357539999998 269.9781188999999 244.29463189999998 L 269.9781188999999 328.93875119999996 L 255.35101319999993 337.38439939999995 L 255.35101319999993 337.38302609999994 L 250 340.4722595 L 247.4575806 345.2250977 z M 305.6529846 257.7572327 C 305.6529846 262.4758301 302.0680542 268.6854859 297.9805298 271.0458374 C 296.9680481 271.6299133 296.3139649 271.73336789999996 296.0287171 271.7438049 C 295.8928834 271.5128784 295.6578065 270.8723755 295.6578065 269.7052612 C 295.6578065 264.9866638 299.2427369 258.777008 303.3302613 256.4166565 C 304.3437806 255.83152769999998 305.0030823 255.6889038 305.282074 255.71868899999998 C 305.4178772 255.9496002 305.6529846 256.5901184 305.6529846 257.7572327 z" stroke-linecap="round" />
</g>
		<g transform="matrix(0.8960637085803521 0 0 0.8960637085803521 -36.43916301748584 27.643516171003142)"  >
<linearGradient id="SVGID_92_92152" gradientUnits="userSpaceOnUse" gradientTransform="matrix(1 0 0 1 168.6683655 209.69989017499995)"  x1="0" y1="0" x2="0" y2="142">
<stop offset="0%" style="stop-color:rgb(23,234,217);stop-opacity: 1"/>
<stop offset="100%" style="stop-color:rgb(96,120,234);stop-opacity: 1"/>
</linearGradient>
<path style="stroke: none; stroke-width: 1; stroke-dasharray: none; stroke-linecap: butt; stroke-dashoffset: 0; stroke-linejoin: miter; stroke-miterlimit: 4; fill: url(#SVGID_92_92152); fill-rule: nonzero; opacity: 1;"  paint-order="stroke"  transform=" translate(-209.33418275, -280.8499450875)" d="M 168.6683655 215.0498657 L 168.6683655 302.7825928 C 168.6683655 304.6936646 169.68814089999998 306.4595032 171.3432312 307.41555789999995 L 196.6697388 322.0374146 C 197.497284 322.5149231 198.420929 322.75418099999996 199.3446045 322.75418099999996 C 200.2682495 322.75418099999996 201.1919251 322.51492319999994 202.0194702 322.0374146 C 203.67453 321.0813599 204.6943054 319.3155213 204.6943054 317.40448 L 204.6943054 282.3923645 C 206.3442383 282.2908936 207.91851799999998 281.85504149999997 209.3366699 281.03579709999997 C 212.9623413 278.94293209999995 215.041626 274.81256099999996 215.041626 269.7052612 C 215.041626 261.1342163 209.44323730000002 251.4378662 202.0194702 247.15077209999998 C 197.5965271 244.59712219999997 192.9803161 244.33172609999997 189.352539 246.4261627 C 185.72686760000002 248.5195617 183.6475829 252.6493835 183.6475829 257.7572326 C 183.6475829 265.2633972 187.9416503 273.632019 193.9948729 278.4752807 L 193.9948729 308.1385803 L 179.36779769999998 299.6939697 L 179.36779769999998 224.31575010000003 L 196.6697386 234.30519100000004 L 219.32244859999997 247.38325500000005 L 219.32244859999997 332.0273743 C 219.32244859999997 333.9384461 220.34225449999997 335.70425420000004 221.99731429999997 336.6603089 L 247.32382189999998 351.28323370000004 C 248.1513672 351.7607117 249.0750122 352 249.9986877 352 C 249.9991455 352 249.9995422 351.999939 250 351.999939 L 250 340.4722596 L 244.6489563 337.38302619999996 L 244.6489563 337.3843995 L 230.0218811 328.9387513 L 230.0218811 244.294632 C 230.0218811 242.3835755 229.00210570000002 240.6172333 227.3470154 239.6616974 L 202.0194702 225.0393219 L 176.6929321 210.4169312 C 175.0378723 209.46087649999998 172.998291 209.46087649999998 171.34323120000002 210.4169312 C 169.6881409 211.372467 168.6683655 213.1388092 168.6683655 215.0498657 z M 194.3470154 257.7572327 C 194.3470154 256.5901184 194.5820923 255.9496003 194.717926 255.71868899999998 C 194.9969177 255.6889038 195.6562195 255.83152769999998 196.6697387 256.4166565 C 200.75726310000002 258.7770081 204.3421935 264.9866638 204.3421935 269.7052612 C 204.3421935 270.8723755 204.1071166 271.5128784 203.9712829 271.7438049 C 203.6860351 271.73336789999996 203.0319213 271.6299133 202.0194702 271.0458374 C 197.9319458 268.6854858 194.3470154 262.4758301 194.3470154 257.7572327 z" stroke-linecap="round" />
</g>
</g>
</g>
<g transform="matrix(1.9211538461538462 0 0 1.9211538461538462 782.0820913909477 473.6458793700949)" id="text-logo"  >
<g style=""  paint-order="stroke"   >
		<g transform="matrix(1 0 0 1 -5.684342e-14 0)" id="text-logo-path-0"  >
<path style="stroke: none; stroke-width: 0; stroke-dasharray: none; stroke-linecap: butt; stroke-dashoffset: 0; stroke-linejoin: miter; stroke-miterlimit: 4; fill: rgb(255,255,255); fill-rule: nonzero; opacity: 1;"  paint-order="stroke"  transform=" translate(-234.745, 10.695)" d="M 15.5 -5.39 L 15.5 0 L 1.3 0 L 0.99 -2.57 Q 1.4 -3.1 2.7 -3.6 L 2.7 -3.6 L 2.7 -17.76 Q 1.43 -18.23 0.99 -18.82 L 0.99 -18.82 L 1.3 -21.39 L 8.56 -21.39 L 8.87 -18.82 Q 8.37 -18.23 7.16 -17.76 L 7.16 -17.76 L 7.16 -3.38 L 12.06 -3.38 Q 12.46 -4.99 13.21 -5.67 L 13.21 -5.67 L 15.5 -5.39 Z M 23.06 -21.39 L 30.32 -21.39 L 30.63 -18.82 Q 30.13 -18.23 28.92 -17.76 L 28.92 -17.76 L 28.92 -3.6 Q 30.16 -3.1 30.63 -2.57 L 30.63 -2.57 L 30.32 0 L 23.06 0 L 22.75 -2.57 Q 23.16 -3.1 24.46 -3.6 L 24.46 -3.6 L 24.46 -17.76 Q 23.19 -18.23 22.75 -18.82 L 22.75 -18.82 L 23.06 -21.39 Z M 43.8 -11.69 L 43.8 -11.69 L 43.8 -3.53 Q 44.95 -3.1 45.51 -2.39 L 45.51 -2.39 L 45.2 0 L 39.12 0 L 38.81 -2.39 Q 39.37 -3.1 40.52 -3.53 L 40.52 -3.53 L 40.52 -17.86 Q 39.25 -18.32 38.75 -19 L 38.75 -19 L 39.06 -21.39 L 45.45 -21.39 L 51.62 -9.36 Q 52.3 -8.06 52.95 -5.89 L 52.95 -5.89 L 53.16 -5.15 L 53.51 -5.27 Q 53.07 -7.97 53.07 -9.8 L 53.07 -9.8 L 53.07 -17.82 Q 51.96 -18.26 51.37 -19 L 51.37 -19 L 51.68 -21.39 L 57.75 -21.39 L 58.06 -19 Q 57.47 -18.26 56.36 -17.82 L 56.36 -17.82 L 56.36 0 L 51.49 0 L 45.26 -12.12 Q 44.58 -13.42 43.93 -15.62 L 43.93 -15.62 L 43.71 -16.34 L 43.37 -16.21 Q 43.8 -13.52 43.8 -11.69 Z M 84.66 -2.57 L 84.35 0 L 79.2 0 L 72.32 -11.16 L 77.5 -18.04 Q 76.63 -18.45 76.29 -18.88 L 76.29 -18.88 L 76.6 -21.39 L 83.67 -21.39 L 83.98 -18.88 Q 83.55 -18.38 82.37 -17.89 L 82.37 -17.89 L 77 -11.28 L 81.9 -3.91 Q 83.92 -3.47 84.66 -2.57 L 84.66 -2.57 Z M 66.28 -21.39 L 73.53 -21.39 L 73.84 -18.82 Q 73.35 -18.23 72.14 -17.76 L 72.14 -17.76 L 72.14 -3.6 Q 73.38 -3.1 73.84 -2.57 L 73.84 -2.57 L 73.53 0 L 66.28 0 L 65.97 -2.57 Q 66.37 -3.1 67.67 -3.6 L 67.67 -3.6 L 67.67 -17.76 Q 66.4 -18.23 65.97 -18.82 L 65.97 -18.82 L 66.28 -21.39 Z M 91.92 -21.39 L 98.95 -21.39 Q 102.61 -21.39 104.27 -20.94 Q 105.93 -20.49 106.64 -19.87 L 106.64 -19.87 Q 108.22 -18.51 108.22 -15.69 L 108.22 -15.69 Q 108.22 -13.58 105.96 -11.69 L 105.96 -11.69 Q 108.84 -10.23 108.84 -6.26 L 108.84 -6.26 Q 108.84 -3.16 106.81 -1.66 Q 104.78 -0.15 100.75 0 L 100.75 0 L 91.92 0 L 91.61 -2.57 Q 92.01 -3.1 93.31 -3.6 L 93.31 -3.6 L 93.31 -17.76 Q 92.04 -18.23 91.61 -18.82 L 91.61 -18.82 L 91.92 -21.39 Z M 100.53 -9.27 L 100.53 -9.27 L 97.77 -9.27 L 97.77 -3.38 L 99.91 -3.38 Q 102.02 -3.38 103.11 -4 Q 104.19 -4.62 104.19 -6.23 Q 104.19 -7.84 103.34 -8.56 Q 102.49 -9.27 100.53 -9.27 Z M 99.39 -18.01 L 99.39 -18.01 L 97.77 -18.01 L 97.77 -12.65 L 100.32 -12.65 Q 101.9 -12.65 102.73 -13.45 Q 103.57 -14.26 103.57 -15.42 Q 103.57 -16.59 102.98 -17.17 Q 102.39 -17.76 101.62 -17.89 Q 100.84 -18.01 99.39 -18.01 Z M 133.7 -15.13 L 133.7 -15.13 Q 133.7 -13.02 132.39 -11.59 Q 131.07 -10.17 129.08 -9.42 L 129.08 -9.42 Q 130.63 -8.77 131.13 -7.84 L 131.13 -7.84 L 133.39 -3.53 Q 134.85 -3.04 135.38 -2.39 L 135.38 -2.39 L 135.07 0 L 129.83 0 L 126.26 -7.59 Q 125.77 -8.74 125.12 -8.74 L 125.12 -8.74 L 123.1 -8.74 L 123.1 -3.78 Q 125.36 -3.29 125.92 -2.57 L 125.92 -2.57 L 125.61 0 L 117.24 0 L 116.93 -2.57 Q 117.33 -3.1 118.64 -3.6 L 118.64 -3.6 L 118.64 -17.76 Q 117.37 -18.23 116.93 -18.82 L 116.93 -18.82 L 117.24 -21.39 L 125.15 -21.39 Q 129.49 -21.33 131.59 -20 Q 133.7 -18.66 133.7 -15.13 Z M 124.93 -18.01 L 124.93 -18.01 L 123.1 -18.01 L 123.1 -12.12 L 124.87 -12.12 Q 126.98 -12.12 128.01 -12.76 Q 129.05 -13.39 129.05 -15.04 Q 129.05 -16.68 128 -17.34 Q 126.94 -18.01 124.93 -18.01 Z M 142.91 -21.39 L 150.16 -21.39 L 150.47 -18.82 Q 149.98 -18.23 148.77 -17.76 L 148.77 -17.76 L 148.77 -3.6 Q 150.01 -3.1 150.47 -2.57 L 150.47 -2.57 L 150.16 0 L 142.91 0 L 142.6 -2.57 Q 143 -3.1 144.3 -3.6 L 144.3 -3.6 L 144.3 -17.76 Q 143.03 -18.23 142.6 -18.82 L 142.6 -18.82 L 142.91 -21.39 Z M 170.03 -17.73 L 170.03 -17.73 Q 169.1 -18.14 167.24 -18.14 Q 165.38 -18.14 164.24 -16.52 Q 163.09 -14.91 163.09 -10.88 Q 163.09 -6.85 164.19 -5.16 Q 165.29 -3.47 167.46 -3.47 L 167.46 -3.47 Q 170.78 -3.47 173.41 -4.46 L 173.41 -4.46 L 174.53 -1.71 Q 171.24 0.25 166.81 0.25 Q 162.38 0.25 160.41 -2.26 Q 158.44 -4.77 158.44 -10.48 Q 158.44 -16.18 160.87 -18.91 Q 163.31 -21.64 167.71 -21.64 L 167.71 -21.64 Q 171.24 -21.64 174.44 -19.68 L 174.44 -19.68 Q 174.44 -19.5 174.44 -18.97 Q 174.44 -18.45 174.22 -17.17 Q 174 -15.9 173.6 -15.1 L 173.6 -15.1 L 170.65 -15.1 Q 170.22 -15.93 170.03 -17.73 Z M 201.07 -2.57 L 200.76 0 L 195.61 0 L 188.73 -11.16 L 193.9 -18.04 Q 193.04 -18.45 192.7 -18.88 L 192.7 -18.88 L 193.01 -21.39 L 200.07 -21.39 L 200.38 -18.88 Q 199.95 -18.38 198.77 -17.89 L 198.77 -17.89 L 193.41 -11.28 L 198.31 -3.91 Q 200.32 -3.47 201.07 -2.57 L 201.07 -2.57 Z M 182.68 -21.39 L 189.94 -21.39 L 190.25 -18.82 Q 189.75 -18.23 188.54 -17.76 L 188.54 -17.76 L 188.54 -3.6 Q 189.78 -3.1 190.25 -2.57 L 190.25 -2.57 L 189.94 0 L 182.68 0 L 182.37 -2.57 Q 182.78 -3.1 184.08 -3.6 L 184.08 -3.6 L 184.08 -17.76 Q 182.81 -18.23 182.37 -18.82 L 182.37 -18.82 L 182.68 -21.39 Z M 217.56 -18.01 L 217.56 -18.01 Q 216.5 -18.29 215.36 -18.29 Q 214.21 -18.29 213.51 -17.72 Q 212.81 -17.14 212.81 -16.1 Q 212.81 -15.07 213.34 -14.48 Q 213.87 -13.89 215.42 -13.45 L 215.42 -13.45 L 218.18 -12.65 Q 220.41 -12 221.73 -10.62 Q 223.04 -9.24 223.04 -6.57 L 223.04 -6.57 Q 223.04 -3.41 220.77 -1.58 Q 218.49 0.25 215.11 0.25 L 215.11 0.25 Q 213.25 0.25 211.28 -0.23 Q 209.31 -0.71 208.01 -1.58 L 208.01 -1.58 Q 208.01 -1.77 208.01 -2.29 Q 208.01 -2.82 208.23 -4.09 Q 208.44 -5.36 208.85 -6.17 L 208.85 -6.17 L 211.79 -6.17 Q 212.29 -5.21 212.38 -3.6 L 212.38 -3.6 Q 213.47 -3.13 214.91 -3.13 Q 216.35 -3.13 217.28 -3.81 Q 218.21 -4.5 218.21 -5.77 L 218.21 -5.77 Q 218.21 -6.35 218.12 -6.74 Q 218.02 -7.13 217.54 -7.58 Q 217.06 -8.03 216.16 -8.31 L 216.16 -8.31 L 212.97 -9.24 Q 208.1 -10.63 208.1 -15.44 L 208.1 -15.44 Q 208.1 -18.26 210.15 -19.95 Q 212.19 -21.64 215.5 -21.64 Q 218.8 -21.64 221.96 -20.15 L 221.96 -20.15 Q 221.96 -19.96 221.96 -19.44 Q 221.96 -18.91 221.74 -17.64 Q 221.53 -16.37 221.12 -15.56 L 221.12 -15.56 L 218.18 -15.56 Q 217.65 -16.31 217.56 -18.01 Z M 257.05 -3.6 L 257.05 -9.8 L 250.23 -9.8 L 250.23 -3.6 Q 251.47 -3.1 251.94 -2.57 L 251.94 -2.57 L 251.63 0 L 244.37 0 L 244.06 -2.57 Q 244.47 -3.1 245.77 -3.6 L 245.77 -3.6 L 245.77 -17.76 Q 244.5 -18.23 244.06 -18.82 L 244.06 -18.82 L 244.37 -21.39 L 251.63 -21.39 L 251.94 -18.82 Q 251.44 -18.23 250.23 -17.76 L 250.23 -17.76 L 250.23 -12.9 L 257.05 -12.9 L 257.05 -17.76 Q 255.78 -18.23 255.35 -18.82 L 255.35 -18.82 L 255.66 -21.39 L 262.91 -21.39 L 263.22 -18.82 Q 262.72 -18.23 261.52 -17.76 L 261.52 -17.76 L 261.52 -3.6 Q 262.76 -3.1 263.22 -2.57 L 263.22 -2.57 L 262.91 0 L 255.66 0 L 255.35 -2.57 Q 255.75 -3.1 257.05 -3.6 L 257.05 -3.6 Z M 280.12 0.25 Q 275.71 0.25 273.53 -2.29 Q 271.34 -4.84 271.34 -10.52 Q 271.34 -16.21 273.75 -18.93 Q 276.15 -21.64 280.6 -21.64 Q 285.04 -21.64 287.23 -19.22 Q 289.42 -16.8 289.42 -11.13 Q 289.42 -5.46 286.97 -2.6 Q 284.52 0.25 280.12 0.25 Z M 277.11 -16.52 Q 275.99 -14.91 275.99 -10.91 Q 275.99 -6.91 277.17 -5.08 Q 278.35 -3.25 280.41 -3.25 Q 282.47 -3.25 283.62 -4.98 Q 284.77 -6.7 284.77 -10.7 L 284.77 -10.7 Q 284.77 -18.14 280.3 -18.14 L 280.3 -18.14 Q 278.22 -18.14 277.11 -16.52 Z M 314.31 -15.13 L 314.31 -15.13 Q 314.31 -13.02 312.99 -11.59 Q 311.67 -10.17 309.69 -9.42 L 309.69 -9.42 Q 311.24 -8.77 311.74 -7.84 L 311.74 -7.84 L 314 -3.53 Q 315.46 -3.04 315.98 -2.39 L 315.98 -2.39 L 315.67 0 L 310.43 0 L 306.87 -7.59 Q 306.37 -8.74 305.72 -8.74 L 305.72 -8.74 L 303.71 -8.74 L 303.71 -3.78 Q 305.97 -3.29 306.53 -2.57 L 306.53 -2.57 L 306.22 0 L 297.85 0 L 297.54 -2.57 Q 297.94 -3.1 299.24 -3.6 L 299.24 -3.6 L 299.24 -17.76 Q 297.97 -18.23 297.54 -18.82 L 297.54 -18.82 L 297.85 -21.39 L 305.75 -21.39 Q 310.09 -21.33 312.2 -20 Q 314.31 -18.66 314.31 -15.13 Z M 305.54 -18.01 L 305.54 -18.01 L 303.71 -18.01 L 303.71 -12.12 L 305.47 -12.12 Q 307.58 -12.12 308.62 -12.76 Q 309.66 -13.39 309.66 -15.04 Q 309.66 -16.68 308.6 -17.34 Q 307.55 -18.01 305.54 -18.01 Z M 323.52 -21.39 L 330.77 -21.39 L 331.08 -18.82 Q 330.58 -18.23 329.37 -17.76 L 329.37 -17.76 L 329.37 -3.6 Q 330.61 -3.1 331.08 -2.57 L 331.08 -2.57 L 330.77 0 L 323.52 0 L 323.21 -2.57 Q 323.61 -3.1 324.91 -3.6 L 324.91 -3.6 L 324.91 -17.76 Q 323.64 -18.23 323.21 -18.82 L 323.21 -18.82 L 323.52 -21.39 Z M 346.61 -18.29 L 346.61 -18.29 L 343.73 -18.29 Q 343.51 -16.59 342.95 -15.62 L 342.95 -15.62 L 340.01 -15.81 Q 339.33 -16.99 339.33 -19.47 L 339.33 -19.47 Q 339.33 -20.52 339.54 -21.39 L 339.54 -21.39 L 354.64 -21.39 L 354.95 -18.94 L 345.96 -5.46 Q 345.12 -4.15 344.22 -3.41 L 344.22 -3.41 L 343.88 -3.16 L 344.04 -2.82 Q 345.46 -3.1 347.08 -3.1 L 347.08 -3.1 L 350.86 -3.1 Q 351.07 -4.8 351.63 -5.77 L 351.63 -5.77 L 354.58 -5.58 Q 355.26 -4.4 355.26 -1.92 L 355.26 -1.92 Q 355.26 -0.87 355.04 0 L 355.04 0 L 339.05 0 L 338.74 -2.45 L 347.73 -15.93 Q 348.56 -17.24 349.49 -17.98 L 349.49 -17.98 L 349.8 -18.23 L 349.65 -18.57 Q 348.22 -18.29 346.61 -18.29 Z M 371.69 0.25 Q 367.29 0.25 365.1 -2.29 Q 362.92 -4.84 362.92 -10.52 Q 362.92 -16.21 365.32 -18.93 Q 367.72 -21.64 372.17 -21.64 Q 376.62 -21.64 378.8 -19.22 Q 380.99 -16.8 380.99 -11.13 Q 380.99 -5.46 378.54 -2.6 Q 376.09 0.25 371.69 0.25 Z M 368.68 -16.52 Q 367.57 -14.91 367.57 -10.91 Q 367.57 -6.91 368.74 -5.08 Q 369.92 -3.25 371.98 -3.25 Q 374.05 -3.25 375.19 -4.98 Q 376.34 -6.7 376.34 -10.7 L 376.34 -10.7 Q 376.34 -18.14 371.88 -18.14 L 371.88 -18.14 Q 369.8 -18.14 368.68 -16.52 Z M 394.1 -11.69 L 394.1 -11.69 L 394.1 -3.53 Q 395.25 -3.1 395.81 -2.39 L 395.81 -2.39 L 395.5 0 L 389.42 0 L 389.11 -2.39 Q 389.67 -3.1 390.82 -3.53 L 390.82 -3.53 L 390.82 -17.86 Q 389.55 -18.32 389.05 -19 L 389.05 -19 L 389.36 -21.39 L 395.75 -21.39 L 401.91 -9.36 Q 402.6 -8.06 403.25 -5.89 L 403.25 -5.89 L 403.46 -5.15 L 403.81 -5.27 Q 403.37 -7.97 403.37 -9.8 L 403.37 -9.8 L 403.37 -17.82 Q 402.26 -18.26 401.67 -19 L 401.67 -19 L 401.98 -21.39 L 408.05 -21.39 L 408.36 -19 Q 407.77 -18.26 406.66 -17.82 L 406.66 -17.82 L 406.66 0 L 401.79 0 L 395.56 -12.12 Q 394.88 -13.42 394.23 -15.62 L 394.23 -15.62 L 394.01 -16.34 L 393.67 -16.21 Q 394.1 -13.52 394.1 -11.69 Z M 423.8 -6.82 L 423.8 -6.82 L 416.67 -6.82 L 416.36 -8.8 Q 417.32 -9.89 419.15 -9.89 L 419.15 -9.89 L 426.28 -9.89 L 426.59 -7.91 Q 425.66 -6.82 423.8 -6.82 Z M 441.28 -21.54 L 445.53 -21.54 L 451.7 -3.66 Q 453 -3.19 453.53 -2.57 L 453.53 -2.57 L 453.22 0 L 445.97 0 L 445.66 -2.57 Q 446.03 -3.07 447.14 -3.5 L 447.14 -3.5 L 446.31 -6.11 L 440.11 -6.11 L 439.33 -3.6 Q 440.42 -3.16 440.94 -2.57 L 440.94 -2.57 L 440.63 0 L 433.57 0 L 433.26 -2.57 Q 433.81 -3.29 435.33 -3.75 L 435.33 -3.75 L 441.28 -21.54 Z M 443.39 -17.2 L 442.96 -17.2 Q 442.96 -15.31 442.18 -12.8 L 442.18 -12.8 L 440.97 -8.96 L 445.41 -8.96 L 444.23 -12.74 Q 443.52 -14.91 443.42 -16.68 L 443.42 -16.68 L 443.39 -17.2 Z M 460.94 -21.39 L 468.19 -21.39 L 468.5 -18.82 Q 468.01 -18.23 466.8 -17.76 L 466.8 -17.76 L 466.8 -3.6 Q 468.04 -3.1 468.5 -2.57 L 468.5 -2.57 L 468.19 0 L 460.94 0 L 460.63 -2.57 Q 461.03 -3.1 462.33 -3.6 L 462.33 -3.6 L 462.33 -17.76 Q 461.06 -18.23 460.63 -18.82 L 460.63 -18.82 L 460.94 -21.39 Z" stroke-linecap="round" />
</g>
</g>
</g>
<g transform="matrix(1.9211538461538462 0 0 1.9211538461538462 607.5420359642814 552.0621864131874)" id="tagline-7bc26ad4-1aff-48e7-9ff0-798b5c60e9ac-logo"  >
<g style=""  paint-order="stroke"   >
		<g transform="matrix(1 0 0 1 0 0)" id="tagline-7bc26ad4-1aff-48e7-9ff0-798b5c60e9ac-logo-path-0"  >
<linearGradient id="SVGID_92153" gradientUnits="userSpaceOnUse" gradientTransform="matrix(1 0 0 1 0.5800000000000125 -12.56)"  x1="-0.5759999999999934" y1="-3.2605200000000423" x2="-0.5759999999999934" y2="16.739479999999958">
<stop offset="0%" style="stop-color:rgb(91,36,122);stop-opacity: 1"/>
<stop offset="100%" style="stop-color:rgb(27,206,223);stop-opacity: 1"/>
</linearGradient>
<path style="stroke: none; stroke-width: 0; stroke-dasharray: none; stroke-linecap: butt; stroke-dashoffset: 0; stroke-linejoin: miter; stroke-miterlimit: 4; fill: url(#SVGID_92153); fill-rule: nonzero; opacity: 1;"  paint-order="stroke"  transform=" translate(-144.92000000000002, 6.21)" d="M 0.76 -12.42 L 4.84 -12.42 Q 6.97 -12.42 7.93 -12.16 Q 8.89 -11.9 9.31 -11.54 L 9.31 -11.54 Q 10.22 -10.75 10.22 -9.11 L 10.22 -9.11 Q 10.22 -7.88 8.91 -6.79 L 8.91 -6.79 Q 10.58 -5.94 10.58 -3.64 L 10.58 -3.64 Q 10.58 -1.84 9.41 -0.96 Q 8.23 -0.09 5.89 0 L 5.89 0 L 0.76 0 L 0.58 -1.49 Q 0.81 -1.8 1.57 -2.09 L 1.57 -2.09 L 1.57 -10.31 Q 0.83 -10.58 0.58 -10.93 L 0.58 -10.93 L 0.76 -12.42 Z M 5.76 -5.38 L 5.76 -5.38 L 4.16 -5.38 L 4.16 -1.96 L 5.4 -1.96 Q 6.62 -1.96 7.25 -2.32 Q 7.88 -2.68 7.88 -3.62 Q 7.88 -4.55 7.39 -4.97 Q 6.89 -5.38 5.76 -5.38 Z M 5.09 -10.46 L 5.09 -10.46 L 4.16 -10.46 L 4.16 -7.34 L 5.63 -7.34 Q 6.55 -7.34 7.04 -7.81 Q 7.52 -8.28 7.52 -8.96 Q 7.52 -9.63 7.18 -9.97 Q 6.84 -10.31 6.39 -10.39 Q 5.94 -10.46 5.09 -10.46 Z M 27.41 -3.13 L 27.41 0 L 19.06 0 L 18.88 -1.49 Q 19.12 -1.8 19.87 -2.09 L 19.87 -2.09 L 19.87 -10.31 Q 19.13 -10.58 18.88 -10.93 L 18.88 -10.93 L 19.06 -12.42 L 27.27 -12.42 L 27.27 -9.29 L 25.94 -9.13 Q 25.52 -9.49 25.27 -10.46 L 25.27 -10.46 L 22.46 -10.46 L 22.46 -7.36 L 24.97 -7.36 Q 25.18 -7.9 25.42 -8.12 L 25.42 -8.12 L 26.55 -7.99 L 26.55 -4.79 L 25.42 -4.64 Q 25.18 -4.82 24.97 -5.4 L 24.97 -5.4 L 22.46 -5.4 L 22.46 -1.96 L 25.42 -1.96 Q 25.65 -2.9 26.08 -3.29 L 26.08 -3.29 L 27.41 -3.13 Z M 42.8 -1.49 L 42.62 0 L 38.41 0 L 38.23 -1.49 Q 38.47 -1.8 39.22 -2.09 L 39.22 -2.09 L 39.22 -4.16 L 36.29 -10.26 Q 35.44 -10.55 35.14 -10.93 L 35.14 -10.93 L 35.3 -12.33 L 35.3 -12.35 L 35.32 -12.42 L 39.53 -12.42 L 39.71 -10.93 Q 39.49 -10.62 38.88 -10.39 L 38.88 -10.39 L 39.49 -9 Q 40.01 -7.81 40.39 -6.64 L 40.39 -6.64 L 40.52 -6.28 L 40.79 -6.28 Q 41.17 -7.6 41.78 -9 L 41.78 -9 L 42.35 -10.31 Q 41.63 -10.6 41.38 -10.93 L 41.38 -10.93 L 41.56 -12.42 L 45.67 -12.42 L 45.85 -10.93 Q 45.49 -10.51 44.66 -10.24 L 44.66 -10.24 L 41.81 -4.16 L 41.81 -2.09 Q 42.53 -1.8 42.8 -1.49 L 42.8 -1.49 Z M 58.18 0.14 Q 55.62 0.14 54.35 -1.33 Q 53.08 -2.81 53.08 -6.11 Q 53.08 -9.41 54.48 -10.99 Q 55.87 -12.56 58.46 -12.56 Q 61.04 -12.56 62.31 -11.16 Q 63.58 -9.76 63.58 -6.46 Q 63.58 -3.17 62.15 -1.51 Q 60.73 0.14 58.18 0.14 Z M 56.43 -9.59 Q 55.78 -8.66 55.78 -6.34 Q 55.78 -4.01 56.47 -2.95 Q 57.15 -1.89 58.35 -1.89 Q 59.54 -1.89 60.21 -2.89 Q 60.88 -3.89 60.88 -6.21 L 60.88 -6.21 Q 60.88 -10.53 58.28 -10.53 L 58.28 -10.53 Q 57.08 -10.53 56.43 -9.59 Z M 74.79 -6.79 L 74.79 -6.79 L 74.79 -2.05 Q 75.46 -1.8 75.78 -1.39 L 75.78 -1.39 L 75.6 0 L 72.07 0 L 71.89 -1.39 Q 72.22 -1.8 72.88 -2.05 L 72.88 -2.05 L 72.88 -10.37 Q 72.14 -10.64 71.86 -11.03 L 71.86 -11.03 L 72.04 -12.42 L 75.74 -12.42 L 79.33 -5.44 Q 79.72 -4.68 80.1 -3.42 L 80.1 -3.42 L 80.23 -2.99 L 80.42 -3.06 Q 80.17 -4.63 80.17 -5.69 L 80.17 -5.69 L 80.17 -10.35 Q 79.52 -10.6 79.18 -11.03 L 79.18 -11.03 L 79.36 -12.42 L 82.89 -12.42 L 83.07 -11.03 Q 82.73 -10.6 82.08 -10.35 L 82.08 -10.35 L 82.08 0 L 79.25 0 L 75.64 -7.04 Q 75.24 -7.79 74.86 -9.07 L 74.86 -9.07 L 74.74 -9.49 L 74.54 -9.41 Q 74.79 -7.85 74.79 -6.79 Z M 96.03 0 L 96.03 0 L 91.44 0 L 91.26 -1.49 Q 91.49 -1.8 92.25 -2.09 L 92.25 -2.09 L 92.25 -10.31 Q 91.51 -10.58 91.26 -10.93 L 91.26 -10.93 L 91.44 -12.42 L 95.45 -12.42 Q 98.35 -12.42 100.05 -10.8 Q 101.75 -9.18 101.75 -6.04 Q 101.75 -2.9 100.22 -1.45 Q 98.68 0 96.03 0 Z M 94.84 -10.46 L 94.84 -1.96 L 96.14 -1.96 Q 97.49 -1.96 98.27 -2.78 Q 99.05 -3.6 99.05 -5.96 L 99.05 -5.96 Q 99.05 -10.46 95.65 -10.46 L 95.65 -10.46 L 94.84 -10.46 Z M 126.52 -10.53 L 126.52 -10.53 Q 125.3 -10.53 124.62 -9.59 Q 123.95 -8.66 123.95 -6.34 L 123.95 -6.34 Q 123.95 -1.89 126.4 -1.89 L 126.4 -1.89 Q 127.37 -1.89 128.12 -2.2 L 128.12 -2.2 L 128.12 -4.23 Q 127.3 -4.5 126.99 -4.9 L 126.99 -4.9 L 127.17 -6.32 L 131.38 -6.32 L 131.56 -4.9 Q 131.33 -4.61 130.72 -4.34 L 130.72 -4.34 L 130.72 -1.01 Q 129.85 -0.38 128.82 -0.12 Q 127.78 0.14 126.23 0.14 L 126.23 0.14 Q 123.66 0.14 122.45 -1.32 Q 121.25 -2.79 121.25 -6.09 Q 121.25 -9.4 122.68 -10.98 Q 124.11 -12.56 126.6 -12.56 Q 129.1 -12.56 130.68 -11.43 L 130.68 -11.43 Q 130.68 -11.32 130.68 -11.02 Q 130.68 -10.71 130.55 -9.97 Q 130.43 -9.23 130.19 -8.77 L 130.19 -8.77 L 128.54 -8.77 Q 128.27 -9.27 128.18 -10.26 L 128.18 -10.26 Q 127.4 -10.53 126.52 -10.53 Z M 148.18 -3.13 L 148.18 0 L 139.82 0 L 139.64 -1.49 Q 139.88 -1.8 140.63 -2.09 L 140.63 -2.09 L 140.63 -10.31 Q 139.9 -10.58 139.64 -10.93 L 139.64 -10.93 L 139.82 -12.42 L 148.03 -12.42 L 148.03 -9.29 L 146.7 -9.13 Q 146.29 -9.49 146.03 -10.46 L 146.03 -10.46 L 143.23 -10.46 L 143.23 -7.36 L 145.73 -7.36 Q 145.94 -7.9 146.18 -8.12 L 146.18 -8.12 L 147.31 -7.99 L 147.31 -4.79 L 146.18 -4.64 Q 145.94 -4.82 145.73 -5.4 L 145.73 -5.4 L 143.23 -5.4 L 143.23 -1.96 L 146.18 -1.96 Q 146.41 -2.9 146.84 -3.29 L 146.84 -3.29 L 148.18 -3.13 Z M 159.44 -6.79 L 159.44 -6.79 L 159.44 -2.05 Q 160.11 -1.8 160.43 -1.39 L 160.43 -1.39 L 160.25 0 L 156.73 0 L 156.55 -1.39 Q 156.87 -1.8 157.54 -2.05 L 157.54 -2.05 L 157.54 -10.37 Q 156.8 -10.64 156.51 -11.03 L 156.51 -11.03 L 156.69 -12.42 L 160.4 -12.42 L 163.98 -5.44 Q 164.38 -4.68 164.75 -3.42 L 164.75 -3.42 L 164.88 -2.99 L 165.08 -3.06 Q 164.83 -4.63 164.83 -5.69 L 164.83 -5.69 L 164.83 -10.35 Q 164.18 -10.6 163.84 -11.03 L 163.84 -11.03 L 164.02 -12.42 L 167.54 -12.42 L 167.72 -11.03 Q 167.38 -10.6 166.73 -10.35 L 166.73 -10.35 L 166.73 0 L 163.91 0 L 160.29 -7.04 Q 159.89 -7.79 159.52 -9.07 L 159.52 -9.07 L 159.39 -9.49 L 159.19 -9.41 Q 159.44 -7.85 159.44 -6.79 Z M 184.45 -3.13 L 184.45 0 L 176.09 0 L 175.91 -1.49 Q 176.15 -1.8 176.9 -2.09 L 176.9 -2.09 L 176.9 -10.31 Q 176.17 -10.58 175.91 -10.93 L 175.91 -10.93 L 176.09 -12.42 L 184.3 -12.42 L 184.3 -9.29 L 182.97 -9.13 Q 182.56 -9.49 182.3 -10.46 L 182.3 -10.46 L 179.5 -10.46 L 179.5 -7.36 L 182 -7.36 Q 182.21 -7.9 182.45 -8.12 L 182.45 -8.12 L 183.58 -7.99 L 183.58 -4.79 L 182.45 -4.64 Q 182.21 -4.82 182 -5.4 L 182 -5.4 L 179.5 -5.4 L 179.5 -1.96 L 182.45 -1.96 Q 182.68 -2.9 183.11 -3.29 L 183.11 -3.29 L 184.45 -3.13 Z M 202.55 -8.78 L 202.55 -8.78 Q 202.55 -7.56 201.79 -6.73 Q 201.02 -5.9 199.87 -5.47 L 199.87 -5.47 Q 200.77 -5.09 201.06 -4.55 L 201.06 -4.55 L 202.37 -2.05 Q 203.22 -1.76 203.53 -1.39 L 203.53 -1.39 L 203.35 0 L 200.3 0 L 198.23 -4.41 Q 197.95 -5.08 197.57 -5.08 L 197.57 -5.08 L 196.4 -5.08 L 196.4 -2.2 Q 197.71 -1.91 198.04 -1.49 L 198.04 -1.49 L 197.86 0 L 193 0 L 192.82 -1.49 Q 193.05 -1.8 193.81 -2.09 L 193.81 -2.09 L 193.81 -10.31 Q 193.07 -10.58 192.82 -10.93 L 192.82 -10.93 L 193 -12.42 L 197.59 -12.42 Q 200.11 -12.38 201.33 -11.61 Q 202.55 -10.84 202.55 -8.78 Z M 197.46 -10.46 L 197.46 -10.46 L 196.4 -10.46 L 196.4 -7.04 L 197.42 -7.04 Q 198.65 -7.04 199.25 -7.41 Q 199.85 -7.78 199.85 -8.73 Q 199.85 -9.68 199.24 -10.07 Q 198.63 -10.46 197.46 -10.46 Z M 215.3 -12.51 L 217.76 -12.51 L 221.35 -2.12 Q 222.1 -1.85 222.41 -1.49 L 222.41 -1.49 L 222.23 0 L 218.02 0 L 217.84 -1.49 Q 218.05 -1.78 218.7 -2.03 L 218.7 -2.03 L 218.21 -3.55 L 214.61 -3.55 L 214.16 -2.09 Q 214.79 -1.84 215.1 -1.49 L 215.1 -1.49 L 214.92 0 L 210.82 0 L 210.64 -1.49 Q 210.96 -1.91 211.84 -2.18 L 211.84 -2.18 L 215.3 -12.51 Z M 216.52 -9.99 L 216.27 -9.99 Q 216.27 -8.89 215.82 -7.43 L 215.82 -7.43 L 215.12 -5.2 L 217.69 -5.2 L 217.01 -7.4 Q 216.59 -8.66 216.54 -9.68 L 216.54 -9.68 L 216.52 -9.99 Z M 228.49 -12.4 L 238.57 -12.4 L 238.57 -9.83 L 237.44 -9.68 Q 237.2 -9.86 236.99 -10.44 L 236.99 -10.44 L 234.83 -10.44 L 234.83 -2.09 Q 235.55 -1.8 235.82 -1.49 L 235.82 -1.49 L 235.64 0 L 231.43 0 L 231.25 -1.49 Q 231.48 -1.8 232.24 -2.09 L 232.24 -2.09 L 232.24 -10.44 L 230.08 -10.44 Q 229.86 -9.86 229.63 -9.68 L 229.63 -9.68 L 228.49 -9.83 L 228.49 -12.4 Z M 246.67 -12.42 L 250.88 -12.42 L 251.06 -10.93 Q 250.78 -10.58 250.07 -10.31 L 250.07 -10.31 L 250.07 -2.09 Q 250.79 -1.8 251.06 -1.49 L 251.06 -1.49 L 250.88 0 L 246.67 0 L 246.49 -1.49 Q 246.73 -1.8 247.48 -2.09 L 247.48 -2.09 L 247.48 -10.31 Q 246.74 -10.58 246.49 -10.93 L 246.49 -10.93 L 246.67 -12.42 Z M 264.37 0.14 Q 261.81 0.14 260.54 -1.33 Q 259.27 -2.81 259.27 -6.11 Q 259.27 -9.41 260.67 -10.99 Q 262.06 -12.56 264.64 -12.56 Q 267.23 -12.56 268.5 -11.16 Q 269.77 -9.76 269.77 -6.46 Q 269.77 -3.17 268.34 -1.51 Q 266.92 0.14 264.37 0.14 Z M 262.62 -9.59 Q 261.97 -8.66 261.97 -6.34 Q 261.97 -4.01 262.66 -2.95 Q 263.34 -1.89 264.54 -1.89 Q 265.73 -1.89 266.4 -2.89 Q 267.07 -3.89 267.07 -6.21 L 267.07 -6.21 Q 267.07 -10.53 264.47 -10.53 L 264.47 -10.53 Q 263.27 -10.53 262.62 -9.59 Z M 280.98 -6.79 L 280.98 -6.79 L 280.98 -2.05 Q 281.65 -1.8 281.97 -1.39 L 281.97 -1.39 L 281.79 0 L 278.26 0 L 278.08 -1.39 Q 278.41 -1.8 279.07 -2.05 L 279.07 -2.05 L 279.07 -10.37 Q 278.33 -10.64 278.05 -11.03 L 278.05 -11.03 L 278.23 -12.42 L 281.93 -12.42 L 285.52 -5.44 Q 285.91 -4.68 286.29 -3.42 L 286.29 -3.42 L 286.42 -2.99 L 286.61 -3.06 Q 286.36 -4.63 286.36 -5.69 L 286.36 -5.69 L 286.36 -10.35 Q 285.71 -10.6 285.37 -11.03 L 285.37 -11.03 L 285.55 -12.42 L 289.08 -12.42 L 289.26 -11.03 Q 288.92 -10.6 288.27 -10.35 L 288.27 -10.35 L 288.27 0 L 285.44 0 L 281.83 -7.04 Q 281.43 -7.79 281.05 -9.07 L 281.05 -9.07 L 280.93 -9.49 L 280.73 -9.41 Q 280.98 -7.85 280.98 -6.79 Z" stroke-linecap="round" />
</g>
</g>
</g>
</svg>